<?xml version="1.0" standalone="no"?>
<!DOCTYPE svg PUBLIC "-//W3C//DTD SVG 1.1//EN" "http://www.w3.org/Graphics/SVG/1.1/DTD/svg11.dtd" >
<svg xmlns="http://www.w3.org/2000/svg">
<metadata></metadata>
<defs>
<font id="gothic" horiz-adv-x="692" >
<font-face units-per-em="2048" ascent="1638" descent="-410" />
<missing-glyph horiz-adv-x="534" />
<glyph horiz-adv-x="0" />
<glyph unicode="&#xd;" horiz-adv-x="256" />
<glyph unicode=" "  horiz-adv-x="534" />
<glyph unicode="&#x09;" horiz-adv-x="534" />
<glyph unicode="&#xa0;" horiz-adv-x="534" />
<glyph unicode="!" horiz-adv-x="661" d="M164 139q0 70 49 119t117 49q70 0 119 -49t49 -119t-49.5 -118t-118.5 -48q-70 0 -118 48.5t-48 117.5zM172 1274q0 94 10 112q-2 33 34 100.5t58 72.5q20 0 85 -5.5t74 -13.5t36 -72.5t25 -78.5q10 -27 10 -164q0 -242 -25 -490q-27 -285 -65 -295q-2 -14 -60.5 -27.5 t-74.5 -9.5q-27 6 -31 70q-23 51 -49.5 338t-26.5 463z" />
<glyph unicode="&#x22;" horiz-adv-x="1005" d="M135 1284q0 41 17 135q20 109 38 109q33 2 84 4q-2 4 -2 8q12 14 17.5 23.5t38.5 11.5q37 2 52 -13.5t11 -152.5q2 -45 0 -119q-2 -80 -8 -84q-2 -63 -42 -98t-101 -35q-23 0 -33 25q-6 4 -41 98q-31 78 -31 88zM592 1335q0 145 24 228q16 55 111 55q100 0 111 -62 q6 -29 8 -135q2 -117 -8 -133q0 -55 -44 -122.5t-89 -67.5q-4 0 -7 -2q-8 -4 -13 -13.5t-11 -9.5q-12 0 -23.5 14.5t-7.5 26.5q-2 4 14 37q-20 8 -40.5 59.5t-18.5 77.5q-6 12 -6 47z" />
<glyph unicode="$" horiz-adv-x="1228" d="M127 399q0 35 12 39q-4 12 52.5 30.5t72.5 16.5q35 -6 49 -71q16 -78 31 -86q41 -119 217 -140v478q-61 23 -127 51q-285 115 -284 383q0 164 116 270q111 102 283 117q2 0 6 6t6 6v121q0 20 78 20q4 0 8 -41q4 -47 8 -51q2 -12 15.5 -37.5t21.5 -25.5q311 -35 318 -187 l8 -194q2 -10 -30 -24.5t-46 -12.5q-25 2 -51 61q-6 18 -17 41q-63 156 -217 183v-484q47 -16 99 -37q338 -132 338 -413q0 -207 -158 -334q-123 -98 -260 -107h-19v-147q0 -20 -47 -20q-49 0 -49 20v147q-346 25 -379 216q-14 8 -34.5 83.5t-20.5 122.5zM362 1141 q0 -145 107 -193l94 -43v451q-6 0 -12 -2q-84 -8 -136.5 -67.5t-52.5 -145.5zM655 190q92 8 147.5 67.5t55.5 154.5q0 133 -131 186q-31 15 -72 31v-439z" />
<glyph unicode="&#x26;" horiz-adv-x="1587" d="M143 428q0 203 189 358q8 6 18 17q29 23 12 43q0 4 -14 18.5t-16 16.5q-76 92 -76 229q0 168 119 274.5t289 106.5q154 0 264 -101.5t110 -256.5q0 -63 -89 -144.5t-89 -142.5l-2 -33q0 -16 14.5 -50t18.5 -42l149 -176q2 -2 7 -2q12 0 40 51q23 47 30 80t20.5 76 t38.5 43q4 0 9 -4.5t111 -20.5q100 -16 97 -25l-39 -88q-8 -23 -11 -47q-63 -43 -61 -82q-10 -12 -10 -41q0 -27 15.5 -102.5t15.5 -106.5t-11 -45q37 -39 76 -79q68 -76 66 -82q18 -23 -17 -35q-18 -6 -37 12q-47 53 -100 111q-10 10 -62.5 29.5t-60.5 29.5q-6 18 -6 31 q0 12 10 8q35 -6 15 -35q0 -2 -17.5 -24.5t-21.5 -24.5q-68 -88 -167.5 -143.5t-191.5 -55.5q-74 0 -139 25q-90 -4 -193 33q-135 45 -215 143q-88 109 -88 254zM381 408q0 -111 78 -187t190 -76q109 0 178 66q10 4 41 30.5t32 34t1 19.5q0 61 -59 133l-131 160 q-76 92 -123 84q-94 -18 -150.5 -93t-56.5 -171zM475 1157q0 -113 78 -190q72 -63 104 -62q82 4 131 74q46 61 46 145q0 92 -52.5 164t-134.5 72q-78 0 -125 -61.5t-47 -141.5z" />
<glyph unicode="'" horiz-adv-x="681" d="M154 1341q0 139 24 222q16 55 111 55q100 0 110 -62q6 -29 7 -129q4 -115 -9 -129q0 -57 -43 -124q-45 -74 -90 -76q-4 0 -6 -2q-8 -4 -12 -13.5t-10 -9.5q-14 0 -25.5 14.5t-7.5 26.5q-2 4 16 39q-20 8 -41.5 62.5t-19.5 82.5q-4 10 -4 43z" />
<glyph unicode="(" horiz-adv-x="704" d="M135 705q0 246 78 456q-2 18 -2 39q0 82 38 173t93 136q41 113 203 168q8 2 27.5 -43t15.5 -53q12 -23 12 -49q0 -55 -94 -184q-90 -121 -82 -197q-80 -209 -80 -412q0 -295 223 -798q0 -2 14.5 -30t12.5 -30q2 -6 -46 -40t-59 -38q-20 -6 -43 25q-6 2 -27.5 29.5 t-23.5 36.5q-260 340 -260 811z" />
<glyph unicode=")" horiz-adv-x="704" d="M154 -162q-4 41 30.5 138.5t32.5 138.5q33 147 33 297q0 197 -57 411q74 195 73 342q0 102 -30 201q2 33 -38 97.5t-40 90.5q0 16 8 31q-2 8 20.5 46t30.5 34q133 -66 170 -174q45 -49 78 -132t33 -157q0 -23 -4 -43q66 -203 65 -430q0 -512 -297 -852q0 -6 -23.5 -32.5 t-31.5 -30.5q-25 -29 -45 -21q-16 4 -8 45z" />
<glyph unicode="*" horiz-adv-x="874" d="M82 1237q0 23 13.5 59.5t29.5 36.5q0 2 10 2q12 0 88 -12q68 -10 86 -6q23 0 41 8q4 0 4 2q0 6 -78 72q-63 49 -63 82q0 4 4 6q-8 10 -8 22q0 23 24.5 42.5t53.5 19.5q41 0 71 -70q10 -8 38 -80.5t32 -72.5q4 -8 16 -9q12 2 17 11q18 70 59 159q25 64 74 64 q27 0 52.5 -18.5t25.5 -41.5q0 -10 -6 -20q2 -4 2 -8q0 -41 -65.5 -93.5t-65.5 -64.5q0 -2 4 -2q-6 -8 14 -10t55 2q16 -2 67.5 6t61.5 8q8 0 11 -2q14 0 27.5 -36t13.5 -58q0 -16 -28 -27.5t-46 -11.5q-4 -2 -49 4q-51 8 -70 8q-12 0 -18 -2q-57 4 -58 -14q0 -2 2 -4 q-2 -2 -2 -4q0 -8 86 -84q23 -18 45.5 -49t14.5 -41q8 -12 8 -23q0 -25 -25.5 -43t-50.5 -18t-35 14q-14 6 -42.5 50t-35.5 65q-12 16 -20 63q-4 29 -23 64q-12 4 -22 -23q-23 -78 -66 -174q-18 -59 -69 -59q-27 0 -50.5 18.5t-23.5 42.5q0 8 4 19q-4 2 -4 8q0 43 53 86 q86 72 86 98q0 2 -4 2q-23 0 -45 2q-66 -6 -78 -6q-102 -2 -114 10q-29 2 -29 31z" />
<glyph unicode="+" horiz-adv-x="954" d="M109 664q0 12 53 22q43 10 65 10h195v279q0 10 78 22q68 10 92 11q12 0 24 -54q10 -45 11 -67v-191h278q10 0 23 -71q10 -61 10 -86q0 -12 -53 -25q-45 -10 -68 -10h-192l5 -50q5 -51 5 -83q0 -59 -14 -80q-2 -109 -74 -109q-31 0 -68 13q-43 14 -45 32q-10 4 -14 70 q-2 47 -2 127q4 104 4 80h-281q-12 0 -22 74q-10 59 -10 86z" />
<glyph unicode="," horiz-adv-x="624" d="M139 141q0 72 46 118t116 46q74 0 128 -53t54 -123q0 -14 -2 -31q12 -14 13 -45q0 -47 -20.5 -103t-43.5 -71q-12 -53 -67.5 -87t-126.5 -36q-12 -10 -17 -2q-12 0 -28.5 32t-10.5 40q10 12 84 37q2 0 4 2q63 20 49 63q4 4 -3 23.5t-13 25.5q-4 16 -29 19q-8 0 -18 2 q-47 6 -81 46t-34 97z" />
<glyph unicode="-" horiz-adv-x="729" d="M82 457q0 37 10 133q14 115 31 115h22q0 -14 41 -25q33 -10 56 -10h245q23 0 60 10t39 25h22q14 0 29 -115q10 -84 12 -131q0 -16 -19.5 -31.5t-37.5 -11.5q-8 -6 -55.5 13.5t-55.5 19.5h-280q-96 0 -103 -3q0 2 -8 5.5t-8 5.5z" />
<glyph unicode="." horiz-adv-x="616" d="M139 139q0 70 48.5 119t117.5 49q68 0 117 -49t49 -119t-49 -118t-117 -48q-70 0 -118 48.5t-48 117.5z" />
<glyph unicode="/" horiz-adv-x="1054" d="M27 -82l12 35q12 2 48 61.5t42 79.5l623 1426q4 8 6 16q20 68 8 76q2 0 7 9t7 9q37 0 129 -20q106 -23 99 -41q2 -7 4 -15q2 -10 -44 -70.5t-48 -68.5l-648 -1435q-4 -6 -8 -19q-20 -68 -4 -74q0 -2 -5 -11t-7 -9q-33 0 -123 16q-104 18 -98 35z" />
<glyph unicode="0" horiz-adv-x="1232" d="M94 659q0 115 30 253.5t58 158.5q16 145 150 240q125 86 280 86q156 0 281 -86q133 -94 149 -240q29 -20 58.5 -158.5t29.5 -253.5q1 -100 -26 -131q4 -37 4 -71q0 -225 -160 -361q-143 -121 -336 -121t-336 121q-160 135 -159 361q0 35 4 71q-27 31 -27 131zM336 678 q0 -283 39 -324q4 -96 65.5 -163.5t153.5 -67.5q139 0 217 133q69 121 57 281q12 18 13 112q0 115 -15 238q-18 131 -39 153q-8 90 -70.5 152.5t-144.5 62.5q-129 0 -200 -135q-63 -117 -58 -270q-18 -29 -18 -172z" />
<glyph unicode="1" horiz-adv-x="968" d="M113 1159l82 98q55 59 102 60h135q57 0 103 14q39 14 43 27q0 -2 37.5 -9.5t37.5 -11.5v-938q0 -31 49 -106q53 -82 89 -82v-176q0 -12 -232 -23l-242 -8q-25 -4 -26 41l-25 649q-2 31 70 45.5t72 32.5q-6 14 -24.5 164.5t-18.5 169.5v8q-68 -31 -144 -31q-18 0 -24 4 q-16 -2 -55.5 30t-28.5 42z" />
<glyph unicode="2" horiz-adv-x="1214" d="M133 76q0 33 12 47q-4 18 234 295q256 297 268 315q55 61 111 123q41 51 41 113q0 96 -70 173t-180 77q-133 0 -182 -86q-16 -31 -19 -89q-2 -70 -8 -94q0 -16 -8 -35q-6 -25 -33 -39t-51 -10q-84 14 -70 146q-2 4 0 20q0 14 4 17q16 150 139 247t285 97q172 0 299 -115 q135 -123 135 -313q0 -96 -43 -174q-29 -53 -106 -142q-16 -37 -191 -213q-166 -166 -165 -182q0 -4 2 -4q-8 -10 116 -27q137 -18 144 -20l231 -113q43 -23 43 -41q0 -14 -10 -31.5t-23 -17.5h-870q-35 0 -35 76z" />
<glyph unicode="3" horiz-adv-x="1169" d="M131 1122q0 49 37 95q6 18 25 28q115 141 239 141q143 0 320 -69q205 -82 204 -182q0 -100 -14 -136q-16 -47 -87 -131t-118 -108q127 -57 203 -163t76 -237q0 -203 -122 -348t-314 -180q-8 -10 -50 -16q-41 -8 -49 0q-18 -4 -39 -4q-94 0 -168 57q-90 68 -94 186 q-4 53 66 72q10 12 57 23q41 10 56.5 11t31.5 1q29 0 86.5 -24.5t95.5 -24.5q27 0 54 8q154 55 153 211q0 119 -84 194q-76 68 -200 86q-6 8 -55.5 12.5t-55.5 6.5q-94 14 -100 43q-6 23 51 47q47 10 117 49q90 39 168.5 134t78.5 165q0 63 -79 115q-72 47 -148 49 q-66 0 -121 -55q-70 -70 -102 -82l-31 -11q-14 -6 -45 0q-33 4 -38 14.5t-5 22.5z" />
<glyph unicode="4" horiz-adv-x="1226" d="M82 352q0 10 4 21l45 178l512 792q6 10 105 25q88 12 112 12q12 0 25 -41q8 -31 8 -53v-772q0 -4 22.5 -11t24.5 -9q8 16 25 28q33 0 69 -6l51 -92q8 -12 23.5 -61.5t15.5 -63.5q0 -12 -35.5 -19.5t-41.5 -13.5l-68 -78q-53 -2 -113 -8q-4 29 -10 51q0 -2 -17.5 2.5 t-17.5 2.5v-179q0 -33 -39 -58.5t-75 -25.5q-82 0 -138 144l-53 131q-16 43 -78 43h-299q-20 0 -38.5 17.5t-18.5 43.5zM242 461q4 0 22.5 9t26.5 9t29.5 -5t27.5 -5h199q106 0 106 51v477q0 27 -18 27q-14 0 -29 -20z" />
<glyph unicode="5" horiz-adv-x="1167" d="M133 618l82 725q0 16 28.5 26.5t51.5 8.5l504 -20q121 -6 143 26q2 -4 14.5 -44t12.5 -44q-6 -78 -62 -84q-18 -25 -116 -24q-41 0 -134.5 6t-134.5 6q-117 0 -131 -35q-16 -2 -49 -77.5t-33 -108.5q0 -6 2 -8q-10 -25 33 -60q35 -31 70 -45q25 -25 65 -24q53 4 111 -2 q195 -4 315 -119q115 -109 115 -266q0 -203 -184 -359q4 -20 4 -41q0 -90 -87 -179t-184 -89q-40 0 -75 18q-31 -25 -70 -24q-59 0 -121.5 55t-87.5 119q-6 20 19.5 52t62.5 50q12 14 54 35t52 21q20 10 48 10q23 0 64.5 -10.5t57.5 -10.5q82 -2 142 31q102 74 102 221 q0 33 -6 68q-16 84 -72 145q-63 72 -145 72q-27 0 -53 -8q-6 4 -17 4q-23 0 -103.5 -39t-101.5 -31q-23 -8 -105.5 14.5t-80.5 38.5z" />
<glyph unicode="6" horiz-adv-x="1220" d="M129 512q0 365 164 627q186 297 514 325q6 8 33 11q27 2 34 -5q45 2 81 -20.5t40 -63.5q4 -37 -28.5 -72.5t-73.5 -31.5q-10 -10 -33 -10q-43 0 -61 22q-4 2 -9.5 9.5t-19.5 7.5t-18 -6q-111 -6 -189 -136q-55 -94 -78 -213q-6 -23 123 -24q14 0 45 -2q188 -8 307 -145.5 t119 -325.5q0 -207 -134 -347.5t-335 -140.5q-229 0 -360 162q-121 150 -121 379zM369 455q0 -117 63 -201q68 -90 176 -90q104 0 170 86t66 207q0 125 -64 211q-68 94 -174 94q-109 0 -173 -91t-64 -216z" />
<glyph unicode="7" horiz-adv-x="1122" d="M78 1114q0 27 20 139q25 125 39 125h836q14 0 51 -39t33 -51q27 -29 26 -92q0 -199 -252 -725q-33 -68 -337 -649q-8 -27 -31 -60q-10 -6 -104.5 6.5t-90.5 26.5q-49 8 -49 94q0 176 184 617q154 369 246 512q10 33 42 67.5t36 55.5q2 8 -128 16t-142 4q-4 0 -136.5 -46 t-152.5 -38q-16 -4 -53 9.5t-37 27.5z" />
<glyph unicode="8" horiz-adv-x="1255" d="M129 428q0 190 127 307q12 10 29 27q35 31 34 49q0 6 -1 10t-18 17.5t-19 17.5q-90 92 -91 242q0 170 124 280.5t315 110.5q176 0 286.5 -106.5t110.5 -258.5q0 -125 -80 -198q-14 -12 -31 -29q-51 -47 -51 -70q0 -6 4 -6q-4 -6 19.5 -13t25.5 -11q207 -113 207 -361 q0 -195 -135 -327q-141 -135 -358 -136q-219 0 -358.5 130t-139.5 325zM369 412q0 -115 72.5 -192t185.5 -77t184 82q68 76 68 187t-68 184q-72 82 -184 82q-111 0 -184.5 -75t-73.5 -191zM422 1155q0 -100 73.5 -177t149.5 -71q78 4 125 70t47 156q0 92 -49 157 q-57 72 -147 72q-86 0 -142.5 -61.5t-56.5 -145.5z" />
<glyph unicode="9" horiz-adv-x="1222" d="M129 907q0 207 133 346.5t334 139.5q231 0 362 -160q121 -150 121 -379q0 -336 -164 -590q-174 -272 -487 -360q-4 -6 -25.5 -12.5t-27.5 -4.5q-14 -4 -33 -4q-47 0 -87 27t-44 70q-2 37 30.5 72.5t73.5 29.5q10 12 33 12q43 0 60 -22q4 -2 10 -9.5t18 -7.5q14 0 21 6 q106 6 186 138q57 94 80 211q4 20 -123 24h-47q-188 8 -309 150q-115 135 -115 323zM365 907q0 -123 65.5 -213t171.5 -90t174 94q63 86 64 211q0 117 -64 201q-70 92 -176 92t-170.5 -87t-64.5 -208z" />
<glyph unicode=":" horiz-adv-x="645" d="M156 141q0 68 48 117t118 49t118.5 -49t48.5 -117q0 -70 -49 -119t-118 -49q-70 0 -118 49.5t-48 118.5zM156 856q0 70 48 119t118 49t118.5 -49t48.5 -119t-49 -118t-118 -48q-70 0 -118 48t-48 118z" />
<glyph unicode=";" d="M168 143q0 70 46 116t116 46q76 0 130 -53t54 -121q0 -16 -4 -33q12 -14 12 -45q0 -47 -20.5 -103t-42.5 -71q-12 -53 -67.5 -86t-127.5 -37q-12 -8 -16 -2q-12 0 -28.5 32t-10.5 40q10 12 84 37q2 0 4 2q63 20 49 63q4 6 -3 24.5t-13 24.5q-4 16 -29 19q-8 0 -18 2 q-47 8 -81 47t-34 98zM172 856q0 70 48 119t118 49q68 0 117 -49t49 -119t-48 -118t-118 -48t-118 48t-48 118z" />
<glyph unicode="&#x3c;" horiz-adv-x="952" d="M139 698q0 66 49 101l531 358q8 6 45 -33q23 -25 45 -49q16 -14 -82 -102l-258 -230q-2 -2 -2 -6q0 -25 128 -131t136 -123l74 -151q27 -52 4 -68q-10 -8 -78 -10q-70 -4 -78 2l-383 283q-16 8 -55 41q-47 37 -45 47q-31 25 -31 71z" />
<glyph unicode="=" horiz-adv-x="915" d="M111 463q0 16 9 35.5t23 19.5h627q12 0 23 -59q10 -49 10 -74q0 -12 -259 -26.5t-274 -8.5l-127 58q-33 14 -32 55zM111 795q0 14 9 34.5t23 20.5h627q12 0 23 -62q10 -49 10 -73q0 -12 -259 -26.5t-274 -6.5l-127 55q-33 14 -32 58z" />
<glyph unicode="&#x3e;" horiz-adv-x="952" d="M147 319q0 25 52 74l180 176q115 113 115 158q0 10 -7 16l-335 279q-4 2 -5 10q0 23 17.5 70t28.5 55q8 8 53 -8t59 -27l463 -323q49 -35 49 -103q0 -46 -29 -69q0 -10 -50 -48t-66 -49l-439 -303q-6 -4 -40 37q-43 49 -44.5 50t-1.5 5z" />
<glyph unicode="?" horiz-adv-x="1118" d="M102 1212q0 12 4 23q-4 6 0 27q4 20 11 24q27 133 145 209q113 76 268 76q201 0 331 -115t130 -299q0 -115 -53 -199q-43 -68 -141 -147q-47 -33 -97 -78q-33 -27 -52 -79t-13 -101l10 -68q0 -14 -88 -30.5t-108 -12.5q-31 4 -39 90q-18 39 -7 62q-14 147 164 324 q37 33 80 77q76 76 76 185q0 90 -49 157q-55 78 -152 78q-111 0 -145 -59q-12 -18 -19 -37q-10 -51 -26 -96q-4 -27 -21 -58q-25 -70 -108 -59q-43 6 -72 37t-29 69zM391 139q0 70 48 119t116 49q70 0 119 -49t49 -119t-49 -118t-119 -48t-117 48.5t-47 117.5z" />
<glyph unicode="A" horiz-adv-x="1294" d="M55 33l13 49q20 2 108 244l404 1224q0 1 1 1q12 0 142 -160q78 -98 158 -199l26 -33l166 -461l174 -647q4 -14 -139 -35q-127 -20 -164 -20q-35 0 -45 43l-53 221q14 25 22 55q-16 23 -30 45q-27 41 -39 41h-230q-25 0 -82 -12q-66 -14 -69 -24l-121 -322 q-16 -43 -29 -43q-20 0 -112 12q-102 12 -101 21zM500 608q-1 -2 -1 -3q-1 -11 23 -27q26 -18 45 -17h150q23 -1 53 15q25 13 24 28q0 3 -1 6l-142 535l-2 -2z" />
<glyph unicode="B" horiz-adv-x="1345" d="M135 82q0 31 23.5 118t23.5 95v1102q0 123 -12 133q2 2 6 14t6 12h555q193 0 315 -115.5t122 -283.5q0 -195 -173 -299q259 -112 259 -391q0 -195 -142 -328q-147 -139 -381 -139h-555q-16 0 -31.5 24.5t-11.5 43.5q-4 4 -4 14zM430 213q0 -29 119 -29l176 -2 q127 0 206 75t79 202q0 123 -80 201.5t-199 78.5h-301v-526zM430 930h287q100 0 163.5 63.5t63.5 167.5q0 98 -63.5 155.5t-165.5 57.5h-285v-444z" />
<glyph unicode="C" horiz-adv-x="1331" d="M98 737q0 133 33 290t70 183q20 156 161.5 258.5t327.5 102.5q180 0 314 -115q43 -35 69 -70q25 -20 62 -59q10 -12 20 -39q10 -16 24.5 -81.5t14.5 -106.5q0 -31 -12 -33q2 -9 -58 -21q-45 -9 -65 -9q-7 0 -10 1q-29 8 -37 58q0 14 -4 32q-18 111 -108.5 188t-207.5 77 q-152 0 -246 -146q-73 -113 -73 -249q0 -24 2 -48q-14 -20 -15 -119q0 -121 19 -253q20 -141 45 -160q8 -92 86 -153.5t182 -61.5q78 0 127 67q39 68 78 138q49 80 121 104l57 18q16 -8 51 -14q12 2 33 -30.5t25 -49.5l10 -39q6 -29 6 -55q0 -150 -168 -260 q-158 -106 -346 -107q-240 0 -403.5 157t-163.5 392q0 39 4 78q-25 29 -25 135z" />
<glyph unicode="D" horiz-adv-x="1374" d="M121 1499q2 2 9 29.5t11 27.5h539q182 0 302 -70.5t194.5 -192.5t74.5 -249q0 -43 -8 -83q14 -29 14 -97q0 -145 -51 -336q-55 -201 -114 -243q-27 -127 -134.5 -206t-248.5 -79h-523q-16 0 -31.5 25.5t-11.5 44.5q-2 4 -2 14q0 31 21.5 116t21.5 89v1143q0 25 -26 45 q-18 10 -37 22zM397 1374q16 0 37 -491q2 -180 6 -359q8 -342 23 -342h244q154 0 237 140q62 103 62 234q0 25 -2 50q18 27 18 131q0 119 -20.5 256t-43.5 156q-8 94 -87.5 159.5t-190.5 65.5h-283z" />
<glyph unicode="E" horiz-adv-x="1277" d="M104 43v193q23 2 59 63t36 86v1014q0 125 -13 131q2 2 5.5 14t7.5 12h878q33 0 61.5 -51t28.5 -92q0 -33 -56 -57.5t-99 -24.5h-600q10 0 22 -100q6 -59 15 -117l26 -149q8 -51 55 -52h273q72 0 98.5 24t34.5 93q27 0 55 -2q6 -2 13 -180q6 -141 6 -184q0 -2 -27 -5.5 t-27 -5.5q-14 111 -114 111q-16 0 -37 -2l-244 -27q-43 -4 -77.5 -25.5t-34.5 -50.5v-434h696q16 0 35 -82q16 -71 16 -102q0 -16 -59 -29q-47 -12 -76 -12h-834q-25 0 -69 12q-53 16 -54 31z" />
<glyph unicode="F" horiz-adv-x="1167" d="M139 80v49q20 2 35 98q10 74 10 119v1057q0 121 -14 129q2 0 6 12t6 12h918q16 0 35 -81q14 -68 14 -101q2 -18 -43 -31q-37 -12 -64 -12h-645q10 0 23 -100q12 -111 14 -115l62 -149q10 -25 33.5 -41.5t39.5 -10.5q12 -10 33 -10q43 0 156.5 64.5t154.5 64.5q18 6 60 -2 q10 -2 20 -182q6 -96 11 -193q0 -4 -26 -8t-26 -8q-8 63 -53 84q-27 10 -104 10h-279q-33 0 -59 -65q-20 -51 -23 -97l-31 -491q-2 -32 -50 -62q-45 -28 -80 -28h-5q-39 2 -84 29.5t-45 58.5z" />
<glyph unicode="G" horiz-adv-x="1382" d="M94 803q0 111 29 141q-4 35 -4 70q0 229 162.5 393t406.5 164q193 0 330 -125q51 -45 76 -82q37 -35 51 -61q2 -4 10 -19.5t8 -21.5q5 -14 5 -29q0 -22 -11 -47q-4 -51 -22.5 -93t-40.5 -42q-72 0 -80 88q0 14 -4 32q-10 109 -103.5 186t-210.5 77q-109 0 -188.5 -69 t-87.5 -171q-27 -25 -47 -162q-16 -129 -17 -258q0 -127 19 -151q-2 -20 -2 -39q0 -135 73 -244q90 -137 242 -137q63 0 113 22q57 23 102 103t45 151q0 20 -5 39t-11 47q-5 22 -5 37q0 24 13 31q-4 0 -117 -2h-31q-70 0 -73 8q-16 0 -27.5 34t-9.5 54q6 78 39 78h399 q35 0 94 -14q72 -18 72 -39v-179q0 -23 -49 -49t-51 -51q-16 -100 -47 -199q-43 -133 -92 -170q-162 -129 -361 -129q-186 0 -326 101q-145 102 -163 258q-35 27 -69 182.5t-34 286.5z" />
<glyph unicode="H" horiz-adv-x="1390" d="M135 1493q-1 3 -1 7q0 14 10 32q14 24 28 24q37 0 135 -12q121 -16 121 -31v-448q0 -31 12 -72q12 -49 31 -49h436q18 0 33 43q10 37 10 66v407q0 23 16 61q14 35 27 35h2q207 -18 207 -38v-1250q0 -23 34 -75t56 -54v-100q0 -14 -88 -27q-74 -12 -104 -12q-31 0 -105 12 q-88 12 -88 27v270l43 197q2 6 2 19q0 35 -12 117q-16 114 -35 114l-309 -6q-45 0 -106.5 -26t-61.5 -50l-29 -635q-2 -12 -92 -27q-80 -12 -104 -12q-27 0 -27 86v1196q0 8 -24 107q-19 68 -19 93q0 8 2 11z" />
<glyph unicode="I" horiz-adv-x="823" d="M168 119q0 10 2 14q-1 1 -1 3q1 18 55 89q60 78 59 90v889l-68 160q-2 5 -2 14q-1 26 13 92q17 86 33 86h1q88 -6 178 -12q162 -14 162 -26v-277l-68 -131v-754q0 -23 45.5 -82t69.5 -61v-174q0 -14 -211 -27q-172 -12 -225 -12q-14 0 -28.5 45t-14.5 74z" />
<glyph unicode="J" horiz-adv-x="954" d="M-123 174q2 23 10 27q4 37 36 58.5t69 21.5q45 -2 81 -33q29 -25 29 -60q0 -9 -2 -18q2 -4 2 -10q0 -8 -8 -27.5t-6 -26.5q-2 -10 -2 -21q0 -33 18 -71q55 -102 191 -102q115 0 184 104q63 92 64 217v932l-86 189q-1 3 -1 25.5t1 64.5q2 86 5 92t331 20q18 0 32.5 -23.5 t10.5 -41.5q4 -4 4 -14q0 -25 -23.5 -102t-23.5 -93v-997q0 -229 -139.5 -369.5t-350.5 -140.5q-186 0 -313 113q-113 101 -113 227q0 16 2 32q-4 2 -4 12q0 6 2 15z" />
<glyph unicode="K" horiz-adv-x="1331" d="M176 123v1345q0 20 12.5 54t24.5 34q145 0 160 -16q6 -8 30.5 -50t24.5 -48v-418q0 -27 15.5 -61.5t31.5 -34.5q6 0 12 6q0 -1 1 -1q16 0 223 222q205 221 228.5 250t27.5 45q10 29 -23 39l4 16q14 16 111 39q55 12 110 25q2 1 5 1q20 0 56 -38q40 -43 40 -72 q0 -10 -6 -14q4 -6 4 -14q0 -47 -193 -207q-225 -184 -254 -226q-39 -37 -39 -38q-20 -23 -24 -46q-4 -16 119 -194q104 -150 137 -191l160 -204l137 -267q8 -16 -133 -43q-122 -24 -161 -24h-3q-14 0 -43 44t-31 66l-6 66l-330 559q-14 23 -49 23q-43 0 -85 -29t-42 -64 v-581q0 -33 -86 -62q-72 -23 -119 -24q-4 0 -12 7t-12 9q-23 27 -23 117z" />
<glyph unicode="L" horiz-adv-x="1179" d="M137 84q0 29 23.5 115t23.5 94v1106q0 123 -14 133q2 2 6 13t6 11q35 0 133 -12q119 -12 119 -26v-1186q0 -47 47 -82q41 -31 86 -31h285q72 0 135 17q82 20 92 57q37 -2 76 -6q10 -11 10 -244q0 -14 -51 -31q-43 -12 -67 -12h-863q-16 0 -31.5 24.5t-11.5 43.5 q-4 4 -4 16z" />
<glyph unicode="M" horiz-adv-x="1671" d="M168 82v1434q0 16 108 30q88 12 127 13q37 0 68 -89l320 -905q31 -84 49 -84q20 0 63 131l289 858q8 25 29.5 57t38.5 32q240 0 256 -15q2 -12 4 -26q-35 -14 -35 -150v-1042q0 -33 32.5 -100.5t59.5 -69.5v-111q0 -14 -162 -31q-135 -14 -180 -14q-16 0 -29.5 21.5 t-11.5 41.5q-2 4 -2 31q0 68 23.5 289t23.5 225q2 37 2 232q-2 219 -14 221q-14 4 -29 -39l-297 -903q-4 -8 -47 -17.5t-57 -9.5q-18 0 -39 58l-283 815q-22 59 -30 59h-1q-29 -4 -28 -66l-2 -579q0 -61 -21 -207q-25 -176 -51 -180q-8 -2 -51 -2q-39 0 -81 28.5t-42 63.5z " />
<glyph unicode="N" horiz-adv-x="1533" d="M129 0v51q43 4 70 90q18 61 18 123v1211h318l489 -926l2 270q0 100 -29 242q-35 176 -82 176v238h596v-103q-115 -8 -147 -29q-49 -31 -49 -131v-1212h-291l-477 913l-2 -96v-227l86 -271v-319h-502z" />
<glyph unicode="O" horiz-adv-x="1353" d="M94 743q0 131 33 285t66 180q18 162 165 267q139 98 316 98q178 0 315 -98q147 -104 166 -267q33 -27 65.5 -180.5t32.5 -282.5v-7q0 -106 -28 -138q4 -39 4 -78q0 -248 -174 -403q-162 -145 -381 -146q-219 0 -381 146q-174 156 -174 403q0 37 4 78q-29 33 -29 143z M348 739q0 -301 45 -346q4 -109 79 -188.5t181 -79.5q162 0 250 176q65 130 65 276q0 16 -1 33q18 27 18 193q0 328 -49 373q-6 106 -82 177.5t-180 71.5q-147 0 -236 -161q-72 -127 -72 -273q0 -16 1 -33q-18 -27 -19 -219z" />
<glyph unicode="P" horiz-adv-x="1243" d="M141 37v53q20 2 33 121q10 86 10 145v1022q0 145 -10 152q2 2 5 14t5 12h539q203 0 332 -120.5t129 -325.5q0 -174 -109 -301q-121 -141 -317 -141q-4 -4 -35 -4q-21 0 -55 2q-121 4 -138 4q-39 0 -41 -4q-23 0 -41 -38t-18 -73q0 -14 4 -23l82 -184v-309q0 -14 -92 -29 q-69 -10 -101 -10h-10q-35 2 -94 10q-78 14 -78 27zM391 1309q12 0 27.5 -37t15.5 -55v-369h271q113 0 174 86q55 72 55 180q0 109 -60 180q-66 80 -178 80h-149q-14 0 -85 -28.5t-71 -36.5z" />
<glyph unicode="Q" horiz-adv-x="1384" d="M98 743q0 133 31 286t64 177q18 164 165 269q137 98 316 98q233 0 393 -164q159 -165 159 -419q0 -21 -1 -42q18 -20 18 -127q0 -104 -15.5 -238t-29.5 -163q-8 -199 -164 -367q-8 -8 -16 -18q-14 -12 -29 -37q-2 -8 19 -72q4 -33 24 -73q8 -29 62 -29q20 0 46.5 13 t26.5 30q0 10 8.5 32.5t8.5 30.5q4 29 47 64t76 35q12 0 20 -6q12 8 25 8q27 0 52.5 -31t31.5 -68q3 -20 3 -37q0 -65 -44 -83q-14 -39 -108.5 -83t-160.5 -44q-23 0 -34 6q-31 -12 -64 -13q-74 0 -138.5 52.5t-88.5 132.5q-4 18 -12.5 44.5t-14.5 39.5q-10 20 -26 26 q-6 10 -33 13q-25 10 -68 10q-11 0 -23 -1q-16 -1 -29 -1q-37 0 -56 6q-168 53 -281 174q-139 150 -139 354q0 35 4 72q-25 35 -25 143zM365 731q0 -299 45 -342q4 -104 80.5 -175t183.5 -71q162 0 241 199q16 33 39 131q13 69 13 123v14q6 76 6 238q0 293 -37 328 q-6 106 -82 177.5t-180 71.5q-143 0 -228 -163q-64 -124 -64 -268q0 -18 1 -36q-18 -29 -18 -227z" />
<glyph unicode="R" horiz-adv-x="1376" d="M135 88q0 35 24.5 138.5t24.5 115.5v1036q0 147 -12 154q2 0 5 12t5 12h559q207 0 336 -122q125 -118 125 -288v-11q-4 -246 -219 -342q27 -16 77 -105.5t77 -161.5q37 -127 94 -268q4 -2 25.5 -42t27.5 -38l27 -139q3 -19 -65 -39q-62 -19 -95 -18h-6q-106 6 -166 168 q-8 8 -74.5 215.5t-85.5 228.5q-25 66 -76 76q-8 8 -135 28q-41 8 -51 9h-125v-666q0 -14 -119 -29q-96 -12 -135 -12q-16 0 -29.5 24.5t-9.5 41.5q-4 6 -4 22zM432 860h289q106 0 170 84q59 75 59 184q0 98 -53 166q-63 80 -168 80h-182q-115 0 -115 -20v-494z" />
<glyph unicode="S" horiz-adv-x="1271" d="M117 340q-1 2 -1 6q0 20 28 83q32 75 46 79q16 6 59.5 -4t47.5 -25q8 -2 14 -50t13 -52q47 -178 313 -178q113 0 191.5 63.5t78.5 171.5q0 133 -248 238q-20 20 -172 69q-143 49 -155 70q-205 86 -205 346q0 186 129 299t334 113q209 0 340 -103q10 -8 41 -49 q25 -31 47 -35q27 -25 45 -6q29 -12 32 -15t3 -50q0 -188 -23 -197q-14 -6 -55 0q-43 8 -47 21q-4 20 -17 45q-94 245 -346 245h-2q-121 0 -190.5 -67.5t-69.5 -163.5q0 -160 156 -217q8 -10 171 -63.5t173 -65.5q311 -117 311 -406q0 -217 -168 -352q-147 -117 -340 -117 q-377 0 -495 275q-10 6 -26 44q-13 31 -14 43q0 3 1 5z" />
<glyph unicode="T" horiz-adv-x="1017" d="M-10 1509q14 47 28 47h986q14 0 30 -83q15 -72 15 -101q0 -14 -123 -24q-129 -12 -138 -17l-96 -57q-23 -14 -42 -56t-21 -75l-23 -1008q0 -47 -7 -87t-8 -42t-7 -8t-11 -6q-49 2 -137 28q-104 31 -104 60v49q23 2 39 358q10 232 10 328q0 41 -2 57q0 6 -2 15 q0 2 -9.5 223t-17.5 221h-332q-16 0 -30 49q-11 40 -11 64q0 29 13 65z" />
<glyph unicode="U" horiz-adv-x="1374" d="M90 1464q-3 5 -3 15q0 14 5 37q8 40 21 40q35 0 172 -14q158 -14 157 -26l2 -132l-47 -92l13 -837q2 -121 78.5 -204t179.5 -83q119 0 199.5 80t80.5 203v1065q0 17 246 40h2q15 0 30 -26q16 -28 15 -47v-793q0 -27 -23.5 -62.5t-25.5 -68.5q-20 -92 -39 -186 q-33 -139 -66 -168q-98 -231 -401 -232q-215 0 -358 129q-152 137 -152 361v844q0 18 -44 80.5t-42 76.5z" />
<glyph unicode="V" horiz-adv-x="1196" d="M31 1481q-4 10 -4 22q0 13 6 29q10 28 30 29q35 0 125 -9q115 -10 117 -20l260 -997q21 -74 42 -74h3q6 2 47 125q37 106 43 131l134 502q90 340 104 337q66 -6 131 -10q123 -10 123 -16q0 -29 -2 -60q0 -14 -55.5 -64t-59.5 -65l-383 -1284q-6 -19 -82 -43 q-65 -20 -95 -21q-5 0 -9 1q-18 2 -127 332q-80 242 -113 352q-20 61 -125 401q-117 385 -110 402z" />
<glyph unicode="W" horiz-adv-x="1802" d="M84 1417q-6 29 -6 53q0 43 20 70q2 0 12.5 9.5t16.5 9.5q49 0 111 -19q78 -23 84 -55q82 -31 124 -268q27 -152 41 -431q12 -231 21 -239q8 -37 33 -29q10 4 22 47q45 240 88 479q87 426 186 426h3q4 11 29 11q31 0 96 -17q35 -8 47 -61q47 -63 98 -295q29 -123 74 -389 q29 -171 36 -171q1 0 1 1q2 -6 15 37t22.5 45t18.5 46t5 50l-33 41q27 88 76 270q33 123 78 297l295 195q33 20 35 20q10 -2 17 -16q4 -9 4 -17q0 -4 -1 -8q1 -2 1 -6q0 -19 -25 -80q-20 -45 -39 -90l-289 -1276q-6 -21 -95 -47q-65 -19 -95 -19q-12 0 -19 3q-23 10 -33 47 t-18 72q-31 74 -115 456q-80 360 -100 385q-4 20 -15 17q-14 -4 -22 -37q-37 -223 -76 -449q-84 -395 -186 -428q-6 -19 -91 -43q-73 -20 -104 -21q-5 0 -10 1q-25 2 -51 123z" />
<glyph unicode="X" horiz-adv-x="1206" d="M55 1522q8 31 27 34q6 1 17 1q35 0 121 -9q116 -12 124 -26l240 -459q4 -8 12 -8q14 0 37.5 17.5t32.5 33.5l215 418q6 12 112 24q90 8 125 8q12 0 12 -24q0 -57 -24 -105l-295 -553q-6 -8 -6 -24q0 -66 72 -227q47 -109 73 -156q8 -27 88 -176q86 -160 99 -160l30 -78 q6 -12 -108 -35q-104 -18 -141 -18q-25 0 -58 66l-223 460q-18 37 -19 62q0 8 -8 20.5t-14 12.5q-14 0 -68 -89q-49 -80 -53 -100l-88 -326q-10 -39 -22 -79q-6 -10 -132 -21q-102 -10 -137 -10q-20 0 -24 55q-1 15 -1 27q0 30 7 41l106 119l240 495q4 6 4 17q0 57 -76 223 q-61 131 -88 176q-2 4 -108 164q-100 150 -97 162q-6 10 -6 26q0 9 2 21z" />
<glyph unicode="Y" horiz-adv-x="1079" d="M6 1526q0 29 12 30q6 1 19 1q39 0 139 -9q141 -12 148 -26l141 -318q-12 -20 -21 -43q2 0 74 -108q59 -83 70 -83q1 0 2 1l223 450q-12 25 -16 54q2 2 21 43q17 38 25 38h1q61 -6 125 -12q113 -12 112 -22l9 -24q10 -23 10 -25l-201 -320q-235 -375 -235 -430 q0 -11 7 -51q7 -41 7 -45v-496q0 -45 -8 -88q-8 -35 -8 -37t-7.5 -9t-9.5 -7q-47 0 -139 22q-106 27 -107 56l-8 286q23 2 25 92v26q0 60 -8 93q1 8 1 18q0 55 -28 152q-31 102 -62 156l-290 532q-23 39 -23 103z" />
<glyph unicode="Z" horiz-adv-x="1193" d="M74 35q0 20 6 80q8 68 14 80l670 1140q6 10 -41 31q-53 20 -57 27q-69 22 -91 22h-2q-16 0 -28 -6h-6q-43 0 -154 -74q-125 -82 -172 -82q-14 0 -25 4q-16 -8 -55 6.5t-39 30.5q0 27 19 140q20 123 34 122h926q14 0 14 -149l-40 -70l-613 -1050q-1 -2 -1 -4 q0 -22 161 -37q205 -20 207 -21l268 -96q41 -15 41 -63q0 -22 -12.5 -44t-28.5 -22h-895q-20 0 -57 10q-43 12 -43 25z" />
<glyph unicode="[" horiz-adv-x="722" d="M143 119v1235q0 76 21 145q27 96 82 96h381q14 0 14 -108q0 -8 -76 -12q-57 4 -130 -3.5t-73 -78.5v-1188l150 -127q10 -10 20.5 -50t16.5 -44l76 -54q14 -10 14 -26q0 -27 -14 -27h-379q-53 0 -82 98q-20 72 -21 144z" />
<glyph unicode="\" horiz-adv-x="1048" d="M39 1610q2 0 5 10t7 10q35 0 131 -8q121 -10 125 -20l12 -35q-8 0 -8 -17q0 -14 8.5 -51t8.5 -39q4 -10 8 -22l586 -1352q6 -23 38.5 -78t47.5 -55l12 -35q4 -16 -100 -35q-88 -16 -123 -16q-2 0 -7.5 9t-7.5 11q23 10 -4 80q-6 12 -12 27l-680 1491q-39 84 -47 125z" />
<glyph unicode="]" horiz-adv-x="722" d="M84 -31q0 29 14 29h138q45 0 81 20q45 23 45 62v1317q0 18 -37.5 32.5t-60.5 14.5h-145q-31 0 -31 12q0 139 12 139h379q55 0 82 -110q20 -80 21 -162v-1356q0 -33 -119 -69.5t-213 -36.5q-55 0 -76 16l-76 64q-14 10 -14 28z" />
<glyph unicode="^" horiz-adv-x="903" d="M88 1180l244 327q51 82 69 80q16 18 58 19q59 0 84 -33l252 -342q8 -10 21 -42t9 -38q-8 -8 -61 -22.5t-59 -6.5l-213 232q-2 4 -9 4q-35 0 -129 -94l-145 -144q-6 -6 -40 2t-40 15q-12 12 -28.5 25.5t-12.5 17.5z" />
<glyph unicode="_" horiz-adv-x="1026" d="M-27 -283q0 14 7.5 44t13.5 30h1040q6 0 15 -59q6 -47 6 -66q0 -8 -27 -15t-41 -7h-993q-6 0 -14 32q-6 27 -7 41z" />
<glyph unicode="`" horiz-adv-x="614" d="M35 1507q0 45 28.5 76t73.5 31q53 0 105 -58l276 -317q10 -14 10 -16q0 -8 -32.5 -30t-40.5 -22q-6 0 -21 9l-340 233q-59 41 -59 94z" />
<glyph unicode="a" horiz-adv-x="1146" d="M100 283q0 150 101 243q92 86 235 101q8 10 100 18q53 5 81 5q20 0 26 -3q20 4 60 40t32 48q6 18 6 62q0 47 -10 55q-2 37 -30.5 66.5t-63.5 29.5q-12 0 -23 -4q-8 6 -24 6q-27 0 -55.5 -14t-28.5 -29q0 -4 -4 -10t-4 -8q4 -8 -6.5 -20.5t-12.5 -18.5q-2 -12 -29.5 -28.5 t-52.5 -16.5q-16 0 -26 8q-12 -2 -23 -2q-33 0 -55.5 26.5t-22.5 69.5q0 59 37 68q16 31 115.5 64.5t177.5 33.5q49 0 70 -16q27 6 51 6q102 0 178 -76t76 -186v-598q0 -4 21.5 -32t27.5 -28q8 -12 6 -14l4 -12l8 -60q4 -33 -176 -59q-7 -1 -13 -1q-39 0 -54 34q0 2 -4 13 l-4 11q-123 -84 -220 -84q-57 0 -125 47q-20 -1 -39 -1q-84 0 -157 28q-150 74 -150 238zM377 204q39 -36 98 -36q139 0 238 98q16 6 32 31q5 8 11 49q5 31 4 45v6q0 10 -8.5 46t-16.5 40q-59 31 -70 31h-1q-4 2 -15 2q-22 0 -71 -9q-72 -13 -89 -34q-151 -35 -151 -168 q0 -65 39 -101z" />
<glyph unicode="b" horiz-adv-x="1179" d="M109 211q0 193 24.5 614.5t24.5 409.5q3 125 3 191t-3 73q2 2 6 36t8 34q35 0 123 -13q109 -14 108 -28v-557l3 2q92 84 219 84q152 0 266 -82q123 -86 137 -221q18 -14 33.5 -86t15.5 -140t-16 -86q2 -25 2 -47q0 -176 -127 -297t-313 -121q-82 0 -156 33q-63 29 -90 64 v-17q0 -25 -41 -24h3q0 -1 -93 -8q-22 -1 -37 -1q-39 0 -41 7q-2 2 -22.5 8t-20.5 8q-16 6 -16 164zM383 428q10 -137 23 -145q4 -61 68.5 -106.5t135.5 -45.5q92 0 168 86q70 82 70 172q0 27 -8 47q14 18 14 64q0 168 -127 270q-14 8 -61 66q-33 43 -72 43q-47 0 -84 -17 q-53 -16 -96 -119q-32 -81 -32 -142q0 -10 1 -19q-4 -9 -4 -47.5t4 -106.5z" />
<glyph unicode="c" horiz-adv-x="1140" d="M96 516q0 68 17.5 142.5t40.5 91.5q16 141 134 222t306 81q96 0 184 -35q6 2 17 2q119 -57 129 -64q82 -47 80 -94q6 -6 4 -33q0 -29 -7 -36q0 -29 -15 -52.5t-27.5 -23.5t-30.5 -4q-14 -2 -21 0q-8 2 -8 16q-4 0 -6 10q0 8 4 15q2 0 0 2q4 14 -35 18q-45 6 -87 12.5 t-107 34.5q-55 23 -93 23q-87 0 -153 -72q-60 -66 -61 -147q0 -7 1 -15q-10 -14 -10 -82q0 -162 31 -188q4 -68 60.5 -118t131.5 -50q57 0 130 77t110 87l41 10q25 6 88 6q16 0 51 -23.5t29 -33.5q2 -2 2 -6q0 -14 -16.5 -41t-26.5 -33q-127 -238 -403 -238q-203 0 -335 117 t-132 287q0 23 4 47q-20 18 -21 88z" />
<glyph unicode="d" horiz-adv-x="1183" d="M102 510q0 72 19 92q-2 23 -2 43q0 180 133 299q127 113 305 113q131 0 225 -84v2l23 534q2 59 26 60q35 0 117 -10q102 -10 103 -23v-49q-12 -2 -23 -72q-6 -55 -6 -86v-1077q0 -14 24.5 -57t43.5 -43v-97q0 -20 -113 -43q-86 -16 -129 -18h-2q-37 0 -53 63q0 10 -5 21 l-4 -2q-86 -98 -229 -99q-156 0 -272.5 86.5t-130.5 221.5q-20 14 -35 85.5t-15 139.5zM356 500q0 -158 33 -183q4 -70 66.5 -115.5t140.5 -45.5q92 0 158 55q58 49 58 118q0 8 -1 17q8 8 8 66q0 96 -18.5 227t-34.5 141q-6 45 -54 71t-108 26q-106 0 -178 -95 q-58 -76 -58 -162q0 -12 1 -24q-12 -12 -13 -96z" />
<glyph unicode="e" horiz-adv-x="1110" d="M102 528q0 70 15.5 141.5t36.5 86.5q14 135 139 219q118 82 278 82q182 0 299 -119q127 -129 127 -352q2 -2 4 -31q0 -27 -4 -29q0 -20 -63 -39q-55 -18 -90 -18h-400q-66 0 -63 -23q-10 -4 -10 -28q0 -61 22 -88q6 -59 60.5 -107.5t113.5 -48.5q23 0 88 19q46 13 79 13 q8 0 16 -1q21 2 38 2q41 0 52 -14q52 -7 52 -49q0 -7 -1 -15q-14 -80 -103 -121q-64 -32 -135 -32q-12 0 -24 1q-15 -8 -51 -8h-15q-49 2 -59 15q-162 10 -275.5 125.5t-113.5 283.5q0 25 4 49q-16 18 -17 86zM383 678q0 -10 2 -23q0 -22 25 -22h2h262q67 0 67 29q3 1 3 8 q0 3 -1 8q0 12 -2 14q-4 86 -43 142q-46 65 -125 65h-2q-86 1 -139 -61q-49 -57 -49 -146v-14z" />
<glyph unicode="f" horiz-adv-x="974" d="M66 821v260h229q4 207 126 333t324 126q106 0 183 -47q88 -56 88 -156q0 -68 -38 -107.5t-99 -39.5q-63 0 -101.5 32.5t-38.5 84.5q0 20 13.5 52t13.5 38q0 35 -53 35q-68 0 -86 -97q-8 -41 -9 -141l209 -113l88 -159l-110 -101h-187v-903l78 -49v-125q-88 25 -460 25v59 q23 4 40 80q16 66 17 117v796h-227z" />
<glyph unicode="g" horiz-adv-x="1161" d="M102 524q0 63 13.5 131t29.5 82q10 137 125 221q106 78 252 78q88 0 156 -53q43 -41 84 -80h6q25 0 40 59.5t32 59.5q27 0 92 -12q76 -16 76 -33v-1108q0 -150 -54 -254q-70 -133 -209 -133q-41 0 -86 12q-10 -10 -38 -10q-47 0 -114 23.5t-81 46.5q-55 14 -55 88 q0 37 22.5 70.5t52.5 33.5q14 0 29 -8q8 8 21 8q27 0 59.5 -26.5t32.5 -39t4 -34t4 -32.5t22 -20q25 -8 31 0q14 -6 29 -6q49 0 80 70q27 55 26 111v368q-2 0 -2 -2q-90 -143 -260 -143q-176 0 -293 114q-112 111 -112 279q0 25 2 51q-16 18 -17 88zM336 518q0 -168 33 -190 q6 -61 67.5 -97t141.5 -36q111 0 178 71q60 62 60 146q0 10 -1 20q10 10 10 64q0 57 -11 122.5t-26 75.5q-6 68 -69.5 113t-143.5 45q-96 0 -163 -68q-68 -66 -68 -165q0 -15 2 -31q-10 -12 -10 -70z" />
<glyph unicode="h" horiz-adv-x="1179" d="M104 1509q2 2 10.5 32t12.5 30q39 0 141 -12q123 -14 123 -29v-608l2 2q104 135 283 135q193 0 260 -152q39 -33 86 -293q2 -10 15.5 -35.5t13.5 -46.5v-464q0 -29 -43 -53.5t-78 -24.5q-37 0 -77 25.5t-42 60.5l-18 629q-2 78 -45 131q-51 61 -140 61q-74 0 -126 -56.5 t-56 -125.5q-8 -6 -16 -183q-6 -147 -7 -194l39 -168q1 -4 1 -12q0 -25 -11 -83q-14 -75 -31 -75q-39 0 -131 12q-113 14 -112 31v1403q0 20 -23 41q-16 12 -31 22z" />
<glyph unicode="i" d="M145 80v672q0 6 43 15t43 13q2 76 2 124q0 72 -4 81q-20 2 -41 4l4 25q3 26 5 26q35 0 137 -12q125 -12 125 -27l12 -708q0 -12 47 -56t62 -47l4 -151q0 -14 -191 -27q-156 -12 -207 -12q-14 0 -27.5 29.5t-13.5 50.5zM195 1313q0 57 42 99t101 42q57 0 100 -41t43 -100 t-42 -99t-101 -40t-101 39.5t-42 99.5z" />
<glyph unicode="j" horiz-adv-x="643" d="M-25 -303q-1 5 -1 11q0 22 12 54q16 39 37 31q4 8 12 8q27 0 51 -34q2 -6 5 -17.5t11 -7.5q4 -4 11 -4q10 0 51 24q68 49 67 181v815q0 18 -48 57t-64 41v141q0 16 151 31q111 13 153 13q11 0 17 -1q12 0 24.5 -44t12.5 -66l-12 -920q-2 -147 -70 -252 q-76 -119 -213 -141q-4 -4 -22 -8q-6 -1 -11 -1q-9 0 -14 3q-13 -2 -25 -2q-38 0 -73 18q-53 25 -62 70zM209 1315q0 57 42 98t101 41q57 0 99.5 -41t42.5 -98q0 -59 -42 -100t-100 -41q-61 0 -102 40.5t-41 100.5z" />
<glyph unicode="k" horiz-adv-x="1159" d="M139 76v49q23 0 23 164v1149q0 78 -21 82q0 14 2 28q4 6 107 13q57 4 112 8q16 0 31 -36t15 -58v-770q0 -14 16 -15q57 0 123 78q29 12 80 82q25 37 51 74l272 108q46 17 69 17h7q0 -10 2 -23q-27 -53 -115 -174q-66 -70 -153 -170q-18 -18 -34 -36q-19 -21 -19 -39 q0 -22 104 -144q61 -72 125 -144l92 -108l72 -174q4 -8 -62.5 -22.5t-89.5 -14.5q-16 0 -43 29l-270 290q-8 8 -55 3q-53 -8 -58 -7q-4 0 -12 13.5t-12 13.5q6 -6 4 -16q-8 -4 -53 0q-41 4 -41 -11q-7 0 -7 -32q0 -16 2 -41q8 -111 9 -127q0 -41 -11 -52q-2 -72 -79 -73 q-45 0 -111 24q-72 29 -72 62z" />
<glyph unicode="l" horiz-adv-x="626" d="M-8 1446q-1 4 -1 10q0 20 10 60q13 54 26 53h381q30 0 30 -62v-12l-24 -1331v-6q0 -83 55 -97q20 -8 39 -4q-2 -27 -6 -55q-29 -14 -90 -14q-76 0 -142 39q-76 45 -75 110v1182q0 84 -80 90q-23 2 -54 4q-66 6 -69 33z" />
<glyph unicode="m" horiz-adv-x="1742" d="M94 952q0 25 10 35q-2 16 17.5 34.5t38.5 18.5q16 0 80.5 -15t78.5 -24l62 -30q6 -4 14 -38t17 -28l2 2q16 20 43 47q96 106 231 107q162 0 248 -133q119 129 283 129q111 0 185.5 -56.5t98.5 -150.5q23 -14 49 -199q14 -104 27 -211q2 -14 35 -31.5t33 -27.5v-336 q0 -16 -74 -33q-58 -12 -83 -12h-7q-129 16 -129 43l-17 705q-2 78 -46 135t-111 57q-82 0 -133 -74q-45 -63 -50 -149l-36 -643q-2 -14 -50 -25q-35 -6 -57 -6q-104 0 -104 27v655q0 68 -39 113q-45 49 -121 49q-94 0 -150 -156l-28 -78v-612q0 -14 -95 -29 q-80 -12 -110 -12q-14 0 -27.5 43t-13.5 63v574q0 33 -36 134t-36 138z" />
<glyph unicode="n" horiz-adv-x="1189" d="M94 930q0 47 12 59q-2 16 16.5 33.5t37.5 17.5q33 0 116 -10q102 -14 105 -29q2 -39 10 -83l2 2q125 141 303 141q144 -1 246 -99q95 -91 95 -224q0 -10 -1 -21l-32 -590q-2 -29 53 -64q-2 -2 -10.5 -32.5t-12.5 -28.5q-70 8 -139 16q-125 14 -127 27l-18 68l38 63v543 q0 72 -45 120t-127 48q-123 0 -167 -111q-12 -8 -24.5 -41t-12.5 -47v-647q0 -14 -95 -29q-78 -12 -110 -12q-12 0 -29 195l-12 208v29q-2 12 -37 216t-35 282z" />
<glyph unicode="o" horiz-adv-x="1155" d="M96 522q0 68 17.5 142.5t38.5 89.5q16 137 147 223q121 80 285 80q158 0 276 -80q127 -86 144 -221q20 -14 38.5 -90t18.5 -144q-1 -66 -19 -86q2 -27 2 -51q0 -180 -136 -294t-324 -114q-193 0 -328 111q-143 117 -143 299q0 25 4 49q-20 18 -21 86zM358 467 q0 -139 29 -162q2 -74 59.5 -121t137.5 -47q104 0 168 94q56 80 56 191q0 11 -1 22q18 25 18 121q0 180 -34 211q-4 72 -58.5 117t-128.5 45q-232 0 -232 -298q0 -18 1 -38q-14 -23 -15 -135z" />
<glyph unicode="p" horiz-adv-x="1185" d="M86 944q0 25 12 37q-4 18 16.5 38.5t37.5 20.5q35 0 118 -12q102 -14 105 -31l4 -65l4 2q109 123 268 123q135 0 246 -80q117 -88 131 -219q18 -16 34.5 -90t16.5 -142t-18 -88q2 -23 2 -45q0 -174 -128 -295t-319 -121q-111 0 -210 86v-264q0 -20 41.5 -70.5t37.5 -60.5 q4 -6 4 -16q0 -23 -10 -47.5t-20 -24.5q-37 0 -162 14q-147 16 -147 31l-5 144l41 96l-20 807q0 29 -40 131t-40 141zM393 618q0 -94 19 -227q20 -141 37 -151q4 -43 55 -72q45 -23 104 -23q104 0 176 101q59 84 59 172q0 8 -1 16q12 14 12 94q0 162 -33 191 q-4 72 -66.5 125t-140.5 53q-90 0 -156 -69q-58 -61 -58 -134q0 -9 1 -18q-8 -6 -8 -58z" />
<glyph unicode="q" horiz-adv-x="1185" d="M106 512q1 66 15 86q-2 23 -2 45q0 141 83 245.5t210 139.5q53 14 92 16q47 31 106 31q147 0 244 -143h2q10 18 23 39q23 33 43 28q35 -6 75 -24q51 -25 52 -47v-43q-12 -2 -19 -303q-4 -307 -8 -314q-2 -37 -23 -37v-645q-37 0 -110 8q-96 10 -96 25l-2 31q26 2 26 168 v12l-16 240q-18 -16 -105 -41q-6 -2 -84 -21q-55 -14 -98 -14q-20 0 -41 2q-129 20 -219 98t-102 193q-18 16 -32 86.5t-14 138.5zM358 524q0 -168 31 -194q6 -70 64.5 -114t136.5 -44q82 0 142 52q55 47 55 113q0 6 -1 13q6 6 7 60q0 82 -14.5 196.5t-26.5 122.5 q-6 53 -57.5 84t-116.5 31q-96 0 -158 -77q-54 -67 -54 -147q0 -12 1 -24q-8 -12 -9 -72z" />
<glyph unicode="r" horiz-adv-x="845" d="M117 942q0 10 2 19q-2 9 -2 18q0 15 6 31q10 26 24 30q6 2 18 2q32 0 108 -11q106 -15 106 -30q2 -43 10 -86q2 -29 25 -6q6 0 24.5 22.5t22.5 24.5q99 101 190 101h8q13 6 23 6q13 0 23 -10q49 -4 79.5 -44t30.5 -89q0 -43 -24 -86q-25 -49 -60 -50q-12 0 -26 11 q-8 -10 -19 -11q-18 0 -39.5 22.5t-25.5 41.5q-8 33 -7 35q-4 27 -22 26q-35 0 -90.5 -76.5t-61.5 -134.5l-28 -227q0 -27 47 -117q49 -96 69 -96v-217q0 -14 -82 -31q-74 -14 -96 -14q-33 2 -86 12q-72 14 -71 29l-19 661q0 31 -28.5 123t-28.5 121z" />
<glyph unicode="s" horiz-adv-x="1052" d="M117 739q-1 147 105 239q92 79 209 79q18 0 36 -2q12 10 37 10q29 0 92 -18q43 -14 59 -14q4 0 7 1q16 -2 34 17q33 -4 64 -9q55 -10 55 -16q0 -45 -33 -98l-82 -125q-33 0 -71 -2q-46 73 -145 73h-3q-25 0 -47 -6q-80 -24 -80 -84v-6q6 -92 103 -104q49 -6 118 -17 q92 -14 152 -41q225 -88 225 -297q0 -152 -104 -251q-96 -94 -223 -95q-31 0 -58 7q-23 -20 -88 -21q-84 0 -174 29.5t-102 68.5q-25 4 -43 74q-16 59 -17 102q1 9 65 17q44 6 64 5q10 0 15 -1h2q27 0 109 -51q86 -53 122 -53q18 0 33 10q18 -6 39 -6q51 0 87 42t36 97 q0 104 -156 125q-61 4 -133 16q-131 16 -217 94q-92 84 -92 211z" />
<glyph unicode="t" horiz-adv-x="866" d="M18 844q0 33 13 90q16 68 30 80q43 20 86 43q68 33 78 71q6 29 23 82q10 39 22.5 78t26.5 45h4q14 0 53 -12q39 -14 54 -25l43 -26q10 -8 10 -94v-105q2 -45 16 -45q4 0 42 3t46 3h51q27 0 74 -10q59 -14 60 -29q0 -18 -15.5 -59t-27.5 -53l-58 -60q-4 -6 -101 -13 t-97 -17v-472q0 -66 34.5 -132t79.5 -66q27 0 51 24q6 -6 13 -6q13 1 43 65q26 56 48 55q3 0 7 -1q2 4 10 4q18 0 47 -14.5t29 -26.5q-12 -172 -106 -198q-10 -18 -45 -36t-66 -18q-23 0 -37 13q-35 -10 -70 -11q-111 0 -187.5 87t-80.5 214q-10 8 -10 215v248q-4 27 -8 39 q-2 45 -17 45h-43q-127 0 -125 25z" />
<glyph unicode="u" horiz-adv-x="1187" d="M131 979q0 2 7 32.5t14 30.5q35 0 135 -14q121 -16 121 -33v-684q0 -78 49 -121t123 -43q154 0 202 199v590q0 23 13.5 63.5t27.5 40.5q33 0 111 -10q94 -14 94 -29v-737q0 -137 29 -137v-39q0 -90 -187 -104h-3q-51 0 -62 71q-2 27 -8 60q-4 23 -13 24q-6 0 -16 -10 q-18 -27 -49 -57q-86 -100 -227 -101q-141 0 -238 95q-95 93 -95 239q0 11 1 23l24 587q0 20 -22 39q-16 12 -31 25z" />
<glyph unicode="v" horiz-adv-x="1011" d="M20 987q-4 14 99 35q90 18 119 18q18 0 51 -88l209 -565q4 -10 12 -10q23 0 65.5 63.5t51.5 102.5l69 334q8 35 29 94q25 74 37 73q27 0 110 -8q100 -12 101 -22q8 -22 14 -49l-80 -97l-297 -850q-8 -26 -94 -26h-6q-88 0 -98 26l-240 623q-23 63 -74 176 q-57 129 -67 129z" />
<glyph unicode="w" horiz-adv-x="1552" d="M10 985q6 27 21 31q9 3 38 3t78 -3q106 -6 113 -23l197 -633q8 -25 28 -24q23 0 29 24l143 578q20 86 49 86h1q166 -10 172 -29l184 -633q4 -16 18 -16t19 16l160 562q6 23 31.5 63.5t37.5 32.5q2 -2 84 -16q74 -11 72 -19l-289 -948q-12 -43 -127 -43q-98 0 -108 39 l-185 639q-6 18 -24 18q-20 0 -25 -20l-145 -641q-8 -33 -109 -33q-94 0 -104 31l-203 612q-16 57 -92 180q-68 106 -62 125q-5 8 -5 20q0 9 3 21z" />
<glyph unicode="x" horiz-adv-x="1042" d="M51 987q0 51 35 51q33 0 125 -10q115 -10 123 -24l145 -218q4 -8 17 -8q23 0 57.5 23.5t44.5 42.5l80 131q40 65 62 65h1q37 0 131 -20q94 -23 94 -38q0 -1 -1 -3l-244 -375q-6 -10 -6 -26q0 -59 73 -201q59 -111 93 -154q2 -6 34.5 -50t36.5 -44l39 -66q1 -2 1 -4 q0 -21 -95 -43q-88 -20 -125 -20q-27 0 -82 80l-135 194q-25 45 -25 62q0 10 -12 24.5t-16 14.5q-20 0 -92 -113q10 -14 20 -29q-6 -37 -18 -75l-191 -113q-74 -45 -121 -45q-8 0 -10 39t-4 43q-4 6 27.5 35.5t33.5 31.5l187 322q4 8 4 20q0 51 -70 183q-59 109 -86 141 q-4 8 -62.5 70.5t-56.5 68.5q-12 14 -12 37z" />
<glyph unicode="y" horiz-adv-x="1019" d="M10 -307q-1 7 -1 13q0 33 17 70q19 44 50 44q10 0 24 -8q8 12 21 12q20 0 41.5 -22.5t21.5 -41.5q0 -4 2 -12v-12q0 -6 9.5 -13.5t11.5 -1.5q36 -24 67 -24h2q63 0 99 94q31 82 31 199q0 106 -25 166l-318 770q-20 49 -34 55q-2 12 -2 27q2 10 106 22q90 12 117 12 q31 0 65 -92l191 -512q8 -18 26 -18q20 0 27 18l160 518q27 86 57 86q23 0 105 -8q92 -10 93 -15t11 -28.5t8 -25.5l-67 -91l-291 -854q-6 -18 -36 -47.5t-36 -44.5q-127 -317 -344 -350q-4 -4 -23 -7q-12 -2 -18 -2q-4 0 -6 1q-11 -1 -21 -1q-47 0 -87 29q-50 35 -54 95z " />
<glyph unicode="z" horiz-adv-x="1073" d="M92 111q0 47 14 65l474 635q6 8 -13.5 29.5t-36.5 23.5l-184 10h-9q-37 0 -80 -15q-48 -17 -54 -40q-37 4 -72 15v8q0 28 10 94q14 88 29 88l573 16h8q39 0 93 -18q68 -23 63 -45l-37 -170l-434 -567q-2 -2 -2 -4q0 -17 101 -37q94 -18 147 -21q5 -1 14 -1q19 0 56 3 q72 6 100 6q55 0 72 -16q18 0 36.5 -17.5t18.5 -33.5q-2 -16 -53.5 -67.5t-67.5 -51.5h-723q-43 0 -43 111z" />
<glyph unicode="{" horiz-adv-x="770" d="M74 739q0 14 41 31q25 4 55 21q74 27 74 133q4 6 4 47q0 39 -6 170t-6 184q0 76 10 82q0 92 57 166q66 78 164 78q61 0 129 -33l78 -39q18 -10 12 -23q-4 -10 -33 -16q-66 -6 -139 -31q-57 -12 -57 -127v-350q0 -78 -23 -166q-33 -115 -86 -129l2 -4q53 -14 84 -129 q23 -86 23 -164v-348q0 -72 39 -106q14 -14 102 -58l76 -37q20 -10 12 -22q-8 -14 -39 -12q-29 -8 -92 -7q-66 2 -80 17q-229 12 -229 203q-10 8 -10 90q0 49 8 235q6 143 0 158q0 55 -33 82q-2 4 -23 20l-65 39q-49 31 -49 45z" />
<glyph unicode="}" horiz-adv-x="770" d="M84 -84q2 10 31 16q66 6 139 31q57 14 57 129v348q0 78 25 166q31 115 84 129v4q-53 14 -84 129q-25 86 -25 164v350q0 115 -57 127q-4 10 -61 19q-68 8 -80.5 12t-28.5 16q2 31 12 62q4 18 56 18q94 0 127 -26q246 -8 245 -203q8 -8 8 -72q0 -49 -6 -179t-6 -173 q0 -51 4 -59q0 -147 117 -154l14 -2q41 -2 41 -29q0 -14 -51 -45q-32 -21 -65 -39q-10 -6 -23 -20q-33 -27 -33 -82q-4 -14 2 -158q8 -184 9 -235q0 -82 -11 -90q0 -197 -245 -207q-33 -27 -127 -27q-51 0 -57.5 23.5t-10.5 56.5z" />
<glyph unicode="~" horiz-adv-x="1083" d="M102 762q47 94 119 121q49 25 129 24q72 0 129 -18q68 -27 201 -60q74 -8 125 7q68 16 98 65q8 0 37 -31t25 -39q-41 -80 -115 -122q-59 -31 -150 -31q-70 0 -131 20q-68 27 -190 60q-70 6 -123 -6q-37 -10 -84 -58q-4 -2 -10 -4q-8 0 -34 31t-26 41z" />
<glyph unicode="&#xa1;" horiz-adv-x="661" d="M160 1012q0 70 48 119t118 49t119 -49t49 -119q0 -68 -49.5 -117t-118.5 -49q-70 0 -118 49t-48 117zM193 -141q-6 47 12 405q18 383 39 424q4 55 30 62h58q55 -2 59 -5q39 -170 49 -325q6 -49 29 -295q27 -297 27 -408q-1 -57 -7 -59q0 -23 -90 -47q-82 -20 -143 -21 q-39 0 -51 43q-20 80 -12 226z" />
<glyph unicode="&#xa4;" horiz-adv-x="1024" />
<glyph unicode="&#xa7;" horiz-adv-x="1024" />
<glyph unicode="&#xa8;" horiz-adv-x="815" d="M72 1313q0 55 38 93t93 38q53 0 92 -38t39 -93q0 -53 -39 -92t-92 -39t-92 39t-39 92zM483 1313q0 55 38 93t93 38t93 -38t38 -93q0 -53 -38.5 -92t-92.5 -39q-53 0 -92 39t-39 92z" />
<glyph unicode="&#xab;" horiz-adv-x="1441" d="M135 571q0 49 45 88q6 45 180 189q170 137 207 145q35 29 64 13q14 -10 33.5 -39t19.5 -47v-10.5t-108.5 -140.5t-102.5 -151q-2 -4 -2 -10q0 -29 61 -123q68 -100 72 -116l43 -164q14 -55 -10 -76q-35 -25 -43 -25q-4 0 -6 2l-340 306q-90 78 -88 96q-25 29 -25 63z M760 571q0 49 47 88q4 45 180 189q168 137 207 145q34 29 63 13q14 -10 34 -39t20 -47v-10.5t-109.5 -140.5t-101.5 -151q-2 -4 -2 -10q0 -29 61 -123q68 -100 72 -116l43 -164q14 -55 -10 -76q-35 -25 -45 -25q-4 0 -7 2l-338 306q-90 78 -88 96q-27 29 -26 63z" />
<glyph unicode="&#xac;" horiz-adv-x="1024" />
<glyph unicode="&#xad;" horiz-adv-x="729" d="M82 457q0 37 10 133q14 115 31 115h22q0 -14 41 -25q33 -10 56 -10h245q23 0 60 10t39 25h22q14 0 29 -115q10 -84 12 -131q0 -16 -19.5 -31.5t-37.5 -11.5q-8 -6 -55.5 13.5t-55.5 19.5h-280q-96 0 -103 -3q0 2 -8 5.5t-8 5.5z" />
<glyph unicode="&#xaf;" horiz-adv-x="772" d="M66 1319q0 31 20 31h596q6 0 14 -58q6 -49 6 -67q0 -8 -179 -16.5t-189 -4.5l-248 82q-20 8 -20 33z" />
<glyph unicode="&#xb1;" horiz-adv-x="256" />
<glyph unicode="&#xb4;" horiz-adv-x="614" d="M84 1223q0 2 10 16l279 317q49 57 102 58q45 0 75 -31t30 -76q0 -53 -60 -94l-342 -233q-14 -8 -18 -9q-8 0 -42 21.5t-34 30.5z" />
<glyph unicode="&#xb7;" horiz-adv-x="1024" />
<glyph unicode="&#xb8;" horiz-adv-x="559" d="M96 -354q-8 16 9.5 36.5t35.5 18.5q12 0 31 -14q6 -6 14 -13q41 -35 93 -34q33 0 61.5 25.5t19.5 55.5q6 6 -2 35t-16 39q-4 18 -23.5 31.5t-42.5 11.5q-16 6 -67 -2q-8 0 -44 10l-36 11l35 190h147l-18 -129q41 4 51 0q47 -2 87 -36t44 -85q6 -10 10 -43q6 -33 -2 -41 q6 -78 -58.5 -127t-150.5 -49q-135 0 -165 78q-6 2 -11.5 14.5t-1.5 16.5z" />
<glyph unicode="&#xbb;" horiz-adv-x="1441" d="M139 920q0 18 19.5 46.5t34.5 39.5q29 16 63 -13q39 -8 207 -145q176 -143 182 -189q45 -39 45 -88q1 -34 -26 -63q2 -18 -89 -96l-337 -306q-6 -6 -44 50.5t-42.5 59.5t-4.5 9q0 29 29 66l121 166q59 82 59 137q0 14 -6 24q4 14 -103.5 150.5t-103.5 142.5q-4 2 -4 9z M770 909v11q0 18 19.5 46.5t33.5 39.5q29 16 64 -13q37 -8 207 -145q174 -143 180 -189q45 -39 45 -88q0 -34 -25 -63q2 -18 -88 -96l-338 -306q-8 -6 -45 50.5t-41 59.5t-4 9q0 29 27 66l123 166q59 82 59 137q0 14 -6 24q4 14 -103.5 150.5t-107.5 140.5z" />
<glyph unicode="&#xbf;" horiz-adv-x="1118" d="M125 -8q0 115 53 198q41 66 141 146q45 33 97 80q68 55 67 149q0 14 -2 31l-10 45q-2 18 9.5 42t25.5 24q29 0 102 -9q90 -12 94 -22q2 -25 5 -60q6 -63 6 -61q14 -147 -164 -324q-39 -35 -80 -79q-76 -74 -76 -185q0 -88 47 -155q57 -80 154 -80q109 0 145 59 q12 20 17 39q12 51 28 96q4 25 19 56q27 70 110 59q43 -4 71 -35t28 -72q0 -10 -2 -22q4 -4 0 -27q-4 -20 -11 -24q-27 -131 -142.5 -207t-270.5 -76q-203 0 -332 113.5t-129 300.5zM408 1012q0 70 48 118t117 48q68 0 117 -48t49 -118t-49 -119t-117 -49q-70 0 -117.5 49 t-47.5 119z" />
<glyph unicode="&#xc1;" horiz-adv-x="1294" d="M55 33l13 49q20 2 108 244l404 1224q4 12 143 -159q78 -98 158 -199l26 -33l166 -461l174 -647q4 -14 -139 -35q-127 -20 -164 -20q-35 0 -45 43l-53 221q14 25 22 55q-16 23 -30 45q-27 41 -39 41h-230q-25 0 -82 -12q-66 -14 -69 -24l-121 -322q-16 -43 -29 -43 q-20 0 -112 12q-102 12 -101 21zM489 1726q0 4 11 19l284 326q53 61 109 61q47 0 76.5 -32t29.5 -79q0 -55 -61 -96l-350 -239q-14 -8 -19 -9q-8 0 -44 21.5t-36 27.5zM500 608q-4 -12 22.5 -29.5t44.5 -17.5h150q23 0 52.5 15.5t23.5 33.5l-142 535l-2 -2z" />
<glyph unicode="&#xc2;" horiz-adv-x="1294" d="M55 33l13 49q20 2 108 244l404 1224q4 12 143 -159q78 -98 158 -199l26 -33l166 -461l174 -647q4 -14 -139 -35q-127 -20 -164 -20q-35 0 -45 43l-53 221q14 25 22 55q-16 23 -30 45q-27 41 -39 41h-230q-25 0 -82 -12q-66 -14 -69 -24l-121 -322q-16 -43 -29 -43 q-20 0 -112 12q-102 12 -101 21zM340 1729l207 219q49 51 63 51q12 10 43 10q59 0 84 -24l219 -224q41 -41 31 -53q-4 -6 -56 -19.5t-59 -9.5l-196 127q-25 16 -125 -47l-133 -82q-6 -2 -27.5 5.5t-25.5 11.5q-27 35 -25 35zM500 608q-4 -12 22.5 -29.5t44.5 -17.5h150 q23 0 52.5 15.5t23.5 33.5l-142 535l-2 -2z" />
<glyph unicode="&#xc7;" horiz-adv-x="1331" d="M98 807q0 114 25 143q-2 29 -2 56q0 233 162.5 399t406.5 166q193 0 326 -131q41 -39 65 -76q27 -29 56 -70q18 -25 18 -26q18 -27 19 -117q0 -115 -27 -115q-39 0 -90 31l-35 20q-51 31 -107 115q-72 106 -90 129q-57 61 -133 62q-106 0 -185 -66.5t-87 -167.5 q-27 -20 -45 -160q-18 -129 -19 -254q0 -121 19 -143q-12 -154 76 -272q92 -127 241 -127q133 0 222.5 81t99.5 212q0 16 4 34q0 10 32.5 21.5t49.5 11.5q20 0 58 -10t36 -21q4 -2 2 -18q-2 -14 -6 -18q-14 -166 -111 -301q-106 -150 -245 -158l-7 -29q-27 -43 -77 -94 q23 2 51 -4q66 -4 107.5 -48t31.5 -114q10 -10 4 -49t-18 -47q-8 -59 -69.5 -94t-133.5 -35q-66 0 -115 18q-74 25 -67 76q-6 4 -4 21q2 16 8 20q4 35 39 31q14 0 30 -15l15 -10q45 -37 96 -37q37 0 65.5 27t20.5 59q8 6 0 37t-18 37q-12 49 -70 45q-10 8 -68 -2 q-8 0 -45 12l-37 11l25 131q-164 20 -284.5 126.5t-135.5 256.5q-29 25 -54.5 171t-25.5 269z" />
<glyph unicode="&#xd8;" horiz-adv-x="1370" d="M123 315q-23 74 6 109q8 162 129 299q117 131 236 131q104 0 178 -51q-43 59 -43 135v348q0 47 45 131q43 76 80 113q20 18 65 22q33 4 90 2q76 -4 78 -4q35 0 60 -49q35 -63 47 -74l10 27q4 -2 14 -8q74 -35 111 -105q25 -47 24 -112q0 -41 -10 -82q0 -20 -22 -90 q-27 -76 -27 -84q14 -106 14 -146q0 -78 -30 -125q-6 -96 -95 -245q-92 -160 -161 -160q-10 0 -42 3t-51 3q-68 0 -88 -41q-37 -8 -71 -112q-39 -121 -58 -138q-37 -35 -243 -35q-33 0 -56 60q-27 74 -41 88l-6 -19q-10 12 -37.5 31t-38.5 41q-37 35 -67 137zM373 739 q4 -195 10 -227q2 -43 16 -86l508 860q-84 139 -221 139q-145 0 -235 -161q-76 -137 -72 -306q-10 -14 -6 -219zM455 254q82 -129 204 -129q158 0 248 176q74 143 72 309q8 12 2 217q-4 193 -10 224q-2 14 -6 43z" />
<glyph unicode="&#xdf;" horiz-adv-x="1265" d="M158 1104q-2 186 106.5 290.5t278.5 94.5q12 12 82 8t84 -18q141 -10 241.5 -113.5t100.5 -247.5q0 -190 -174 -293q280 -108 280 -389q0 -188 -108 -323q-115 -139 -289 -140q-27 0 -55 4q-14 -12 -58 -12q-102 0 -110 35q-12 2 -26.5 60.5t-14.5 95.5q0 12 4 19t39 5 q72 0 67 0q45 -2 99 4q92 4 151 74t62 170q2 115 -70 193.5t-176 87.5q-6 4 -55.5 4t-57.5 2q-41 4 -47 24q-4 10 5 74t20 64q0 10 54 8t58 2q78 6 126 74.5t46 164.5q-4 106 -55 174t-137 60q-8 8 -68 2q-59 -8 -65 -19q-102 -12 -103 -153v-1241q0 -16 -49 -21 q-35 -4 -100 -2q-76 4 -72 4q-4 0 -7 12.5t-5 14.5q10 16 10 113z" />
<glyph unicode="&#xe6;" horiz-adv-x="1724" d="M100 291q0 309 336 342q8 10 100.5 18t106.5 2q20 4 60 40t32 48q6 18 6 56q2 43 -8 51q-2 41 -38 68.5t-81 27.5q-106 0 -108 -37q0 -4 -4 -10t-4 -8q4 -8 -6.5 -20.5t-12.5 -18.5q-2 -14 -39 -25.5t-69 -11.5q-100 0 -101 94q0 59 37 68q16 31 117.5 60.5t183.5 29.5 q41 0 62 -8q20 4 41 4q117 0 198 -105q97 103 273 103q182 0 299 -121q125 -129 127 -352q2 -2 2 -31q2 -27 -2 -29q0 -20 -70 -39q-61 -18 -98 -18h-426q-27 0 -27 -45q0 -18 10 -31q-10 -47 33 -90t92 -43q29 0 73 31t54 31q8 0 15 -7q6 2 10 2q18 0 38.5 -54t47.5 -58 q39 -2 90 -12q61 -10 51 -62q-16 -82 -102 -123q-70 -31 -160 -31h-53q-127 2 -234 62q-84 47 -125 106q-135 -174 -383 -174q-147 0 -239 74q-104 86 -105 246zM338 299q0 -131 137 -131q141 0 242 98q14 4 31 29q6 8 12 53t4 55q0 10 -8 46t-17 40q-63 33 -71 31 q-14 6 -88 -7t-91 -34q-152 -35 -151 -180zM993 655q2 -23 29 -22h260q70 0 70 29q2 2 2 16q-2 12 -4 14q-2 86 -43 144q-45 66 -125 65q-86 0 -139.5 -62.5t-49.5 -160.5v-23z" />
<glyph unicode="&#xe7;" horiz-adv-x="1140" d="M90 514q0 102 77 219t155 133q43 8 77 6q2 4 4 11v20q16 68 119 111q96 39 207 39q72 0 168 -95q106 -102 107 -208q12 -12 12 -43t-12 -39q0 -25 -32 -41.5t-63 -16.5q-49 0 -69 39q-14 8 -27 51q-8 14 -20 66q-4 14 -11 27q-57 90 -186 90q-104 0 -173 -82t-61 -191 q-10 -14 -10 -80q0 -164 31 -190q4 -68 60.5 -118t131.5 -50q55 0 126 81t114 83l59 2q119 4 124.5 -7.5t5.5 -23.5q0 -57 -52 -110q-4 -14 -43 -45t-45 -46q-16 -16 -28 -57q-16 -49 -29 -69q-63 -109 -139 -119q-47 -6 -58 -4q-37 8 -47 30q0 4 2 4l11 -12q12 -12 22 -12 h47q109 -6 109 -109q6 -6 4 -37q0 -31 -6 -32q0 -41 -37 -61.5t-84 -16.5q-20 0 -43 19.5t-34 24.5t-87 19q-61 12 -53 27q6 14 18 29q8 -2 25 -15q4 -4 10 -8q27 -23 76 -22q27 0 53.5 27.5t17.5 51.5q4 4 -3 31t-13 31q-12 43 -55 45q-2 2 -51 2q-31 14 -64 31q2 57 0 119 q-129 31 -227 120q-102 98 -103 203q0 41 19 82q-27 31 -27 86z" />
<glyph unicode="&#xec;" d="M-63 1507q0 45 28.5 76t73.5 31q53 0 104 -58l277 -317q10 -14 10 -16q0 -8 -32.5 -30t-41.5 -22q-6 0 -20 9l-340 233q-59 41 -59 94zM131 80v672q0 6 43 15t43 13q2 190 -4 205q-20 2 -41 4q2 0 5 25l3 26q35 0 139 -12q125 -12 125 -27l13 -708q0 -12 46 -56t62 -47 l2 -151q0 -14 -190 -27q-156 -12 -205 -12q-14 0 -27.5 29.5t-13.5 50.5z" />
<glyph unicode="&#xed;" d="M131 80v672q0 6 43 15t43 13q2 190 -4 205q-20 2 -41 4q2 0 5 25l3 26q35 0 139 -12q125 -12 125 -27l13 -708q0 -12 46 -56t62 -47l2 -151q0 -14 -190 -27q-156 -12 -205 -12q-14 0 -27.5 29.5t-13.5 50.5zM162 1223q0 2 8 16l279 317q51 57 104 58q45 0 73.5 -31 t28.5 -76q0 -53 -59 -94l-342 -233q-12 -8 -18 -9q-8 0 -41 21.5t-33 30.5z" />
<glyph unicode="&#xee;" d="M16 1227l201 209q45 49 59 49q12 10 43 10q53 0 78 -25l211 -213q41 -39 31 -51q-6 -6 -54 -20.5t-55 -9.5l-188 122q-27 14 -123 -45l-129 -77q-4 -4 -25.5 3t-25.5 13q-25 33 -23 35zM131 80v672q0 6 43 15t43 13q2 190 -4 205q-20 2 -41 4q2 0 5 25l3 26q35 0 139 -12 q125 -12 125 -27l13 -708q0 -12 46 -56t62 -47l2 -151q0 -14 -190 -27q-156 -12 -205 -12q-14 0 -27.5 29.5t-13.5 50.5z" />
<glyph unicode="&#xef;" d="M-6 1309q0 53 38 92t93 39q53 0 92 -39t39 -92t-39 -92t-92 -39t-92 38.5t-39 92.5zM131 80v672q0 6 43 15t43 13q2 190 -4 205q-20 2 -41 4q2 0 5 25l3 26q35 0 139 -12q125 -12 125 -27l13 -708q0 -12 46 -56t62 -47l2 -151q0 -14 -190 -27q-156 -12 -205 -12 q-14 0 -27.5 29.5t-13.5 50.5zM391 1309q0 53 38 92t93 39q53 0 92 -39t39 -92t-39 -92t-92 -39q-55 0 -93 38.5t-38 92.5z" />
<glyph unicode="&#xf7;" horiz-adv-x="256" />
<glyph unicode="&#xf8;" horiz-adv-x="1187" d="M78 -233q-10 6 26.5 68.5t38.5 66.5q14 33 37 163t15 160q-61 96 -62 211q-10 252 17 273q8 156 145 254q129 94 303 94q113 0 209 -47l143 252q4 8 23 8q59 0 104 -29q-20 -39 -39 -82q80 -96 80 -190q0 -37 -14 -72q6 -27 -51 -156q-35 -74 -70 -149q29 -61 29 -121 q0 -33 -8 -63q2 -27 -23 -117q-27 -96 -45 -107q-29 -92 -124 -149.5t-214 -57.5q-129 0 -236 56l-153 -262q-12 -20 -23 -31q-6 -4 -53 8t-55 19zM416 412q0 -31 24 -107q20 -68 33 -84q4 -14 25 -33q57 0 155 218q95 209 95 299q-6 20 -14.5 41.5t-22.5 25.5 q-45 12 -174 -143.5t-117 -200.5q-4 -4 -4 -16zM438 373q12 -23 27.5 -49.5t36.5 -30.5q41 -14 172 133t123 190q4 4 4 23q0 39 -22.5 119t-33.5 94q-6 28 -43 51q-61 0 -165 -229q-98 -215 -99 -301z" />
<glyph unicode="&#x153;" horiz-adv-x="1824" d="M96 522q0 68 17.5 142.5t38.5 89.5q16 137 147 223q121 80 285 80q223 0 348 -166q117 166 338 166q182 0 299 -119q125 -129 125 -352q2 -2 4 -33q0 -31 -4 -33q0 -20 -66 -37q-57 -14 -102 -14h-391q-12 0 -35 -7t-23 -16q-10 -4 -6 -45q2 -41 12 -49 q4 -80 56.5 -143.5t122.5 -63.5q18 0 36 5q6 -4 17 -5q18 0 79.5 33t84.5 33q12 0 20 -6q33 8 63.5 -18.5t24.5 -57.5q-14 -80 -102 -121q-72 -33 -160 -31q-10 -6 -47 -4q-39 0 -47 7q-96 2 -179 53t-128 129q-131 -184 -340 -185q-193 0 -328 111q-143 117 -143 299 q0 25 4 49q-20 18 -21 86zM358 467q0 -139 29 -162q2 -74 59.5 -121t137.5 -47q104 0 168 94q61 88 55 213q18 25 18 121q0 180 -34 211q-4 72 -58.5 117t-128.5 45q-119 0 -182 -111q-55 -94 -49 -225q-14 -23 -15 -135zM1079 678q0 -10 2 -23q0 -23 27 -22h281 q12 0 30.5 9.5t18.5 19.5q2 2 2 16q0 12 -2 14q-4 86 -49.5 146.5t-124.5 60.5q-90 0 -139.5 -63.5t-45.5 -157.5z" />
<glyph unicode="&#x2c6;" horiz-adv-x="716" d="M51 1227l199 209q47 49 61 49q12 10 43 10q53 0 78 -25l211 -213q39 -39 29 -51q-4 -6 -53.5 -20.5t-53.5 -9.5l-190 122q-25 14 -121 -45l-129 -77q-4 -4 -25.5 3t-25.5 13q-25 33 -23 35z" />
<glyph unicode="&#x2dc;" horiz-adv-x="770" d="M51 1210q8 109 47 129q12 33 58.5 62t111.5 29q49 0 121 -37q31 -14 76 -37t67 -23q33 0 62 37t37 35q6 4 43 0t37 -14q-8 -104 -45 -125q-31 -86 -154 -86q-41 0 -106 30q-23 10 -60 29q-68 33 -90 33q-39 0 -69.5 -36t-38 -38t-52.5 0q-47 2 -45 12z" />
<glyph unicode="&#x2000;" horiz-adv-x="1066" />
<glyph unicode="&#x2001;" horiz-adv-x="2132" />
<glyph unicode="&#x2002;" horiz-adv-x="1066" />
<glyph unicode="&#x2003;" horiz-adv-x="2132" />
<glyph unicode="&#x2004;" horiz-adv-x="710" />
<glyph unicode="&#x2005;" horiz-adv-x="533" />
<glyph unicode="&#x2006;" horiz-adv-x="355" />
<glyph unicode="&#x2007;" horiz-adv-x="355" />
<glyph unicode="&#x2008;" horiz-adv-x="266" />
<glyph unicode="&#x2009;" horiz-adv-x="426" />
<glyph unicode="&#x200a;" horiz-adv-x="118" />
<glyph unicode="&#x2010;" horiz-adv-x="729" d="M82 457q0 37 10 133q14 115 31 115h22q0 -14 41 -25q33 -10 56 -10h245q23 0 60 10t39 25h22q14 0 29 -115q10 -84 12 -131q0 -16 -19.5 -31.5t-37.5 -11.5q-8 -6 -55.5 13.5t-55.5 19.5h-280q-96 0 -103 -3q0 2 -8 5.5t-8 5.5z" />
<glyph unicode="&#x2011;" horiz-adv-x="729" d="M82 457q0 37 10 133q14 115 31 115h22q0 -14 41 -25q33 -10 56 -10h245q23 0 60 10t39 25h22q14 0 29 -115q10 -84 12 -131q0 -16 -19.5 -31.5t-37.5 -11.5q-8 -6 -55.5 13.5t-55.5 19.5h-280q-96 0 -103 -3q0 2 -8 5.5t-8 5.5z" />
<glyph unicode="&#x2012;" horiz-adv-x="729" d="M82 457q0 37 10 133q14 115 31 115h22q0 -14 41 -25q33 -10 56 -10h245q23 0 60 10t39 25h22q14 0 29 -115q10 -84 12 -131q0 -16 -19.5 -31.5t-37.5 -11.5q-8 -6 -55.5 13.5t-55.5 19.5h-280q-96 0 -103 -3q0 2 -8 5.5t-8 5.5z" />
<glyph unicode="&#x2013;" horiz-adv-x="1052" d="M82 459q0 37 10 129q14 113 31 112h24q2 -14 52 -24q43 -10 67 -10h520q25 0 71 10t48 24h27q12 0 26 -112q12 -82 15 -127q0 -16 -20.5 -31.5t-39.5 -11.5q-8 -6 -63 13.5t-64 19.5h-577q-102 0 -109 -2q-2 2 -10 5t-8 5z" />
<glyph unicode="&#x2014;" horiz-adv-x="1849" d="M82 459q0 33 4 121q8 111 16.5 112.5t18.5 3.5q12 -31 88 -30h1360q25 0 69 10q53 10 54 24h28q14 0 29 -112q10 -82 12 -127q0 -2 -9 -5t-9 -5h-109h-1427q-100 0 -107 -2q-2 2 -10 5t-8 5z" />
<glyph unicode="&#x2018;" horiz-adv-x="610" d="M127 1346q0 43 16.5 95t34.5 64q10 47 53 84t95 37q12 0 26 -4q8 6 17 -4q29 -6 51 -36t16 -54q-6 -29 -78 -62q-2 -2 -6 -4q-63 -31 -51 -69q-4 -6 1 -22.5t11 -20.5q8 -20 43 -29q-2 0 11 -2q6 2 16 0q37 -2 67.5 -40t28.5 -85q0 -55 -35.5 -88t-89.5 -33 q-90 0 -155.5 58.5t-65.5 138.5q0 16 4 35q-10 10 -10 41z" />
<glyph unicode="&#x2019;" horiz-adv-x="610" d="M131 1460q0 70 47 116t117 46q74 0 128 -53t54 -121q0 -16 -4 -33q12 -14 12 -45q0 -47 -20.5 -103.5t-40.5 -70.5q-14 -53 -69.5 -87t-125.5 -36q-14 -10 -18 -2q-12 0 -27.5 32t-9.5 40q8 12 82 37q2 0 4 2q63 20 49 63q4 4 -2 23.5t-14 25.5q-4 16 -27 19q-8 0 -20 2 q-47 6 -81 46t-34 99z" />
<glyph unicode="&#x201a;" horiz-adv-x="1024" />
<glyph unicode="&#x201c;" horiz-adv-x="1062" d="M127 1346q0 43 16.5 95t34.5 64q10 47 53 84t95 37q12 0 26 -4q8 6 17 -4q29 -6 51 -36t16 -54q-6 -27 -78 -62q-2 -2 -6 -4q-63 -31 -51 -69q-4 -6 1 -22.5t13 -20.5q6 -20 41 -29q-2 0 11 -2q6 2 16 0q37 -2 67.5 -40t28.5 -85q0 -55 -36.5 -88t-88.5 -33 q-90 0 -155.5 58.5t-65.5 138.5q0 16 4 35q-10 10 -10 41zM578 1346q0 43 17 95t36 64q8 47 51 84t94 37q14 0 27 -4q10 6 16 -4q29 -6 51.5 -36t18.5 -54q-6 -29 -80 -62l-4 -4q-66 -31 -53 -69q-4 -6 2 -22.5t12 -20.5q6 -20 43 -29q-4 0 10 -2q6 2 15 0q39 -2 68.5 -40 t29.5 -85q0 -55 -37 -88t-90 -33q-88 0 -154.5 58.5t-66.5 138.5q0 16 4 35q-10 10 -10 41z" />
<glyph unicode="&#x201d;" horiz-adv-x="1062" d="M131 1460q0 70 47 116t117 46q74 0 128 -53t54 -121q0 -16 -4 -33q12 -14 12 -45q0 -47 -20.5 -103.5t-40.5 -70.5q-14 -53 -69.5 -87t-125.5 -36q-14 -10 -18 -2q-12 0 -27.5 32t-9.5 40q8 12 82 37q2 0 4 2q63 20 49 63q4 4 -2 23.5t-12 25.5q-6 16 -29 19q-8 0 -18 2 q-49 6 -83 46t-34 99zM580 1460q0 70 46.5 116t116.5 46q74 0 128.5 -53t54.5 -121q0 -16 -2 -33q10 -14 10 -45q0 -47 -20.5 -103.5t-41.5 -70.5q-12 -53 -68 -87t-126 -36q-14 -10 -19 -2q-12 0 -27.5 32t-8.5 40q8 12 82 37q2 0 6 2q61 20 47 63q4 6 -2 24.5t-13 24.5 q-6 16 -28 19q-8 0 -19 2q-49 6 -82.5 46t-33.5 99z" />
<glyph unicode="&#x201e;" horiz-adv-x="1062" d="M135 143q0 70 47 116t117 46q74 0 128 -53t54 -121q0 -16 -4 -33q12 -12 12 -45q0 -47 -20 -103t-41 -71q-14 -53 -69.5 -86t-125.5 -37q-14 -8 -18 -2q-12 0 -27.5 32t-9.5 40q8 14 82 37q2 0 4 2q63 20 49 63q4 6 -2 25.5t-12 23.5q-6 16 -29 19q-8 0 -18 4 q-49 6 -83 45t-34 98zM584 143q0 70 47 116t117 46q74 0 128 -53t54 -121q0 -16 -2 -33q10 -12 10 -45q0 -47 -20.5 -103t-40.5 -71q-12 -53 -68.5 -86t-126.5 -37q-14 -8 -18 -2q-12 0 -27.5 32t-9.5 40q8 14 82 37q2 0 6 2q61 20 47 63q4 6 -2 25.5t-12 23.5q-6 16 -29 19 q-8 0 -19 4q-49 6 -82.5 45t-33.5 98z" />
<glyph unicode="&#x2026;" horiz-adv-x="1812" d="M147 139q0 70 48.5 119t117.5 49q68 0 117 -49t49 -119t-49 -118t-117 -48q-70 0 -118 48.5t-48 117.5zM727 139q0 70 48 119t118 49q68 0 118 -49t50 -119t-49 -118t-119 -48t-118 48.5t-48 117.5zM1321 139q0 70 48 119t118 49q68 0 117 -49t49 -119t-49.5 -118 t-116.5 -48q-70 0 -118 48.5t-48 117.5z" />
<glyph unicode="&#x202f;" horiz-adv-x="426" />
<glyph unicode="&#x203a;" horiz-adv-x="1024" />
<glyph unicode="&#x205f;" horiz-adv-x="533" />
<glyph unicode="&#x25fc;" horiz-adv-x="1044" d="M0 0v1044h1044v-1044h-1044z" />
</font>
</defs>
</svg>
