<?xml version="1.0" standalone="no"?>
<!DOCTYPE svg PUBLIC "-//W3C//DTD SVG 1.1//EN" "http://www.w3.org/Graphics/SVG/1.1/DTD/svg11.dtd" >
<svg xmlns="http://www.w3.org/2000/svg">
<metadata></metadata>
<defs>
<font id="white" horiz-adv-x="974" >
<font-face units-per-em="2048" ascent="1638" descent="-410" />
<missing-glyph horiz-adv-x="559" />
<glyph horiz-adv-x="0" />
<glyph horiz-adv-x="682" />
<glyph unicode=" "  horiz-adv-x="559" />
<glyph unicode="&#x09;" horiz-adv-x="559" />
<glyph unicode="&#xa0;" horiz-adv-x="559" />
<glyph unicode="!" horiz-adv-x="569" d="M152 1630q0 23 11 40.5t29.5 28.5t40 16t39.5 5q20 0 45 -5t44.5 -16t33 -28.5t13.5 -44.5q0 -109 -8.5 -216t-17.5 -215t-17.5 -215.5t-8.5 -213.5l6 -133q2 -4 3.5 -23.5t1.5 -36.5q0 -16 -15.5 -30.5t-29.5 -14.5q-20 0 -31.5 44t-20 106.5t-12.5 132.5t-10 123 q-4 45 -9.5 85t-9.5 77t-10 75.5t-12 81.5q-16 98 -35.5 189.5t-19.5 187.5zM158 141q2 8 15 41t24 47q12 27 40.5 33t53.5 6t47 -11t39.5 -28.5t29 -40t11.5 -45.5q0 -51 -35 -96t-92 -45q-29 0 -54.5 10.5t-45 28.5t-29.5 43.5t-4 56.5z" />
<glyph unicode="&#x22;" horiz-adv-x="970" d="M90 1255q2 2 4 6.5t10 12.5q20 10 35 18t25 13q20 12 51 30.5t60.5 42t51 50t21.5 55.5q0 4 -1 9t-7 5q-10 -2 -21.5 -3t-21.5 -1q-14 0 -26.5 1t-24.5 3t-36 17.5t-34 27.5q-27 29 -26 74q0 55 33.5 90t90.5 35q41 0 74 -17.5t56.5 -45t36 -64.5t12.5 -76 q0 -72 -30 -127t-83 -92q-18 -12 -38.5 -26.5t-49.5 -24.5q-35 -14 -62.5 -21.5t-56.5 -7.5q-10 0 -18.5 2t-24.5 14zM514 1255q2 2 4 6.5t10 12.5q20 10 35 18t25 13q20 12 51 30.5t60.5 42t51 50t21.5 55.5q0 4 -1 9t-7 5q-10 -2 -21.5 -3t-21.5 -1q-14 0 -26.5 1t-24.5 3 t-36 17.5t-34 27.5q-27 29 -27 74q0 55 34 90t91 35q41 0 74 -17.5t56.5 -45t36 -64.5t12.5 -76q0 -72 -30 -127t-83 -92q-18 -12 -38.5 -26.5t-49.5 -24.5q-35 -14 -62.5 -21.5t-56.5 -7.5q-10 0 -18.5 2t-24.5 14z" />
<glyph unicode="#" horiz-adv-x="1492" d="M86 586q0 57 23 57h311l117 408h-281q-27 0 -27 51q0 53 27 53h309l123 430q8 18 62 19q49 0 49 -19l-125 -430h287l122 430q6 18 62 19q47 0 47 -19l-123 -430h303q23 0 23 -53q0 -51 -23 -51h-334l-112 -408h297q27 0 26 -57q0 -55 -26 -56h-330l-119 -409 q-4 -18 -59 -19q-49 0 -49 19l116 409h-284l-121 -409q-4 -10 -15.5 -14.5t-44.5 -4.5q-49 0 -49 19l121 409h-278q-25 0 -25 56zM528 643h287l117 408h-287z" />
<glyph unicode="$" horiz-adv-x="1261" d="M127 84l31 326q4 16 5 36.5t5 28.5q2 16 12 17q14 0 21 -19q16 -39 20 -78t19 -65q27 -47 52 -86t57 -70t73 -57.5t100 -48.5q14 -4 26.5 -8.5t26.5 -6.5v676q-37 12 -73.5 25.5t-75.5 35t-79 53t-83 81.5q-121 143 -121 344q0 59 19.5 119.5t52.5 114.5t78 98.5t94 70.5 q45 27 91 33t97 6v121q0 12 2.5 30.5t18.5 18.5h27q4 0 11 -9t7 -28v-135q100 -8 195 -57q10 -6 46 -32t62 -48q4 -4 8 -4q2 0 6 4q6 10 20.5 36.5t18.5 34.5q4 14 13 15q0 2 4 2q14 0 16 -17.5t2 -27.5v-8q0 -4 -2 -25.5t-4 -26.5v-292q0 -10 -8 -13.5t-14 -3.5 q-12 0 -15.5 5t-7.5 20q-12 31 -17.5 63.5t-17.5 67.5q-12 39 -43 84t-70.5 84t-85 65.5t-83.5 26.5h-23v-637q78 -31 159 -61.5t140 -77.5q41 -33 80 -80t69.5 -101.5t50 -114t19.5 -116.5q0 -111 -39 -200t-106.5 -150.5t-159.5 -95t-199 -33.5h-14v-221 q-6 -10 -15.5 -13.5t-19.5 -3.5t-17 2t-14 15v223q-102 6 -187 39t-157 110q-4 6 -12 7.5t-12 1.5q-20 0 -28.5 -11.5t-14.5 -24t-12.5 -23.5t-24.5 -11zM330 1337q0 -53 20.5 -96t55 -79t78.5 -62.5t91 -46.5v602q-10 0 -26 -4q-59 -18 -100 -58.5t-76 -89.5 q-10 -14 -18.5 -35.5t-13.5 -46t-8 -47t-3 -37.5zM641 51h12q33 0 66 12.5t80 38.5q68 41 107.5 96.5t39.5 141.5q0 59 -21.5 111.5t-60.5 97.5q-59 68 -114.5 101.5t-108.5 54.5v-654z" />
<glyph unicode="%" horiz-adv-x="1548" d="M135 997q0 47 6.5 74t28.5 68q18 35 59.5 77.5t79.5 69.5q35 25 76 33t86 10q72 -6 135.5 -37t106.5 -86q18 -23 32.5 -53.5t24.5 -62t15.5 -64t5.5 -59.5q0 -31 -10.5 -62t-27 -59.5t-35.5 -53t-40 -43.5q-16 -16 -47 -31.5t-62.5 -27.5t-59.5 -20.5t-38 -6.5 q-61 0 -115.5 14.5t-109.5 57.5q-35 27 -51.5 57.5t-38.5 79.5q-12 29 -16.5 60.5t-4.5 64.5zM197 -39q8 12 56 73.5t120.5 155t163 209t183.5 236.5t184 238.5t165 213t123 160t61 80.5q8 8 17.5 18.5t21.5 8.5q4 0 12.5 -4t16.5 -9q4 -4 4 -10v-2l-2 -4q0 -4 -2 -7t-4 -7 q-268 -346 -532.5 -688t-532.5 -689q-16 -4 -21 -4q-14 4 -26 11.5t-8 19.5zM219 981q2 -90 43 -133q35 -39 84 -70t121 -33q12 0 32.5 6.5t42 14.5t40 17t28.5 18q39 31 67 82t28 94q0 29 -5.5 64.5t-17.5 60.5q-14 31 -39.5 57.5t-56.5 46t-63.5 29.5t-61.5 10 q-43 0 -73.5 -13.5t-53.5 -29.5q-27 -16 -45 -37.5t-41 -64.5q-12 -25 -21.5 -61t-7.5 -58zM776 348q0 47 6.5 74t28.5 68q18 35 59.5 77.5t79.5 69.5q35 25 76 33t86 10q72 -6 135.5 -37t106.5 -86q18 -23 32.5 -53.5t24.5 -62t15.5 -64t5.5 -59.5q0 -31 -10.5 -62 t-27 -59.5t-35.5 -53t-40 -43.5q-16 -16 -47 -31.5t-62.5 -27.5t-59.5 -20.5t-38 -6.5q-61 0 -115.5 14.5t-109.5 57.5q-35 27 -51.5 57.5t-38.5 79.5q-12 29 -16.5 60.5t-4.5 64.5zM860 332q2 -90 43 -133q35 -39 84 -70t121 -33q12 0 32.5 6.5t42 14.5t40 17t28.5 18 q39 31 67 82t28 94q0 29 -5.5 64.5t-17.5 60.5q-14 31 -39.5 57.5t-56.5 46t-63.5 29.5t-61.5 10q-43 0 -73.5 -13.5t-53.5 -29.5q-27 -16 -45 -37.5t-41 -64.5q-12 -25 -21.5 -61t-7.5 -58z" />
<glyph unicode="&#x26;" horiz-adv-x="1918" d="M78 463q0 82 30.5 156.5t81 138t114 114t126.5 84.5q10 6 22.5 11.5t12.5 17.5q0 8 -4 12q-41 39 -63.5 68t-43.5 68q-31 55 -44 104t-13 115q0 61 32.5 121.5t84 106.5t114 74.5t123.5 28.5q63 0 110.5 -9t87.5 -29.5t74.5 -54.5t71.5 -85q29 -37 44.5 -74.5t15.5 -91.5 q0 -78 -35 -138t-96 -105q-23 -18 -67 -33.5t-77 -22.5q-14 -2 -14 -16q0 -4 2 -11t12 -12q47 -25 96.5 -54t108.5 -75q66 -53 130.5 -113.5t119.5 -121.5q6 -6 14 -6q4 0 26.5 31.5t49.5 71.5t49.5 76t26.5 46q16 35 18 51.5t2 48.5q0 4 -2 18.5t-12 20.5 q-51 35 -109.5 48.5t-111.5 43.5q-6 2 -6 17q0 8 3 17t25 9h426q16 0 40 2.5t47.5 5.5t46 5t34.5 2q25 0 25 -21q0 -20 -21 -39q-66 -31 -130 -57.5t-99 -64.5q-82 -94 -141.5 -183.5t-126.5 -177.5q-18 -25 -19 -31q0 -20 9.5 -47.5t21.5 -46.5q33 -59 58.5 -115.5 t78.5 -111.5q14 -16 34.5 -26.5t42 -16.5t41 -8t34.5 -2q53 0 75.5 13t40.5 32q14 14 28.5 48t28 67.5t27 59t27.5 25.5q25 0 33 -28.5t8 -46.5q0 -68 -25.5 -133.5t-69.5 -115.5t-105.5 -81t-131.5 -31q-78 0 -149.5 22.5t-124.5 82.5q-51 55 -72.5 119.5t-48.5 129.5 q-4 6 -16 7q-18 0 -27.5 -20.5t-32.5 -45.5q-29 -35 -65.5 -71.5t-65.5 -59.5q-94 -72 -205.5 -121t-234.5 -49q-59 0 -116.5 20.5t-107 51t-86 65.5t-51.5 64q-16 33 -28.5 60.5t-20.5 56t-12 63.5t-4 82zM281 586q0 -88 20.5 -170t99.5 -144q27 -25 64 -38t73.5 -20 t69.5 -9t56 -2q84 0 147 17.5t112.5 47t89.5 66.5t81 78q6 6 6 14q0 39 -30 82t-76 86t-103 85t-112.5 79t-102.5 67.5t-72 51.5q-23 18 -48 40.5t-60 22.5q-29 0 -66 -42t-70.5 -99.5t-56 -116.5t-22.5 -96zM473 1389q0 -45 16.5 -100.5t47 -102.5t73.5 -80t97 -33 q10 0 26.5 6t28.5 15q66 39 92.5 96t26.5 131q0 72 -14.5 135.5t-61.5 116.5q-23 25 -52.5 41t-68.5 16q-41 0 -79 -23.5t-66.5 -59.5t-47 -78.5t-18.5 -79.5z" />
<glyph unicode="'" horiz-adv-x="546" d="M90 1255q2 2 4 6.5t10 12.5q20 10 35 18t25 13q20 12 51 30.5t60.5 42t51 50t21.5 55.5q0 4 -1 9t-7 5q-10 -2 -21.5 -3t-21.5 -1q-14 0 -26.5 1t-24.5 3t-36 17.5t-34 27.5q-27 29 -26 74q0 55 33.5 90t90.5 35q41 0 74 -17.5t56.5 -45t36 -64.5t12.5 -76 q0 -72 -30 -127t-83 -92q-18 -12 -38.5 -26.5t-49.5 -24.5q-35 -14 -62.5 -21.5t-56.5 -7.5q-10 0 -18.5 2t-24.5 14z" />
<glyph unicode="(" horiz-adv-x="694" d="M86 586q0 96 7 174t30 170q8 35 18.5 73.5t27.5 86t42 105.5t61 134q66 109 146 207t178 190q16 10 33.5 13.5t36.5 3.5q0 -18 -20.5 -50t-47.5 -67t-52.5 -67.5t-37.5 -53.5q-66 -113 -117 -218t-86 -214.5t-53.5 -227.5t-18.5 -253q0 -121 19.5 -228.5t54.5 -211.5 q20 -63 53 -136t73 -144t87 -134.5t96 -108.5q16 -16 35 -34.5t19 -30.5q0 -10 -8.5 -11.5t-14.5 -1.5q-25 0 -47 12.5t-41.5 31t-38 39t-33.5 36.5q-2 2 -12 12.5t-21.5 22.5t-21.5 23.5t-14 15.5q-12 14 -31.5 38.5t-40 51.5t-38 50.5t-23.5 37.5q-88 147 -143.5 317.5 t-55.5 346.5z" />
<glyph unicode=")" horiz-adv-x="694" d="M25 1731q0 10 8 11t14 1q25 0 47.5 -13.5t42 -32t38 -39t32.5 -34.5q2 -4 12 -13t21.5 -21.5t21.5 -24t14 -15.5q12 -14 32 -38.5t40.5 -51t37.5 -50.5t24 -38q88 -147 143 -317t55 -346q0 -96 -7 -174t-30 -170q-8 -35 -18 -74t-27.5 -86t-42 -105.5t-61.5 -134.5 q-66 -109 -145.5 -207t-178.5 -190q-16 -10 -33.5 -13.5t-35.5 -3.5q0 18 20.5 50t47 67t52 68t37.5 53q66 113 117 218.5t86 215t53.5 227t18.5 252.5q0 121 -19.5 228.5t-54.5 212.5q-20 63 -53 136t-73 143.5t-87 134t-96 108.5l-34.5 34.5t-18.5 31.5z" />
<glyph unicode="*" horiz-adv-x="1216" d="M86 1141q0 25 30.5 39t70.5 23t77 12.5t49 3.5q47 0 94.5 -7.5t94.5 -7.5q10 0 20 5t10 16q0 14 -8 16q-10 4 -33.5 15.5t-49 24.5t-49 24.5t-32.5 17.5q-2 2 -17 13.5t-35.5 26.5t-40 30.5t-29.5 25.5q-23 16 -42.5 40t-19.5 52q0 16 11.5 25.5t27.5 9.5q14 0 44 -14 t61.5 -33.5t61.5 -40t44 -33.5q8 -10 28.5 -33.5t42 -49t41 -45t27.5 -19.5q12 0 15.5 9t3.5 20q0 47 -19.5 96t-19.5 98q0 45 7 93t17 94q12 27 35 26q33 0 41 -30.5t12 -57.5q2 -10 4.5 -30.5t4.5 -41t4 -38t2 -23.5q0 -49 -14.5 -99.5t-14.5 -99.5q0 -6 6 -22.5t17 -16.5 q6 0 37.5 49.5t76.5 107.5t98.5 107.5t104.5 49.5q8 0 15.5 -3t7.5 -14q0 -10 -2.5 -22t-6.5 -23q-53 -84 -113.5 -140t-144.5 -103q-18 -10 -22 -15.5t-4 -15.5t3 -20.5t13 -10.5q29 0 51.5 13.5t46.5 19.5q25 6 59 11t60 5h60h16t26.5 -1t26.5 -2t19 -1q18 -6 27 -11 t9 -24q0 -25 -25.5 -39t-60 -22t-68.5 -11t-50 -3q-35 0 -69 5t-58 11q-20 4 -33.5 7t-34.5 3q-10 0 -23.5 -8t-13.5 -25q0 -4 24.5 -17t55.5 -29.5t59.5 -32t38.5 -23.5q12 -8 30 -24.5t36 -35t32.5 -34.5t20.5 -25q14 -16 25.5 -37.5t11.5 -42.5q0 -8 -1 -16t-11 -8 q-25 0 -57.5 13t-65.5 33.5t-62.5 44.5t-48.5 44q-31 35 -54 79t-62 73q-4 4 -7 4h-2q-8 0 -16 -3t-8 -14v-4q0 -2 2 -2q18 -66 34.5 -121t16.5 -121q0 -23 -1 -51t-6 -56t-16.5 -52.5t-33.5 -36.5q-12 4 -22.5 10t-16.5 27q-10 59 -19.5 116.5t-9.5 116.5q0 45 14.5 88 t14.5 86q0 16 -23 17q-12 0 -33.5 -32t-44 -72t-41 -75.5t-24.5 -44.5q-14 -18 -41 -44.5t-51 -43.5q-16 -10 -29.5 -16t-30.5 -6q-23 0 -22 20q0 43 24.5 87t60.5 83t76 74t68 59q4 4 19.5 14.5t17.5 14.5q2 2 5 8t3 11q0 18 -14 18q-18 0 -42 -10.5t-46 -16.5 q-59 -16 -108.5 -25t-108.5 -9q-31 0 -56.5 2t-54.5 16q-6 8 -7 15t-1 18z" />
<glyph unicode="+" horiz-adv-x="927" d="M86 594q0 33 20 33h304q16 0 16 16v328q0 23 35 22q33 0 33 -22v-330q0 -14 10 -14h309q12 0 20.5 -6.5t8.5 -24.5q0 -10 -10.5 -23.5t-18.5 -13.5h-303q-10 0 -13 -2t-3 -12v-340q0 -23 -33 -23q-35 0 -35 23v338q0 16 -18 16h-295q-27 0 -27 35z" />
<glyph unicode="," horiz-adv-x="542" d="M90 -238q2 2 4 6.5t10 12.5q20 10 35 18t25 13q20 12 51 30.5t60.5 42t51 50t21.5 55.5q0 4 -1 9t-7 5q-10 -2 -21.5 -3t-21.5 -1q-14 0 -26.5 1t-24.5 3t-36 17.5t-34 27.5q-27 29 -26 74q0 55 33.5 90t90.5 35q41 0 74 -17.5t56.5 -45t36 -64.5t12.5 -76 q0 -72 -30 -127t-83 -92q-18 -12 -38.5 -26.5t-49.5 -24.5q-35 -14 -62.5 -21.5t-56.5 -7.5q-10 0 -18.5 2t-24.5 14z" />
<glyph unicode="-" d="M111 590q0 33 20 33h707q12 0 20 -6.5t8 -24.5q0 -10 -10 -23.5t-18 -13.5h-701q-27 0 -26 35z" />
<glyph unicode="." horiz-adv-x="561" d="M147 141q0 18 9.5 32.5t19.5 33.5q18 33 43 44t62 11q61 0 97 -44t36 -103q0 -23 -10.5 -45.5t-28 -41t-39 -30.5t-45.5 -12q-29 0 -54.5 14t-46 35.5t-32 49t-11.5 56.5z" />
<glyph unicode="/" horiz-adv-x="864" d="M35 -188q6 16 38.5 103t83 218t113 295t127 335t127 336t112.5 299t85 225t43 114q4 10 11 25.5t20 15.5q4 0 13 -3t17 -8q2 -2 5.5 -7t3.5 -15q0 -6 -5 -19q-184 -487 -365 -968.5t-368 -968.5q-8 -8 -18 -8q-14 0 -27.5 7.5t-15.5 23.5z" />
<glyph unicode="0" horiz-adv-x="1284" d="M102 575q0 102 37 204t109 173q76 74 173 125t206 51q117 0 218 -45t176 -122.5t118 -181t43 -218.5q0 -86 -27 -159.5t-71 -133t-101 -104.5t-119 -74q-45 -20 -94 -33.5t-100 -13.5q-68 0 -123 12.5t-101.5 30.5t-82 39.5t-62.5 42.5q-55 43 -93 94t-61.5 104.5 t-34 107.5t-10.5 101zM197 618q0 -88 18 -162.5t78 -142.5q82 -94 166 -125.5t205 -31.5q82 0 166.5 36.5t144.5 96.5q27 27 48 65.5t34.5 80.5t20.5 85t7 80q0 98 -46 193.5t-162 175.5q-33 23 -86.5 41t-149.5 18q-74 0 -132 -17.5t-104.5 -45t-81 -63.5t-61.5 -75 q-12 -16 -24.5 -42.5t-21.5 -56.5t-14 -59.5t-5 -50.5z" />
<glyph unicode="1" horiz-adv-x="878" d="M154 1145q0 8 3 16t11 13q6 6 22 6q55 0 88 -1t60 -2t52.5 -2t64.5 -1q14 0 42.5 1t59.5 3t55.5 3t32.5 1q23 0 51.5 -6.5t28.5 -34.5q0 -12 -10 -22.5t-27 -10.5q-16 0 -30.5 2t-36.5 2h-19q-6 0 -16 -4q-23 -8 -27 -17.5t-6 -31.5q-6 -70 -7 -141.5t-1 -141.5v-332 q0 -43 -1 -72.5t-2 -62.5t-2 -73.5t-1 -106.5t26 -66h129q12 0 18.5 -11t6.5 -19q0 -16 -6 -22.5t-25 -16.5h-65q-23 0 -81.5 3t-111.5 3q-66 0 -128 -3t-97 -3q-16 0 -30.5 5t-14.5 28q0 27 24.5 33t40.5 6h70q10 0 22.5 6t12.5 16v664q2 49 4 83.5t3 68.5t1 73v98 q0 10 -7 20.5t-12 14.5q-18 6 -30 6q-16 0 -31.5 -4t-38.5 -4q-20 0 -42.5 6t-22.5 31z" />
<glyph unicode="2" horiz-adv-x="1179" d="M61 6q0 2 2.5 8t6.5 13q8 16 28 26q55 29 110.5 57.5t110.5 57.5q86 43 160 87t150 99q111 76 178 147.5t67 170.5q0 31 -14 69.5t-26 59.5q-53 78 -115 112.5t-158 34.5q-92 0 -160.5 -35.5t-121.5 -93.5q-37 -41 -60.5 -75.5t-40.5 -81.5q-2 -6 -5 -20.5t-7 -30t-9 -27 t-12 -11.5q-6 0 -12 16.5t-6 20.5q-2 8 -4 27.5t-2 24.5q0 4 2 20t4 25q29 113 88 206t162 154q49 29 121 49.5t127 20.5q49 0 96 -6.5t88 -23.5t76 -48t63 -82q27 -47 43.5 -92t16.5 -103q0 -88 -38 -166.5t-85 -140.5q-10 -14 -47 -41.5t-78 -56.5t-76 -52.5t-43 -27.5 q-12 -8 -31.5 -16.5t-38 -18.5t-31 -21.5t-12.5 -25.5h332q29 0 67 12.5t58 28.5q37 31 68.5 64.5t60.5 48.5q6 4 14.5 6t12.5 2q2 0 2 -4v-8q0 -12 -10.5 -30t-24.5 -38q-18 -25 -41 -51.5t-43 -50.5q-20 -27 -48 -70t-38 -64q-8 -12 -12 -25t-21 -20q-4 -4 -23.5 -5 t-41.5 -1q-76 0 -170.5 -1t-188.5 -3q-66 -2 -127 -4t-112.5 -4t-86 -3t-42.5 -1h-41q-10 0 -11 12z" />
<glyph unicode="3" horiz-adv-x="993" d="M131 782q0 16 12.5 53t35 81.5t56 88.5t74.5 76q49 41 112.5 62.5t129.5 21.5q76 0 148.5 -28.5t117.5 -94.5q29 -41 37 -88t8 -96q0 -92 -48 -170t-107 -137q-14 -16 -43 -37.5t-56.5 -44.5t-49 -40t-21.5 -23q0 -12 22.5 -17.5t32.5 -11.5q78 -55 131 -118.5t94 -156.5 q14 -29 20.5 -77t6.5 -78q0 -37 -7.5 -74t-19.5 -70.5t-27.5 -62.5t-31.5 -47q-35 -41 -78 -77t-90 -62.5t-97.5 -43t-97.5 -16.5q-14 0 -29.5 4t-25.5 8q-8 6 -8 13q0 8 16 12q51 12 106.5 39t75.5 45q57 53 98.5 114.5t41.5 151.5q0 104 -63.5 194.5t-172.5 139.5 q-23 10 -41 15.5t-35.5 8.5t-38 7t-45.5 10q-18 6 -18 18q0 10 10 15q6 2 17.5 6t25 7t24.5 7t15 6q57 27 124 76t124 109.5t95 127t38 130.5q0 104 -78 164.5t-221 60.5q-37 0 -75 -20.5t-73.5 -51t-67.5 -66.5t-56 -65q-4 -4 -8.5 -9t-8.5 -5t-7 6t-3 10z" />
<glyph unicode="4" horiz-adv-x="1476" d="M45 33q0 4 14.5 24.5t24.5 30.5q27 27 51.5 56.5t42.5 52.5q141 182 277.5 347t277.5 337q31 41 91.5 106.5t109.5 136.5q8 12 22.5 24.5t26.5 12.5q14 0 20.5 -10t6.5 -23q0 -18 -5.5 -34.5t-5.5 -36.5v-838q31 0 79 2t103.5 5t112 5t103.5 2q20 8 33.5 32t25.5 46.5 t26.5 41t39.5 18.5q0 -43 -14.5 -80t-22.5 -78q-16 -74 -30.5 -158t-27.5 -166q0 -8 -10 -8q-8 0 -12 18.5t-9 43t-12.5 48t-23.5 32.5q-23 10 -64 16t-90 9t-98 3h-80q-29 0 -29 -14v-582q0 -12 -20.5 -19t-46 -10.5t-50 -4.5t-30.5 -1q-10 0 -22.5 3.5t-12.5 19.5v580 h-762q-10 0 -10 10zM266 240q0 -12 8 -13h533l-6 586q0 14 -3 29.5t-10 15.5q-18 0 -30 -16q-59 -68 -113.5 -134.5t-110 -135t-116 -142.5t-129.5 -158q-23 -27 -23 -32z" />
<glyph unicode="5" horiz-adv-x="1005" d="M113 692q0 4 3 9.5t5 9.5q57 72 99 134t91 130q6 8 25.5 37.5t42 62.5t42 58.5t25.5 25.5q16 0 40 -9t36 -13q25 -8 65 -18.5t81 -21t78.5 -17.5t60.5 -7q25 0 43 17.5t33.5 41t31 49t33.5 42.5q6 8 12.5 11t20.5 3q0 -18 -8 -37q-16 -31 -29.5 -54.5t-23.5 -41.5 q-20 -37 -50 -94.5t-51 -106.5q-8 -23 -17 -26t-16 -3q-29 0 -51 7.5t-51 13.5q-74 18 -154.5 39.5t-158.5 21.5q-8 0 -16.5 -5t-12.5 -9l-59 -78q-4 -6 -4 -16q0 -14 10 -19q66 -29 127 -57.5t123 -62.5q98 -59 162.5 -137t107.5 -183q6 -12 11 -35.5t10.5 -48t8.5 -45 t3 -27.5q0 -80 -12.5 -149.5t-40 -133t-73.5 -125t-114 -126.5q-12 -10 -32.5 -25.5t-42 -30t-40 -23.5t-24.5 -9q-12 0 -12 10q0 16 14 31q16 16 38.5 35.5t35.5 33.5q16 16 36.5 46t30.5 49q16 27 29.5 63.5t23 74.5t14.5 77t5 69q0 74 -22.5 153t-55.5 132 q-23 37 -61.5 74t-83.5 67.5t-88 54t-74 35.5q-47 18 -95 29.5t-71 18.5q-14 4 -14 28z" />
<glyph unicode="6" horiz-adv-x="1312" d="M131 612q0 139 48 274.5t134 243.5q45 55 89 104.5t95.5 93.5t110 86t129.5 85q25 14 65 33.5t83 37t79.5 32t53.5 20.5q66 23 132.5 38t125.5 15q4 0 16.5 -1t12.5 -9t-11 -12q-33 -14 -75.5 -34t-89 -42.5t-92.5 -48t-85 -51.5q-102 -63 -195 -138t-179 -157 q-20 -20 -47 -52t-50.5 -64t-40 -57.5t-16.5 -31.5q27 0 47.5 13.5t40.5 23.5q35 18 73 24t77 6q59 0 118.5 -19t113.5 -53t101 -78t82 -93q12 -16 29.5 -48t34 -75t29 -94.5t12.5 -106.5q0 -33 -9.5 -81t-25.5 -89q-41 -92 -116 -157.5t-167 -112.5q-41 -20 -87 -29.5 t-81 -9.5q-66 0 -148.5 32.5t-144.5 86.5q-66 55 -115.5 109.5t-84.5 112.5t-53.5 124.5t-18.5 148.5zM313 578q0 -104 21.5 -190.5t68.5 -172.5q39 -72 97.5 -118t148.5 -46q51 0 92 19.5t72 51.5t55.5 71.5t42.5 80.5q33 66 41.5 126.5t8.5 131.5q0 68 -17.5 149 t-56.5 149.5t-98.5 114.5t-145.5 46q-76 0 -128 -31.5t-93 -85.5q-43 -59 -76 -139t-33 -157z" />
<glyph unicode="7" horiz-adv-x="1161" d="M51 864q0 43 21.5 71t40.5 62q10 20 28.5 56.5t38 80.5t40 92t36.5 93q10 20 20 20t12.5 -18t2.5 -29q0 -16 -5 -28.5t-5 -26.5q0 -45 24.5 -52t56.5 -7h678q14 0 42 -4.5t28 -24.5q0 -23 -12.5 -40t-18.5 -38q-63 -199 -121.5 -371t-115 -341t-113.5 -345t-119 -381 q-16 -51 -35 -51q-16 0 -23 12.5t-7 24.5q0 16 5 28.5t9 26.5q20 57 52 150.5t70 204t79 232.5t81 238.5t73.5 219t58.5 176.5q6 16 9 28.5t3 16.5q0 14 -17.5 16t-74.5 2q-66 0 -135.5 4.5t-138 9.5t-133 9t-119.5 4t-105.5 -9t-97.5 -34q-39 -20 -67.5 -49t-45.5 -29z" />
<glyph unicode="8" horiz-adv-x="1189" d="M106 500q0 119 54.5 212t173.5 134q25 8 56.5 15t53.5 22q-18 23 -46.5 43t-53.5 41q-102 90 -145 185t-43 210q0 39 16 81t37 77q68 113 177.5 155.5t234.5 42.5q100 0 185 -26.5t146.5 -78.5t96 -130t34.5 -183q0 -68 -20.5 -133t-58 -119.5t-93 -91t-125.5 -43.5 q-10 0 -10 -10q0 -4 4 -8l4 -4q35 -29 72 -59.5t71 -66.5t60.5 -77t42.5 -86q14 -37 19.5 -81t5.5 -83q0 -111 -48.5 -189.5t-124 -127.5t-172 -71.5t-190.5 -22.5q-20 0 -48 5t-55.5 14t-52 19.5t-38.5 20.5q-104 66 -162 175.5t-58 238.5zM260 496q0 -66 14.5 -132.5 t47 -122t84 -90t124.5 -34.5q63 0 126 13t114 44t83 78t32 115q0 61 -19.5 115.5t-51.5 102.5t-75 88t-88 75q-25 18 -41 29t-31.5 20.5t-33 16.5t-45.5 20q-12 4 -15 4q-10 0 -16 -7q-53 -41 -91 -82.5t-73 -101.5q-20 -35 -32.5 -72.5t-12.5 -78.5zM311 1395 q0 -37 6.5 -78t18.5 -68q18 -39 59 -80t90.5 -79.5t99.5 -73.5t89 -60q10 -8 25.5 -13t19.5 -5q6 0 20.5 9t28.5 22.5t26.5 26t16.5 18.5q53 63 72.5 147t19.5 170q0 115 -39 186.5t-108 118.5q-16 12 -51 21.5t-64 9.5q-55 0 -113.5 -19.5t-106.5 -54t-79 -86t-31 -112.5z " />
<glyph unicode="9" horiz-adv-x="1255" d="M51 -489q0 4 2 8q0 8 37 32q61 41 119.5 68t114.5 68q88 63 166.5 135t156.5 149q20 20 57 60.5t72 86.5t61.5 91t26.5 76l-4 2q-61 -41 -120.5 -67.5t-129.5 -26.5q-37 0 -80 10t-86 27.5t-82.5 41t-68.5 47.5q-27 23 -59.5 65t-62.5 96.5t-49.5 119t-19.5 131.5 q0 102 43 197.5t115 169t166 119t197 45.5q82 0 163.5 -31t145.5 -86q104 -88 162.5 -218t58.5 -265q0 -147 -62.5 -299t-158.5 -287t-213 -245t-225 -173q-33 -18 -60.5 -33.5t-60.5 -32.5q-74 -33 -158 -62.5t-154 -29.5q-10 0 -10 11zM309 723q0 -104 31 -207.5 t102 -183.5q35 -41 84 -64.5t107 -23.5q86 0 146.5 48t99.5 119.5t57 155.5t18 156q0 53 -10 105.5t-26 101.5q-16 55 -42 104t-61 88q-47 53 -95.5 71.5t-109.5 18.5q-41 0 -98 -41t-100 -104q-29 -41 -48.5 -87t-32 -93t-17.5 -90t-5 -74z" />
<glyph unicode=":" horiz-adv-x="575" d="M147 115q0 63 37 102t99 39q55 0 93 -38t38 -93q0 -47 -37 -87t-86 -40q-51 0 -97.5 29t-46.5 88zM154 950q-2 27 6 52.5t25.5 45t41 32t52.5 12.5q53 0 95 -35t46 -90q2 -31 -8.5 -56.5t-31 -43t-46 -27t-51.5 -9.5q-23 0 -44.5 9.5t-40 26t-30.5 37.5t-14 46z" />
<glyph unicode=";" horiz-adv-x="638" d="M86 -227q0 10 6 16q16 14 52 34.5t57 31.5q23 10 50.5 25.5t51 34.5t39.5 43t16 48v10q-10 -2 -32.5 -9t-30.5 -7q-59 0 -98 42t-39 99q0 45 28.5 78t69.5 47q33 6 47 6q12 0 32.5 -3t37.5 -13q8 -4 20.5 -14.5t24.5 -22.5t22.5 -23.5t14.5 -17.5q23 -35 30 -76t7 -77 q0 -43 -24 -83t-60.5 -75t-82.5 -60.5t-92 -37.5q-23 -6 -50 -13.5t-52 -7.5q-14 0 -29.5 4.5t-15.5 20.5zM209 915q0 29 14.5 52.5t36 39t49 23.5t53.5 8q25 0 48.5 -12t42 -30.5t29 -43t10.5 -49.5q0 -55 -31 -97t-96 -46q-70 -6 -113 40.5t-43 114.5z" />
<glyph unicode="&#x3c;" horiz-adv-x="1247" d="M86 891q0 12 21.5 31.5t56.5 46.5q113 86 217 167t209.5 162.5t217.5 168.5t239 186q12 4 10 4q8 0 16 -4l12.5 -12.5t8.5 -16.5q0 -12 -9 -18l-6 -6q-6 -5 -32.5 -26.5t-81 -64.5t-150.5 -117.5t-239.5 -187t-350.5 -274.5l928 -731v-17q0 -31 -16 -47 q-18 -23 -31.5 -30t-24.5 -7l-989 774q-6 2 -6 19z" />
<glyph unicode="=" horiz-adv-x="1009" d="M131 451q0 33 21 32h706q12 0 20.5 -6t8.5 -24q0 -10 -10.5 -23.5t-18.5 -13.5h-700q-27 0 -27 35zM131 745q0 33 21 33h706q12 0 20.5 -6t8.5 -24q0 -10 -10.5 -23.5t-18.5 -13.5h-700q-27 0 -27 34z" />
<glyph unicode="&#x3e;" horiz-adv-x="1247" d="M86 182v17l928 731q-209 162 -352.5 274.5t-238.5 187t-149.5 116.5t-80 63.5t-32.5 27t-7 7.5q-8 2 -9 14q0 10 7.5 19.5t11.5 13.5q8 4 18 4q-2 0 11 -4q127 -98 238.5 -185.5t217 -169t209 -162.5t217.5 -167q35 -27 56.5 -46.5t21.5 -31.5q0 -16 -8 -19l-987 -774 q-37 0 -64 41q-4 8 -5 18.5t-3 24.5z" />
<glyph unicode="?" horiz-adv-x="741" d="M90 1579q0 35 19.5 57.5t48 36t61.5 18.5t60 5q78 0 147.5 -37t121.5 -96.5t81.5 -133t29.5 -147.5q0 -2 -1 -3t-1 -5v-6q0 -12 -3 -37t-7 -50.5t-7 -47t-3 -27.5q-10 -49 -37 -89t-53 -81q-8 -14 -17.5 -32.5t-19.5 -36t-24.5 -31t-32.5 -19.5q-55 -12 -97.5 -15 t-95.5 -14q-14 -16 -16 -29.5t-2 -29.5q0 -37 11 -75t11 -72q0 -18 -1 -38t-6 -36t-16.5 -26.5t-33.5 -10.5q-14 0 -20.5 15.5t-8.5 35t-2 37.5v29v153q0 8 -3 38t-6 64t-7 63.5t-4 37.5v6q0 23 9 33t21 10q16 0 31.5 -1t32.5 -1q47 0 95 5t91 19.5t80 41t62 69.5 q6 10 17 37t11 31q2 0 2 10v19q0 78 -30.5 134t-96.5 103q-23 6 -61.5 17.5t-71.5 11.5q-37 0 -71.5 -17.5t-71.5 -17.5q-61 0 -88 35t-27 90zM156 131q0 55 29.5 87t88.5 32q139 0 140 -146q0 -23 -14.5 -41t-36 -33.5t-44 -23.5t-40.5 -8q-59 0 -91 40t-32 93z" />
<glyph unicode="@" horiz-adv-x="1943" d="M150 854q0 135 43 265t122 231q70 84 166.5 150.5t201.5 113.5t209.5 72.5t188.5 25.5q70 0 149 -21.5t150.5 -52t129 -65.5t83.5 -62q90 -92 145.5 -187t55.5 -216q0 -63 -31.5 -137t-86 -152t-123 -155.5t-142.5 -145.5q-57 -53 -128 -97t-146 -44q-20 0 -45 11t-25 28 q0 41 20.5 90t34.5 69q6 8 6 21q0 6 -2 12t-12 6q-6 0 -10 -3t-8 -7q-12 -10 -20.5 -20.5t-18.5 -20.5q-25 -23 -63 -55.5t-79 -61t-82.5 -49t-78.5 -20.5q-29 0 -55.5 5t-47 18.5t-33 38t-12.5 61.5q0 45 7.5 96t21.5 98q16 53 41.5 108.5t66.5 108.5q82 106 203 199 q45 29 107.5 58.5t111.5 29.5q80 0 127 -59q4 -6 6 -15.5t5 -13.5q2 -8 6 -15.5t12 -7.5q4 0 8 8.5t8 14.5q10 16 24.5 42t32 50.5t36 42t36.5 17.5q16 0 24.5 -15.5t8.5 -32.5v-84q-8 -18 -24.5 -57t-39 -87t-46 -100t-43 -96.5t-33 -74t-15.5 -33.5q-18 -41 -40.5 -91 t-38.5 -89q-8 -14 -9 -25q0 -8 9 -8q4 0 11 4t17 8q27 10 57.5 28.5t60.5 40t56.5 44t42.5 43.5q37 47 62.5 99t40 100.5t20.5 85t6 51.5q0 129 -44 248.5t-115 205.5q-29 33 -70 72t-89 74t-98.5 58.5t-97.5 23.5q-166 -12 -286.5 -104.5t-219.5 -233.5 q-72 -109 -101.5 -236t-29.5 -241q0 -168 29 -281t74 -178q39 -57 88 -115.5t109.5 -106.5t133 -78t162.5 -30q117 0 196 26.5t120 45.5q12 6 30.5 16.5t37 20.5t33.5 17t22 7q43 0 43 -28q0 -10 -16.5 -25.5t-37.5 -28.5q-199 -113 -438 -112q-66 0 -160 14t-193.5 47 t-191.5 85t-155 128q-53 61 -87 135t-54.5 152t-28.5 155.5t-8 147.5zM743 520q0 -29 16.5 -37t57.5 -8q27 0 70 16.5t98 55.5q31 20 62.5 51t59.5 64.5t51.5 67.5t39.5 65q31 63 52.5 138t21.5 136q0 31 -25.5 46t-62.5 15q-16 0 -39 -10t-44.5 -24.5t-42 -30.5t-34.5 -31 q-20 -16 -47 -45.5t-43 -54.5q-29 -37 -61.5 -83t-61.5 -99.5t-48.5 -111.5t-19.5 -120z" />
<glyph unicode="A" horiz-adv-x="1544" d="M-72 31q0 20 20.5 23t61.5 12q76 16 127 66t86 116.5t58.5 137.5t44.5 128l303 829q10 31 19 43.5t15.5 21.5t9.5 21.5t3 40.5q0 27 -11.5 45.5t-11.5 59.5q31 4 58.5 10t52.5 23q12 8 21.5 24.5t20.5 31.5t25.5 26.5t36.5 11.5q8 0 11 -8q2 -6 20.5 -67.5t48 -158 t67.5 -219.5t78 -255t79.5 -262t73.5 -240.5t59.5 -191.5t35.5 -116q12 -39 41 -68.5t64 -39.5q35 -12 62.5 -13.5t47 -2.5t29.5 -8t10 -29q0 -16 -16 -18.5t-27 -4.5h-106q-10 0 -20.5 1t-32.5 1q-20 0 -58.5 1t-101.5 1q-66 0 -129.5 -2t-128.5 -4h-62q-18 0 -42.5 3 t-24.5 26q0 8 9 14t22.5 9t27 5t23.5 4q41 6 78.5 13.5t74.5 15.5q27 6 27 29v8q0 6 -2 10l-129 424q-4 10 -13.5 21.5t-23.5 11.5h-481q-16 0 -22.5 -5t-10.5 -12l-61 -165q-16 -41 -21.5 -74t-5.5 -62q0 -35 6 -77q6 -43 28.5 -67t53.5 -36t64.5 -16t62.5 -7t47 -9.5 t18 -24.5q0 -10 -7 -22.5t-29 -14.5h-52q-70 2 -135 5t-137 3q-78 0 -141.5 -4t-126.5 -4h-17q-45 0 -45 31zM475 707q0 -27 37 -27h391q27 0 27 22q0 10 -2 17q-10 33 -34 110.5t-52.5 171t-58 190.5t-52.5 169q-2 4 -6 9t-12 5q-12 0 -17 -20q-10 -29 -28.5 -84.5 t-41 -121t-47 -136t-45 -132t-37 -105.5t-20.5 -58q-2 -4 -2 -10z" />
<glyph unicode="B" horiz-adv-x="1529" d="M68 1681v15h397q47 0 86 3t87 7t115.5 7t172.5 3q119 0 207 -33.5t144 -90t84 -128t28 -147.5q0 -86 -21.5 -148.5t-61.5 -109.5t-97.5 -83t-131.5 -69q-2 0 -7 -2t-5 -4q0 -4 12 -8q193 -72 284 -182.5t91 -296.5q0 -37 -11 -78t-33 -82t-51.5 -79t-64.5 -66 q-72 -59 -194.5 -86t-294.5 -27q-76 0 -147.5 2t-176.5 2q-104 0 -194 -3t-203 -5q0 10 4 24.5t14 20.5q37 16 78 21t77 16.5t58.5 37t22.5 81.5v1331q0 29 -4 57.5t-31 42.5q-16 8 -35.5 11t-46 6.5t-59.5 8.5t-78 17q-14 2 -14 14zM584 162q47 -53 99 -85t124 -32 q84 0 147.5 38t105.5 97.5t63.5 133t21.5 145.5q0 84 -32 156.5t-86 126t-126 84t-151 30.5h-33h-35q-23 0 -59 -2q-39 0 -39 -43v-649zM584 936q0 -27 22.5 -35t34.5 -8q92 0 158.5 18.5t111.5 46.5q33 20 65 52t56.5 73t38.5 91.5t14 105.5q0 154 -51 241t-164 121 q-45 14 -96 19.5t-112 5.5q-45 0 -78 -12v-719z" />
<glyph unicode="C" horiz-adv-x="1601" d="M106 831q0 76 13.5 157t38 160t60.5 151.5t81 132.5q100 129 245.5 204.5t319.5 75.5q72 0 149 -13t142 -42q53 -25 97 -59.5t91 -69.5q8 -8 21 -8q10 0 18 16q12 23 23.5 57.5t24.5 59.5q4 10 10 12t14 2t12 -6t4 -8q10 -41 11.5 -83t1.5 -87v-68v-33q0 -14 2 -30 q4 -45 11 -78t7 -64q0 -18 -5 -37.5t-21 -19.5q-6 0 -19.5 17.5t-27 40t-24.5 44t-17 27.5q-66 94 -125.5 169t-143.5 126q-74 45 -134 53t-126 8q-100 0 -169.5 -51t-129.5 -119q-172 -203 -172 -669q0 -117 20.5 -210t52.5 -167t68.5 -126t69.5 -85q35 -37 67.5 -64.5 t68.5 -46t77 -28t94 -9.5q78 0 155 35t148 90q31 25 65 62t52 61q39 59 66.5 114.5t52.5 115.5q12 18 41 18q23 0 22 -33q-18 -66 -32.5 -118t-30.5 -111q-10 -43 -15.5 -84t-10.5 -71.5t-11 -50t-18 -19.5q-14 0 -27 30q-4 10 -9 19.5t-18 9.5q-12 0 -23 -5t-27.5 -14.5 t-42 -22.5t-66.5 -32q-76 -31 -162 -49t-172 -18q-125 0 -227.5 32.5t-194.5 110.5q-74 61 -132.5 142t-99 173.5t-62.5 189.5t-22 193z" />
<glyph unicode="D" horiz-adv-x="1820" d="M41 25q0 14 24.5 22t60.5 14.5t77 10.5t71 10q43 8 54 33q6 25 7 40t1 33v1440q-4 8 -30.5 15.5t-63.5 13.5t-79 11t-79 11q-18 2 -18 13q0 2 12 12q12 4 39 4h284q117 0 236 -2t228.5 -8t201.5 -17.5t156 -27.5q92 -29 172 -86.5t149 -134.5q27 -31 60.5 -85.5 t63.5 -124t50.5 -151.5t20.5 -170q0 -209 -77 -374t-224 -306q-6 -4 -20.5 -14t-30 -22.5t-28.5 -23.5t-20 -16q-41 -33 -109.5 -61.5t-144 -49t-148.5 -31.5t-122 -11q-47 0 -94 4t-113 4h-528q-39 0 -39 25zM584 430q0 -150 17 -229.5t48 -114.5q14 -18 40 -23.5t48 -5.5 q92 0 175 23.5t154 65.5t127 97.5t95 118.5q82 131 122 264.5t40 254.5q0 66 -10 127t-24.5 111t-31 89t-28.5 62q-18 31 -50 77t-82 95t-123 96t-171 82q-61 23 -124 31t-134 8q-16 0 -40 -6t-24 -31v-666q0 -145 -12 -269t-12 -257z" />
<glyph unicode="E" horiz-adv-x="1445" d="M59 12q0 10 3.5 21.5t13.5 15.5q2 2 11 3t19.5 2t20.5 2t14 1q29 2 47.5 3t44.5 12q51 16 77 41.5t26 81.5v1370q0 35 -25.5 56t-63.5 33.5t-81 17.5t-76 7q-8 0 -15 2t-7 13q0 16 20.5 20t30.5 4q8 0 35.5 -1t66.5 -1q41 0 90 -1t103 -1q92 0 157.5 3t118.5 7.5 t102.5 7.5t106.5 3h55q25 0 59 -1t88 -3t152 -5q29 -4 35 -30q2 -82 4 -156t2 -158q0 -18 -6 -18q-4 0 -8 1t-6 7q-20 37 -42 87t-44 81q-16 23 -41 47.5t-55.5 44t-65.5 32.5t-70 15q-41 2 -67 2h-72q-47 0 -95 -2t-95 -12q-10 -2 -21.5 -6t-11.5 -21v-739q2 -14 16 -20 q68 6 144.5 10t144.5 4q49 4 84 43t58.5 88t38 96t26.5 66q4 4 7 6t20 2q8 0 15 -3t7 -9q0 -86 -9 -135.5t-9 -90.5v-442q-2 -4 -7 -6q-6 -6 -12 -6q-14 0 -26.5 35.5t-26.5 83t-29.5 92.5t-36.5 63q-18 16 -63 25.5t-97.5 13.5t-100.5 5t-74 1q-51 0 -63.5 -15t-12.5 -77 v-477q0 -70 16.5 -105.5t59.5 -62.5q16 -10 37.5 -18.5t37.5 -8.5h187h49q23 0 45 2t47 6.5t57 12.5q72 16 126.5 76.5t99.5 138.5q4 6 13 25.5t19 29.5q2 2 7 2q6 0 8 -8q8 -14 8 -61q0 -14 -8 -43t-15 -56q-6 -20 -9 -52t-9 -62.5t-17.5 -52t-29.5 -21.5q-8 0 -12.5 1 t-8.5 1q-4 2 -20 2h-873q-29 0 -66.5 -2t-76.5 -3t-73.5 -3t-55.5 -2h-33q-12 0 -25.5 5t-13.5 17z" />
<glyph unicode="F" horiz-adv-x="1275" d="M41 1681q0 8 11 11.5t20 3.5h352q33 0 84 3t109.5 7t118 7t112.5 3h307q2 2 14 2h25q18 0 23.5 -17.5t5.5 -31.5q4 -61 10 -125.5t6 -126.5q0 -31 -29 -31q-10 0 -19 4.5t-17 22.5l-22.5 45t-26 48.5t-29 43t-29.5 29.5q-78 55 -166 65.5t-186 10.5h-82q-29 0 -48.5 -9.5 t-19.5 -43.5v-666q0 -12 10.5 -18.5t16.5 -8.5q49 6 108 6q43 0 86 1.5t81 6.5t68 16t46 30q6 6 11 22.5t9.5 32.5t8.5 32.5t8 22.5q6 18 7 39t4 38.5t11.5 29.5t28.5 12q27 0 32 -19.5t5 -41.5v-455q0 -16 2 -27q2 -18 3 -33.5t1 -19.5q0 -12 -7 -22.5t-20 -14.5 q-14 0 -24 23q-12 31 -16.5 65.5t-11.5 67.5t-24.5 60.5t-56.5 45.5q-29 14 -80 20.5t-84 6.5q-6 0 -34.5 1t-61.5 1q-35 0 -62.5 -2t-33.5 -6q-10 -10 -14 -17.5t-4 -25.5v-703q2 -16 22.5 -24t50 -11.5t64.5 -4.5t64.5 -5t49 -12t19.5 -25q0 -18 -22.5 -21t-37.5 -3 q-61 0 -111 2t-95 3t-88 3t-91 2q-29 0 -55 -2t-55 -4t-56.5 -3t-56.5 -1h-59q-6 0 -13.5 2t-7.5 12q0 12 7.5 17.5t27.5 9.5q33 6 69 9t64.5 7t48 14.5t19.5 30.5v1497q0 20 -37 31.5t-84 18t-93 10.5t-65 8q-16 2 -16 18z" />
<glyph unicode="G" horiz-adv-x="1667" d="M98 813q0 143 29 273.5t86 238t145 191t209 137.5q86 39 174 56t185 17q121 0 234.5 -23.5t191.5 -100.5q18 -14 32 -15q12 0 25.5 27.5t20.5 42.5q10 20 26 20q27 0 31 -24v-66q0 -57 -4 -121.5t-4 -105.5v-193q0 -23 -15 -22q-6 0 -15 14.5t-17.5 33.5t-15.5 38.5 t-11 30.5q-20 57 -50 111t-64 98.5t-69.5 78t-66.5 52.5q-61 35 -122.5 48t-106.5 13q-98 0 -149.5 -25.5t-84.5 -52.5q-78 -63 -130 -138t-87 -149.5t-54.5 -147.5t-27.5 -132.5t-10 -101.5t-2 -56q0 -20 2 -69.5t11 -116t28.5 -144t56.5 -153.5t94.5 -143.5t141.5 -116.5 q66 -39 133 -52.5t139 -13.5q66 0 117 22.5t51 63.5v494q0 31 -36 41t-78 14t-77.5 12.5t-35.5 32.5q0 18 24.5 25.5t53.5 7.5q14 0 43.5 -4t87 -10.5t147.5 -13.5t227 -11q10 0 30 -2t38 -7t32.5 -13.5t14.5 -18.5q0 -14 -25.5 -22.5t-59.5 -14.5t-64.5 -9t-42.5 -5 q-12 -12 -16.5 -18.5t-4.5 -16.5v-442q0 -16 23 -17q41 0 73.5 18.5t69.5 18.5q10 0 17.5 -3t7.5 -13t-9.5 -19.5t-21.5 -16.5t-24.5 -12.5t-16.5 -7.5q-121 -66 -255 -98.5t-273 -32.5q-90 0 -182.5 14.5t-180.5 45t-168 80t-141 116.5q-53 59 -96 131t-74 148t-47.5 153.5 t-16.5 151.5z" />
<glyph unicode="H" horiz-adv-x="1884" d="M74 23q0 35 45 38l166 15q8 2 19 10t11 20v1455q0 35 -7 48t-23 17q-23 6 -49.5 10t-51 7.5t-45 7.5t-28.5 8q-6 2 -8.5 10t-2.5 12q2 18 27 21.5t43 3.5h61q57 0 92 -4t76 -4q96 0 181.5 7t199.5 7q10 0 30.5 -6t20.5 -23q0 -12 -10 -18t-18 -10q-10 0 -32.5 -1 t-49.5 -4t-49.5 -6.5t-30.5 -5.5q-18 0 -49 -12t-31 -45v-641q0 -29 29 -29h688q10 0 19.5 7.5t9.5 19.5v618q0 29 -13.5 47.5t-34 27.5t-45 12.5t-47.5 3.5h-106q-16 0 -29.5 11t-13.5 25q0 16 13 22.5t32 6.5h70q55 0 96 -1t74.5 -3t66.5 -3t74 -1q33 0 59.5 1t56 3 t66.5 3t90 1h86q18 0 25.5 -8t7.5 -14q0 -23 -53 -33q-35 -6 -74 -9t-71.5 -10.5t-55 -26t-22.5 -55.5v-1355q0 -47 15 -69.5t41.5 -33t62.5 -13.5t77 -9q29 -6 46.5 -14.5t17.5 -32.5q0 -20 -13.5 -28.5t-36.5 -8.5h-65q-20 0 -54 1t-70 3t-65.5 3t-41.5 1q-61 0 -100.5 -1 t-77.5 -3t-83 -3t-118 -1q-20 0 -33.5 7t-13.5 30q0 8 6 20t20 14l164 21q49 6 59.5 45t10.5 92v565q0 16 -11.5 30.5t-29.5 14.5h-676q-29 0 -29 -22v-635q0 -43 26.5 -64.5t64.5 -30.5t80 -11t71 -7q14 -4 17 -15t3 -21q0 -25 -16 -29t-33 -4q-49 0 -82 1t-68.5 2t-81.5 2 t-120 1q-59 0 -108.5 -3t-114.5 -3h-86q-18 4 -28.5 8.5t-10.5 22.5z" />
<glyph unicode="I" horiz-adv-x="1007" d="M113 25q0 23 20 28q27 6 47.5 10.5t43 8.5t49 9t67.5 13q20 6 24.5 26.5t4.5 51.5v1333q0 49 -17.5 76t-44 37t-58.5 12t-58.5 3t-44 8.5t-17.5 29.5q0 16 14.5 20.5t28.5 4.5h66q59 0 100 -6.5t96 -6.5q57 0 101.5 3.5t84 6.5t80.5 6t91 3h79q16 0 26.5 -6t16.5 -8 q4 -12 6.5 -13.5t2.5 -11.5q0 -12 -20.5 -20.5t-48.5 -13.5t-54.5 -9t-38.5 -6q-18 -4 -40 -7t-40 -9.5t-29.5 -18.5t-11.5 -35v-1407q0 -37 39 -50t85 -17t85 -10.5t39 -30.5q0 -12 -7.5 -16.5t-13.5 -6.5q-16 -4 -39.5 -8t-42.5 -4q-84 0 -146.5 7t-137.5 7q-18 0 -53 -1 t-73 -3t-76 -3t-65 -1h-94q-6 0 -16 6t-10 19z" />
<glyph unicode="J" horiz-adv-x="874" d="M-154 -352q0 41 26 73.5t71 32.5q47 0 67.5 -28.5t34.5 -63.5t33.5 -63.5t66.5 -28.5q88 0 127 68q25 39 37.5 92t18.5 109.5t7 112.5t1 105v1481q0 23 -11.5 37t-27.5 23.5t-37.5 15.5t-40.5 10q-27 6 -63.5 8t-77.5 15q-14 2 -15 24q0 27 31 27q104 0 197.5 -5 t169.5 -5q55 0 94 2t75 3t73.5 3t91.5 2q12 0 23 -3t11 -14q0 -29 -32 -39q-51 -10 -91 -14t-68 -18.5t-43 -45t-15 -94.5v-1277q0 -219 -105 -422q-59 -121 -168.5 -197t-243.5 -76q-33 0 -70.5 7.5t-70.5 24.5t-54.5 46t-21.5 72z" />
<glyph unicode="K" horiz-adv-x="1701" d="M70 1686q0 8 5 17t19 9h43q53 0 91 -2t71 -3t66.5 -3t76.5 -2q61 0 116.5 3t127.5 3h78q12 0 22.5 -2t10.5 -18q0 -18 -16.5 -26.5t-41 -11.5t-53.5 -5.5t-53.5 -7.5t-41 -17t-16.5 -37v-719q18 0 48 23.5t49 50.5q33 47 54.5 79t47.5 66q72 96 143.5 183.5t149.5 179.5 q23 31 38 61.5t15 65.5q0 18 -16.5 37.5t-38.5 25.5q-29 10 -74 13.5t-80 13.5q-18 6 -18 27q0 6 6 12q6 4 26.5 5t24.5 1q43 0 79 -2t67.5 -4t61.5 -4t63 -2q57 0 113.5 6t95.5 6h86q29 0 45 -10q10 -6 10 -12q0 -2 -4 -7q-47 -18 -98.5 -32.5t-98.5 -34.5 q-29 -10 -63.5 -35t-55.5 -45q-41 -39 -66.5 -64.5l-44 -44t-32.5 -34t-33 -33.5q-57 -63 -109.5 -125t-121.5 -141q-16 -16 -29.5 -32t-13.5 -34q0 -6 25.5 -40t59.5 -75t65.5 -79.5t41.5 -53.5q66 -72 123.5 -144.5t122.5 -150.5q18 -23 51 -59.5t71 -78.5t80 -87t82 -83 t73.5 -65.5t58.5 -35.5q12 -6 44 -13.5t66.5 -16.5t61 -19.5t26.5 -20.5q0 -16 -23.5 -20.5t-45.5 -4.5h-27q-47 0 -87 8.5t-103 8.5h-228q-12 0 -22 10q-96 121 -195.5 230.5t-210.5 242.5q-61 78 -103 130t-76 91t-65.5 71t-74.5 69q-4 4 -12 4q-4 0 -5 -8v-687 q0 -33 26 -52t60.5 -30.5t69.5 -15.5t53 -4q35 0 35 -25q0 -20 -16.5 -24t-40.5 -4q-53 0 -93 2t-74 4t-66.5 4t-69.5 2q-86 0 -178.5 -2t-153.5 -2q-35 0 -35 27q0 8 2 18t12 12q18 2 41 3t43 1h27q25 0 52.5 3.5t43.5 11.5q23 12 23 41v1327q0 78 -17 147q-10 33 -51 41 t-85 11.5t-78.5 9.5t-34.5 33z" />
<glyph unicode="L" horiz-adv-x="1468" d="M76 23q0 16 13 22t22 8q12 2 37.5 3t48.5 3q20 2 63 10.5t76 28.5v830q0 37 2 101.5t5 139t6 151.5t3 138q0 84 -6 121q-4 33 -35.5 47t-73.5 20.5t-83 9.5t-60 13q-14 8 -14 21q0 16 8 18q25 8 51 8h45q53 0 92 -2t72 -4t64.5 -4t72.5 -2q88 0 151.5 16t129.5 15h43 q12 0 27.5 -2t15.5 -19q0 -20 -27 -28q-20 -6 -46.5 -10.5t-59.5 -16.5q-31 -8 -50.5 -16.5t-29.5 -12.5q-12 -8 -22.5 -21.5t-10.5 -37.5v-1428q0 -27 14.5 -41t36 -21t47 -8t48.5 -1q27 0 73.5 2t99 7t101.5 13t80 19q41 14 76 28.5t59 36.5q8 4 29.5 29.5t36.5 50.5 q8 10 13 17.5t9 11.5q10 12 28.5 51t37.5 72q8 10 16 17t21 7q12 0 14 -14t2 -29q0 -59 -21.5 -115.5t-31.5 -113.5q-6 -27 -7.5 -55.5t-6.5 -53t-16 -40t-36 -15.5h-809q-74 0 -123 -3t-89 -7t-80 -7.5t-93 -3.5q-20 0 -33.5 3.5t-21.5 19.5q-2 4 -3 7t-1 16z" />
<glyph unicode="M" horiz-adv-x="2187" d="M23 35q0 10 3 19t11 12q27 6 67.5 9t65.5 3q29 0 55.5 13t42.5 32q12 14 20.5 29.5t14.5 42t11 67.5t10 109l55 1015q0 37 -8.5 74t-26.5 70t-48 56.5t-73 33.5q-4 0 -19.5 2t-32.5 4t-32.5 4t-19.5 2q-23 4 -37 9.5t-14 29.5q0 10 1 20.5t9 10.5h49q61 0 111.5 -8 t123.5 -8h113q20 0 36.5 3t45.5 3q23 0 46.5 -5.5t33.5 -21.5q37 -45 59 -115l398 -1046q4 -10 9 -18.5t11 -8.5q8 0 12 9.5t9 17.5l446 1173q8 14 21.5 17.5t29.5 3.5q119 0 224.5 8t230.5 8q6 0 22.5 -2t16.5 -14q0 -16 -13.5 -33.5t-35.5 -17.5q-59 0 -98.5 -14.5 t-80.5 -57.5q-35 -35 -45 -88t-10 -105l19 -1263q8 -25 40.5 -35t71.5 -13t76 -4t57 -12q14 -6 16.5 -14t2.5 -16q0 -18 -19.5 -22.5t-52.5 -4.5q-39 0 -71.5 1t-65.5 2t-69 2t-79 1h-180h-67q-31 0 -64 -4q-18 -2 -37.5 -3t-38.5 -1q-18 0 -37.5 5t-19.5 32q0 25 29.5 32 t70.5 7h50q49 0 85.5 8t36.5 49l-16 1257q0 6 -2 16.5t-8 10.5q-8 0 -12.5 -3t-6.5 -5l-530 -1380q-6 -18 -14 -19q-10 0 -17 19l-528 1392q-4 14 -14 15q-10 0 -11 -15l-30 -1130q0 -14 2 -37t6 -47.5t10 -49t16 -40.5q14 -25 46 -36t69 -15.5t73 -5.5t60 -5 q14 -2 19.5 -11t5.5 -20q0 -16 -26.5 -20t-51.5 -4q-88 0 -154.5 7t-142.5 7q-63 0 -121.5 -5t-128.5 -5h-47q-10 0 -15 13.5t-5 21.5z" />
<glyph unicode="N" horiz-adv-x="1830" d="M49 37q0 18 13.5 27.5t35.5 17.5q33 10 75 21.5t81 34t66.5 60.5t29.5 103q10 281 23.5 554t13.5 560q0 41 -18.5 62.5t-46.5 50.5q-12 12 -51.5 41.5t-77.5 54.5q-35 23 -56.5 28t-50.5 17q-10 4 -10 12q0 2 1 6.5t9 4.5q25 2 53.5 3t59.5 1h51q59 0 122.5 -2t141.5 -2 q14 0 27 -15l829 -1140q14 -20 33 -21q20 0 20 21v944q0 37 -13 60.5t-45 38.5t-86 26.5t-134 23.5q-35 4 -44 11.5t-9 25.5q0 16 20.5 19.5t32.5 3.5h78q47 0 109.5 -6.5t148.5 -6.5q33 0 81 3t93 3q35 0 55.5 -2t52.5 -10q27 -6 27 -24q0 -16 -23 -23q-63 -4 -109 -18.5 t-77 -42t-46 -71.5t-17 -112l-5 -96q-10 -166 -15 -292t-9 -230.5t-5 -196.5t-1 -190v-70q0 -31 1 -66.5t1 -80.5v-99q0 -10 -6 -28.5t-23 -18.5q-18 0 -32.5 12.5t-37.5 43.5l-882 1251q-10 12 -15.5 19.5t-17.5 7.5q-10 0 -13 -13.5t-3 -25.5v-1061q0 -25 12 -44.5 t28.5 -32.5t34 -22.5t27.5 -15.5q23 -12 70 -22.5t80 -10.5q18 0 40.5 -7t22.5 -32q0 -31 -17.5 -42t-39.5 -11q-154 -2 -305.5 -4t-305.5 -2q-25 0 -39 4t-14 33z" />
<glyph unicode="O" horiz-adv-x="1906" d="M98 944q0 88 33 180.5t90.5 176t134 157.5t164.5 125q121 72 241 100.5t222 28.5q51 0 106.5 -7t105.5 -18.5t92 -25.5t67 -29q57 -35 115.5 -87t110.5 -112.5t94 -124t67 -118.5q41 -92 54 -185.5t13 -191.5q0 -213 -85 -373.5t-236 -289.5q-111 -92 -238 -136.5 t-303 -44.5q-348 0 -604 269q-111 113 -177.5 286.5t-66.5 419.5zM408 823q0 -115 24.5 -232.5t83.5 -209.5q39 -61 86 -121.5t104.5 -109t126 -77t150.5 -28.5q76 0 148.5 38t134 98.5t110.5 137t80 156.5q4 12 15.5 43t22.5 76t20.5 101.5t9.5 121.5q0 55 -9.5 122 t-28 137.5t-45 141t-63.5 136.5q-31 55 -73.5 109.5t-97 96.5t-120 67.5t-141.5 25.5q-74 0 -139.5 -31t-120.5 -77t-96 -97t-66 -94q-39 -66 -77.5 -198t-38.5 -333z" />
<glyph unicode="P" horiz-adv-x="1468" d="M63 1683q0 10 9 13q4 2 13 4t38 2q8 0 44 -2t77 -4t78.5 -4t50.5 -2h159q4 0 22.5 1t40 2t39 2t19.5 1q41 4 81 6t81 2q72 0 148.5 -5t144.5 -32q137 -53 220 -168t83 -254q0 -121 -43 -209t-139 -157q-59 -43 -144.5 -72t-191.5 -29q-47 0 -92 2t-92 6q-6 0 -14.5 2.5 t-20.5 2.5h-23q-10 0 -12 -5q-18 -6 -31.5 -21t-13.5 -50v-228q0 -80 -6 -175t-6 -181q0 -25 10 -35t31 -14q53 -14 100 -19.5t98 -15.5q18 -6 22.5 -12t4.5 -15q0 -14 -21.5 -19t-33.5 -5q-29 0 -76 2t-68 2h-358q-45 0 -86 -2t-60 -2h-43q-14 2 -14 20q0 37 51 37 q37 0 76 6.5t74 16.5q18 4 32.5 14t14.5 37v1454q-10 27 -47 40t-80 20.5t-82 11.5t-55 14q-8 2 -9 16zM594 889q0 -18 3 -36t19 -22q23 -6 43.5 -10t51.5 -4q53 0 107 12.5t100 36.5q43 23 82.5 60t72.5 86t52.5 110.5t19.5 132.5q0 152 -65.5 237t-196.5 140 q-66 29 -154 29q-39 0 -69.5 -3t-65.5 -16v-753z" />
<glyph unicode="Q" horiz-adv-x="1880" d="M98 911q0 127 42 243t122 224q98 131 270 219.5t418 98.5h-2q61 0 130 -13.5t135.5 -37t128 -56.5t108.5 -73q84 -74 143.5 -146t96 -149.5t53 -164.5t16.5 -192q0 -111 -24.5 -222.5t-75.5 -210.5t-129 -182t-184 -136q-18 -10 -42 -19.5t-48.5 -18.5t-46 -17.5 t-35.5 -14.5q-12 -12 -13 -12q0 -6 13 -11q41 -14 82.5 -22t82.5 -18q133 -29 264.5 -49.5t266.5 -39.5q139 -18 273 -24t259 -6q80 0 120 2t46 2q23 0 30 -4t7 -8q0 -6 -17.5 -13.5t-25.5 -9.5q-45 -12 -91 -23.5t-67 -17.5q-8 -2 -56 -13.5t-120 -25.5q-61 -10 -113.5 -17 t-102.5 -11.5t-101 -5.5t-113 -1q-57 0 -108.5 2t-103.5 6.5t-107.5 13.5t-116.5 21q-141 29 -287.5 84.5t-275.5 126.5q-98 55 -183.5 111.5t-171.5 136.5q-31 29 -67.5 70t-72.5 86t-67.5 92t-52.5 88q-86 168 -86 358zM367 737q0 -86 15 -174t48 -168 q45 -113 113.5 -191.5t177.5 -140.5q61 -35 117.5 -44t117.5 -9q43 0 86 16.5t83 42t74 56.5t58 59q31 37 53.5 70t40 63.5t32 61.5t28.5 63q49 109 64.5 211.5t15.5 223.5q0 47 -3 102t-15 106q-16 61 -41 124t-54.5 121.5t-65.5 107.5t-75 82q-72 59 -147.5 79.5 t-155.5 20.5q-72 0 -117 -12.5t-90 -34.5q-47 -23 -85 -55.5t-66.5 -69.5t-52 -76t-42.5 -76q-35 -72 -60.5 -139t-39.5 -166q-6 -53 -10 -122.5t-4 -131.5z" />
<glyph unicode="R" horiz-adv-x="1732" d="M94 20q0 8 5 12.5t24 10.5q23 4 57.5 5t68.5 5t58.5 15t28.5 38v1438q0 16 -11.5 26.5t-26.5 16.5t-32.5 9t-32.5 3h-49h-26t-21 3q-14 0 -14 8q0 14 14 16q78 14 136.5 15t136.5 8q8 0 49 3t88 8t89 9t52 6q35 4 75 7.5t81 3.5q123 0 223 -31t171 -87.5t109.5 -136 t38.5 -176.5q0 -78 -16 -145.5t-65 -132.5q-47 -61 -104.5 -92t-117.5 -68q-8 -6 -8 -16q0 -6 6 -15q80 -98 156 -199.5t147 -209.5q33 -47 74 -94t82 -88q23 -23 46.5 -43.5t55 -39t73.5 -34t102 -27.5q16 -4 27 -10t11 -16q0 -20 -14 -23q-4 -2 -29 -2h-30q-47 0 -125 2 t-144 4q-47 2 -89 8t-83 33q-29 14 -57.5 46t-54.5 71q-47 63 -104.5 145t-108.5 158t-90 132t-47 71q-4 8 -16.5 25.5t-28 36t-28.5 32.5t-22 16q-29 4 -65.5 5t-67.5 1h-30q-12 0 -25.5 -6t-17.5 -22v-559q0 -14 2 -33t5 -37t9 -32.5t14 -20.5q14 -10 51 -18.5t79 -12.5 t78 -6t52 -2q10 0 14.5 -9.5t4.5 -19.5q0 -12 -5 -15t-22 -3q-18 0 -60 2t-87 3t-84 3t-51 2h-367q-10 0 -40 1t-48 3q-12 2 -20.5 3t-8.5 13zM578 846q0 -12 7 -20.5t15 -8.5h47q41 0 85 3t73 9q66 16 125 67.5t96 102.5q20 27 35.5 51.5t27 50t17.5 58.5t10 78 q0 63 -10 112.5t-29.5 89.5t-50.5 73.5t-74 66.5q-29 20 -71.5 36.5t-81.5 22.5q-10 2 -35 3t-41 1t-41 -1t-48.5 -4t-39.5 -11t-16 -20v-760z" />
<glyph unicode="S" horiz-adv-x="1249" d="M123 84l31 326q4 16 5 36.5t5 28.5q2 16 12 17q14 0 21 -19q16 -39 20 -78t19 -65q27 -47 52 -86t57 -70t73 -57.5t100 -48.5q37 -12 70 -14.5t61 -2.5q33 0 66 12.5t80 38.5q68 41 107.5 96.5t39.5 141.5q0 59 -21.5 111.5t-60.5 97.5q-53 59 -103 93t-98.5 54.5 t-95.5 34.5t-96 35.5t-100.5 57.5t-106.5 100q-121 143 -121 344q0 59 19.5 119.5t52.5 114.5t78 98.5t94 70.5q47 29 97 34t106 5q133 0 245 -59q10 -6 46 -32t63 -48q4 -4 8 -4q2 0 6 4q6 10 20.5 36.5t18.5 34.5q4 14 13 15q0 2 4 2q14 0 16 -17.5t2 -27.5v-8 q0 -4 -2 -25.5t-4 -26.5v-292q0 -10 -8 -13.5t-15 -3.5q-12 0 -15 5t-7 20q-12 31 -17.5 63.5t-17.5 67.5q-12 39 -43 84t-71 84t-85 65.5t-84 26.5t-66.5 -3t-47.5 -7q-59 -18 -100.5 -58.5t-75.5 -89.5q-10 -14 -18.5 -35.5t-13.5 -46t-8 -47t-3 -37.5q0 -57 24.5 -103 t63.5 -82t88 -63.5t98 -48.5q86 -35 178 -68.5t158 -86.5q41 -33 80 -80t69.5 -101.5t50 -114t19.5 -116.5q0 -111 -39 -200t-106.5 -150.5t-159.5 -95t-199 -33.5q-127 0 -232.5 29.5t-191.5 121.5q-4 6 -12 7.5t-12 1.5q-20 0 -28.5 -11.5t-14.5 -24t-12.5 -23.5 t-24.5 -11z" />
<glyph unicode="T" horiz-adv-x="1632" d="M-8 1370q0 27 11 54.5t27.5 60.5t35 69.5t34.5 81.5v21q0 6 4 18q6 10 17.5 12.5t23.5 2.5q10 0 17.5 -6.5t14.5 -15.5t16.5 -17.5t21.5 -12.5q29 -8 165 -19t413 -11q33 0 75.5 2t89 4t91.5 4t81 2q29 0 52.5 -3t52.5 -7t64.5 -8.5t52.5 -4.5q23 0 22 25q0 14 8 25 q10 12 29 30.5t31 18.5q8 0 20.5 -13.5t23.5 -32t21.5 -37t16.5 -28.5q8 -18 12 -45t8 -41q4 -10 19.5 -33.5t33 -50t30.5 -52.5t13 -40q0 -31 -26 -31q-16 0 -40 18.5t-48.5 44t-51 51.5t-49.5 40q-16 8 -41.5 20.5t-55.5 23.5t-58.5 20.5t-48.5 11.5q-33 4 -67 5t-67 1 h-67q-4 0 -17.5 -1t-29 -4t-27.5 -7.5t-12 -10.5v-1372q0 -27 29.5 -41t69.5 -21.5t79 -10.5t57 -7q10 -12 12.5 -18t2.5 -17q0 -20 -22.5 -28t-41.5 -8q-25 0 -73 4t-102 10t-104 10t-77 4q-47 0 -89 -1t-89 -9q-10 0 -30.5 -4t-45.5 -9t-49.5 -9.5t-38.5 -4.5 q-12 0 -18.5 10.5t-6.5 16.5q0 16 17.5 25t29.5 12q6 2 27 7t43.5 10t45 11.5t34.5 10.5q39 10 57.5 24.5t18.5 61.5v1296q0 20 -5.5 42t-31.5 22h-264q-53 0 -91 -9.5t-71 -27.5q-39 -20 -78 -54t-61 -73q-4 -6 -7.5 -16.5t-7.5 -21.5t-10 -19.5t-14 -8.5q-10 0 -23.5 25.5 t-13.5 52.5z" />
<glyph unicode="U" horiz-adv-x="1775" d="M-20 1669q0 27 18 27h489q8 0 17.5 -5t9.5 -22v-1032q0 -242 90 -361q80 -102 225 -102q39 0 79 15.5t69 29.5q98 53 150.5 117.5t78.5 163.5q12 41 17.5 105.5t5.5 115.5v895q-16 20 -54 25.5t-79 7.5q-14 0 -27.5 1t-36.5 1q-20 0 -53 1t-80 1q-25 0 -25 26 q0 12 7.5 22.5t31.5 10.5l564 -4q10 0 16 -11t6 -28l-16 -1487q8 -10 29.5 -12t37.5 -2q55 0 106.5 10t110.5 10q20 0 21 -22q0 -12 -14.5 -19.5t-34 -12.5t-42 -9t-36.5 -8q-55 -12 -116.5 -25.5t-121.5 -36.5q-16 -6 -40.5 -16t-49 -19.5t-46 -16.5t-32.5 -7 q-10 0 -18 7.5t-8 19.5v309q0 6 -2 24.5t-4 30.5q0 4 -4 8q-2 2 -5 2q-8 0 -14 -12q-20 -43 -33.5 -70.5t-28 -50t-34 -46t-51.5 -56.5q-35 -37 -85 -66.5t-106.5 -49t-113 -30t-105.5 -10.5q-47 0 -92 9.5t-70 21.5q-82 47 -132 114.5t-66 127.5q-10 33 -17.5 98t-11.5 136 t-6 130t-2 78v901q0 16 -23 16h-225q-18 0 -18 31z" />
<glyph unicode="V" horiz-adv-x="1519" d="M-57 1640q0 16 13 19.5t24 3.5q23 0 59.5 -1t78.5 -2t83 -2t73 -1q45 0 87 1t94 5q53 4 101 9t95 5q10 0 33 -3t23 -19q0 -25 -40 -32t-88.5 -15.5t-88 -30t-39.5 -76.5q0 -29 2 -59.5t12 -55.5l352 -892q16 -39 25 -39q12 0 30 34q4 10 27 72t54.5 149t68.5 189 t69.5 197.5t58.5 170t34 107.5q6 27 6 58q0 45 -14 71q-16 29 -46 49.5t-57 32.5q-20 8 -47 15.5t-50.5 15.5t-39.5 18.5t-16 28.5q0 16 10 18t20 2q39 0 89.5 -3t104.5 -6t111.5 -6t110.5 -3q59 0 98 9t86 9q14 0 33 -3t19 -21q0 -20 -15 -23q-45 -12 -87 -27.5t-52 -23.5 q-12 -6 -35.5 -24.5t-44.5 -47.5q-12 -16 -24.5 -39.5t-31 -64.5t-46 -104.5t-66.5 -161.5l-434 -1067q-8 -18 -15.5 -31.5t-17.5 -13.5q-12 0 -20 14t-19 39l-477 1268q-12 31 -26.5 65.5t-33 67.5t-41 57.5t-48.5 36.5q-10 2 -31 7t-42.5 12.5t-36.5 18.5t-15 23z" />
<glyph unicode="W" horiz-adv-x="2318" d="M-74 1665q0 25 11.5 32t33.5 7q8 0 46 -2t88.5 -4t104.5 -4t97 -2q76 0 150.5 5t109.5 5h27q27 0 47.5 -8t20.5 -27q0 -10 -8.5 -20.5t-20.5 -10.5h-82q-33 0 -56.5 -9t-31.5 -21q-8 -10 -11 -30t-3 -30q0 -12 4 -32.5t10 -44t14 -48t17 -43.5l348 -905q8 -18 22.5 -33.5 t24.5 -15.5q12 0 35 51q20 45 46.5 107.5t56.5 131t58.5 137.5t51.5 128q16 41 23 73.5t7 51.5q0 43 -16 122t-43 160.5t-60.5 148.5t-70.5 87q-6 4 -23.5 5t-29.5 1q-6 0 -24.5 1t-40 2t-40 2t-24.5 3q-18 8 -21.5 15.5t-3.5 19.5q0 16 10.5 27.5t26.5 11.5q51 0 90 -3 t77 -6t82 -5t103 -2t104.5 1t85.5 3t78.5 3t85.5 1q18 0 24.5 -16.5t6.5 -34.5q0 -6 -7 -11.5t-16.5 -7.5t-18.5 -3t-11 -1h-111q-16 0 -37.5 -10t-21.5 -49q0 -25 2 -47.5t6 -38.5l275 -994q12 -51 30 -51q27 0 39 43l295 846q16 45 26.5 86t10.5 80q0 14 -2 31.5t-6 23.5 q-23 27 -48.5 43.5t-53 27.5t-57.5 20.5t-60 19.5q-8 2 -9 18q0 20 16.5 26.5t35.5 6.5q29 0 70.5 -3t87.5 -6t93.5 -6t88.5 -3q35 0 69.5 2t75.5 8q14 2 35.5 6t34.5 4q12 0 30.5 -4t18.5 -20q0 -12 -23.5 -23.5t-55.5 -23t-62.5 -20.5t-42.5 -15q-14 -6 -35 -24.5 t-39.5 -39t-31.5 -39t-15 -26.5l-471 -1194q-6 -18 -19.5 -53t-27 -73t-24.5 -72t-17 -48q-12 -35 -31 -35q-12 0 -20.5 13.5t-12.5 27.5q-61 217 -130 449.5t-140 459.5q-2 16 -17 17q-12 0 -18 -19l-315 -766q-4 -10 -11.5 -32.5t-15.5 -49t-18.5 -52t-18.5 -42.5 q-8 -14 -18 -14q-23 0 -37 33l-547 1417q-6 16 -19.5 40.5t-33 49.5t-44 46.5t-55.5 33.5q-14 8 -39 8q-33 0 -63.5 7t-30.5 36z" />
<glyph unicode="X" horiz-adv-x="1857" d="M0 25q0 14 16.5 22t26.5 10q14 0 38.5 1t51.5 3t52.5 7.5t41.5 11.5q51 25 101.5 65.5t93.5 83.5t76.5 84t54.5 70q20 29 56 82t76 112.5t79 113.5t65 85q4 4 5 10q0 25 -39 76l-451 715q-31 47 -97.5 61.5t-150.5 26.5q-39 10 -39 33q0 12 18.5 14t28.5 2q29 0 79 -2 t104.5 -3t105.5 -3t84 -2q78 0 168 3t182 3q39 0 39 -31q0 -8 -13 -13t-30.5 -7t-36 -3t-28.5 -1q-18 -2 -44 -6t-49.5 -10.5t-40 -14.5t-16.5 -18q0 -16 7.5 -30.5t15.5 -27.5l354 -534q20 -25 25 -25q6 0 14 7.5t12 17.5q66 109 141.5 225.5t141.5 228.5q12 23 20.5 39.5 t8.5 40.5q0 39 -11.5 59.5t-52.5 34.5q-6 2 -24.5 6.5t-40 7.5t-41 6t-27.5 5q-10 2 -30.5 5t-20.5 22q0 12 9 17t19 5q82 0 179.5 -11t191.5 -11h19q18 0 44.5 1t56.5 3t56 4q53 4 84 7t53 3q12 0 29 -2t17 -16q0 -12 -35 -27.5t-81 -31t-90 -30t-61 -22.5 q-25 -12 -50 -29.5t-46 -31.5q-27 -18 -68 -63.5t-86 -105t-93 -124t-90 -121.5t-74.5 -99t-49.5 -57l500 -770q27 -41 72 -72.5t73 -46.5q8 -4 27.5 -7t41 -6t40 -5t29.5 -2q16 -4 25 -7t9 -18q0 -24 -22 -24h-2q-102 0 -197.5 3t-181.5 3q-111 0 -207 -3t-162 -3 q-29 0 -37 11t-8 38q0 10 8.5 15t16.5 5q6 0 18.5 -2t25.5 -4t25.5 -4t16.5 -2q14 0 38.5 1t49 7.5t42 16.5t17.5 28q0 10 -14 30t-23 34l-303 453q-6 12 -18 29.5t-25.5 33.5t-27 28.5t-25.5 12.5q-20 0 -35 -14l-289 -459q-20 -29 -20 -55q0 -16 6 -40t19.5 -46.5t38 -38 t61.5 -15.5h131q10 0 17.5 -6t7.5 -16q0 -14 -10.5 -24.5t-26.5 -10.5h-641q-6 0 -25.5 1t-39 3t-35 7.5t-15.5 13.5z" />
<glyph unicode="Y" horiz-adv-x="1560" d="M-90 1679q0 8 18.5 12.5t28.5 4.5h16q25 0 46.5 -3t54.5 -7q59 -8 120.5 -9.5t122.5 -1.5q82 0 172.5 10.5t176.5 10.5q12 0 31.5 -2t19.5 -19q0 -27 -23 -28q-37 -6 -80 -7q-31 0 -58.5 -4t-49 -17t-33.5 -38t-12 -63q0 -12 7 -31t17.5 -37t20.5 -35.5t16 -25.5 l334 -523q8 -10 19.5 -20t19.5 -10q10 0 21.5 9t21.5 23l250 457q25 47 34 99.5t9 86.5q0 29 -10.5 46.5t-32.5 41.5q-23 20 -46.5 29.5t-48 13t-49 5.5t-49.5 8q-23 6 -22 26q0 10 10 18.5t21 8.5q94 0 162.5 -6t146.5 -6q47 0 76.5 2t61.5 4t75 4t119 2q16 0 27 -2t11 -10 q0 -16 -24.5 -27.5t-56 -20t-63.5 -13.5t-44 -11q-59 -33 -100 -74t-76 -93t-68.5 -118.5t-81.5 -152.5q-53 -102 -111.5 -199.5t-99.5 -206.5q-4 -14 -8 -46t-7 -66.5t-4 -66.5t-1 -44l-27 -475q14 -8 33 -15.5t49.5 -12.5t76.5 -8t116 -3q16 0 16 -23q0 -20 -19.5 -25 t-37.5 -5q-94 0 -188.5 5t-159.5 5q-47 0 -80 -1t-68 -1t-83 -1t-126 -1q-33 0 -32 20q0 14 10 21q4 2 17.5 5t28.5 4t28.5 2t19.5 1q47 4 86 9t70 44l18 514q0 29 -16.5 78t-48.5 103l-367 610q-31 53 -69 104.5t-93 85.5q-14 8 -44 16.5t-60.5 18.5t-54 21.5t-23.5 25.5z " />
<glyph unicode="Z" horiz-adv-x="1607" d="M78 33q0 14 22 49l1012 1538q2 4 4 7t2 7q0 14 -16 15h-82q-47 0 -112.5 -1t-136.5 -3.5t-141.5 -5.5t-131 -6t-103.5 -7t-59 -10q-53 -16 -91 -69.5t-65.5 -114t-47 -114.5t-36.5 -75q-8 -8 -14 -8q-4 0 -4 12q2 33 12 94.5t21.5 128t21.5 127t12 91.5q0 6 9.5 8t11.5 2 q279 6 552 12t548 6h172q4 0 13 -13t9 -17q0 -12 -10 -29t-20 -35l-973 -1507q-6 -10 -11.5 -18.5t-5.5 -18.5q0 -14 19 -15h567q25 0 52.5 1.5t58.5 9.5q53 10 91 26.5t85 46.5q78 53 127 123t78 123q8 16 15 37t21 21q8 0 10.5 -10.5t2.5 -18.5l-74 -361q-6 -45 -25.5 -53 t-64.5 -8h-1297q-18 0 -23 8t-5 25z" />
<glyph unicode="[" horiz-adv-x="702" d="M86 -119v1718q0 10 1 33t1 33q0 25 16.5 38t40.5 17q41 6 80 6t74 5q20 2 60 4t83 4t82 4t58 2q31 0 63.5 -6t32.5 -39q0 -16 -3 -23.5t-20 -11.5h-149q-20 0 -55 -2t-72 -4t-71 -5t-52 -3q-29 -2 -51.5 -6.5t-38.5 -34.5q-2 -4 -3 -14.5t-2 -22.5t-1 -25v-14v-1159v-238 v-489q0 -10 12 -20.5t35 -14.5q35 -6 88 -9t110.5 -5t112.5 -5.5t96 -9.5q55 -6 56 -30q0 -16 -6.5 -31t-24.5 -15q-59 -2 -131 1.5t-142.5 9.5t-132 11t-98.5 5q-25 0 -37 20.5t-12 36.5v289z" />
<glyph unicode="\" d="M88 1757q0 12 12 19q2 0 11.5 3t13.5 7q4 0 13 -6t18 -23q186 -487 369.5 -966.5t369.5 -966.5q-2 -12 -9 -18.5t-18 -10.5q-12 -4 -16 -4q-10 0 -18 8q-6 16 -39 103.5t-83 218.5t-112.5 295t-128 334t-128 334.5t-115 299t-87.5 225.5t-43 113q-4 6 -7 15.5t-3 19.5z " />
<glyph unicode="]" horiz-adv-x="702" d="M25 -455q0 16 3 23.5t19 11.5h150q20 0 55 2t71.5 4t70.5 5t52 3q29 2 51.5 6.5t39.5 34.5q2 2 3 13.5t2 24t1 24.5v14v1159v238v489q0 10 -12.5 20.5t-34.5 14.5q-35 6 -88.5 9.5t-110.5 5.5t-113.5 5t-95.5 9q-55 6 -55 31q0 16 6 30.5t24 14.5q57 2 130 -1t144 -9.5 t132 -11.5t98 -5q25 0 37 -20.5t12 -36.5v-289v-1718q0 -10 -1 -33t-1 -33q0 -25 -16 -38t-41 -17q-41 -6 -80 -6t-74 -4q-20 -2 -60 -4.5t-83 -4.5t-82 -4t-57 -2q-31 0 -63.5 6t-32.5 39z" />
<glyph unicode="^" horiz-adv-x="1103" d="M229 846l277 371q25 27 51 26q33 0 53 -26l279 -371q-6 -10 -25 -10q-20 0 -28 10l-279 233l-260 -233q-20 -14 -37 -15q-17 1 -31 15z" />
<glyph unicode="_" horiz-adv-x="1067" d="M2 -150q0 33 23 33h1011q29 0 29 -35q0 -10 -7 -21t-22 -11h-1005q-10 0 -19.5 8t-9.5 26z" />
<glyph unicode="`" horiz-adv-x="1230" d="M283 1622q0 39 17 61.5t62 22.5q35 0 67 -15.5t48 -43.5q88 -152 153.5 -248t92.5 -150q2 -4 2 -12q0 -12 -14.5 -18.5t-24.5 -6.5h-6q-4 0 -6 2q-35 31 -77 69t-86 78t-84 76t-71 64q-31 29 -52 62.5t-21 58.5z" />
<glyph unicode="a" horiz-adv-x="1128" d="M-20 33q0 4 6 14t20 9q39 0 84 24t70 80l313 743q2 2 6 11.5t4 15.5q0 27 -19.5 49t-19.5 37q0 12 8.5 19t19.5 11.5t23.5 5.5t22.5 3q10 4 23.5 15t21.5 20q8 12 11.5 32.5t23.5 20.5q23 0 29 -21l338 -1013q14 -45 38.5 -53.5t65.5 -8.5h43q10 0 16 -2q6 0 13.5 -8 t7.5 -14q0 -18 -21 -21q-2 -2 -16 -2h-68q-35 0 -79.5 4t-90.5 4q-72 0 -141 -4t-123 -4q-6 0 -12 2t-6 10q0 14 20.5 27.5t36.5 13.5q10 0 22.5 -1t26.5 -1q39 0 62 8q20 6 20 29q0 2 -1 5t-3 11q-4 10 -14 40t-22.5 64t-23.5 65.5t-18 50.5q-4 10 -10 20t-18 10h-332 q-29 0 -39 -28l-47 -172q-2 -8 -3 -14.5t-1 -16.5q0 -37 12 -48.5t47 -15.5q6 0 19.5 -2.5t29 -4t28.5 -3.5t19 -2q6 -2 17.5 -11t11.5 -20q0 -16 -22 -16h-37q-18 0 -51 1t-66 1t-78 -1t-92 -1q-6 0 -23.5 2t-36 6t-32.5 10.5t-14 14.5zM344 440q0 -12 8 -21t21 -9 q72 0 137 -5.5t125 -5.5q12 0 19.5 7.5t7.5 15.5v12q-2 2 -3 4q0 2 -1 5t-1 8l-127 360q-10 25 -22 25q-6 0 -13.5 -5.5t-9.5 -9.5l-139 -362q-2 -2 -2 -13v-6z" />
<glyph unicode="b" horiz-adv-x="1218" d="M61 23q0 20 29 30q35 8 66.5 10.5t64.5 8.5q25 4 31 24.5t6 36.5v885q0 25 -7 53.5t-34 36.5q-29 8 -70 10t-61 10q-12 2 -12 17q0 16 16 16h49q41 0 84 -5t88 -5q78 0 144.5 6t132.5 6q25 0 59.5 -1t69.5 -3t64.5 -4t43.5 -4q125 -14 192.5 -101t67.5 -210 q0 -104 -65.5 -157.5t-159.5 -80.5q-8 -2 -8 -10q0 -4 6 -8t10 -6q66 -25 108 -49.5t77 -69.5q23 -29 37 -67t14 -79q0 -53 -18.5 -108t-53.5 -101q-47 -61 -110.5 -83.5t-137.5 -22.5q-29 0 -66.5 1t-76.5 1h-129h-199h-223q-29 0 -29 23zM453 88q0 -18 17 -30.5t36 -12.5 h63q55 0 96.5 4t72 16.5t54 33t48.5 55.5q35 47 42 84.5t7 74.5q0 39 -8.5 82t-22.5 68q-31 49 -65.5 75.5t-71.5 41t-75 17.5t-75 3h-88q-30 0 -30 -45v-467zM453 641q0 -16 26 -16q16 0 45 1t60.5 3t61.5 5t48 7q86 25 118 87.5t32 148.5q0 117 -80 182t-209 65h-35 q-29 0 -48 -9t-19 -32v-442z" />
<glyph unicode="c" horiz-adv-x="1097" d="M106 571q0 129 58.5 242t169.5 211q66 55 134.5 86t154.5 31q35 0 65.5 -3t61 -10.5t64.5 -20.5t77 -32q2 -2 8 -2q14 0 21.5 8.5t12.5 19.5t11 19t19 8q4 0 10 -6t6 -12v-260q0 -14 -8 -25.5t-21 -11.5q-18 0 -31.5 16.5t-23.5 39t-19.5 45t-17.5 34.5 q-25 35 -48.5 55.5t-61.5 40.5q-29 14 -66 22.5t-84 8.5t-96 -23.5t-78 -64.5q-45 -59 -72.5 -157.5t-27.5 -196.5q0 -14 2 -50t9 -81t19.5 -92.5t32.5 -83.5q45 -88 121 -145.5t174 -59.5q29 0 57.5 7t51.5 17q6 2 16 9.5t21.5 16.5t22.5 18.5t17 15.5q33 35 51.5 81 t22.5 64q2 14 23 15q12 0 15 -19.5t3 -26.5q0 -72 -31.5 -130t-85.5 -99q-51 -41 -110.5 -65.5t-124.5 -24.5q-164 0 -272.5 71.5t-170.5 182.5q-39 66 -60.5 152t-21.5 165z" />
<glyph unicode="d" horiz-adv-x="1398" d="M53 20q0 8 9.5 14.5t20.5 9.5t21.5 5t14.5 2h26q29 0 62 4t43 11q14 14 14 71v905q0 41 -20 43q-18 2 -41 3.5t-47 1.5q-27 0 -48.5 3t-41.5 7q-12 2 -13 14q8 18 25.5 23.5t36.5 5.5q41 0 87 -4t79 -5q78 0 161.5 4.5t188.5 4.5q51 0 99 -1t95 -8q14 -2 40 -10t53.5 -17 t52 -19.5t35.5 -16.5q147 -80 223 -206t76 -312q-4 -49 -9.5 -95t-22 -92.5t-48 -92.5t-88.5 -97q-33 -27 -68 -49.5t-68.5 -39.5t-63.5 -29.5t-50 -18.5q-115 -29 -216.5 -34t-219.5 -5h-203h-178q-17 4 -17 20zM453 115q0 -20 2 -37t12 -21q18 -6 60 -7t75 -1 q115 0 182.5 34t120.5 79q86 78 130 178t44 248q0 113 -30.5 194.5t-104.5 159.5q-82 86 -185.5 125t-203.5 39q-31 0 -56.5 -8t-45.5 -37v-946z" />
<glyph unicode="e" horiz-adv-x="1146" d="M49 1118q0 6 3 15.5t16 9.5h194q113 0 223.5 1t202.5 1h168q39 0 80 -2t57 -2q16 -2 19.5 -25.5t3.5 -36.5v-192q0 -10 -8 -10q-12 0 -19.5 17t-19.5 40q-10 27 -25.5 52.5t-23.5 39.5q-10 20 -33 31.5t-49.5 17.5t-55 10.5t-49.5 8.5q-6 0 -36.5 1t-67.5 2t-73 2t-56 1 q-25 0 -31 -14.5t-6 -43.5v-421q0 -10 7.5 -19.5t21.5 -9.5l202 8q47 4 72 23.5t37 47t19 61.5t20 65q2 14 12 14q16 0 16 -8v-47q0 -47 -4 -102.5t-4 -94.5t6 -81t6 -87q0 -6 -1 -19.5t-3 -26.5t-7 -24.5t-11 -11.5q-12 0 -15 12.5t-6 22.5q-2 14 -8 34.5t-13 41t-13 37 t-9 22.5q-10 20 -40.5 33.5t-69.5 20t-80 8.5t-72 2h-34q-18 0 -23.5 -8.5t-5.5 -24.5v-416q0 -35 22 -45h361q23 0 48.5 1t33.5 5q18 4 30.5 20.5t20.5 30.5q4 6 14.5 25t21.5 40.5t21.5 40.5t14.5 26q6 14 22 14q10 0 17 -8v-176q0 -10 -2.5 -19.5t-4.5 -21.5 q-4 -16 -11 -22.5t-28 -10.5q-121 0 -227 1t-217 2t-232.5 2t-271.5 1q-20 0 -20 20q0 12 13 19.5t24 9.5q8 0 23.5 1t33.5 2t36.5 2t31.5 1q29 0 28 45v875q0 20 -4 49t-16 49q-6 6 -8 6l-166 17q-23 0 -23 22z" />
<glyph unicode="f" horiz-adv-x="1140" d="M80 1116q0 23 22 27h332q14 0 56 2t94.5 4t106.5 4t93 2h283q12 0 12 -12v-211q0 -12 -12 -17.5t-18 -5.5q-10 0 -21.5 19.5t-25 46t-31 54.5t-41.5 44q-23 16 -37 18.5t-27 2.5h-88h-92q-72 0 -137.5 -3.5t-83.5 -5.5q-12 -4 -12 -14v-414q0 -12 5 -21t17 -11 q51 -10 104.5 -11.5t100.5 -1.5h61q25 12 53.5 37t39.5 51q12 29 13 43.5t9 30.5q4 10 8 11t15 1q6 0 17 -4t11 -24v-74q0 -45 -7 -88t-7 -80q0 -29 5 -59.5t5 -57.5q0 -14 -6 -38.5t-33 -24.5q-6 0 -10 9t-7 20.5t-6 22.5t-5 15q-2 6 -5.5 21.5t-6.5 34t-8 35t-9 20.5 q-18 23 -59 29t-95 6h-168q-16 0 -24 -14.5t-8 -26.5v-385q0 -16 2 -29.5t16 -25.5q6 -6 42 -8.5t62 -2.5h27q12 0 24.5 -9t12.5 -21q0 -20 -18.5 -23.5t-36.5 -3.5q-100 0 -220 2t-233 2q-23 6 -22 25q0 16 11 23t25 9q18 2 50 3.5t45 3.5q16 4 19 31.5t3 45.5v904 q0 16 -2 23t-16 11q-16 4 -33.5 6.5t-34.5 2.5q-33 0 -65 6q-6 2 -18.5 7t-12.5 11z" />
<glyph unicode="g" horiz-adv-x="1370" d="M90 575q0 131 59.5 245t147.5 181q80 61 200.5 104.5t256.5 43.5q80 0 151.5 -14.5t143.5 -49.5q14 -8 24 -8q10 2 21 17l20 16q6 6 14 6q29 0 29 -35v-102q0 -16 6 -34.5t8 -39.5q2 -4 3 -20v-25v-43q0 -8 -10.5 -11t-14.5 -3q-25 0 -29 16q-23 59 -54.5 110.5 t-74.5 89.5t-98 59.5t-123 21.5q-86 0 -146.5 -23.5t-117.5 -70.5q-39 -29 -62.5 -58.5t-50.5 -85.5q-33 -61 -49 -132t-16 -132q0 -45 2 -82t9 -72.5t22.5 -74.5t41.5 -88q53 -104 142.5 -166t199.5 -62q72 0 113 14.5t88 67.5q2 2 7 11.5t5 15.5l13 282q0 14 -11.5 26.5 t-25.5 18.5q-10 4 -37 10.5t-53.5 12.5t-46 12t-13.5 13q0 12 9 12h481q29 0 36 -10.5t7 -16.5q0 -10 -12.5 -15t-31 -8t-39 -4t-36.5 -6q-35 -6 -35 -28v-297q0 -8 15 -8q14 0 27.5 6t31.5 6h14q10 0 15 -4q12 -10 12 -17q0 -10 -12.5 -16t-22.5 -12q-154 -57 -290 -88 t-277 -31q-43 0 -90 7t-92 20.5t-86 32t-74 38.5q-45 31 -88 83t-78 115.5t-56.5 135t-21.5 143.5z" />
<glyph unicode="h" horiz-adv-x="1417" d="M66 27q0 23 17 29.5t40 9.5q14 0 50 -2.5t56 -2.5t21 31v959q0 8 -11.5 18t-21.5 10h-108q-8 0 -22.5 11.5t-14.5 21.5q0 14 12 20.5t22 6.5q100 0 234.5 -2t259.5 -2q12 0 19.5 -9.5t7.5 -15.5q0 -18 -26 -22.5t-58.5 -5.5t-61 -5t-37.5 -20v-439q0 -16 23 -16h469 q10 0 23.5 9.5t13.5 21.5v416q0 20 -19 24q-31 4 -61.5 5t-61.5 9q-14 6 -24 15.5t-10 13.5q0 14 13 18.5t17 4.5q12 0 43 -4.5t45 -4.5h148q20 0 48 1.5t57.5 3.5t58 3t51.5 1q18 0 22.5 -11.5t4.5 -29.5q0 -6 -5.5 -15.5t-11.5 -9.5h-94q-27 0 -27 -16v-959 q0 -12 11.5 -21t25.5 -9h105q6 0 10 -7.5t4 -13.5q-2 -18 -12.5 -30.5t-26.5 -12.5q-29 0 -63.5 1t-69.5 1q-33 0 -62.5 1t-46.5 1q-66 0 -110.5 -4t-106.5 -4q-12 0 -24.5 6t-12.5 23q0 6 8.5 17t14.5 11h113q16 0 32.5 13.5t16.5 35.5v365q0 27 -8.5 45.5t-20.5 20.5h-471 q-29 0 -29 -29v-418q8 -18 16.5 -24.5t26.5 -10.5q10 -2 22.5 -3t29.5 -1h28h23q29 0 28 -28q0 -23 -30 -23q-10 0 -39 1t-66 1q-35 0 -73.5 1t-71.5 1q-55 0 -92 -1t-72 -3q-18 0 -33.5 -2t-34.5 -2q-20 0 -30 4t-10 27z" />
<glyph unicode="i" horiz-adv-x="798" d="M104 1114q-2 6 -2 11q0 9 4 15q6 10 18.5 14.5t28 5.5t27.5 1h426h39t10 -2q23 -4 23 -26q0 -25 -27.5 -32t-59.5 -8t-59.5 -4.5t-27.5 -19.5v-928q0 -6 1 -18t4 -24.5t9 -21.5t17 -9h131q12 0 21 -11.5t9 -23.5q0 -10 -11 -21.5t-21 -11.5h-371q-23 0 -47.5 -2t-52.5 -2 q-35 0 -60 6q-8 6 -8 23q0 25 12 28q29 4 50.5 7t45.5 3q18 0 26.5 1.5t19.5 3.5q16 6 16 49v944q0 14 -13.5 25.5t-27.5 11.5q-27 0 -42 -4t-38 -4q-27 0 -61 10q-8 2 -9 14z" />
<glyph unicode="j" horiz-adv-x="745" d="M-166 -391q0 45 25.5 78.5t72.5 33.5q18 0 43 -12q6 -4 18.5 -17.5t26 -28.5t25.5 -30.5t18 -21.5q20 -33 41 -45t62 -12q27 0 48.5 5t45.5 23q16 10 29.5 42t13.5 67v141q0 37 -2 131t-6 217t-8 260.5t-8.5 260t-8.5 219t-6 135.5q-10 30 -63 30h-86q-16 0 -30.5 10.5 t-14.5 20.5q0 20 14 30.5t31 10.5q51 0 107.5 -4t115.5 -4q61 0 130 4t136 4q16 0 33.5 -7t17.5 -26q0 -18 -13 -24t-32 -10q-8 0 -24.5 -1.5t-36.5 -1.5q-18 0 -32.5 -1t-24.5 -3q-12 -10 -13 -28q0 -117 5 -244t12.5 -250t12.5 -233.5t5 -192.5q0 -86 -3 -159.5 t-21.5 -141t-58.5 -129t-114 -123.5q-51 -45 -131 -77.5t-157 -32.5q-57 0 -99.5 14t-81.5 68q-14 20 -14 55z" />
<glyph unicode="k" horiz-adv-x="1312" d="M94 20q0 6 2 17.5t10 13.5q33 6 65 7t60 5q16 2 19.5 16.5t3.5 31.5l14 919q0 10 -6 20.5t-22 12.5l-97 8q-12 0 -19 9.5t-7 19.5q0 26 26 26h2q72 0 123 -5t70 -5q84 0 125 4t74 4h38q14 0 25 -6q8 -4 10 -12t2 -12q0 -14 -14 -17q-8 -4 -44 -5t-69 -5q-16 -4 -19 -19.5 t-3 -33.5l-6 -338q0 -10 16 -10q6 0 23.5 8t39 22.5t43 30.5t39.5 35l203 174q16 12 22.5 28.5t6.5 22.5q0 18 -5 36.5t-22 29.5q-6 4 -34.5 9t-49.5 9q-18 4 -26 7t-8 20q0 4 3 11t13 7q76 0 135 2t111.5 3t100.5 3t101 2h17q25 0 26 -2q10 -4 11 -18q0 -6 -11 -16 q-12 -10 -30 -13q-2 0 -16.5 -4t-31 -8t-29.5 -8t-15 -6q-8 -2 -23.5 -12.5t-33 -20.5t-32 -19.5t-20.5 -11.5q-18 -10 -40.5 -28.5t-47.5 -38t-47.5 -39t-38.5 -31.5q-20 -16 -54 -47t-55 -49q-8 -6 -12 -12.5t-4 -22.5q0 -12 17.5 -32.5t33.5 -39.5q16 -20 56 -70.5 t90.5 -113t103.5 -130t98 -124.5q37 -53 98.5 -88t114.5 -58q27 -8 40.5 -11l31.5 -7q12 -4 12 -12t-12 -12.5t-29 -4.5h-28q-25 0 -71 4.5t-87 4.5q-43 0 -92 -3.5t-95 -7.5t-86 -7t-61 -3q-14 0 -26.5 8t-12.5 21q0 12 9.5 21t19.5 9h88q10 0 20.5 9.5t10.5 19.5 q0 6 -4 14.5t-9 16.5l-12 16q-92 117 -186 233.5t-199 233.5q-8 14 -33 15q-8 0 -17 -7.5t-9 -25.5l-6 -488q16 -41 65 -41h27h22q4 0 10.5 -1t16.5 -3q12 -4 12 -28q0 -16 -10 -19.5t-25 -3.5q-45 0 -100 4t-107 4q-88 0 -143 -6t-94 -6q-10 0 -20.5 2t-10.5 18z" />
<glyph unicode="l" horiz-adv-x="1120" d="M74 1104q0 23 28 22h291q4 0 18.5 1t31 2t29.5 2.5t15 1.5q16 2 37 3t35 1q6 0 32.5 -1t35.5 -3q16 -4 16 -19q0 -12 -8 -27q-8 -8 -23 -8h-131q-16 0 -20 -29.5t-4 -48.5q0 -61 6 -122.5t6 -139.5v-653q0 -8 4 -19.5t14 -11.5h379q33 0 61.5 29t52.5 66.5t42 74.5t31 56 q6 8 14 8q6 0 10 -10q4 -16 5 -29.5t1 -36.5q0 -10 -3 -27.5t-7 -38t-7 -39t-3 -28.5t-1 -36t-5 -34q-16 -10 -29 -10q-147 0 -316 3t-335 3q-59 0 -123 -4t-102 -4q-25 0 -41.5 3.5t-16.5 21.5q0 27 25 30h45q41 0 69.5 5t28.5 34v955q0 12 -11 21t-24 9h-84h-22 q-6 0 -14.5 1t-18.5 3q-6 2 -10 9.5t-4 13.5z" />
<glyph unicode="m" horiz-adv-x="1810" d="M45 14q0 20 21.5 33.5t50 24t57.5 20.5t43 27q12 16 21.5 57t13.5 92q2 29 6 72t9 107.5t12.5 154.5t17.5 213q4 35 13 96.5t9 141.5q0 25 -25.5 37t-56 20t-56 16.5t-25.5 26.5q0 25 29.5 29t47.5 4q4 0 18.5 -2t32 -5t32 -5.5t18.5 -2.5h147q25 -4 37 -17t21 -32 q10 -23 26.5 -57.5t50.5 -106.5q57 -119 118 -251t114 -248q2 -6 11 -27.5t20.5 -46.5t23.5 -49.5t23 -36.5q10 -10 16 -10q8 0 16 14q31 66 75 160t90 194.5t91.5 195.5t77.5 163q4 8 11.5 32.5t16.5 50t19.5 45t22.5 19.5h254q8 0 19.5 4t17.5 4q14 0 33.5 -3t23.5 -19 q6 -18 -18.5 -21.5t-56 -9.5t-59.5 -22.5t-28 -59.5v-960q0 -14 6 -17q14 -4 36 -6t44.5 -5t45 -7t38.5 -10q4 -4 9.5 -11.5t5.5 -11.5q0 -14 -19.5 -19t-30.5 -5q-78 0 -155.5 7t-155.5 7h-129q-4 0 -25.5 -2t-25.5 -2q-12 0 -20.5 9t-8.5 22q0 20 14.5 26t36.5 6 q16 0 37 -2t37 -2q20 0 34.5 5t16.5 24v836q-2 14 -6 14q-6 0 -28 -47q-16 -37 -43 -86t-39 -78q-66 -141 -125.5 -277.5t-132.5 -273.5q-4 -6 -12.5 -22.5t-18.5 -37t-19.5 -41t-15.5 -34.5q-8 -14 -12 -17.5t-10 -3.5q-10 0 -25 21q-8 10 -23.5 37.5t-56.5 110.5t-120 243 t-214 436q-16 27 -28.5 53.5t-36.5 47.5q-10 -88 -14.5 -172t-8.5 -170q-6 -100 -11 -202t-5 -202q0 -18 1 -39.5t7 -41t17.5 -34t31.5 -20.5l135 -29q6 -2 7.5 -10t1.5 -12q0 -25 -23 -29h-59q-47 0 -91.5 3t-89.5 3q-47 0 -95 -3t-95 -3h-31q-6 2 -6 12z" />
<glyph unicode="n" horiz-adv-x="1404" d="M70 1122q0 20 26.5 26.5t40.5 6.5q4 0 24.5 -4t26.5 -4h125q6 -2 19.5 -10.5t17.5 -12.5q180 -199 347 -380t341 -367q4 -6 11 -10q10 -10 18 -11q10 0 16.5 10.5t6.5 12.5v287v100q0 41 -2.5 84t-5.5 80t-9 66.5t-14 43.5q-16 27 -51 38.5t-69 16.5t-59.5 11t-25.5 22 q0 33 39 33h448q23 0 23 -26q0 -12 -25.5 -20.5t-59.5 -20t-65.5 -31t-42.5 -51.5q-12 -29 -17 -64t-5 -94v-829q0 -10 -8 -17.5t-13 -7.5q-16 0 -34 23q-6 8 -49.5 54t-107 115.5t-141 153.5t-154.5 167t-145.5 156.5t-113.5 123.5q-10 10 -21 10q-18 0 -23 -23.5t-5 -50.5 q0 -16 2 -59t3 -92.5t3 -95.5t2 -68v-58q0 -29 1 -62.5t4 -66t8 -60.5t16 -42q18 -29 51 -34t63.5 -7t54 -9t23.5 -40q0 -10 -2 -17.5t-14 -17.5h-375q-23 0 -52.5 6t-29.5 35q0 10 2 19.5t12 13.5q37 6 64 8t44 10t28.5 28.5t19.5 63.5q0 100 2 208t6 206q2 72 12.5 140.5 t10.5 140.5q0 12 -2 18t-6 23q-4 6 -15.5 21t-24 33.5t-24.5 34t-18 21.5q-12 14 -35 23.5t-44.5 17.5t-37.5 19.5t-16 31.5z" />
<glyph unicode="o" horiz-adv-x="1280" d="M94 557q0 139 52.5 234.5t152.5 181.5q78 66 177 88t200 22q43 0 91 -13t92 -33.5t83 -45t64 -47.5q86 -82 133 -177t47 -208q0 -123 -35 -210t-100 -165q-31 -35 -73 -67.5t-93 -59t-109.5 -42t-122.5 -15.5q-106 0 -197 29.5t-169 101.5q-193 168 -193 426zM311 565 q0 -92 18.5 -184t71.5 -178q14 -25 40 -51.5t56.5 -49t63.5 -37t62 -14.5q55 0 98 18.5t75.5 50.5t58.5 72.5t48 83.5q57 115 58 271q0 113 -32 198.5t-95 176.5q-33 47 -82.5 78.5t-108.5 31.5q-53 0 -91 -11t-66.5 -31.5t-52 -50.5t-48.5 -67q-45 -70 -59.5 -148.5 t-14.5 -158.5z" />
<glyph unicode="p" horiz-adv-x="1144" d="M78 1122q0 6 8 13q2 2 14.5 3t26.5 1h57q123 0 228.5 5t203.5 5q92 0 161 -5t128 -40q72 -41 121 -104.5t49 -168.5q0 -55 -9 -85.5t-38 -75.5q-25 -39 -54.5 -67t-76.5 -48q-35 -14 -62.5 -22.5t-55 -13.5t-56.5 -7t-66 -2q-33 0 -67.5 6t-57.5 6q-10 0 -24 -1t-19 -5 q-18 -12 -23 -27.5t-5 -33.5v-392q0 -8 13 -13t22 -5h73q18 0 39 -4t29 -8q14 -2 14 -23q0 -10 -12 -12q-8 -4 -20.5 -5t-20.5 -1q-10 0 -40 1t-65.5 3t-67.5 3t-44 1h-143h-129q-13 0 -13 16q0 4 3 13.5t14 13.5q6 2 18 2h49q14 0 31.5 1t36.5 1q10 0 12 13.5t2 19.5v987 q-4 14 -25.5 19.5t-49 7.5t-55.5 3t-44 7q-10 4 -10 18zM455 586q0 -4 3 -14.5t9 -14.5q35 -4 54.5 -5t47.5 -1q25 0 54.5 1t46.5 5q37 8 70.5 37t58 66.5t39 79.5t14.5 79q0 27 -4 59.5t-19 57.5q-51 98 -131 130t-184 32q-12 0 -28.5 -1t-18.5 -1l-12 -15v-495z" />
<glyph unicode="q" horiz-adv-x="1288" d="M106 563q0 111 41 213.5t113 181t171 125.5t214 47q80 0 160 -21.5t162 -78.5q55 -37 95 -91t66.5 -118.5t40 -136.5t13.5 -145q0 -59 -12.5 -113.5t-41.5 -116.5q-27 -59 -52 -97t-68 -79q-29 -27 -53.5 -38t-59.5 -38q-12 -10 -21.5 -18t-9.5 -19v-6q20 -8 45 -16 t58 -18l172 -60q43 -16 102 -32.5t126 -32t132.5 -27.5t118.5 -21q31 -6 56.5 -10t56.5 -4q8 0 17 1t19 1q18 0 22.5 -5t4.5 -9t-8 -11.5t-12 -11.5q-16 -12 -61.5 -20t-95.5 -14.5t-95 -8.5t-60 -2q-35 0 -63.5 1t-57 4t-61.5 8.5t-76 15.5q-41 8 -115.5 29.5t-159.5 49 t-168 56.5t-140 51q-70 27 -141.5 57.5t-127.5 71.5q-70 49 -133 122t-88 165q-16 59 -20.5 108.5t-4.5 110.5zM311 530q0 -49 11.5 -106t29 -112.5t38 -103.5t40.5 -79q29 -45 81 -78t112 -33q51 0 91 14.5t70.5 39t55 57.5t47.5 70q20 33 34.5 87t22.5 113.5t12.5 116.5 t4.5 96q0 80 -19.5 163t-61.5 150.5t-107.5 109.5t-158.5 42q-68 -20 -108.5 -50t-68 -71t-48 -92t-45.5 -112q-6 -16 -12 -44t-10.5 -59t-7.5 -62.5t-3 -56.5z" />
<glyph unicode="r" horiz-adv-x="1335" d="M74 1137v4q0 8 4 17t14 9h598q82 0 153.5 -17t125 -55t84 -98.5t30.5 -148.5q0 -59 -8 -96t-26.5 -62.5t-45 -46t-63.5 -45.5q-8 -6 -21.5 -11t-26.5 -11.5t-22.5 -12.5t-9.5 -12t17.5 -31.5t43 -60.5t56.5 -76t58.5 -76t49 -60.5t27.5 -31.5q63 -63 133 -110.5 t162 -59.5q10 -16 10 -29q0 -10 -4 -13t-20 -3h-453h-70h-16q-10 0 -22.5 3t-21.5 8.5t-9 15.5q0 18 22 24h88q10 2 21.5 3t15.5 5q6 2 6 9q0 4 -6 14q-164 217 -332 442q-4 4 -11 10.5t-11 6.5l-119 14h-4q-18 0 -18 -23v-362q0 -47 11 -70.5t27.5 -34t37 -11.5t38.5 -1 q20 0 34.5 -4t14.5 -26q0 -14 -13 -18.5t-25 -4.5h-474q-10 0 -19 6t-9 17q0 12 16 22q12 4 40 5t56.5 4t50 8.5t21.5 17.5v41q0 55 -1 101t-2 94.5t-2 102.5t-1 126v377v149q-2 4 -3 14.5t-5 16.5q-8 4 -10 6t-5 2h-110q-12 0 -26.5 6t-18.5 17q-2 2 -2 4zM444 1065 q0 -4 1 -22.5t3.5 -40t3.5 -40t1 -24.5v-311q0 -23 14 -29q2 0 12 -1t22.5 -2t26 -2t19.5 -1q39 0 76 12q59 14 103 32.5t72.5 49.5t43 78t14.5 121q0 96 -65 162q-49 51 -116 68.5t-155 17.5q-33 0 -54.5 -16.5t-21.5 -51.5z" />
<glyph unicode="s" horiz-adv-x="933" d="M106 178q0 33 14.5 64.5t22.5 58.5q0 6 3.5 20.5t6.5 31t7 31.5t6 22q2 14 18 14q14 0 19 -23v-26q0 -18 1 -25.5t3 -13.5q10 -53 29.5 -102.5t52.5 -87.5t77 -61.5t103 -23.5q43 0 84 13.5t71.5 39t49 61.5t18.5 83q0 94 -43 146.5t-108.5 83t-141 53t-141 58.5 t-109 97.5t-43.5 171.5q0 53 18.5 90t33.5 60q35 57 106.5 105t175.5 48q47 0 100.5 -18.5t94.5 -48.5l25.5 -25.5t25.5 -13.5q18 0 28.5 11t22.5 30q4 4 8 4q6 0 9.5 -19.5t3.5 -27.5q0 -6 -6.5 -46t-16.5 -86t-22.5 -83t-22.5 -37h-4q-4 0 -4 6q-18 35 -19 52.5t-6 45.5 q-4 20 -12 35q-14 39 -31.5 63.5t-46.5 51.5q-18 20 -34.5 31.5t-35 16.5t-42 6t-58.5 1q-33 0 -60.5 -15.5t-48 -40t-31.5 -57t-11 -67.5q0 -78 44 -120t109.5 -68.5t143.5 -50t143.5 -64.5t109.5 -110.5t44 -188.5q0 -59 -30 -118.5t-77 -111.5q-43 -47 -128 -75.5 t-171 -28.5q-43 0 -99 18.5t-107.5 45t-86.5 57t-35 57.5z" />
<glyph unicode="t" horiz-adv-x="1167" d="M8 946v6q12 43 26.5 87t24.5 89q2 10 5.5 34t9.5 47.5t16 42t29 18.5q14 0 22.5 -11.5t14.5 -25.5t14 -27.5t23 -17.5q47 -4 77.5 -5t63.5 -1h49q123 0 240.5 3t240.5 3h62q23 0 28 16q4 6 11.5 32t11.5 34t12 9t15 1q10 0 15 -1t9 -9q16 -27 27.5 -59.5t20.5 -66.5 t18.5 -67t23.5 -61q4 -10 16.5 -28.5t14.5 -22.5t6 -18.5t4 -24.5q0 -8 -4 -9q-23 0 -49.5 18.5t-54 43t-52 49.5t-45.5 37q-12 8 -37.5 14t-54 11.5t-54.5 7.5t-40 2h-23q-20 0 -44.5 -6.5t-24.5 -28.5v-621q0 -53 -3 -103t-3 -91q0 -14 1 -39t2 -51.5t3 -50t4 -35.5h141 q18 0 34.5 -12.5t16.5 -32.5q0 -6 -2 -15.5t-10 -9.5h-444h-68h-45q-12 0 -14 4t-2 14q0 18 14 26t31 13q6 0 21.5 1t31.5 2t30.5 2t20.5 1q23 4 23 23v930q0 6 -2 29.5t-4 31.5q0 2 -2 7.5t-7 7.5q-6 0 -29.5 1t-29.5 1h-45q-39 0 -86 -3.5t-68 -13.5q-20 -8 -40.5 -33.5 t-40 -53t-38 -49t-34.5 -21.5q-25 0 -25 26z" />
<glyph unicode="u" horiz-adv-x="1363" d="M-16 1102q0 4 3 17.5t15 13.5h391q18 0 19 -17v-727q0 -45 13 -89t38.5 -78t64.5 -55.5t90 -21.5q59 0 101.5 11.5t87.5 36.5q51 31 88 86q29 41 36 73.5t9 81.5l12 588q0 2 -1 14.5t-4 24.5t-8 22.5t-15 10.5q-8 0 -29 -2t-47 -2q-27 0 -49.5 -1.5t-36.5 -1.5 q-25 0 -41 2.5t-16 18.5q0 8 1 18.5t9 14.5q10 8 24.5 10t26.5 2q35 0 82 -7t78 -7h227q8 0 8 -9l-37 -931v-17q0 -12 2 -18q4 -20 16.5 -36.5t39.5 -16.5q31 0 67.5 8t55.5 8q12 0 15 -9t3 -18q0 -14 -10 -21t-21 -13q-25 -8 -47 -9q-12 0 -23.5 -1t-31.5 -3 q-39 -4 -83 -15t-79 -22q-25 -10 -45 -16t-45 -6q-12 0 -19.5 11.5t-7.5 23.5q0 35 7.5 86t7.5 98q0 8 -3 20.5t-14 12.5q-4 0 -11 -12.5t-17 -24.5q-37 -43 -75 -81t-81 -65.5t-92 -44t-111 -16.5q-119 0 -211 80q-59 47 -76.5 109.5t-17.5 136.5v698q0 18 -3 32.5 t-21 14.5h-185q-10 0 -17 9.5t-7 19.5z" />
<glyph unicode="v" horiz-adv-x="1134" d="M-33 1122q0 27 23 27h49q20 0 61 -3t70 -3q14 0 63.5 2t102.5 5t97 6t50 3q35 0 35 -33q0 -10 -18.5 -16t-44 -10t-51 -8.5t-39.5 -8.5q-6 -4 -7 -14q2 -2 2 -4q0 -8 2 -12l246 -744q2 -8 6 -12l2 -2q6 0 18.5 22.5t16.5 40.5q45 129 87 257t89 251q16 45 31.5 85 t15.5 87q0 16 -2 31.5t-8 22.5q-6 8 -36.5 11t-45.5 5q-6 0 -20 1t-29.5 4t-27 10t-11.5 20q0 14 6 18q4 4 19 4h16q16 0 47 -2t67 -5t74 -5t70 -2h70q29 0 62.5 3t54.5 3q23 0 34 -5t11 -26q0 -14 -23.5 -23t-54.5 -15.5t-61.5 -12.5t-45.5 -14q-27 -18 -51 -52t-45.5 -71 t-37 -74t-23.5 -61q-47 -119 -104.5 -254t-110.5 -264q-4 -10 -16.5 -41t-27 -66t-27.5 -68.5t-17 -48.5q-12 -35 -25.5 -68.5t-26.5 -33.5q-12 0 -21 23.5t-15 31.5l-349 1053q-4 10 -28.5 15t-46.5 5h-39q-18 0 -40 7.5t-22 27.5z" />
<glyph unicode="w" horiz-adv-x="1738" d="M-26.5 1139q30.5 5 59.5 5q27 0 65.5 -2.5t100.5 -2.5q25 0 58.5 1l67 2t64.5 2t51 1q16 0 31.5 -4t15.5 -25q0 -25 -21.5 -29t-49.5 -4q-27 0 -48.5 -4t-21.5 -26q0 -41 19 -78l297 -725q10 -20 16 -26.5t18 -6.5q10 0 21 25q14 33 34.5 84t42 106t41 106.5t33.5 86.5 q4 8 8.5 24.5t4.5 30.5v8q-4 14 -22.5 68.5t-42 119t-48.5 123t-43 82.5q-6 4 -10 8.5t-8 4.5h-109q-12 0 -15 9t-3 15q0 23 20.5 29t36.5 6q39 0 104.5 -7t120.5 -7q57 0 122 3t106 3q6 0 24.5 -1.5t18.5 -13.5q0 -25 -20.5 -30.5t-49.5 -5.5h-74q-37 0 -37 -19 q0 -33 10.5 -56.5t22.5 -53.5q12 -37 41 -122t61.5 -181.5t65.5 -182.5t53 -125q8 -25 27 -24q8 0 19.5 14t19.5 37q25 59 43 108.5t34.5 97.5t33 100t36.5 118q12 45 27.5 91t15.5 91q0 20 -9 42t-26 34q-10 8 -33.5 11t-47 8t-42 15.5t-18.5 32.5q0 14 13.5 16.5t23.5 2.5 q41 0 111.5 -5.5t132.5 -6.5q45 0 90 3t92 5q16 0 42 -4t26 -29q0 -14 -13 -16q-39 -6 -65.5 -12.5t-49 -17.5t-43 -27.5t-44.5 -41.5q-41 -41 -82 -135q-37 -86 -65 -156.5t-53.5 -134t-52 -127t-59.5 -137.5q-20 -45 -41.5 -91t-38.5 -93q-4 -10 -9 -29.5t-13 -39 t-16.5 -34t-18.5 -14.5q-20 0 -33.5 22.5t-21.5 47.5q-10 31 -34 93t-49.5 133t-50 138.5t-36.5 108.5q-6 10 -10 10q-10 0 -15 -10q-8 -12 -15 -24.5t-11 -26.5q-53 -123 -108.5 -231.5t-109.5 -221.5q-23 -53 -57 -53q-29 0 -39 16l-430 1018q-18 45 -31.5 51t-40.5 6h-67 q-20 0 -23 2q-28 6 -28 27.5t30.5 26.5z" />
<glyph unicode="x" horiz-adv-x="1310" d="M49 1110q0 23 23 22q12 0 52 -3t93 -3q37 0 82 2t90 4.5t88 4.5t78 2q16 0 30.5 -3t14.5 -26q0 -12 -27.5 -17.5t-60.5 -8.5t-60.5 -6t-27.5 -11q0 -14 8 -23q2 -4 13.5 -20t23.5 -33.5t23.5 -32t13.5 -16.5q10 -18 29.5 -50t43 -68t48 -69.5t45.5 -54.5q16 -16 28 -16 q2 0 7 2q6 2 10 12q12 25 33.5 60t44 71.5t44 72.5t33.5 65l12.5 25t4.5 20q0 27 -15.5 42t-37 23t-46 13.5t-40.5 11.5q-16 4 -17 14q0 20 22.5 26.5t28.5 6.5q18 0 37 -2t29 -2q49 0 110.5 2t117 5t97.5 6t52 3t22.5 -3t12.5 -15q0 -14 -20.5 -24.5t-47.5 -17.5 t-52.5 -12.5t-33.5 -7.5q-47 -16 -75.5 -34.5t-57.5 -51.5q-14 -16 -25.5 -33.5t-25.5 -33.5q-18 -23 -42 -55.5t-47.5 -66.5t-45 -63.5t-35.5 -48.5q-12 -14 -21.5 -27.5t-9.5 -31.5q0 -14 21.5 -46t39.5 -59q31 -47 62 -91t65.5 -93t74.5 -107.5t89 -134.5q4 -4 8 -9t9 -7 q27 -10 74.5 -20.5t80.5 -20.5q10 -6 12.5 -11t2.5 -16q0 -8 -3.5 -17t-15.5 -9q-72 0 -158 4t-167 4q-41 0 -88.5 -1t-77.5 -1q-20 0 -35 3t-15 22q0 23 41 28q12 2 25.5 3t28.5 1q33 0 47 9q12 8 12 22q0 10 -6 16q-47 80 -98.5 157t-122.5 183q-8 12 -19.5 16.5 t-15.5 4.5q-18 0 -27.5 -15.5t-19.5 -29.5q-29 -51 -60.5 -106.5t-62.5 -120.5q-8 -14 -15.5 -33t-7.5 -29q0 -16 14.5 -30.5t36 -26t46 -18.5t47.5 -9q12 -2 16 -12t4 -19q0 -16 -28 -16q-45 0 -104.5 1t-119.5 1q-25 0 -52.5 -1t-53.5 -1h-78q-16 0 -32.5 1t-16.5 5 q0 16 24 25q53 12 94.5 22t65.5 29q29 20 58.5 56t59.5 78t57.5 87t54.5 86q16 23 32.5 50.5t34.5 52.5q6 8 6 24q0 6 -3 16.5t-5 14.5q-6 6 -16.5 19.5t-20.5 27.5t-18 26.5t-12 18.5q-12 12 -43 58t-64 98.5t-59.5 96.5t-28.5 50q-25 35 -48.5 70t-62.5 51q-10 4 -32.5 6 t-46 7t-41 12.5t-17.5 21.5z" />
<glyph unicode="y" horiz-adv-x="1122" d="M-78 1114q0 8 2 21.5t17 13.5q98 0 159.5 -3t120.5 -3q33 0 58.5 1t52.5 1q29 0 60.5 2t76.5 2q18 0 27.5 -11.5t9.5 -23.5t-16.5 -18t-26.5 -6h-111q-29 0 -43 -15q-6 -6 -6 -14q0 -2 10 -29l273 -448q18 -23 39 -23q6 0 30 35l172 344q14 29 17.5 44t3.5 26v8 q0 27 -21.5 37t-60.5 22q-2 2 -31 2h-20q-14 0 -19 2q-25 2 -24 25q0 12 7 24.5t21 12.5q66 0 104 -1t62 -1q29 0 45.5 -1t42.5 -1q16 0 33 1t37 1q23 0 55.5 1t79.5 1q6 0 7 -9.5t1 -15.5q0 -2 -4 -7t-8 -7q-41 -18 -72.5 -23.5t-72.5 -23.5q-18 -6 -33.5 -22.5 t-28.5 -35.5q-10 -12 -18 -27.5t-21 -33.5l-192 -360q-6 -12 -16.5 -31t-19.5 -39.5t-15.5 -41t-6.5 -34.5v-342q0 -16 27 -20t57.5 -6.5t57 -8.5t26.5 -28q0 -18 -8 -22.5t-28 -4.5h-291q-31 0 -58.5 -2t-74.5 -2h-41q-23 4 -23 16q0 29 29 39q2 2 30 2h56q20 0 29.5 4 t9.5 27v287q0 18 -6.5 46.5t-16.5 45.5l-342 592q-10 18 -21.5 22t-23.5 6q-6 0 -21.5 2t-32 3.5t-31.5 3.5t-21 2q-8 2 -13.5 9t-5.5 11z" />
<glyph unicode="z" horiz-adv-x="1103" d="M66 889v18q0 8 19 43t44 75t47.5 78t28.5 54q2 2 6 13.5t10 25.5t13.5 25.5t17.5 11.5q12 0 16 -16.5t8.5 -36t12.5 -36t28 -16.5h78h97q82 0 176 3.5t172 9.5q25 2 58.5 6t51.5 4q27 0 27 -29q0 -16 -14.5 -41.5t-30.5 -52.5l-502 -887q-20 -39 -20 -55t16 -19.5 t29 -3.5h313q51 0 93 35t74 81t52.5 90t30.5 63q2 8 14 8q6 0 6 -8q0 -10 -1 -27.5l-2 -35t-2 -32t-1 -20.5q0 -10 -7 -37.5t-7 -34.5q0 -4 -1 -18t-2 -29.5t-2 -30t-1 -16.5q-4 -23 -12.5 -38t-36.5 -15q-14 0 -28.5 1t-33.5 1h-518h-123q-35 0 -67.5 -1t-47.5 -1 q-18 0 -23 7.5t-5 23.5q0 14 29.5 45.5t52.5 79.5l458 802q16 27 27.5 46.5t11.5 29.5q0 18 -12 23.5t-27 5.5q-25 0 -67.5 -2t-88.5 -5t-88 -6.5t-65 -5.5q-27 -6 -55.5 -10t-48.5 -12q-23 -10 -45.5 -36t-44 -53.5t-41 -48t-33.5 -20.5q-10 0 -12 12q-2 2 -2 15z" />
<glyph unicode="{" horiz-adv-x="516" d="M98 623q0 10 8 26q33 6 61 31t47 59.5t29.5 77.5t10.5 86q0 33 -3 76t-13 100q-12 117 -13 205q0 162 66 299q68 137 176 164q8 -8 8 -21q0 -12 -8 -22q-76 -31 -110.5 -106.5t-34.5 -172.5q0 -35 3 -81t11 -105q6 -59 10 -108.5t4 -90.5q0 -61 -12 -121.5t-35.5 -114.5 t-59.5 -99.5t-83 -75.5q47 -33 83 -81t59.5 -103.5t35.5 -117t12 -120.5q0 -41 -4 -90t-10 -107q-8 -57 -11 -103t-3 -81q0 -96 34.5 -172t110.5 -111q8 -16 8 -20q0 -8 -8 -21q-109 25 -176 164q-66 137 -66 299q0 86 13 201q10 57 13 101t3 75q0 45 -10.5 88t-29.5 78 t-47 58.5t-61 29.5q-4 8 -6 14t-2 13z" />
<glyph unicode="|" horiz-adv-x="462" d="M203 -403v2058q0 12 2 30.5t18 18.5h27q4 0 11 -9t7 -28v-2070q-6 -10 -15 -13.5t-20 -3.5q-10 0 -17 2.5t-13 14.5z" />
<glyph unicode="}" horiz-adv-x="516" d="M41 -477q0 12 8 22q76 31 111 107t35 172q0 35 -3.5 81t-11.5 105q-6 59 -10 108.5t-4 90.5q0 61 12 121.5t36 115t59.5 99.5t82.5 76q-47 33 -82.5 81t-59.5 103t-36 116.5t-12 120.5q0 41 4 90.5t10 106.5q8 57 11.5 103.5t3.5 80.5q0 96 -35 172t-111 111q-8 16 -8 20 q0 8 8 21q109 -25 176 -164q66 -137 66 -299q0 -88 -12 -201q-10 -57 -13.5 -101t-3.5 -75q0 -45 10.5 -88t30 -77.5t46 -58.5t61.5 -30q4 -8 6 -14t2 -12q0 -10 -8 -27q-35 -6 -61.5 -30.5t-46 -59.5t-30 -78t-10.5 -86q0 -33 3 -76t14 -100q12 -117 12 -205 q0 -162 -66 -299q-68 -137 -176 -164q-8 8 -8 21z" />
<glyph unicode="~" horiz-adv-x="1302" d="M147 686q53 111 140 131q31 8 75 8q59 0 119 -16t115 -39q57 -25 133 -50.5t152 -25.5q39 0 80 13q45 10 80.5 37.5t62.5 86.5q14 0 25.5 -33.5t11.5 -60.5q0 -6 -2 -11t-4 -9q-27 -53 -65 -80t-85 -41q-43 -12 -84 -12q-55 0 -109.5 14t-99.5 35q-78 31 -162 59.5 t-155 28.5q-41 0 -68 -8q-39 -12 -71 -41t-52 -88q-12 0 -17 12t-9 22q-6 18 -8.5 35t-2.5 33z" />
<glyph unicode="&#xa1;" horiz-adv-x="569" d="M147 1577q0 51 35 96t92 45q27 0 53.5 -10t46 -28.5t30 -44t4.5 -56.5q-2 -8 -15.5 -41t-23.5 -47q-12 -27 -41 -33t-54 -6t-47 11.5t-39.5 28.5t-29 39.5t-11.5 45.5zM158 94q0 109 8 216.5t17.5 215t17.5 214t8 214.5l-6 133q-2 4 -3 23.5t-1 36.5q0 16 15.5 30.5 t29.5 14.5q20 0 31.5 -44t19.5 -106.5t12 -133t10 -122.5q4 -47 9.5 -85.5t9.5 -75.5t10 -76t12 -82q16 -98 36 -189.5t20 -187.5q0 -23 -11.5 -40t-30 -28.5t-40 -16.5t-39.5 -5q-23 0 -46.5 5t-43 16.5t-32.5 29t-13 43.5z" />
<glyph unicode="&#xa2;" horiz-adv-x="1069" d="M72 563q0 102 29.5 199.5t86 177.5t137.5 135t183 74v102q0 8 21.5 17.5t39.5 9.5q16 0 39 -9t23 -20v-92q86 -4 169 -35.5t136 -105.5q20 -29 36.5 -48.5t16.5 -54.5q0 -45 -32.5 -69.5t-73.5 -24.5q-37 0 -58.5 33t-43 78t-55.5 89t-95 66v-958h22q41 0 84 20.5t82 50 t70 65.5t47 67q10 23 37 26q8 -6 9 -14t1 -16q0 -41 -21.5 -78t-46.5 -70q-61 -78 -128.5 -122t-155.5 -58v-139q-2 -6 -19.5 -13.5t-42.5 -9.5q-31 0 -49 17q-12 8 -12 16v125q-104 6 -185 59t-137.5 134t-85 180.5t-28.5 195.5zM276 668q0 -74 10.5 -146.5t36 -138.5 t68.5 -121t111 -96q4 -4 6 -4v936q-66 -12 -120 -57.5t-77 -104.5q-27 -66 -31 -133.5t-4 -134.5z" />
<glyph unicode="&#xa3;" horiz-adv-x="1546" d="M88 -244q0 20 12.5 39t29.5 33t36.5 25.5t34.5 15.5q16 6 33.5 7t35.5 1h31q43 0 60.5 14.5t35.5 49.5q12 23 21.5 42t19.5 42q10 35 21.5 71.5t21.5 69.5l94 311q0 25 -28 25q-37 0 -73 -9.5t-68 -9.5q-14 0 -34 2t-20 17q0 10 30 24.5t73 30.5t90 31.5t80 27.5 q43 141 81.5 284.5t92.5 273.5q35 86 73.5 160.5t75.5 138t68 111.5t51 79q23 35 60.5 80t95.5 90q59 45 126.5 80t139.5 35q33 0 58.5 -2t48 -9.5t46 -20.5t52.5 -36q18 -12 31.5 -30.5t22.5 -36t14 -29.5l5 -12q0 -25 -5 -57t-21 -50q-10 -12 -31.5 -20.5t-45.5 -14.5 t-44.5 -8t-30.5 -2q-27 0 -47 29.5t-38.5 66.5t-37 68t-39.5 35q-2 0 -19 5t-28 5q-8 0 -23.5 -5t-17.5 -5q-4 0 -18 -10.5t-18 -14.5q-18 -12 -41 -46t-44.5 -75t-40 -80t-26.5 -59q-25 -51 -54.5 -121t-60 -147.5t-61.5 -160.5t-55 -159q-23 -68 -37.5 -115t-26.5 -81.5 t-22.5 -63.5t-22.5 -59q8 -27 25 -27q16 0 49 2t70.5 5t77.5 6t73 3q35 0 35 -30q0 -12 -2 -37t-6 -37q0 -8 -18.5 -10t-31.5 -2q-43 0 -72.5 2t-55 3t-50 3t-55.5 2q-12 0 -30.5 -4t-22.5 -6q-6 -4 -17.5 -10.5t-23.5 -12.5q-16 -43 -38 -101.5t-50 -139.5 q-29 -74 -66 -142.5t-80 -154.5q-8 -16 -22.5 -43t-14.5 -50v-4q0 -2 4 -2q35 -43 105 -65q25 -10 73 -19.5t105 -19.5q35 -2 59.5 -3t45 -2t38.5 -1h41q51 0 99.5 4t89.5 18.5t74.5 41t56.5 71.5q20 43 20 94q0 37 -3 58.5t-11 38t-20.5 32.5t-30.5 41q-4 8 -10.5 20.5 t-6.5 18.5q0 16 12.5 27.5t28.5 11.5q14 0 27.5 -13.5t27 -34t25 -45t21.5 -46.5q10 -25 12 -51.5t2 -49.5q0 -18 -3 -43.5t-8 -50.5t-10.5 -47.5t-9.5 -36.5q-6 -14 -21 -35.5t-35.5 -45t-44.5 -46t-48 -41.5q-18 -14 -54 -28.5t-78 -26.5t-85 -20.5t-74 -8.5 q-49 0 -115.5 21.5t-115.5 50.5q-37 20 -69 46t-61.5 47.5t-59 35.5t-62.5 14q-6 0 -11.5 -6t-9.5 -12q-4 -8 -6 -17q-18 -33 -32.5 -58.5t-32 -41.5t-39 -25.5t-56.5 -9.5q-27 0 -43 5t-39 20q-35 25 -47 65.5t-12 83.5z" />
<glyph unicode="&#xa4;" horiz-adv-x="1214" d="M127 1221q0 18 23 41q20 20 40 20q10 0 19 -8l164 -164q47 39 103.5 62.5t115.5 23.5q63 0 119.5 -21.5t103.5 -56.5l180 178q2 6 19 7h10q12 0 19.5 -3.5t19.5 -17.5q10 -10 15 -29.5t5 -35.5q0 -6 -4 -11l-178 -180q29 -47 46.5 -99.5t17.5 -111.5q0 -66 -22.5 -120 t-59.5 -97l159 -158q8 -8 9 -18q0 -20 -21 -41q-23 -23 -41 -23q-14 0 -22 9l-162 161q-14 -10 -26.5 -17t-26.5 -13q-31 -12 -64 -22.5t-65 -10.5q-76 0 -129.5 20.5t-90.5 42.5l-137 -139q-4 -4 -12 -4q-20 0 -33.5 3t-30.5 20q-16 16 -19 24t-3 14v13q0 10 4 12l139 139 q-41 51 -56 107.5t-15 105.5q0 53 15 108.5t46 100.5l-166 166q-8 8 -8 23zM348 842q0 -53 10.5 -97.5t49.5 -85.5q51 -53 97 -72.5t124 -19.5q47 0 98 22.5t82 57.5q33 31 50.5 84t17.5 98q0 59 -30 113.5t-95 106.5q-20 12 -50.5 24t-89.5 12q-90 0 -142 -38.5t-85 -83.5 q-14 -14 -25.5 -54.5t-11.5 -66.5z" />
<glyph unicode="&#xa5;" horiz-adv-x="1851" d="M45 1679q0 8 18.5 12.5t28.5 4.5h17q25 0 46 -3t54 -7q59 -8 120.5 -9.5t123.5 -1.5q82 0 172 10.5t176 10.5q12 0 31.5 -2t19.5 -19q0 -27 -23 -28q-37 -6 -79 -7q-31 0 -58.5 -4t-49 -17t-34 -38t-12.5 -63q0 -12 7 -31t17.5 -37t20.5 -35.5t16 -25.5l334 -523 q8 -10 19.5 -20t19.5 -10q10 0 21.5 9t21.5 23l250 457q25 47 34 99.5t9 86.5q0 29 -10 46.5t-33 41.5q-23 20 -46.5 29.5t-48 13t-49 5.5t-49.5 8q-23 6 -22 26q0 10 10 18.5t21 8.5q94 0 162.5 -6t146.5 -6q47 0 76.5 2t61.5 4t75 4t119 2q16 0 27.5 -2t11.5 -10 q0 -16 -25 -27.5t-56.5 -20t-63.5 -13.5t-44 -11q-59 -33 -100 -74t-76 -93t-68.5 -118.5t-80.5 -152.5q-53 -102 -111.5 -199.5t-99.5 -206.5q-4 -14 -8.5 -46t-7.5 -66.5t-4 -66.5t-1 -44v-4h236q12 0 24.5 -8t12.5 -27q0 -14 -12.5 -26.5t-22.5 -12.5h-244l-6 -117h244 q12 0 22 -19t10 -38q0 -14 -11 -39.5t-21 -25.5h-250l-8 -158q14 -8 32.5 -15.5t49 -12.5t76.5 -8t116 -3q16 0 16 -23q0 -20 -19.5 -25t-37.5 -5q-94 0 -188.5 5t-159.5 5q-47 0 -80 -1t-68 -1t-83 -1t-126 -1q-33 0 -32 20q0 14 10 21q4 2 17.5 5t28.5 4t28.5 2t19.5 1 q47 4 83 8t69 43l8 140h-254q-12 0 -23.5 23.5t-11.5 41.5q0 25 9.5 41t19.5 16h264l6 117h-258q-10 0 -22.5 10.5t-12.5 28.5t9.5 26.5t17.5 8.5h268l2 63q0 29 -16.5 78t-48.5 103l-367 610q-31 53 -68.5 104.5t-93.5 85.5q-14 8 -43.5 16.5t-60.5 18.5t-54.5 21.5 t-23.5 25.5z" />
<glyph unicode="&#xa6;" horiz-adv-x="462" d="M203 94q20 8 35 8q10 0 30 -8v-497q-6 -10 -15 -13.5t-20 -3.5q-10 0 -17 2t-13 15v497zM203 1063v592q0 12 2 30.5t18 18.5h27q4 0 11 -9t7 -28v-602q-16 -8 -35 -8q-16 0 -30 6z" />
<glyph unicode="&#xa7;" horiz-adv-x="1091" d="M150 -283q0 55 34.5 101.5t94.5 46.5q59 0 89.5 -26.5t50 -59.5t39 -59.5t56.5 -26.5q57 0 105.5 24.5t48.5 83.5q0 61 -30 122t-73 117t-90 107.5t-82 94.5q-35 41 -69.5 98t-65.5 119.5t-53.5 124t-32.5 114.5q-4 39 -6 74t-2 70q0 106 26.5 220t75.5 220.5t119 197.5 t156 156q47 37 101 70t120 33t111 -40t45 -106q0 -27 -6.5 -54.5t-20.5 -51t-38 -37.5t-56 -14q-23 0 -45.5 11t-43 28.5t-37 35t-26.5 29.5h-49q-70 0 -119 -27.5t-49 -101.5q0 -45 14.5 -89t40.5 -85q37 -59 77 -111.5t83 -101.5q63 -74 115.5 -141.5t91.5 -155.5 q49 -115 77.5 -222.5t28.5 -228.5q0 -123 -46 -249.5t-128 -230t-195.5 -170t-248.5 -66.5q-31 0 -64.5 11t-61.5 31.5t-45 49t-17 65.5zM262 985q0 -94 37 -181t93.5 -168t122 -155.5t120.5 -144.5q23 -31 53.5 -75t61 -89t56 -81t36.5 -50q16 35 24 62.5t8 62.5 q0 74 -28 147q-6 18 -19.5 50t-27 62t-24.5 53.5t-13 27.5q-59 98 -132 199.5t-157 185.5q-18 25 -41.5 53.5t-47.5 59t-43 61.5t-28 55q-6 20 -6 39q-4 0 -10 -6t-8 -10q-20 -33 -23.5 -77t-3.5 -81z" />
<glyph unicode="&#xa8;" horiz-adv-x="1249" d="M281 1427q0 51 30.5 90t83.5 39q23 0 48.5 -9t48 -25.5t37 -39t14.5 -48.5q0 -20 -12.5 -43t-32 -42.5t-43 -31.5t-45.5 -12q-20 0 -43 10t-42.5 27.5t-31.5 38.5t-12 46zM715 1430q0 51 30.5 90t83.5 39q23 0 48.5 -9.5t47 -25t36 -39t14.5 -49.5q0 -20 -12.5 -43 t-32 -42.5t-43 -31.5t-45.5 -12q-20 0 -43 10t-41.5 27.5t-30.5 39t-12 46.5z" />
<glyph unicode="&#xa9;" horiz-adv-x="1818" d="M94 770q0 150 44 277t110 243q35 53 98.5 115.5t145.5 107.5q57 31 107 53.5t99.5 38t102.5 22.5t117 9q193 -8 341 -89t273 -216q61 -66 98 -142.5t57.5 -155.5t27.5 -155.5t7 -144.5q0 -70 -25.5 -147.5t-66.5 -151.5t-90 -138.5t-98 -107.5q-41 -37 -104.5 -73.5 t-135.5 -65.5t-143.5 -47t-126.5 -18q-141 0 -292 45t-265 131q-63 59 -117.5 128.5t-92.5 148.5t-57.5 163t-13.5 170zM172 778q0 -61 2 -113.5t13.5 -99.5t34 -93t63.5 -97q117 -145 281.5 -235.5t346.5 -90.5q37 0 103.5 16.5t137.5 41t133.5 54t92.5 58.5 q53 55 104.5 116.5t90.5 131.5t62.5 145.5t23.5 155.5q0 49 -14.5 122t-44 150.5t-73.5 154.5t-104 136q-127 127 -271 178.5t-284 51.5q-68 0 -141.5 -21.5t-145 -58.5t-135 -86t-110.5 -105q-90 -111 -128 -246t-38 -266zM430 774q0 -29 1 -50.5t5 -40.5t9.5 -43t15.5 -56 q10 -47 35.5 -87t60.5 -77q66 -84 156 -111q47 -16 82.5 -24.5t76.5 -8.5q33 0 55.5 4.5t43 10.5t41 13t47.5 13q4 4 24.5 14.5t40.5 24.5q10 8 21.5 17.5t25.5 9.5q4 0 6.5 -1t4.5 -1q4 -8 13 -26.5t11 -24.5q4 -20 21 -21q10 0 18 15.5t8 25.5q0 6 -2 21.5t-3 32t-2 29.5 t-1 18q0 20 1 35.5t3 31.5t3 32.5t1 35.5v30q-6 12 -11 17.5t-15 5.5t-13.5 -2t-5.5 -4q-18 -37 -30 -74l-7.5 -15t-5.5 -16q-12 -27 -18 -37t-17 -22q-33 -39 -84 -77t-104 -38q-39 4 -79 11.5t-58 17.5q-16 8 -38 23.5t-42 34t-36.5 37t-22.5 32.5q-29 41 -42.5 83 t-23.5 89q-4 16 -5 30.5t-1 37.5q0 20 1 48.5t3 73.5q0 2 1 14.5t3 26t5 26.5t5 19q16 45 26.5 74t41.5 68q6 18 21.5 38.5t35 38t40 29t36.5 13.5q49 18 96 18l60 -6q37 -10 66.5 -28.5t60.5 -41.5q6 -2 15 -13t18.5 -25.5t17.5 -27t12 -18.5q8 -16 16.5 -27.5t12.5 -27.5 q6 -20 16 -44t29 -24q4 0 10 5.5t10 9.5v30q0 41 -2 82t-10 82v17q2 0 3 9t3 21.5t3 23.5t3 13q0 16 -7 33.5t-25 17.5q-16 0 -24.5 -8t-14.5 -18q-4 -10 -11.5 -18.5t-17.5 -8.5h-10q-70 27 -131.5 40t-139.5 13q-102 0 -192 -47t-150 -131q-20 -31 -47.5 -89t-40.5 -134 q-4 -23 -6 -38t-4 -27.5t-2 -26.5v-31z" />
<glyph unicode="&#xaa;" horiz-adv-x="821" d="M86 1006v2q0 14 8 17t19 7q2 2 18 8.5t21 10.5q2 0 11 10t15 16q4 8 5 12.5t5 14.5q8 18 28 62t42.5 95.5t45 100.5t34.5 78q6 10 17.5 27.5t11.5 31.5v10q0 2 -1 4.5t-1 6.5l-3 6q0 4 5.5 12t9.5 10t18.5 8.5t14.5 8.5l32 32q2 2 7.5 12.5t15.5 10.5q6 -2 11 -12.5 t9 -22.5t7.5 -24.5t5.5 -16.5q16 -72 49 -181.5t67 -215.5q6 -20 11.5 -41t17.5 -37q6 -8 21.5 -13t31 -11.5t27.5 -12.5t12 -18q0 -25 -20.5 -30t-42.5 -5h-29q-10 0 -39 1t-60.5 2t-60 2t-41.5 1q-12 4 -12 19v4q0 2 2 2q6 14 17.5 18t23.5 7t24.5 7.5t20.5 16.5l2 6l-2 4 q-2 14 -8 41t-8 31t-10.5 21.5t-12.5 23.5q-6 12 -20.5 14t-28.5 2h-12q-31 0 -57.5 -1t-59.5 -5q-4 -4 -4 -6q-8 -12 -12 -20.5t-11 -28.5q-12 -37 -12 -76q0 -16 14.5 -21.5t33 -8.5t32.5 -8t14 -23q0 -25 -20 -31q-6 2 -25.5 3t-25.5 3h-49h-21h-82h-33q-10 0 -12 11.5 t-2 15.5zM317 1264q0 -10 7.5 -14.5t13.5 -4.5q14 0 33.5 -1t36.5 -1q18 0 31.5 5t13.5 28v12q-6 33 -18.5 63.5t-24.5 65.5q-4 10 -8.5 21.5t-14.5 11.5q-6 0 -7 -6t-5 -10q-6 -12 -11.5 -25.5t-9.5 -22.5q-2 -6 -7 -22t-11 -34.5t-11.5 -35l-7.5 -22.5v-8z" />
<glyph unicode="&#xab;" horiz-adv-x="944" d="M111 532q0 7 6 13l344 321q2 2 6 2t11 -5t7 -13t-4 -10l-221 -312l213 -313q2 -2 2 -6q0 -16 -16 -16q-6 0 -8 2l-334 325q-6 6 -6 12zM461 532q0 7 6 13l342 321q2 2 8 2q4 0 10.5 -5t6.5 -13t-3 -10l-221 -312l213 -313q2 -2 2 -6q0 -16 -18 -16q-4 0 -6 2l-334 325 q-6 6 -6 12z" />
<glyph unicode="&#xac;" horiz-adv-x="1267" d="M100 588q0 12 2 22.5t11 10.5h1024q6 0 10 -10.5t4 -24.5v-262q0 -14 -9 -16.5t-24 -2.5q-14 0 -27.5 1t-13.5 11v236h-964q-8 0 -10.5 10t-2.5 25z" />
<glyph unicode="&#xad;" d="M111 590q0 33 20 33h707q12 0 20 -6.5t8 -24.5q0 -10 -10 -23.5t-18 -13.5h-701q-27 0 -26 35z" />
<glyph unicode="&#xae;" horiz-adv-x="1818" d="M94 770q0 150 44 277t110 243q35 53 98.5 115.5t145.5 107.5q57 31 107 53.5t99.5 38t102.5 22.5t117 9q193 -8 341 -89t273 -216q61 -66 98 -142.5t57.5 -155.5t27.5 -155.5t7 -144.5q0 -70 -25.5 -147.5t-66.5 -151.5t-90 -138.5t-98 -107.5q-41 -37 -104.5 -73.5 t-135.5 -65.5t-143.5 -47t-126.5 -18q-141 0 -292 45t-265 131q-63 59 -117.5 128.5t-92.5 148.5t-57.5 163t-13.5 170zM172 778q0 -61 2 -113.5t13.5 -99.5t34 -93t63.5 -97q117 -145 281.5 -235.5t346.5 -90.5q37 0 103.5 16.5t137.5 41t133.5 54t92.5 58.5 q53 55 104.5 116.5t90.5 131.5t62.5 145.5t23.5 155.5q0 49 -14.5 122t-44 150.5t-73.5 154.5t-104 136q-127 127 -271 178.5t-284 51.5q-68 0 -141.5 -21.5t-145 -58.5t-135 -86t-110.5 -105q-90 -111 -128 -246t-38 -266zM406 311q0 -14 8 -16q12 -4 18 -5t19 -1 q70 0 162 1t161 1h35q4 -2 16.5 -4t16.5 -2q16 0 20 11t4 23t-9 20.5t-19 8.5q-18 0 -35 -3t-35 -3q-23 0 -31 16.5t-8 38.5v330q0 8 11.5 25.5t17.5 17.5q8 0 21.5 -5t25.5 -12.5t21.5 -17.5t9.5 -20q8 -8 33.5 -40t54 -71t54.5 -74.5t34 -52.5q6 -10 17 -26.5t23.5 -34 t20.5 -34.5t8 -28v-10t-4 -6h-96q-12 0 -14 -11.5t-2 -19.5q0 -16 10 -24.5t24 -8.5q16 0 25.5 4.5t24.5 4.5q4 0 22.5 1t38.5 2t38.5 3t22.5 2q10 0 35 2t33 2q37 0 72 -5t69 -5q12 0 21.5 10t9.5 20q0 18 -15.5 25.5t-35 8.5t-38.5 2t-26 7q-16 14 -31.5 27.5t-25.5 32.5 q-29 43 -65.5 100t-81.5 113q-29 39 -53.5 78t-63.5 69v2q0 6 24.5 16.5t32.5 16.5q39 20 62.5 50t36 66t16.5 75.5t4 78.5q0 12 -5 31t-13.5 38t-17.5 36.5t-17 23.5q-31 23 -57.5 40.5t-65.5 21.5q-6 2 -33 5t-56.5 5t-54 3t-30.5 1q-25 0 -44.5 1t-41.5 1q-10 0 -38 -2 t-59.5 -4t-63.5 -3t-50 -1h-51q-12 0 -27.5 -4t-15.5 -19q0 -16 15 -18t28 -4q27 -4 43 -4h41q14 0 16 -2q10 -8 17.5 -24.5t10.5 -36t4 -40t1 -34.5v-70v-123t-1 -151.5t-1 -149.5t-1 -121t-1 -63v-37q-10 -18 -31 -24.5t-39 -6.5h-20q-10 0 -26.5 -2t-35.5 -8 q-6 -4 -14 -11.5t-10 -15.5zM723 877v137v141q0 6 2 30.5t4 31.5q2 4 9 14t12 12q6 4 18 5t23 1q35 0 87 -14t80 -43q35 -35 45.5 -75t10.5 -85q0 -59 -33 -106t-86 -86q-27 -18 -65.5 -28.5t-69.5 -10.5q-23 0 -30 26.5t-7 49.5z" />
<glyph unicode="&#xaf;" horiz-adv-x="1024" d="M78 1626q0 33 22 33h801q29 0 29 -35q0 -10 -7.5 -21.5t-21.5 -11.5h-795q-10 0 -19 8.5t-9 26.5z" />
<glyph unicode="&#xb0;" horiz-adv-x="1077" d="M188 1413q0 68 25 136.5t72 115.5q53 53 118.5 87t137.5 34q78 0 145.5 -31t118.5 -83t79.5 -120.5t28.5 -146.5q0 -59 -18 -108.5t-48 -89.5t-68 -69.5t-79 -50.5q-31 -12 -63.5 -22t-65.5 -10q-94 0 -153.5 29.5t-95.5 56.5q-74 59 -104 133t-30 139zM295 1434 q0 -53 10 -97.5t49 -85.5q51 -53 97.5 -72.5t123.5 -19.5q47 0 98.5 22.5t82.5 57.5q33 31 50 84t17 98q0 59 -29.5 113.5t-95.5 105.5q-20 12 -50 24.5t-89 12.5q-90 0 -142 -39t-85 -84q-14 -14 -25.5 -54t-11.5 -66z" />
<glyph unicode="&#xb1;" d="M78 121q0 27 9 42t19 15h758q12 0 22.5 -19.5t10.5 -37.5q0 -12 -11.5 -39t-21.5 -27h-751q-10 0 -22.5 23.5t-12.5 42.5zM86 590q0 57 20 57h304q16 0 16 17v315q0 23 35 22q33 0 33 -22v-317q0 -14 10 -15h360q12 0 20.5 -19.5t8.5 -37.5q0 -6 -3 -16.5t-7 -21.5 t-9.5 -19.5t-9.5 -8.5h-354q-10 0 -13 -2t-3 -12v-297q0 -23 -33 -23q-35 0 -35 23v295q0 16 -18 16h-295q-10 0 -18.5 23.5t-8.5 42.5z" />
<glyph unicode="&#xb2;" horiz-adv-x="856" d="M118 1471q0 18 8.5 43.5t18.5 42.5q12 23 33.5 46t47 42.5t54.5 32t53 12.5q53 0 93.5 -9t74.5 -40q29 -25 49.5 -64t22.5 -80q-4 -20 -8 -45.5t-21 -54.5q-20 -41 -44.5 -83t-47.5 -70q-18 -25 -35.5 -41.5t-17.5 -38.5v-9q0 -8 6 -10q4 -2 17.5 -3t15.5 -1 q-16 0 21.5 -1t90 -2t99.5 -2t51 -1q27 2 47.5 21.5t48.5 19.5q0 -25 -17.5 -44.5t-27.5 -35.5q-16 -23 -33.5 -47.5t-40.5 -42.5q-2 0 -3 -1t-3 -1q-2 -2 -4 -2q-23 -2 -44 -3t-40 -1q-39 0 -63.5 2t-28.5 2h-12h-12q-8 0 -38 -2t-64 -3t-62.5 -3t-34.5 -2q-8 0 -22.5 2 t-16.5 2q-4 0 -12.5 3t-12.5 3v6q0 20 11.5 35.5t27 29t31.5 25.5t27 27q0 -4 10 10t25.5 36.5t31 50.5t27.5 50q16 29 29.5 66t13.5 76q0 31 -25 69q-18 29 -38.5 46.5t-57.5 17.5q-18 0 -36.5 -2t-41.5 -15q-23 -12 -38 -30.5t-42 -32.5q-20 -10 -28 -10q-12 0 -13 14z " />
<glyph unicode="&#xb3;" horiz-adv-x="708" d="M155 1534q0 29 14.5 55.5t38.5 51.5q35 35 68 51t80 16q31 0 51.5 -1t37.5 -7t33.5 -17t37.5 -30q29 -27 37 -71t8 -76q0 -35 -20.5 -78t-45.5 -78q-4 -4 -15 -16.5t-24.5 -24.5t-25 -24.5t-17.5 -16.5q-12 -10 -18 -18.5t-19 -24.5q4 -12 18.5 -30.5t41.5 -36.5 q25 -16 47 -31t33 -37q20 -20 29.5 -58t9.5 -67q0 -53 -16.5 -93t-47.5 -79q-12 -16 -37.5 -33.5t-34.5 -21.5q-35 -16 -63.5 -23.5t-69.5 -7.5q-31 0 -60.5 13.5t-47.5 39.5q-2 2 -4 8.5t-2 10.5t4 4h10q16 0 29.5 -11.5t29.5 -11.5q47 0 81 16.5t63 38.5q25 29 45 66 t20 66q0 35 -7 56t-42 48q-27 20 -43 30.5t-31.5 15.5t-35 8t-54.5 14q-12 4 -35.5 6t-23.5 20t16.5 24.5t26.5 12.5q41 23 61.5 38t36.5 28q10 8 33.5 29.5t42.5 45.5q29 37 42 68t13 74q0 16 -9 40.5t-26 45.5q-12 16 -41.5 29.5t-58.5 13.5q-35 0 -53.5 -9.5t-36.5 -25.5 q-4 -4 -12.5 -13.5t-16.5 -19.5t-16 -18t-12 -8q-10 0 -13.5 12t-3.5 22z" />
<glyph unicode="&#xb4;" horiz-adv-x="1249" d="M608 1235q0 8 2 12q27 53 87.5 148.5t158.5 249.5q16 29 48 44t67 15q45 0 62.5 -22.5t17.5 -61.5q0 -25 -19.5 -57.5t-56.5 -61.5q-41 -35 -84 -72.5t-85 -76.5t-79 -75t-68 -65q-2 -2 -6 -2h-6q-10 0 -24.5 6.5t-14.5 18.5z" />
<glyph unicode="&#xb6;" horiz-adv-x="1114" d="M78 -285q0 55 28.5 96.5t90.5 41.5q23 0 46 -7.5t36 -21.5q20 -29 37.5 -60.5t38 -58.5t47 -44t63.5 -17q6 0 22.5 1t20.5 1q86 31 137 86t79 125.5t39 153.5t17 167q6 80 8.5 146.5t2.5 132.5q0 35 -2.5 58.5t-8.5 64.5q-4 0 -14 3t-14 3q-10 0 -36 3t-53.5 5t-53 4 t-36.5 2q-61 8 -128.5 37t-127 73t-105.5 100t-67 122q-20 59 -36.5 140t-16.5 151q0 158 74 284q18 33 47 68t62.5 65.5t71.5 55t77 37.5q129 41 268 46t271 5q8 0 22 -1t28.5 -4t25 -9.5t10.5 -18.5q0 -8 -9.5 -12t-13.5 -6q-8 -2 -26.5 -7.5t-38 -11.5t-37 -11t-23.5 -7 q-16 -10 -30.5 -22.5t-14.5 -33.5q0 -10 1 -26.5t2 -53t3 -102t5 -176.5t6.5 -273.5t7.5 -394.5v-41q0 -37 -1 -95t-2 -127.5t-3.5 -135t-6.5 -119t-8 -80.5q-12 -49 -21.5 -85.5t-19.5 -66.5t-24.5 -55.5t-36.5 -54.5q-29 -37 -74 -72.5t-100.5 -65.5t-121 -48.5 t-132.5 -18.5q-20 0 -49 3.5t-57.5 10.5t-54.5 16.5t-40 21.5q-23 23 -37 52.5t-14 61.5z" />
<glyph unicode="&#xb7;" horiz-adv-x="561" d="M147 592q0 18 9.5 32.5t19.5 33.5q18 33 43 44t62 11q61 0 97 -44t36 -103q0 -23 -10.5 -45.5t-28 -41t-39 -30.5t-45.5 -12q-29 0 -54.5 14t-46 35.5t-32 49t-11.5 56.5z" />
<glyph unicode="&#xb8;" horiz-adv-x="1034" d="M250 -283q0 16 2 26.5t12 23.5q4 6 16.5 19t24.5 27.5t23.5 27t15.5 16.5q14 14 33.5 34.5t36.5 36.5q25 29 38 48.5t23 31.5l2 4h62q0 -6 -2 -8q-14 -27 -18.5 -38t-16.5 -44q72 -8 135 -49t92 -106q12 -27 17.5 -56.5t5.5 -60.5q0 -23 -13.5 -54.5t-29.5 -56.5 q-20 -27 -55.5 -53.5t-69.5 -42.5q-31 -16 -76 -28.5t-86 -12.5q-27 2 -54.5 5t-37.5 26q0 8 10 10t25 6q29 4 67.5 13.5t67.5 21.5q25 10 45 30.5t35.5 44t23.5 46t8 37.5q0 23 -10 47t-20 41q-49 55 -144 59q-20 0 -38.5 -7t-34.5 -15q-23 -10 -44.5 -30t-44.5 -30 q-2 0 -3 -1t-3 -1q-4 0 -10 4t-10 8z" />
<glyph unicode="&#xb9;" horiz-adv-x="657" d="M90 1696q0 16 12 21.5t29 7.5q23 2 34 2h31q6 0 25.5 -1t42.5 -1t43 -1t28 -1h88q18 0 40 2t47 4q12 0 24 -2t23 -12q12 -12 12 -25q0 -20 -14.5 -25.5t-30.5 -5.5h-19q-6 0 -20 -2q-35 -4 -60.5 -9t-25.5 -46v-45v-66t-1 -75.5t-1 -73.5v-60q0 -47 -3 -83.5t-3 -77.5v-9 q4 -6 8 -17t16 -13q6 -2 27.5 -4t32.5 -4h18q20 0 33.5 -5.5t23.5 -33.5v-4q0 -8 -8 -16.5t-14 -8.5q-12 0 -38 1t-38 1h-233q-14 -4 -27.5 -5t-30.5 -1h-32q-23 6 -23 33q0 23 17.5 28.5t37.5 5.5h35q8 0 26.5 7.5t18.5 15.5q4 41 7 85t3 87q0 23 -1 62.5t-2 81.5t-2 78 t-1 50q0 10 -1 36t-3 42q-4 29 -39 33t-67 10q-18 4 -31.5 12.5t-13.5 26.5z" />
<glyph unicode="&#xba;" horiz-adv-x="899" d="M131 1346q0 35 12.5 76.5t32 81.5t44 75t48.5 53q29 23 74 44.5t94 21.5q41 0 68.5 -2t49 -8.5t43 -19.5t52.5 -36q31 -25 53.5 -55.5t38 -62t22.5 -60.5t7 -49q0 -111 -32.5 -196t-112.5 -140q-37 -27 -83 -37t-93 -10q-18 0 -49 5t-64 16.5t-63.5 27.5t-51.5 41 q-16 18 -32.5 47t-29 61.5t-20.5 65.5t-8 60zM250 1323q0 -10 2 -20q6 -47 19.5 -81t39.5 -63q25 -33 66 -57.5t72 -24.5q61 0 100 21.5t72 60.5q27 31 35 77t8 85q0 45 -5.5 78t-16.5 61.5t-28.5 54t-40.5 54.5q-14 16 -52 36.5t-72 22.5q-59 -4 -93 -35.5t-63 -81.5 q-43 -78 -43 -165v-23z" />
<glyph unicode="&#xbb;" horiz-adv-x="937" d="M111 215q0 6 2 8l221 312l-213 315q-2 2 -2 6q0 16 18 16q4 0 6 -4l334 -323q8 -8 8 -15q0 -2 -8 -10l-342 -323q-2 -2 -6 -2q-6 0 -12 5t-6 15zM453 215q0 6 2 8l221 312l-211 315q-2 2 -2 6q0 16 16 16q6 0 8 -4l334 -323q6 -6 6 -15q0 -4 -6 -10l-344 -323 q-2 -2 -6 -2t-11 5t-7 15z" />
<glyph unicode="&#xbc;" horiz-adv-x="1662" d="M197 -39q8 12 56 73.5t120.5 155t163 209t183.5 236.5t184 238.5t165 213t123 160t61 80.5q8 8 17.5 18.5t21.5 8.5q4 0 12.5 -4t16.5 -9q4 -4 4 -10v-2l-2 -4q0 -4 -2 -7t-4 -7q-268 -346 -532.5 -688t-532.5 -689q-16 -4 -21 -4q-14 4 -26 11.5t-8 19.5zM205 1364 q0 16 12 21.5t29 7.5q23 2 34 2h31q6 0 25.5 -1t42.5 -1t43 -1t28 -1h88q18 0 40 2t47 4q12 0 24 -2t23 -12q12 -12 12 -25q0 -20 -14.5 -25.5t-30.5 -5.5h-19q-6 0 -20 -2q-35 -4 -60.5 -9t-25.5 -46v-45v-66t-1 -75.5t-1 -73.5v-60q0 -47 -3 -83.5t-3 -77.5v-9q4 -6 8 -17 t16 -13q6 -2 27.5 -4t32.5 -4h18q20 0 33.5 -5.5t23.5 -33.5v-4q0 -8 -8 -16.5t-14 -8.5q-12 0 -38 1t-38 1h-233q-14 -4 -27.5 -5t-30.5 -1h-32q-23 6 -23 33q0 23 17.5 28.5t37.5 5.5h35q8 0 26.5 7.5t18.5 15.5q4 41 7 85t3 87q0 23 -1 62.5t-2 81.5t-2 78t-1 50 q0 10 -1 36t-3 42q-4 29 -39 33t-67 10q-18 4 -31.5 12.5t-13.5 26.5zM712 51q0 23 6.5 37t18.5 31q23 35 48.5 61.5t49.5 61.5q23 31 63 85t79.5 107t71.5 96t38 54q14 23 24.5 43t21.5 35.5t23.5 23.5t35.5 8q10 0 15 -7t8 -16t3 -20v-10q0 -6 -1 -16.5t-2 -22.5t-2 -22.5 t-1 -14.5v-395q0 -14 13.5 -42t35.5 -32q10 -2 27 -2q12 0 41 6q55 10 95 23.5t75 60.5q4 4 10 16.5t14.5 24t16.5 19.5t16 6q4 0 8 -4l4 -4q0 -47 -2 -86t-2 -80v-17q0 -16 -5 -35.5t-34 -19.5q-33 0 -66.5 1t-58.5 1h-100q-16 0 -29.5 -5t-29.5 -7q-2 -10 -3 -41t-3 -41 v-21q0 -31 5 -68.5t5 -72.5v-20q0 -12 -2 -29q-6 -25 -21.5 -39t-25.5 -14h-37q-31 0 -45 12q-12 12 -15.5 35.5t-3.5 52.5q2 49 5 93t12 104v12q0 4 -1 12t-1 15q-16 10 -28.5 12t-41.5 2q-27 0 -53.5 -2t-48.5 -2h-179q-27 0 -34 16q-10 6 -11 19q0 12 -2 22zM827 141 q0 -10 14 -10l193 -25q20 0 38.5 9.5t24.5 25.5q0 8 1 27.5t1 26.5q0 33 -2 74.5t-5 81.5t-7 73t-10 45h-8q-6 0 -15.5 -8t-19.5 -21.5t-20.5 -29t-18.5 -27.5q-6 -10 -24.5 -33.5t-38 -48.5t-36 -45t-18.5 -27l-12 -18t-16.5 -25.5t-14.5 -26t-6 -18.5z" />
<glyph unicode="&#xbd;" horiz-adv-x="1662" d="M197 -39q8 12 56 73.5t120.5 155t163 209t183.5 236.5t184 238.5t165 213t123 160t61 80.5q8 8 17.5 18.5t21.5 8.5q4 0 12.5 -4t16.5 -9q4 -4 4 -10v-2l-2 -4q0 -4 -2 -7t-4 -7q-268 -346 -532.5 -688t-532.5 -689q-16 -4 -21 -4q-14 4 -26 11.5t-8 19.5zM205 1364 q0 16 12 21.5t29 7.5q23 2 34 2h31q6 0 25.5 -1t42.5 -1t43 -1t28 -1h88q18 0 40 2t47 4q12 0 24 -2t23 -12q12 -12 12 -25q0 -20 -14.5 -25.5t-30.5 -5.5h-19q-6 0 -20 -2q-35 -4 -60.5 -9t-25.5 -46v-45v-66t-1 -75.5t-1 -73.5v-60q0 -47 -3 -83.5t-3 -77.5v-9q4 -6 8 -17 t16 -13q6 -2 27.5 -4t32.5 -4h18q20 0 33.5 -5.5t23.5 -33.5v-4q0 -8 -8 -16.5t-14 -8.5q-12 0 -38 1t-38 1h-233q-14 -4 -27.5 -5t-30.5 -1h-32q-23 6 -23 33q0 23 17.5 28.5t37.5 5.5h35q8 0 26.5 7.5t18.5 15.5q4 41 7 85t3 87q0 23 -1 62.5t-2 81.5t-2 78t-1 50 q0 10 -1 36t-3 42q-4 29 -39 33t-67 10q-18 4 -31.5 12.5t-13.5 26.5zM893 463q0 18 8.5 43.5t18.5 42.5q12 23 33.5 46t47 42.5t54.5 32t53 12.5q53 0 93.5 -9t74.5 -40q29 -25 49.5 -64t22.5 -80q-4 -20 -8 -45.5t-21 -54.5q-20 -41 -44.5 -83t-47.5 -70 q-18 -25 -35.5 -41.5t-17.5 -38.5v-9q0 -8 6 -10q4 -2 17.5 -3t15.5 -1q-16 0 21.5 -1t90 -2t99.5 -2t51 -1q27 2 47.5 21.5t48.5 19.5q0 -25 -17.5 -44.5t-27.5 -35.5q-16 -23 -33.5 -47.5t-40.5 -42.5q-2 0 -3 -1t-3 -1q-2 -2 -4 -2q-23 -2 -44 -3t-40 -1q-39 0 -63.5 2 t-28.5 2h-12h-12q-8 0 -38 -2t-64 -3t-62.5 -3t-34.5 -2q-8 0 -22.5 2t-16.5 2q-4 0 -12.5 3t-12.5 3v6q0 20 11.5 35.5t27 29t31.5 25.5t27 27q0 -4 10 10t25.5 36.5t31 50.5t27.5 50q16 29 29.5 66t13.5 76q0 31 -25 69q-18 29 -38.5 46.5t-57.5 17.5q-18 0 -36.5 -2 t-41.5 -15q-23 -12 -38 -30.5t-42 -32.5q-20 -10 -28 -10q-12 0 -13 14z" />
<glyph unicode="&#xbe;" horiz-adv-x="1662" d="M197 -39q8 12 56 73.5t120.5 155t163 209t183.5 236.5t184 238.5t165 213t123 160t61 80.5q8 8 17.5 18.5t21.5 8.5q4 0 12.5 -4t16.5 -9q4 -4 4 -10v-2l-2 -4q0 -4 -2 -7t-4 -7q-268 -346 -532.5 -688t-532.5 -689q-16 -4 -21 -4q-14 4 -26 11.5t-8 19.5zM213 1345 q0 29 14.5 55.5t38.5 51.5q35 35 68 51t80 16q31 0 51.5 -1t37.5 -7t33.5 -17t37.5 -30q29 -27 37 -71t8 -76q0 -35 -20.5 -78t-45.5 -78q-4 -4 -15 -16.5t-24.5 -24.5t-25 -24.5t-17.5 -16.5q-12 -10 -18 -18.5t-19 -24.5q4 -12 18.5 -30.5t41.5 -36.5q25 -16 47 -31 t33 -37q20 -20 29.5 -58t9.5 -67q0 -53 -16.5 -93t-47.5 -79q-12 -16 -37.5 -33.5t-34.5 -21.5q-35 -16 -63.5 -23.5t-69.5 -7.5q-31 0 -60.5 13.5t-47.5 39.5q-2 2 -4 8.5t-2 10.5t4 4h10q16 0 29.5 -11.5t29.5 -11.5q47 0 81 16.5t63 38.5q25 29 45 66t20 66q0 35 -7 56 t-42 48q-27 20 -43 30.5t-31.5 15.5t-35 8t-54.5 14q-12 4 -35.5 6t-23.5 20t16.5 24.5t26.5 12.5q41 23 61.5 38t36.5 28q10 8 33.5 29.5t42.5 45.5q29 37 42 68t13 74q0 16 -9 40.5t-26 45.5q-12 16 -41.5 29.5t-58.5 13.5q-35 0 -53.5 -9.5t-36.5 -25.5 q-4 -4 -12.5 -13.5t-16.5 -19.5t-16 -18t-12 -8q-10 0 -13.5 12t-3.5 22zM716 51q0 23 6.5 37t18.5 31q23 35 48.5 61.5t49.5 61.5q23 31 63 85t79.5 107t71.5 96t38 54q14 23 24.5 43t21.5 35.5t23.5 23.5t35.5 8q10 0 15 -7t8 -16t3 -20v-10q0 -6 -1 -16.5t-2 -22.5 t-2 -22.5t-1 -14.5v-395q0 -14 13.5 -42t35.5 -32q10 -2 27 -2q12 0 41 6q55 10 95 23.5t75 60.5q4 4 10 16.5t14.5 24t16.5 19.5t16 6q4 0 8 -4l4 -4q0 -47 -2 -86t-2 -80v-17q0 -16 -5 -35.5t-34 -19.5q-33 0 -66.5 1t-58.5 1h-100q-16 0 -29.5 -5t-29.5 -7q-2 -10 -3 -41 t-3 -41v-21q0 -31 5 -68.5t5 -72.5v-20q0 -12 -2 -29q-6 -25 -21.5 -39t-25.5 -14h-37q-31 0 -45 12q-12 12 -15.5 35.5t-3.5 52.5q2 49 5 93t12 104v12q0 4 -1 12t-1 15q-16 10 -28.5 12t-41.5 2q-27 0 -53.5 -2t-48.5 -2h-179q-27 0 -34 16q-10 6 -11 19q0 12 -2 22z M831 141q0 -10 14 -10l193 -25q20 0 38.5 9.5t24.5 25.5q0 8 1 27.5t1 26.5q0 33 -2 74.5t-5 81.5t-7 73t-10 45h-8q-6 0 -15.5 -8t-19.5 -21.5t-20.5 -29t-18.5 -27.5q-6 -10 -24.5 -33.5t-38 -48.5t-36 -45t-18.5 -27l-12 -18t-16.5 -25.5t-14.5 -26t-6 -18.5z" />
<glyph unicode="&#xbf;" horiz-adv-x="741" d="M90 410v8q0 4 2 6q0 12 3 36.5t7 50.5t7.5 47.5t3.5 27.5q10 49 36.5 89t53.5 81q8 14 16 32.5t19.5 36t26 30.5t32.5 19q55 12 97 15.5t95 13.5q14 16 16.5 29.5t2.5 30.5q0 37 -11.5 74.5t-11.5 72.5q0 18 1 37.5t6.5 36t16.5 27t34 10.5q14 0 20 -15.5t8 -35t2 -40.5 v-26v-154q0 -8 3.5 -37.5t6.5 -63.5t7 -63.5t4 -37.5v-7q0 -23 -9.5 -33t-21.5 -10q-16 0 -31.5 1t-31.5 1q-47 0 -95.5 -5t-91.5 -19t-79.5 -41t-61.5 -70q-6 -10 -17.5 -36.5t-11.5 -30.5q-2 0 -2 -13v-16q0 -78 31 -134t96 -104q23 -6 62 -17t71 -11q37 0 72 17.5 t72 17.5q61 0 87.5 -35t26.5 -90q0 -35 -19 -57.5t-48 -36t-61.5 -18.5t-59.5 -5q-78 0 -147.5 37t-121.5 96t-82 133t-30 148zM336 1587q0 20 14.5 40t36 35t44 23.5t40.5 8.5q59 0 91 -40t32 -93q0 -55 -29.5 -87t-89.5 -32q-139 0 -139 145z" />
<glyph unicode="&#xc0;" horiz-adv-x="1544" d="M-72 31q0 20 20.5 23t61.5 12q76 16 127 66t86 116.5t58.5 137.5t44.5 128l303 829q10 31 19 43.5t15.5 21.5t9.5 21.5t3 40.5q0 27 -11.5 45.5t-11.5 59.5q31 4 58.5 10t52.5 23q12 8 21.5 24.5t20.5 31.5t25.5 26.5t36.5 11.5q8 0 11 -8q2 -6 20.5 -67.5t48 -158 t67.5 -219.5t78 -255t79.5 -262t73.5 -240.5t59.5 -191.5t35.5 -116q12 -39 41 -68.5t64 -39.5q35 -12 62.5 -13.5t47 -2.5t29.5 -8t10 -29q0 -16 -16 -18.5t-27 -4.5h-106q-10 0 -20.5 1t-32.5 1q-20 0 -58.5 1t-101.5 1q-66 0 -129.5 -2t-128.5 -4h-62q-18 0 -42.5 3 t-24.5 26q0 8 9 14t22.5 9t27 5t23.5 4q41 6 78.5 13.5t74.5 15.5q27 6 27 29v8q0 6 -2 10l-129 424q-4 10 -13.5 21.5t-23.5 11.5h-481q-16 0 -22.5 -5t-10.5 -12l-61 -165q-16 -41 -21.5 -74t-5.5 -62q0 -35 6 -77q6 -43 28.5 -67t53.5 -36t64.5 -16t62.5 -7t47 -9.5 t18 -24.5q0 -10 -7 -22.5t-29 -14.5h-52q-70 2 -135 5t-137 3q-78 0 -141.5 -4t-126.5 -4h-17q-45 0 -45 31zM377 2081q0 31 20 50t55 19q18 0 37 -6q33 -8 53 -33q96 -109 163 -185.5t106 -115.5q4 -4 4 -6v-6q2 -8 -10.5 -13t-16.5 -9q-6 -4 -14 -4q-84 47 -159 102 t-157 108q-35 23 -51 40.5t-26 39.5zM475 707q0 -27 37 -27h391q27 0 27 22q0 10 -2 17q-10 33 -34 110.5t-52.5 171t-58 190.5t-52.5 169q-2 4 -6 9t-12 5q-12 0 -17 -20q-10 -29 -28.5 -84.5t-41 -121t-47 -136t-45 -132t-37 -105.5t-20.5 -58q-2 -4 -2 -10z" />
<glyph unicode="&#xc1;" horiz-adv-x="1544" d="M-72 31q0 20 20.5 23t61.5 12q76 16 127 66t86 116.5t58.5 137.5t44.5 128l303 829q10 31 19 43.5t15.5 21.5t9.5 21.5t3 40.5q0 27 -11.5 45.5t-11.5 59.5q31 4 58.5 10t52.5 23q12 8 21.5 24.5t20.5 31.5t25.5 26.5t36.5 11.5q8 0 11 -8q2 -6 20.5 -67.5t48 -158 t67.5 -219.5t78 -255t79.5 -262t73.5 -240.5t59.5 -191.5t35.5 -116q12 -39 41 -68.5t64 -39.5q35 -12 62.5 -13.5t47 -2.5t29.5 -8t10 -29q0 -16 -16 -18.5t-27 -4.5h-106q-10 0 -20.5 1t-32.5 1q-20 0 -58.5 1t-101.5 1q-66 0 -129.5 -2t-128.5 -4h-62q-18 0 -42.5 3 t-24.5 26q0 8 9 14t22.5 9t27 5t23.5 4q41 6 78.5 13.5t74.5 15.5q27 6 27 29v8q0 6 -2 10l-129 424q-4 10 -13.5 21.5t-23.5 11.5h-481q-16 0 -22.5 -5t-10.5 -12l-61 -165q-16 -41 -21.5 -74t-5.5 -62q0 -35 6 -77q6 -43 28.5 -67t53.5 -36t64.5 -16t62.5 -7t47 -9.5 t18 -24.5q0 -10 -7 -22.5t-29 -14.5h-52q-70 2 -135 5t-137 3q-78 0 -141.5 -4t-126.5 -4h-17q-45 0 -45 31zM475 707q0 -27 37 -27h391q27 0 27 22q0 10 -2 17q-10 33 -34 110.5t-52.5 171t-58 190.5t-52.5 169q-2 4 -6 9t-12 5q-12 0 -17 -20q-10 -29 -28.5 -84.5 t-41 -121t-47 -136t-45 -132t-37 -105.5t-20.5 -58q-2 -4 -2 -10zM856 1819q0 10 7 14q37 35 104.5 105.5t177.5 179.5q33 33 82 32q35 0 57.5 -17t22.5 -52q0 -13 -2 -19q-4 -20 -25.5 -40.5t-56.5 -41.5q-43 -23 -89 -50t-90 -54t-83 -49.5t-66 -34.5q-2 0 -4 -1t-6 -1 q-6 2 -17.5 10t-11.5 19z" />
<glyph unicode="&#xc2;" horiz-adv-x="1544" d="M-72 31q0 20 20.5 23t61.5 12q76 16 127 66t86 116.5t58.5 137.5t44.5 128l303 829q10 31 19 43.5t15.5 21.5t9.5 21.5t3 40.5q0 27 -11.5 45.5t-11.5 59.5q31 4 58.5 10t52.5 23q12 8 21.5 24.5t20.5 31.5t25.5 26.5t36.5 11.5q8 0 11 -8q2 -6 20.5 -67.5t48 -158 t67.5 -219.5t78 -255t79.5 -262t73.5 -240.5t59.5 -191.5t35.5 -116q12 -39 41 -68.5t64 -39.5q35 -12 62.5 -13.5t47 -2.5t29.5 -8t10 -29q0 -16 -16 -18.5t-27 -4.5h-106q-10 0 -20.5 1t-32.5 1q-20 0 -58.5 1t-101.5 1q-66 0 -129.5 -2t-128.5 -4h-62q-18 0 -42.5 3 t-24.5 26q0 8 9 14t22.5 9t27 5t23.5 4q41 6 78.5 13.5t74.5 15.5q27 6 27 29v8q0 6 -2 10l-129 424q-4 10 -13.5 21.5t-23.5 11.5h-481q-16 0 -22.5 -5t-10.5 -12l-61 -165q-16 -41 -21.5 -74t-5.5 -62q0 -35 6 -77q6 -43 28.5 -67t53.5 -36t64.5 -16t62.5 -7t47 -9.5 t18 -24.5q0 -10 -7 -22.5t-29 -14.5h-52q-70 2 -135 5t-137 3q-78 0 -141.5 -4t-126.5 -4h-17q-45 0 -45 31zM446 1753l277 371q25 27 51 26q33 0 53 -26l279 -371q-6 -10 -25 -10q-20 0 -28 10l-279 233l-260 -233q-20 -14 -37 -14t-31 14zM475 707q0 -27 37 -27h391 q27 0 27 22q0 10 -2 17q-10 33 -34 110.5t-52.5 171t-58 190.5t-52.5 169q-2 4 -6 9t-12 5q-12 0 -17 -20q-10 -29 -28.5 -84.5t-41 -121t-47 -136t-45 -132t-37 -105.5t-20.5 -58q-2 -4 -2 -10z" />
<glyph unicode="&#xc3;" horiz-adv-x="1544" d="M-72 31q0 20 20.5 23t61.5 12q76 16 127 66t86 116.5t58.5 137.5t44.5 128l303 829q10 31 19 43.5t15.5 21.5t9.5 21.5t3 40.5q0 27 -11.5 45.5t-11.5 59.5q31 4 58.5 10t52.5 23q12 8 21.5 24.5t20.5 31.5t25.5 26.5t36.5 11.5q8 0 11 -8q2 -6 20.5 -67.5t48 -158 t67.5 -219.5t78 -255t79.5 -262t73.5 -240.5t59.5 -191.5t35.5 -116q12 -39 41 -68.5t64 -39.5q35 -12 62.5 -13.5t47 -2.5t29.5 -8t10 -29q0 -16 -16 -18.5t-27 -4.5h-106q-10 0 -20.5 1t-32.5 1q-20 0 -58.5 1t-101.5 1q-66 0 -129.5 -2t-128.5 -4h-62q-18 0 -42.5 3 t-24.5 26q0 8 9 14t22.5 9t27 5t23.5 4q41 6 78.5 13.5t74.5 15.5q27 6 27 29v8q0 6 -2 10l-129 424q-4 10 -13.5 21.5t-23.5 11.5h-481q-16 0 -22.5 -5t-10.5 -12l-61 -165q-16 -41 -21.5 -74t-5.5 -62q0 -35 6 -77q6 -43 28.5 -67t53.5 -36t64.5 -16t62.5 -7t47 -9.5 t18 -24.5q0 -10 -7 -22.5t-29 -14.5h-52q-70 2 -135 5t-137 3q-78 0 -141.5 -4t-126.5 -4h-17q-45 0 -45 31zM375 1974q35 106 106 131q23 8 60 9q45 0 90 -16.5t86 -39.5q47 -25 105.5 -50.5t115.5 -25.5q31 0 61 13q35 10 63 37.5t48 87.5q10 0 19.5 -34t9.5 -61 q0 -6 -2 -11t-4 -9q-20 -51 -50 -79t-65 -42q-35 -12 -64 -12q-45 0 -86 14.5t-75 34.5q-59 31 -123 59.5t-123 28.5q-29 0 -51 -8q-31 -12 -55 -41t-40 -88q-6 0 -11 12t-9 23q-6 33 -6 67zM475 707q0 -27 37 -27h391q27 0 27 22q0 10 -2 17q-10 33 -34 110.5t-52.5 171 t-58 190.5t-52.5 169q-2 4 -6 9t-12 5q-12 0 -17 -20q-10 -29 -28.5 -84.5t-41 -121t-47 -136t-45 -132t-37 -105.5t-20.5 -58q-2 -4 -2 -10z" />
<glyph unicode="&#xc4;" horiz-adv-x="1544" d="M-72 31q0 20 20.5 23t61.5 12q76 16 127 66t86 116.5t58.5 137.5t44.5 128l303 829q10 31 19 43.5t15.5 21.5t9.5 21.5t3 40.5q0 27 -11.5 45.5t-11.5 59.5q31 4 58.5 10t52.5 23q12 8 21.5 24.5t20.5 31.5t25.5 26.5t36.5 11.5q8 0 11 -8q2 -6 20.5 -67.5t48 -158 t67.5 -219.5t78 -255t79.5 -262t73.5 -240.5t59.5 -191.5t35.5 -116q12 -39 41 -68.5t64 -39.5q35 -12 62.5 -13.5t47 -2.5t29.5 -8t10 -29q0 -16 -16 -18.5t-27 -4.5h-106q-10 0 -20.5 1t-32.5 1q-20 0 -58.5 1t-101.5 1q-66 0 -129.5 -2t-128.5 -4h-62q-18 0 -42.5 3 t-24.5 26q0 8 9 14t22.5 9t27 5t23.5 4q41 6 78.5 13.5t74.5 15.5q27 6 27 29v8q0 6 -2 10l-129 424q-4 10 -13.5 21.5t-23.5 11.5h-481q-16 0 -22.5 -5t-10.5 -12l-61 -165q-16 -41 -21.5 -74t-5.5 -62q0 -35 6 -77q6 -43 28.5 -67t53.5 -36t64.5 -16t62.5 -7t47 -9.5 t18 -24.5q0 -10 -7 -22.5t-29 -14.5h-52q-70 2 -135 5t-137 3q-78 0 -141.5 -4t-126.5 -4h-17q-45 0 -45 31zM414 1980q0 51 30.5 90t83.5 39q23 0 48.5 -9t48 -25.5t37 -39t14.5 -48.5q0 -20 -12.5 -43t-32 -42.5t-43 -31.5t-45.5 -12q-20 0 -43 10t-42.5 27.5t-31.5 38.5 t-12 46zM475 707q0 -27 37 -27h391q27 0 27 22q0 10 -2 17q-10 33 -34 110.5t-52.5 171t-58 190.5t-52.5 169q-2 4 -6 9t-12 5q-12 0 -17 -20q-10 -29 -28.5 -84.5t-41 -121t-47 -136t-45 -132t-37 -105.5t-20.5 -58q-2 -4 -2 -10zM848 1983q0 51 30.5 90t83.5 39 q23 0 48.5 -9.5t47 -25t36 -39t14.5 -49.5q0 -20 -12.5 -43t-32 -42.5t-43 -31.5t-45.5 -12q-20 0 -43 10t-41.5 27.5t-30.5 39t-12 46.5z" />
<glyph unicode="&#xc5;" horiz-adv-x="1544" d="M-72 31q0 20 20.5 23t61.5 12q76 16 127 66t86 116.5t58.5 137.5t44.5 128l303 829q10 31 19 43.5t15.5 21.5t9.5 21.5t3 40.5q0 27 -11.5 45.5t-11.5 59.5q31 4 58.5 10t52.5 23q12 8 21.5 24.5t20.5 31.5t25.5 26.5t36.5 11.5q8 0 11 -8q2 -6 20.5 -67.5t48 -158 t67.5 -219.5t78 -255t79.5 -262t73.5 -240.5t59.5 -191.5t35.5 -116q12 -39 41 -68.5t64 -39.5q35 -12 62.5 -13.5t47 -2.5t29.5 -8t10 -29q0 -16 -16 -18.5t-27 -4.5h-106q-10 0 -20.5 1t-32.5 1q-20 0 -58.5 1t-101.5 1q-66 0 -129.5 -2t-128.5 -4h-62q-18 0 -42.5 3 t-24.5 26q0 8 9 14t22.5 9t27 5t23.5 4q41 6 78.5 13.5t74.5 15.5q27 6 27 29v8q0 6 -2 10l-129 424q-4 10 -13.5 21.5t-23.5 11.5h-481q-16 0 -22.5 -5t-10.5 -12l-61 -165q-16 -41 -21.5 -74t-5.5 -62q0 -35 6 -77q6 -43 28.5 -67t53.5 -36t64.5 -16t62.5 -7t47 -9.5 t18 -24.5q0 -10 -7 -22.5t-29 -14.5h-52q-70 2 -135 5t-137 3q-78 0 -141.5 -4t-126.5 -4h-17q-45 0 -45 31zM373 1917q0 41 16.5 84t48.5 77q31 27 73 49.5t87 22.5q49 0 92 -18.5t76 -51t51.5 -76.5t18.5 -94q0 -78 -40 -127t-93 -71q-47 -27 -86 -27q-59 0 -97.5 19.5 t-62.5 38.5q-45 35 -64.5 84t-19.5 90zM449 1927q0 -31 6 -55.5t28 -49.5q29 -35 57.5 -44t69.5 -9q33 0 63 11.5t48 31.5q23 20 31 52t8 59q0 74 -70 131q-14 6 -32.5 13t-51.5 7q-53 0 -84.5 -23.5t-50.5 -47.5q-10 -10 -16 -34t-6 -42zM475 707q0 -27 37 -27h391 q27 0 27 22q0 10 -2 17q-10 33 -34 110.5t-52.5 171t-58 190.5t-52.5 169q-2 4 -6 9t-12 5q-12 0 -17 -20q-10 -29 -28.5 -84.5t-41 -121t-47 -136t-45 -132t-37 -105.5t-20.5 -58q-2 -4 -2 -10z" />
<glyph unicode="&#xc6;" horiz-adv-x="2244" d="M-72 31q0 23 24.5 24.5t65.5 10.5q82 14 148.5 65t122 117.5t101.5 138.5t83 127l557 829q20 31 32.5 43.5t21 21.5t14.5 21.5t16 40.5q2 4 6 20.5t8.5 34t6.5 31.5l2 15q0 35 -27 56.5t-64.5 33.5t-79.5 17t-75 8q-10 0 -17.5 2t-7.5 14q0 14 20.5 18t33.5 4 q8 0 34.5 -1t65.5 -1q41 0 90 -1t102 -1q92 0 158 3t119 7.5t102 7.5t107 3h55q25 0 58.5 -1t89 -2t153.5 -3q25 -4 33 -31q2 -82 4 -156.5t2 -158.5q0 -16 -6 -17q-10 0 -12 6q-20 39 -43 88.5t-45 79.5q-16 23 -41 47.5t-55.5 44t-65.5 32.5t-70 16q-41 2 -67 2h-72 t-94 -2.5t-97 -10.5q-10 -4 -21 -8t-11 -18v-742q2 -16 18 -20q68 6 144.5 11t142.5 5q51 2 85 41t57.5 88t37.5 96.5t27 65.5q4 4 8 7t18 3q23 0 23 -14q0 -86 -8.5 -135t-8.5 -90v-443q-4 -4 -8 -6q-6 -6 -12 -6q-14 0 -26.5 36t-26 83t-28.5 92t-36 63q-18 16 -64 25.5 t-98.5 13.5t-100.5 5t-75 1q-45 0 -59 -10t-14 -53v-506q0 -70 15 -104.5t58 -63.5q16 -10 38 -18t38 -8h186h52t44 2t45.5 6t57.5 12q72 16 126 76.5t99 138.5q4 6 13.5 25.5t19.5 29.5q4 2 8 2q2 0 6 -6q8 -16 9 -63q0 -14 -7.5 -43t-15.5 -56q-6 -20 -9 -52t-9 -62.5 t-17.5 -52t-29.5 -21.5q-6 0 -11.5 1t-9.5 1q-4 2 -18 2h-875q-29 0 -66.5 -2t-76.5 -3t-74 -3t-55 -2h-33q-12 0 -24.5 5t-12.5 19q0 10 2 20.5t12 14.5q4 4 31 6t37 2q27 2 46.5 3.5t43.5 11.5q51 16 78 42.5t27 80.5v358q-2 10 -8.5 21.5t-18.5 11.5h-481q-14 0 -21.5 -5 t-15.5 -12l-113 -165q-27 -41 -42 -73t-25 -63q-16 -39 -17 -77q0 -43 16.5 -67t42 -35t54.5 -15t54.5 -7t42 -10.5t16.5 -25.5q0 -12 -10.5 -23.5t-37.5 -13.5h-51q-68 2 -133 5t-137 3q-78 0 -140.5 -4t-127.5 -4h-19q-23 0 -30 7.5t-7 23.5zM680 694q0 -14 31 -14h391 q23 0 35 22v662q-4 10 -15 10q-10 0 -24 -20q-20 -29 -55 -83t-78 -121t-89.5 -137.5t-85 -132t-67.5 -105.5t-37 -58q-4 -4 -4 -10q-2 -6 -2 -13z" />
<glyph unicode="&#xc7;" horiz-adv-x="1601" d="M106 831q0 76 13.5 157t38 160t60.5 151.5t81 132.5q100 129 245.5 204.5t319.5 75.5q72 0 149 -13t142 -42q53 -25 97 -59.5t91 -69.5q8 -8 21 -8q10 0 18 16q12 23 23.5 57.5t24.5 59.5q4 10 10 12t14 2t12 -6t4 -8q10 -41 11.5 -83t1.5 -87v-68v-33q0 -14 2 -30 q4 -45 11 -78t7 -64q0 -18 -5 -37.5t-21 -19.5q-6 0 -19.5 17.5t-27 40t-24.5 44t-17 27.5q-66 94 -125.5 169t-143.5 126q-74 45 -134 53t-126 8q-100 0 -169.5 -51t-129.5 -119q-172 -203 -172 -669q0 -117 20.5 -210t52.5 -167t68.5 -126t69.5 -85q35 -37 67.5 -64.5 t68.5 -46t77 -28t94 -9.5q78 0 155 35t148 90q31 25 65 62t52 61q39 59 66.5 114.5t52.5 115.5q12 18 41 18q23 0 22 -33q-18 -66 -32.5 -118t-30.5 -111q-10 -43 -15.5 -84t-10.5 -71.5t-11 -50t-18 -19.5q-14 0 -27 30q-4 10 -9 19.5t-18 9.5q-12 0 -23 -5t-27.5 -14.5 t-42 -22.5t-66.5 -32q-76 -31 -162 -49t-172 -18q-125 0 -227.5 32.5t-194.5 110.5q-74 61 -132.5 142t-99 173.5t-62.5 189.5t-22 193zM592 -283q0 16 2 26.5t12 23.5q4 6 16.5 19t24.5 27.5t23.5 27t15.5 16.5q14 14 33.5 34.5t36.5 36.5q25 29 38 48.5t23 31.5l2 4h62 q0 -6 -2 -8q-14 -27 -18.5 -38t-16.5 -44q72 -8 135 -49t92 -106q12 -27 17.5 -56.5t5.5 -60.5q0 -23 -13.5 -54.5t-29.5 -56.5q-20 -27 -55.5 -53.5t-69.5 -42.5q-31 -16 -76 -28.5t-86 -12.5q-27 2 -54.5 5t-37.5 26q0 8 10 10t25 6q29 4 67.5 13.5t67.5 21.5 q25 10 45 30.5t35.5 44t23.5 46t8 37.5q0 23 -10 47t-20 41q-49 55 -144 59q-20 0 -38.5 -7t-34.5 -15q-23 -10 -44.5 -30t-44.5 -30q-2 0 -3 -1t-3 -1q-4 0 -10 4t-10 8z" />
<glyph unicode="&#xc8;" horiz-adv-x="1445" d="M59 12q0 10 3.5 21.5t13.5 15.5q2 2 11 3t19.5 2t20.5 2t14 1q29 2 47.5 3t44.5 12q51 16 77 41.5t26 81.5v1370q0 35 -25.5 56t-63.5 33.5t-81 17.5t-76 7q-8 0 -15 2t-7 13q0 16 20.5 20t30.5 4q8 0 35.5 -1t66.5 -1q41 0 90 -1t103 -1q92 0 157.5 3t118.5 7.5 t102.5 7.5t106.5 3h55q25 0 59 -1t88 -3t152 -5q29 -4 35 -30q2 -82 4 -156t2 -158q0 -18 -6 -18q-4 0 -8 1t-6 7q-20 37 -42 87t-44 81q-16 23 -41 47.5t-55.5 44t-65.5 32.5t-70 15q-41 2 -67 2h-72q-47 0 -95 -2t-95 -12q-10 -2 -21.5 -6t-11.5 -21v-739q2 -14 16 -20 q68 6 144.5 10t144.5 4q49 4 84 43t58.5 88t38 96t26.5 66q4 4 7 6t20 2q8 0 15 -3t7 -9q0 -86 -9 -135.5t-9 -90.5v-442q-2 -4 -7 -6q-6 -6 -12 -6q-14 0 -26.5 35.5t-26.5 83t-29.5 92.5t-36.5 63q-18 16 -63 25.5t-97.5 13.5t-100.5 5t-74 1q-51 0 -63.5 -15t-12.5 -77 v-477q0 -70 16.5 -105.5t59.5 -62.5q16 -10 37.5 -18.5t37.5 -8.5h187h49q23 0 45 2t47 6.5t57 12.5q72 16 126.5 76.5t99.5 138.5q4 6 13 25.5t19 29.5q2 2 7 2q6 0 8 -8q8 -14 8 -61q0 -14 -8 -43t-15 -56q-6 -20 -9 -52t-9 -62.5t-17.5 -52t-29.5 -21.5q-8 0 -12.5 1 t-8.5 1q-4 2 -20 2h-873q-29 0 -66.5 -2t-76.5 -3t-73.5 -3t-55.5 -2h-33q-12 0 -25.5 5t-13.5 17zM347 2081q0 31 20 50t55 19q18 0 37 -6q33 -8 53 -33q96 -109 163 -185.5t106 -115.5q4 -4 4 -6v-6q2 -8 -10.5 -13t-16.5 -9q-6 -4 -14 -4q-84 47 -159 102t-157 108 q-35 23 -51 40.5t-26 39.5z" />
<glyph unicode="&#xc9;" horiz-adv-x="1445" d="M59 12q0 10 3.5 21.5t13.5 15.5q2 2 11 3t19.5 2t20.5 2t14 1q29 2 47.5 3t44.5 12q51 16 77 41.5t26 81.5v1370q0 35 -25.5 56t-63.5 33.5t-81 17.5t-76 7q-8 0 -15 2t-7 13q0 16 20.5 20t30.5 4q8 0 35.5 -1t66.5 -1q41 0 90 -1t103 -1q92 0 157.5 3t118.5 7.5 t102.5 7.5t106.5 3h55q25 0 59 -1t88 -3t152 -5q29 -4 35 -30q2 -82 4 -156t2 -158q0 -18 -6 -18q-4 0 -8 1t-6 7q-20 37 -42 87t-44 81q-16 23 -41 47.5t-55.5 44t-65.5 32.5t-70 15q-41 2 -67 2h-72q-47 0 -95 -2t-95 -12q-10 -2 -21.5 -6t-11.5 -21v-739q2 -14 16 -20 q68 6 144.5 10t144.5 4q49 4 84 43t58.5 88t38 96t26.5 66q4 4 7 6t20 2q8 0 15 -3t7 -9q0 -86 -9 -135.5t-9 -90.5v-442q-2 -4 -7 -6q-6 -6 -12 -6q-14 0 -26.5 35.5t-26.5 83t-29.5 92.5t-36.5 63q-18 16 -63 25.5t-97.5 13.5t-100.5 5t-74 1q-51 0 -63.5 -15t-12.5 -77 v-477q0 -70 16.5 -105.5t59.5 -62.5q16 -10 37.5 -18.5t37.5 -8.5h187h49q23 0 45 2t47 6.5t57 12.5q72 16 126.5 76.5t99.5 138.5q4 6 13 25.5t19 29.5q2 2 7 2q6 0 8 -8q8 -14 8 -61q0 -14 -8 -43t-15 -56q-6 -20 -9 -52t-9 -62.5t-17.5 -52t-29.5 -21.5q-8 0 -12.5 1 t-8.5 1q-4 2 -20 2h-873q-29 0 -66.5 -2t-76.5 -3t-73.5 -3t-55.5 -2h-33q-12 0 -25.5 5t-13.5 17zM737 1819q0 10 7 14q37 35 104.5 105.5t177.5 179.5q33 33 82 32q35 0 57.5 -17t22.5 -52q0 -13 -2 -19q-4 -20 -25.5 -40.5t-56.5 -41.5q-43 -23 -89 -50t-90 -54 t-83 -49.5t-66 -34.5q-2 0 -4 -1t-6 -1q-6 2 -17.5 10t-11.5 19z" />
<glyph unicode="&#xca;" horiz-adv-x="1445" d="M59 12q0 10 3.5 21.5t13.5 15.5q2 2 11 3t19.5 2t20.5 2t14 1q29 2 47.5 3t44.5 12q51 16 77 41.5t26 81.5v1370q0 35 -25.5 56t-63.5 33.5t-81 17.5t-76 7q-8 0 -15 2t-7 13q0 16 20.5 20t30.5 4q8 0 35.5 -1t66.5 -1q41 0 90 -1t103 -1q92 0 157.5 3t118.5 7.5 t102.5 7.5t106.5 3h55q25 0 59 -1t88 -3t152 -5q29 -4 35 -30q2 -82 4 -156t2 -158q0 -18 -6 -18q-4 0 -8 1t-6 7q-20 37 -42 87t-44 81q-16 23 -41 47.5t-55.5 44t-65.5 32.5t-70 15q-41 2 -67 2h-72q-47 0 -95 -2t-95 -12q-10 -2 -21.5 -6t-11.5 -21v-739q2 -14 16 -20 q68 6 144.5 10t144.5 4q49 4 84 43t58.5 88t38 96t26.5 66q4 4 7 6t20 2q8 0 15 -3t7 -9q0 -86 -9 -135.5t-9 -90.5v-442q-2 -4 -7 -6q-6 -6 -12 -6q-14 0 -26.5 35.5t-26.5 83t-29.5 92.5t-36.5 63q-18 16 -63 25.5t-97.5 13.5t-100.5 5t-74 1q-51 0 -63.5 -15t-12.5 -77 v-477q0 -70 16.5 -105.5t59.5 -62.5q16 -10 37.5 -18.5t37.5 -8.5h187h49q23 0 45 2t47 6.5t57 12.5q72 16 126.5 76.5t99.5 138.5q4 6 13 25.5t19 29.5q2 2 7 2q6 0 8 -8q8 -14 8 -61q0 -14 -8 -43t-15 -56q-6 -20 -9 -52t-9 -62.5t-17.5 -52t-29.5 -21.5q-8 0 -12.5 1 t-8.5 1q-4 2 -20 2h-873q-29 0 -66.5 -2t-76.5 -3t-73.5 -3t-55.5 -2h-33q-12 0 -25.5 5t-13.5 17zM419 1810l277 308q25 33 51 32q33 0 53 -32l279 -308q-6 -12 -25 -12q-20 0 -28 12l-279 172l-260 -172q-18 -16 -37 -16q-17 0 -31 16z" />
<glyph unicode="&#xcb;" horiz-adv-x="1445" d="M59 12q0 10 3.5 21.5t13.5 15.5q2 2 11 3t19.5 2t20.5 2t14 1q29 2 47.5 3t44.5 12q51 16 77 41.5t26 81.5v1370q0 35 -25.5 56t-63.5 33.5t-81 17.5t-76 7q-8 0 -15 2t-7 13q0 16 20.5 20t30.5 4q8 0 35.5 -1t66.5 -1q41 0 90 -1t103 -1q92 0 157.5 3t118.5 7.5 t102.5 7.5t106.5 3h55q25 0 59 -1t88 -3t152 -5q29 -4 35 -30q2 -82 4 -156t2 -158q0 -18 -6 -18q-4 0 -8 1t-6 7q-20 37 -42 87t-44 81q-16 23 -41 47.5t-55.5 44t-65.5 32.5t-70 15q-41 2 -67 2h-72q-47 0 -95 -2t-95 -12q-10 -2 -21.5 -6t-11.5 -21v-739q2 -14 16 -20 q68 6 144.5 10t144.5 4q49 4 84 43t58.5 88t38 96t26.5 66q4 4 7 6t20 2q8 0 15 -3t7 -9q0 -86 -9 -135.5t-9 -90.5v-442q-2 -4 -7 -6q-6 -6 -12 -6q-14 0 -26.5 35.5t-26.5 83t-29.5 92.5t-36.5 63q-18 16 -63 25.5t-97.5 13.5t-100.5 5t-74 1q-51 0 -63.5 -15t-12.5 -77 v-477q0 -70 16.5 -105.5t59.5 -62.5q16 -10 37.5 -18.5t37.5 -8.5h187h49q23 0 45 2t47 6.5t57 12.5q72 16 126.5 76.5t99.5 138.5q4 6 13 25.5t19 29.5q2 2 7 2q6 0 8 -8q8 -14 8 -61q0 -14 -8 -43t-15 -56q-6 -20 -9 -52t-9 -62.5t-17.5 -52t-29.5 -21.5q-8 0 -12.5 1 t-8.5 1q-4 2 -20 2h-873q-29 0 -66.5 -2t-76.5 -3t-73.5 -3t-55.5 -2h-33q-12 0 -25.5 5t-13.5 17zM414 1980q0 51 30.5 90t83.5 39q23 0 48.5 -9t48 -25.5t37 -39t14.5 -48.5q0 -20 -12.5 -43t-32 -42.5t-43 -31.5t-45.5 -12q-20 0 -43 10t-42.5 27.5t-31.5 38.5t-12 46z M848 1983q0 51 30.5 90t83.5 39q23 0 48.5 -9.5t47 -25t36 -39t14.5 -49.5q0 -20 -12.5 -43t-32 -42.5t-43 -31.5t-45.5 -12q-20 0 -43 10t-41.5 27.5t-30.5 39t-12 46.5z" />
<glyph unicode="&#xcc;" horiz-adv-x="1007" d="M113 25q0 23 20 28q27 6 47.5 10.5t43 8.5t49 9t67.5 13q20 6 24.5 26.5t4.5 51.5v1333q0 49 -17.5 76t-44 37t-58.5 12t-58.5 3t-44 8.5t-17.5 29.5q0 16 14.5 20.5t28.5 4.5h66q59 0 100 -6.5t96 -6.5q57 0 101.5 3.5t84 6.5t80.5 6t91 3h79q16 0 26.5 -6t16.5 -8 q4 -12 6.5 -13.5t2.5 -11.5q0 -12 -20.5 -20.5t-48.5 -13.5t-54.5 -9t-38.5 -6q-18 -4 -40 -7t-40 -9.5t-29.5 -18.5t-11.5 -35v-1407q0 -37 39 -50t85 -17t85 -10.5t39 -30.5q0 -12 -7.5 -16.5t-13.5 -6.5q-16 -4 -39.5 -8t-42.5 -4q-84 0 -146.5 7t-137.5 7q-18 0 -53 -1 t-73 -3t-76 -3t-65 -1h-94q-6 0 -16 6t-10 19zM115 2081q0 31 20 50t55 19q18 0 37 -6q33 -8 53 -33q96 -109 163 -185.5t106 -115.5q4 -4 4 -6v-6q2 -8 -10.5 -13t-16.5 -9q-6 -4 -14 -4q-84 47 -159 102t-157 108q-35 23 -51 40.5t-26 39.5z" />
<glyph unicode="&#xcd;" horiz-adv-x="1007" d="M113 25q0 23 20 28q27 6 47.5 10.5t43 8.5t49 9t67.5 13q20 6 24.5 26.5t4.5 51.5v1333q0 49 -17.5 76t-44 37t-58.5 12t-58.5 3t-44 8.5t-17.5 29.5q0 16 14.5 20.5t28.5 4.5h66q59 0 100 -6.5t96 -6.5q57 0 101.5 3.5t84 6.5t80.5 6t91 3h79q16 0 26.5 -6t16.5 -8 q4 -12 6.5 -13.5t2.5 -11.5q0 -12 -20.5 -20.5t-48.5 -13.5t-54.5 -9t-38.5 -6q-18 -4 -40 -7t-40 -9.5t-29.5 -18.5t-11.5 -35v-1407q0 -37 39 -50t85 -17t85 -10.5t39 -30.5q0 -12 -7.5 -16.5t-13.5 -6.5q-16 -4 -39.5 -8t-42.5 -4q-84 0 -146.5 7t-137.5 7q-18 0 -53 -1 t-73 -3t-76 -3t-65 -1h-94q-6 0 -16 6t-10 19zM456 1819q0 10 7 14q37 35 104.5 105.5t177.5 179.5q33 33 82 32q35 0 57.5 -17t22.5 -52q0 -13 -2 -19q-4 -20 -25.5 -40.5t-56.5 -41.5q-43 -23 -89 -50t-90 -54t-83 -49.5t-66 -34.5q-2 0 -4 -1t-6 -1q-6 2 -17.5 10 t-11.5 19z" />
<glyph unicode="&#xce;" horiz-adv-x="1007" d="M113 25q0 23 20 28q27 6 47.5 10.5t43 8.5t49 9t67.5 13q20 6 24.5 26.5t4.5 51.5v1333q0 49 -17.5 76t-44 37t-58.5 12t-58.5 3t-44 8.5t-17.5 29.5q0 16 14.5 20.5t28.5 4.5h66q59 0 100 -6.5t96 -6.5q57 0 101.5 3.5t84 6.5t80.5 6t91 3h79q16 0 26.5 -6t16.5 -8 q4 -12 6.5 -13.5t2.5 -11.5q0 -12 -20.5 -20.5t-48.5 -13.5t-54.5 -9t-38.5 -6q-18 -4 -40 -7t-40 -9.5t-29.5 -18.5t-11.5 -35v-1407q0 -37 39 -50t85 -17t85 -10.5t39 -30.5q0 -12 -7.5 -16.5t-13.5 -6.5q-16 -4 -39.5 -8t-42.5 -4q-84 0 -146.5 7t-137.5 7q-18 0 -53 -1 t-73 -3t-76 -3t-65 -1h-94q-6 0 -16 6t-10 19zM176 1810l277 308q25 33 51 32q33 0 53 -32l279 -308q-6 -12 -25 -12q-20 0 -28 12l-279 172l-260 -172q-18 -16 -37 -16q-17 0 -31 16z" />
<glyph unicode="&#xcf;" horiz-adv-x="1007" d="M113 25q0 23 20 28q27 6 47.5 10.5t43 8.5t49 9t67.5 13q20 6 24.5 26.5t4.5 51.5v1333q0 49 -17.5 76t-44 37t-58.5 12t-58.5 3t-44 8.5t-17.5 29.5q0 16 14.5 20.5t28.5 4.5h66q59 0 100 -6.5t96 -6.5q57 0 101.5 3.5t84 6.5t80.5 6t91 3h79q16 0 26.5 -6t16.5 -8 q4 -12 6.5 -13.5t2.5 -11.5q0 -12 -20.5 -20.5t-48.5 -13.5t-54.5 -9t-38.5 -6q-18 -4 -40 -7t-40 -9.5t-29.5 -18.5t-11.5 -35v-1407q0 -37 39 -50t85 -17t85 -10.5t39 -30.5q0 -12 -7.5 -16.5t-13.5 -6.5q-16 -4 -39.5 -8t-42.5 -4q-84 0 -146.5 7t-137.5 7q-18 0 -53 -1 t-73 -3t-76 -3t-65 -1h-94q-6 0 -16 6t-10 19zM162 1980q0 51 30.5 90t83.5 39q23 0 48.5 -9t48 -25.5t37 -39t14.5 -48.5q0 -20 -12.5 -43t-32 -42.5t-43 -31.5t-45.5 -12q-20 0 -43 10t-42.5 27.5t-31.5 38.5t-12 46zM596 1983q0 51 30.5 90t83.5 39q23 0 48.5 -9.5 t47 -25t36 -39t14.5 -49.5q0 -20 -12.5 -43t-32 -42.5t-43 -31.5t-45.5 -12q-20 0 -43 10t-41.5 27.5t-30.5 39t-12 46.5z" />
<glyph unicode="&#xd0;" horiz-adv-x="1820" d="M41 25q0 14 24.5 22t60.5 14.5t77 10.5t71 10q43 8 54 33q6 25 7 40t1 33v603h-248q-12 0 -23.5 23.5t-11.5 41.5q0 25 9.5 41t19.5 16h254v715q-4 8 -30.5 15.5t-63.5 13.5t-79 11t-79 11q-18 2 -18 13q0 2 12 12q12 4 39 4h284q117 0 236 -2t228.5 -8t201.5 -17.5 t156 -27.5q92 -29 172 -86.5t149 -134.5q27 -31 60.5 -85.5t63.5 -124t50.5 -151.5t20.5 -170q0 -209 -77 -374t-224 -306q-6 -4 -20.5 -14t-30 -22.5t-28.5 -23.5t-20 -16q-41 -33 -109.5 -61.5t-144 -49t-148.5 -31.5t-122 -11q-47 0 -94 4t-113 4h-528q-39 0 -39 25z M584 430q0 -150 17 -229.5t48 -114.5q14 -18 40 -23.5t48 -5.5q92 0 175 23.5t154 65.5t127 97.5t95 118.5q82 131 122 264.5t40 254.5q0 66 -10 127t-24.5 111t-31 89t-28.5 62q-18 31 -50 77t-82 95t-123 96t-171 82q-61 23 -124 31t-134 8q-16 0 -40 -6t-24 -31v-666v-43 h232q12 0 22 -19.5t10 -37.5q0 -14 -11 -39.5t-21 -25.5h-236q-6 -94 -13 -181.5t-7 -179.5z" />
<glyph unicode="&#xd1;" horiz-adv-x="1830" d="M49 37q0 18 13.5 27.5t35.5 17.5q33 10 75 21.5t81 34t66.5 60.5t29.5 103q10 281 23.5 554t13.5 560q0 41 -18.5 62.5t-46.5 50.5q-12 12 -51.5 41.5t-77.5 54.5q-35 23 -56.5 28t-50.5 17q-10 4 -10 12q0 2 1 6.5t9 4.5q25 2 53.5 3t59.5 1h51q59 0 122.5 -2t141.5 -2 q14 0 27 -15l829 -1140q14 -20 33 -21q20 0 20 21v944q0 37 -13 60.5t-45 38.5t-86 26.5t-134 23.5q-35 4 -44 11.5t-9 25.5q0 16 20.5 19.5t32.5 3.5h78q47 0 109.5 -6.5t148.5 -6.5q33 0 81 3t93 3q35 0 55.5 -2t52.5 -10q27 -6 27 -24q0 -16 -23 -23q-63 -4 -109 -18.5 t-77 -42t-46 -71.5t-17 -112l-5 -96q-10 -166 -15 -292t-9 -230.5t-5 -196.5t-1 -190v-70q0 -31 1 -66.5t1 -80.5v-99q0 -10 -6 -28.5t-23 -18.5q-18 0 -32.5 12.5t-37.5 43.5l-882 1251q-10 12 -15.5 19.5t-17.5 7.5q-10 0 -13 -13.5t-3 -25.5v-1061q0 -25 12 -44.5 t28.5 -32.5t34 -22.5t27.5 -15.5q23 -12 70 -22.5t80 -10.5q18 0 40.5 -7t22.5 -32q0 -31 -17.5 -42t-39.5 -11q-154 -2 -305.5 -4t-305.5 -2q-25 0 -39 4t-14 33zM551 1974q35 106 106 131q23 8 60 9q45 0 90 -16.5t86 -39.5q47 -25 105.5 -50.5t115.5 -25.5q31 0 61 13 q35 10 63 37.5t48 87.5q10 0 19.5 -34t9.5 -61q0 -6 -2 -11t-4 -9q-20 -51 -50 -79t-65 -42q-35 -12 -64 -12q-45 0 -86 14.5t-75 34.5q-59 31 -123 59.5t-123 28.5q-29 0 -51 -8q-31 -12 -55 -41t-40 -88q-6 0 -11 12t-9 23q-6 33 -6 67z" />
<glyph unicode="&#xd2;" horiz-adv-x="1906" d="M98 944q0 88 33 180.5t90.5 176t134 157.5t164.5 125q121 72 241 100.5t222 28.5q51 0 106.5 -7t105.5 -18.5t92 -25.5t67 -29q57 -35 115.5 -87t110.5 -112.5t94 -124t67 -118.5q41 -92 54 -185.5t13 -191.5q0 -213 -85 -373.5t-236 -289.5q-111 -92 -238 -136.5 t-303 -44.5q-348 0 -604 269q-111 113 -177.5 286.5t-66.5 419.5zM408 823q0 -115 24.5 -232.5t83.5 -209.5q39 -61 86 -121.5t104.5 -109t126 -77t150.5 -28.5q76 0 148.5 38t134 98.5t110.5 137t80 156.5q4 12 15.5 43t22.5 76t20.5 101.5t9.5 121.5q0 55 -9.5 122 t-28 137.5t-45 141t-63.5 136.5q-31 55 -73.5 109.5t-97 96.5t-120 67.5t-141.5 25.5q-74 0 -139.5 -31t-120.5 -77t-96 -97t-66 -94q-39 -66 -77.5 -198t-38.5 -333zM549 2081q0 31 20 50t55 19q18 0 37 -6q33 -8 53 -33q96 -109 163 -185.5t106 -115.5q4 -4 4 -6v-6 q2 -8 -10.5 -13t-16.5 -9q-6 -4 -14 -4q-84 47 -159 102t-157 108q-35 23 -51 40.5t-26 39.5z" />
<glyph unicode="&#xd3;" horiz-adv-x="1906" d="M98 944q0 88 33 180.5t90.5 176t134 157.5t164.5 125q121 72 241 100.5t222 28.5q51 0 106.5 -7t105.5 -18.5t92 -25.5t67 -29q57 -35 115.5 -87t110.5 -112.5t94 -124t67 -118.5q41 -92 54 -185.5t13 -191.5q0 -213 -85 -373.5t-236 -289.5q-111 -92 -238 -136.5 t-303 -44.5q-348 0 -604 269q-111 113 -177.5 286.5t-66.5 419.5zM408 823q0 -115 24.5 -232.5t83.5 -209.5q39 -61 86 -121.5t104.5 -109t126 -77t150.5 -28.5q76 0 148.5 38t134 98.5t110.5 137t80 156.5q4 12 15.5 43t22.5 76t20.5 101.5t9.5 121.5q0 55 -9.5 122 t-28 137.5t-45 141t-63.5 136.5q-31 55 -73.5 109.5t-97 96.5t-120 67.5t-141.5 25.5q-74 0 -139.5 -31t-120.5 -77t-96 -97t-66 -94q-39 -66 -77.5 -198t-38.5 -333zM993 1819q0 10 7 14q37 35 104.5 105.5t177.5 179.5q33 33 82 32q35 0 57.5 -17t22.5 -52q0 -13 -2 -19 q-4 -20 -25.5 -40.5t-56.5 -41.5q-43 -23 -89 -50t-90 -54t-83 -49.5t-66 -34.5q-2 0 -4 -1t-6 -1q-6 2 -17.5 10t-11.5 19z" />
<glyph unicode="&#xd4;" horiz-adv-x="1906" d="M98 944q0 88 33 180.5t90.5 176t134 157.5t164.5 125q121 72 241 100.5t222 28.5q51 0 106.5 -7t105.5 -18.5t92 -25.5t67 -29q57 -35 115.5 -87t110.5 -112.5t94 -124t67 -118.5q41 -92 54 -185.5t13 -191.5q0 -213 -85 -373.5t-236 -289.5q-111 -92 -238 -136.5 t-303 -44.5q-348 0 -604 269q-111 113 -177.5 286.5t-66.5 419.5zM408 823q0 -115 24.5 -232.5t83.5 -209.5q39 -61 86 -121.5t104.5 -109t126 -77t150.5 -28.5q76 0 148.5 38t134 98.5t110.5 137t80 156.5q4 12 15.5 43t22.5 76t20.5 101.5t9.5 121.5q0 55 -9.5 122 t-28 137.5t-45 141t-63.5 136.5q-31 55 -73.5 109.5t-97 96.5t-120 67.5t-141.5 25.5q-74 0 -139.5 -31t-120.5 -77t-96 -97t-66 -94q-39 -66 -77.5 -198t-38.5 -333zM643 1810l277 308q25 33 51 32q33 0 53 -32l279 -308q-6 -12 -25 -12q-20 0 -28 12l-279 172l-260 -172 q-18 -16 -37 -16q-17 0 -31 16z" />
<glyph unicode="&#xd5;" horiz-adv-x="1906" d="M98 944q0 88 33 180.5t90.5 176t134 157.5t164.5 125q121 72 241 100.5t222 28.5q51 0 106.5 -7t105.5 -18.5t92 -25.5t67 -29q57 -35 115.5 -87t110.5 -112.5t94 -124t67 -118.5q41 -92 54 -185.5t13 -191.5q0 -213 -85 -373.5t-236 -289.5q-111 -92 -238 -136.5 t-303 -44.5q-348 0 -604 269q-111 113 -177.5 286.5t-66.5 419.5zM408 823q0 -115 24.5 -232.5t83.5 -209.5q39 -61 86 -121.5t104.5 -109t126 -77t150.5 -28.5q76 0 148.5 38t134 98.5t110.5 137t80 156.5q4 12 15.5 43t22.5 76t20.5 101.5t9.5 121.5q0 55 -9.5 122 t-28 137.5t-45 141t-63.5 136.5q-31 55 -73.5 109.5t-97 96.5t-120 67.5t-141.5 25.5q-74 0 -139.5 -31t-120.5 -77t-96 -97t-66 -94q-39 -66 -77.5 -198t-38.5 -333zM570 1974q35 106 106 131q23 8 60 9q45 0 90 -16.5t86 -39.5q47 -25 105.5 -50.5t115.5 -25.5q31 0 61 13 q35 10 63 37.5t48 87.5q10 0 19.5 -34t9.5 -61q0 -6 -2 -11t-4 -9q-20 -51 -50 -79t-65 -42q-35 -12 -64 -12q-45 0 -86 14.5t-75 34.5q-59 31 -123 59.5t-123 28.5q-29 0 -51 -8q-31 -12 -55 -41t-40 -88q-6 0 -11 12t-9 23q-6 33 -6 67z" />
<glyph unicode="&#xd6;" horiz-adv-x="1906" d="M98 944q0 88 33 180.5t90.5 176t134 157.5t164.5 125q121 72 241 100.5t222 28.5q51 0 106.5 -7t105.5 -18.5t92 -25.5t67 -29q57 -35 115.5 -87t110.5 -112.5t94 -124t67 -118.5q41 -92 54 -185.5t13 -191.5q0 -213 -85 -373.5t-236 -289.5q-111 -92 -238 -136.5 t-303 -44.5q-348 0 -604 269q-111 113 -177.5 286.5t-66.5 419.5zM408 823q0 -115 24.5 -232.5t83.5 -209.5q39 -61 86 -121.5t104.5 -109t126 -77t150.5 -28.5q76 0 148.5 38t134 98.5t110.5 137t80 156.5q4 12 15.5 43t22.5 76t20.5 101.5t9.5 121.5q0 55 -9.5 122 t-28 137.5t-45 141t-63.5 136.5q-31 55 -73.5 109.5t-97 96.5t-120 67.5t-141.5 25.5q-74 0 -139.5 -31t-120.5 -77t-96 -97t-66 -94q-39 -66 -77.5 -198t-38.5 -333zM619 1980q0 51 30.5 90t83.5 39q23 0 48.5 -9t48 -25.5t37 -39t14.5 -48.5q0 -20 -12.5 -43t-32 -42.5 t-43 -31.5t-45.5 -12q-20 0 -43 10t-42.5 27.5t-31.5 38.5t-12 46zM1053 1983q0 51 30.5 90t83.5 39q23 0 48.5 -9.5t47 -25t36 -39t14.5 -49.5q0 -20 -12.5 -43t-32 -42.5t-43 -31.5t-45.5 -12q-20 0 -43 10t-41.5 27.5t-30.5 39t-12 46.5z" />
<glyph unicode="&#xd7;" d="M184 827q0 12 15 27q14 14 24 14q8 0 15 -6l233 -233q6 -6 12 -6q2 0 6 4l218 217q10 10 20 10q12 0 23 -10q10 -10 10 -31q0 -12 -4 -16l-215 -215q-8 -8 -9 -11q0 -4 7 -10l241 -242q6 -6 6 -14q0 -10 -14 -24t-27 -15q-6 0 -12 6l-239 240q-8 4 -13 4q-6 0 -12 -6 l-209 -209q-6 -6 -16 -6q-14 0 -29 14q-16 16 -16 23q0 2 10 12l213 215q6 6 6 12q0 4 -6 11l-232 233q-6 6 -6 12z" />
<glyph unicode="&#xd8;" horiz-adv-x="1906" d="M98 944q0 88 33 180.5t90.5 176t134 157.5t164.5 125q121 72 241 100.5t222 28.5q53 0 111.5 -9t111.5 -20l51 132q2 8 29 8q20 0 37 -4q14 -8 32.5 -19.5t18.5 -27.5l-49 -125l29 -15q57 -35 115.5 -87t110.5 -112.5t94 -124t67 -118.5q41 -92 54 -185.5t13 -191.5 q0 -213 -85 -373.5t-236 -289.5q-111 -92 -238 -136.5t-303 -44.5q-66 0 -125 9.5t-119 25.5l-71 -188q-6 -12 -37 -13q-18 0 -31 7q-51 25 -51 43l76 200q-135 68 -246 185q-111 113 -177.5 286.5t-66.5 419.5zM408 823q0 -115 24.5 -232.5t83.5 -209.5q29 -47 60.5 -91 t70.5 -85l524 1380q-49 31 -104 49.5t-121 18.5q-74 0 -139.5 -31t-120.5 -77t-96 -97t-66 -94q-39 -66 -77.5 -198t-38.5 -333zM745 119q51 -35 110.5 -54.5t127.5 -19.5q76 0 148.5 38t134 98.5t110.5 137t80 156.5q4 12 15.5 43t22.5 76t20.5 101.5t9.5 121.5 q0 55 -9.5 122t-28 137.5t-45 141t-63.5 136.5q-23 39 -48 75.5t-60 69.5z" />
<glyph unicode="&#xd9;" horiz-adv-x="1775" d="M-20 1669q0 27 18 27h489q8 0 17.5 -5t9.5 -22v-1032q0 -242 90 -361q80 -102 225 -102q39 0 79 15.5t69 29.5q98 53 150.5 117.5t78.5 163.5q12 41 17.5 105.5t5.5 115.5v895q-16 20 -54 25.5t-79 7.5q-14 0 -27.5 1t-36.5 1q-20 0 -53 1t-80 1q-25 0 -25 26 q0 12 7.5 22.5t31.5 10.5l564 -4q10 0 16 -11t6 -28l-16 -1487q8 -10 29.5 -12t37.5 -2q55 0 106.5 10t110.5 10q20 0 21 -22q0 -12 -14.5 -19.5t-34 -12.5t-42 -9t-36.5 -8q-55 -12 -116.5 -25.5t-121.5 -36.5q-16 -6 -40.5 -16t-49 -19.5t-46 -16.5t-32.5 -7 q-10 0 -18 7.5t-8 19.5v309q0 6 -2 24.5t-4 30.5q0 4 -4 8q-2 2 -5 2q-8 0 -14 -12q-20 -43 -33.5 -70.5t-28 -50t-34 -46t-51.5 -56.5q-35 -37 -85 -66.5t-106.5 -49t-113 -30t-105.5 -10.5q-47 0 -92 9.5t-70 21.5q-82 47 -132 114.5t-66 127.5q-10 33 -17.5 98t-11.5 136 t-6 130t-2 78v901q0 16 -23 16h-225q-18 0 -18 31zM451 2081q0 31 20 50t55 19q18 0 37 -6q33 -8 53 -33q96 -109 163 -185.5t106 -115.5q4 -4 4 -6v-6q2 -8 -10.5 -13t-16.5 -9q-6 -4 -14 -4q-84 47 -159 102t-157 108q-35 23 -51 40.5t-26 39.5z" />
<glyph unicode="&#xda;" horiz-adv-x="1775" d="M-20 1669q0 27 18 27h489q8 0 17.5 -5t9.5 -22v-1032q0 -242 90 -361q80 -102 225 -102q39 0 79 15.5t69 29.5q98 53 150.5 117.5t78.5 163.5q12 41 17.5 105.5t5.5 115.5v895q-16 20 -54 25.5t-79 7.5q-14 0 -27.5 1t-36.5 1q-20 0 -53 1t-80 1q-25 0 -25 26 q0 12 7.5 22.5t31.5 10.5l564 -4q10 0 16 -11t6 -28l-16 -1487q8 -10 29.5 -12t37.5 -2q55 0 106.5 10t110.5 10q20 0 21 -22q0 -12 -14.5 -19.5t-34 -12.5t-42 -9t-36.5 -8q-55 -12 -116.5 -25.5t-121.5 -36.5q-16 -6 -40.5 -16t-49 -19.5t-46 -16.5t-32.5 -7 q-10 0 -18 7.5t-8 19.5v309q0 6 -2 24.5t-4 30.5q0 4 -4 8q-2 2 -5 2q-8 0 -14 -12q-20 -43 -33.5 -70.5t-28 -50t-34 -46t-51.5 -56.5q-35 -37 -85 -66.5t-106.5 -49t-113 -30t-105.5 -10.5q-47 0 -92 9.5t-70 21.5q-82 47 -132 114.5t-66 127.5q-10 33 -17.5 98t-11.5 136 t-6 130t-2 78v901q0 16 -23 16h-225q-18 0 -18 31zM876 1819q0 10 7 14q37 35 104.5 105.5t177.5 179.5q33 33 82 32q35 0 57.5 -17t22.5 -52q0 -13 -2 -19q-4 -20 -25.5 -40.5t-56.5 -41.5q-43 -23 -89 -50t-90 -54t-83 -49.5t-66 -34.5q-2 0 -4 -1t-6 -1q-6 2 -17.5 10 t-11.5 19z" />
<glyph unicode="&#xdb;" horiz-adv-x="1775" d="M-20 1669q0 27 18 27h489q8 0 17.5 -5t9.5 -22v-1032q0 -242 90 -361q80 -102 225 -102q39 0 79 15.5t69 29.5q98 53 150.5 117.5t78.5 163.5q12 41 17.5 105.5t5.5 115.5v895q-16 20 -54 25.5t-79 7.5q-14 0 -27.5 1t-36.5 1q-20 0 -53 1t-80 1q-25 0 -25 26 q0 12 7.5 22.5t31.5 10.5l564 -4q10 0 16 -11t6 -28l-16 -1487q8 -10 29.5 -12t37.5 -2q55 0 106.5 10t110.5 10q20 0 21 -22q0 -12 -14.5 -19.5t-34 -12.5t-42 -9t-36.5 -8q-55 -12 -116.5 -25.5t-121.5 -36.5q-16 -6 -40.5 -16t-49 -19.5t-46 -16.5t-32.5 -7 q-10 0 -18 7.5t-8 19.5v309q0 6 -2 24.5t-4 30.5q0 4 -4 8q-2 2 -5 2q-8 0 -14 -12q-20 -43 -33.5 -70.5t-28 -50t-34 -46t-51.5 -56.5q-35 -37 -85 -66.5t-106.5 -49t-113 -30t-105.5 -10.5q-47 0 -92 9.5t-70 21.5q-82 47 -132 114.5t-66 127.5q-10 33 -17.5 98t-11.5 136 t-6 130t-2 78v901q0 16 -23 16h-225q-18 0 -18 31zM534 1810l277 308q25 33 51 32q33 0 53 -32l279 -308q-6 -12 -25 -12q-20 0 -28 12l-279 172l-260 -172q-18 -16 -37 -16q-17 0 -31 16z" />
<glyph unicode="&#xdc;" horiz-adv-x="1775" d="M-20 1669q0 27 18 27h489q8 0 17.5 -5t9.5 -22v-1032q0 -242 90 -361q80 -102 225 -102q39 0 79 15.5t69 29.5q98 53 150.5 117.5t78.5 163.5q12 41 17.5 105.5t5.5 115.5v895q-16 20 -54 25.5t-79 7.5q-14 0 -27.5 1t-36.5 1q-20 0 -53 1t-80 1q-25 0 -25 26 q0 12 7.5 22.5t31.5 10.5l564 -4q10 0 16 -11t6 -28l-16 -1487q8 -10 29.5 -12t37.5 -2q55 0 106.5 10t110.5 10q20 0 21 -22q0 -12 -14.5 -19.5t-34 -12.5t-42 -9t-36.5 -8q-55 -12 -116.5 -25.5t-121.5 -36.5q-16 -6 -40.5 -16t-49 -19.5t-46 -16.5t-32.5 -7 q-10 0 -18 7.5t-8 19.5v309q0 6 -2 24.5t-4 30.5q0 4 -4 8q-2 2 -5 2q-8 0 -14 -12q-20 -43 -33.5 -70.5t-28 -50t-34 -46t-51.5 -56.5q-35 -37 -85 -66.5t-106.5 -49t-113 -30t-105.5 -10.5q-47 0 -92 9.5t-70 21.5q-82 47 -132 114.5t-66 127.5q-10 33 -17.5 98t-11.5 136 t-6 130t-2 78v901q0 16 -23 16h-225q-18 0 -18 31zM521 1980q0 51 30.5 90t83.5 39q23 0 48.5 -9t48 -25.5t37 -39t14.5 -48.5q0 -20 -12.5 -43t-32 -42.5t-43 -31.5t-45.5 -12q-20 0 -43 10t-42.5 27.5t-31.5 38.5t-12 46zM955 1983q0 51 30.5 90t83.5 39q23 0 48.5 -9.5 t47 -25t36 -39t14.5 -49.5q0 -20 -12.5 -43t-32 -42.5t-43 -31.5t-45.5 -12q-20 0 -43 10t-41.5 27.5t-30.5 39t-12 46.5z" />
<glyph unicode="&#xdd;" horiz-adv-x="1560" d="M-90 1679q0 8 18.5 12.5t28.5 4.5h16q25 0 46.5 -3t54.5 -7q59 -8 120.5 -9.5t122.5 -1.5q82 0 172.5 10.5t176.5 10.5q12 0 31.5 -2t19.5 -19q0 -27 -23 -28q-37 -6 -80 -7q-31 0 -58.5 -4t-49 -17t-33.5 -38t-12 -63q0 -12 7 -31t17.5 -37t20.5 -35.5t16 -25.5 l334 -523q8 -10 19.5 -20t19.5 -10q10 0 21.5 9t21.5 23l250 457q25 47 34 99.5t9 86.5q0 29 -10.5 46.5t-32.5 41.5q-23 20 -46.5 29.5t-48 13t-49 5.5t-49.5 8q-23 6 -22 26q0 10 10 18.5t21 8.5q94 0 162.5 -6t146.5 -6q47 0 76.5 2t61.5 4t75 4t119 2q16 0 27 -2t11 -10 q0 -16 -24.5 -27.5t-56 -20t-63.5 -13.5t-44 -11q-59 -33 -100 -74t-76 -93t-68.5 -118.5t-81.5 -152.5q-53 -102 -111.5 -199.5t-99.5 -206.5q-4 -14 -8 -46t-7 -66.5t-4 -66.5t-1 -44l-27 -475q14 -8 33 -15.5t49.5 -12.5t76.5 -8t116 -3q16 0 16 -23q0 -20 -19.5 -25 t-37.5 -5q-94 0 -188.5 5t-159.5 5q-47 0 -80 -1t-68 -1t-83 -1t-126 -1q-33 0 -32 20q0 14 10 21q4 2 17.5 5t28.5 4t28.5 2t19.5 1q47 4 86 9t70 44l18 514q0 29 -16.5 78t-48.5 103l-367 610q-31 53 -69 104.5t-93 85.5q-14 8 -44 16.5t-60.5 18.5t-54 21.5t-23.5 25.5z M839 1819q0 10 7 14q37 35 104.5 105.5t177.5 179.5q33 33 82 32q35 0 57.5 -17t22.5 -52q0 -13 -2 -19q-4 -20 -25.5 -40.5t-56.5 -41.5q-43 -23 -89 -50t-90 -54t-83 -49.5t-66 -34.5q-2 0 -4 -1t-6 -1q-6 2 -17.5 10t-11.5 19z" />
<glyph unicode="&#xde;" horiz-adv-x="1460" d="M80 25q0 23 20 28q27 6 47.5 10.5t43 8.5t49 9t67.5 13q20 6 24.5 26.5t4.5 51.5v1333q0 49 -17.5 76t-44 37t-58.5 12t-58.5 3t-44 8.5t-17.5 29.5q0 16 14.5 20.5t28.5 4.5h66q59 0 100 -6.5t96 -6.5q57 0 101.5 3.5t84.5 6.5t81 6t90 3h80q16 0 26 -6t17 -8 q4 -12 6 -13.5t2 -11.5q0 -12 -20.5 -20.5t-48 -13.5t-54.5 -9t-39 -6q-18 -4 -39.5 -7t-40 -9.5t-30 -18.5t-11.5 -35v-221q63 61 142 88t170 27q158 0 265 -91.5t173 -232.5q25 -51 32 -109.5t7 -117.5q0 -113 -44 -211t-119 -171t-176.5 -115t-215.5 -42 q-39 0 -91.5 13.5t-99.5 29.5q-16 6 -26 6q-6 0 -23 -8l6 -252q0 -37 39 -50t85 -17t85 -10.5t39 -30.5q0 -12 -7 -16.5t-13 -6.5q-16 -4 -40 -8t-42 -4q-84 0 -146.5 7t-138.5 7q-18 0 -53 -1t-73 -3t-76 -3t-64 -1h-95q-6 0 -16 6t-10 19zM584 1217l2 -105q2 -25 4 -65.5 t5 -105t7 -159t8 -223.5q0 -12 14.5 -28.5t24.5 -26.5q61 -51 113.5 -81t124.5 -30q57 0 101 25.5t77 65.5t56.5 88.5t39.5 95.5q4 12 7 33.5t6.5 46t4.5 49t1 43.5q0 90 -23.5 183t-73 170t-125 125t-182.5 48q-76 0 -128 -41t-64 -108z" />
<glyph unicode="&#xdf;" horiz-adv-x="1599" d="M106 178q0 33 14.5 64.5t22.5 58.5q0 6 3.5 20.5t6.5 31t7 31.5t6 22q2 14 18 14q14 0 19 -23v-47q0 -2 4 -18q10 -53 29.5 -102.5t52.5 -87.5t77 -61.5t103 -23.5q43 0 84 13.5t71.5 39t49 61.5t18.5 83q0 94 -43 146.5t-108.5 83t-141 53t-141 58.5t-109 97.5 t-43.5 171.5q0 53 18.5 90t33.5 60q35 57 106.5 105t175.5 48q47 0 100.5 -18.5t94.5 -48.5l25.5 -25.5t25.5 -13.5q18 0 28.5 11t22.5 30q4 4 8 4q6 0 9.5 -19.5t3.5 -27.5q0 -6 -6.5 -46t-16.5 -86t-22.5 -83t-22.5 -37h-4q-4 0 -4 6q-18 35 -19 52.5t-6 45.5 q-4 20 -12 35q-14 39 -31.5 63.5t-46.5 51.5q-18 20 -34.5 31.5t-35 16.5t-42 6t-58.5 1q-33 0 -60.5 -15.5t-48 -40t-31.5 -57t-11 -67.5q0 -74 39 -115t99 -67.5t132 -48t137.5 -55.5t114.5 -89t66 -149q2 8 16 8t18 -23v-47q0 -2 4 -18q10 -53 30 -102.5t52.5 -87.5 t76.5 -61.5t104 -23.5q43 0 84 13.5t71.5 39t49 61.5t18.5 83q0 94 -43 146.5t-108.5 83t-141.5 53t-141.5 58.5t-108.5 97.5t-43 171.5q0 53 18.5 90t32.5 60q35 57 106.5 105t176.5 48q47 0 100.5 -18.5t93.5 -48.5l25.5 -25.5t26.5 -13.5q18 0 28.5 11t22.5 30q4 4 8 4 q6 0 9 -19.5t3 -27.5q0 -6 -6 -46t-16 -86t-22.5 -83t-22.5 -37h-4q-4 0 -4 6q-18 35 -19.5 52.5t-5.5 45.5q-4 20 -12 35q-14 39 -31.5 63.5t-46.5 51.5q-18 20 -34.5 31.5t-35 16.5t-42 6t-58.5 1q-33 0 -60.5 -15.5t-48 -40t-32 -57t-11.5 -67.5q0 -78 44 -120 t109.5 -68.5t143.5 -50t143.5 -64.5t109.5 -110.5t44 -188.5q0 -59 -29.5 -118.5t-76.5 -111.5q-43 -47 -128 -75.5t-171 -28.5q-39 0 -90.5 14.5t-98.5 38t-85 51t-50 54.5q-20 -31 -43 -54q-43 -47 -128 -75.5t-171 -28.5q-43 0 -99 18.5t-107.5 45t-86.5 57t-35 57.5z " />
<glyph unicode="&#xe0;" horiz-adv-x="1128" d="M-20 33q0 4 6 14t20 10q39 0 84 23.5t70 79.5l313 743q2 2 6 11.5t4 15.5q0 27 -19.5 49t-19.5 37q0 12 8.5 19t19.5 11.5t23.5 5.5t22.5 3q10 4 23.5 15t21.5 20q8 12 11.5 32.5t23.5 20.5q23 0 29 -21l338 -1013q14 -45 38.5 -53.5t65.5 -8.5h43q10 0 16 -2 q6 0 13.5 -8t7.5 -14q0 -18 -21 -21q-2 -2 -16 -2h-68q-35 0 -79.5 4t-90.5 4q-72 0 -141 -4t-123 -4q-6 0 -12 2t-6 10q0 14 20.5 27.5t36.5 13.5q10 0 22.5 -1t26.5 -1q39 0 62 8q20 6 20 29q0 2 -1 5t-3 11q-4 10 -14 40t-22.5 64t-23.5 65.5t-18 50.5q-4 10 -10 20 t-18 10h-332q-29 0 -39 -28l-47 -172q-2 -8 -3 -14.5t-1 -16.5q0 -37 12 -48.5t47 -15.5q6 0 19.5 -2t29 -4t28.5 -4t19 -2q6 -2 17.5 -11t11.5 -20q0 -16 -22 -16h-37q-18 0 -51 1t-66 1t-78 -1t-92 -1q-6 0 -23.5 2t-36 6t-32.5 10.5t-14 14.5zM136 1622q0 39 17 61.5 t62 22.5q35 0 67 -15.5t48 -43.5q88 -152 153.5 -248t92.5 -150q2 -4 2 -12q0 -12 -14.5 -18.5t-24.5 -6.5h-6q-4 0 -6 2q-35 31 -77 69t-86 78t-84 76t-71 64q-31 29 -52 62.5t-21 58.5zM344 440q0 -12 8 -21t21 -9q72 0 137 -5.5t125 -5.5q12 0 19.5 7.5t7.5 15.5v12 q-2 2 -3 4q0 2 -1 5t-1 8l-127 360q-10 25 -22 25q-6 0 -13.5 -5.5t-9.5 -9.5l-139 -362q-2 -2 -2 -13v-6z" />
<glyph unicode="&#xe1;" horiz-adv-x="1128" d="M-20 33q0 4 6 14t20 10q39 0 84 23.5t70 79.5l313 743q2 2 6 11.5t4 15.5q0 27 -19.5 49t-19.5 37q0 12 8.5 19t19.5 11.5t23.5 5.5t22.5 3q10 4 23.5 15t21.5 20q8 12 11.5 32.5t23.5 20.5q23 0 29 -21l338 -1013q14 -45 38.5 -53.5t65.5 -8.5h43q10 0 16 -2 q6 0 13.5 -8t7.5 -14q0 -18 -21 -21q-2 -2 -16 -2h-68q-35 0 -79.5 4t-90.5 4q-72 0 -141 -4t-123 -4q-6 0 -12 2t-6 10q0 14 20.5 27.5t36.5 13.5q10 0 22.5 -1t26.5 -1q39 0 62 8q20 6 20 29q0 2 -1 5t-3 11q-4 10 -14 40t-22.5 64t-23.5 65.5t-18 50.5q-4 10 -10 20 t-18 10h-332q-29 0 -39 -28l-47 -172q-2 -8 -3 -14.5t-1 -16.5q0 -37 12 -48.5t47 -15.5q6 0 19.5 -2t29 -4t28.5 -4t19 -2q6 -2 17.5 -11t11.5 -20q0 -16 -22 -16h-37q-18 0 -51 1t-66 1t-78 -1t-92 -1q-6 0 -23.5 2t-36 6t-32.5 10.5t-14 14.5zM344 440q0 -12 8 -21t21 -9 q72 0 137 -5.5t125 -5.5q12 0 19.5 7.5t7.5 15.5v12q-2 2 -3 4q0 2 -1 5t-1 8l-127 360q-10 25 -22 25q-6 0 -13.5 -5.5t-9.5 -9.5l-139 -362q-2 -2 -2 -13v-6zM590 1235q0 8 2 12q27 53 87.5 148.5t158.5 249.5q16 29 48 44t67 15q45 0 62.5 -22.5t17.5 -61.5 q0 -25 -19.5 -57.5t-56.5 -61.5q-41 -35 -84 -72.5t-85 -76.5t-79 -75t-68 -65q-2 -2 -6 -2h-6q-10 0 -24.5 6.5t-14.5 18.5z" />
<glyph unicode="&#xe2;" horiz-adv-x="1128" d="M-20 33q0 4 6 14t20 10q39 0 84 23.5t70 79.5l313 743q2 2 6 11.5t4 15.5q0 27 -19.5 49t-19.5 37q0 12 8.5 19t19.5 11.5t23.5 5.5t22.5 3q10 4 23.5 15t21.5 20q8 12 11.5 32.5t23.5 20.5q23 0 29 -21l338 -1013q14 -45 38.5 -53.5t65.5 -8.5h43q10 0 16 -2 q6 0 13.5 -8t7.5 -14q0 -18 -21 -21q-2 -2 -16 -2h-68q-35 0 -79.5 4t-90.5 4q-72 0 -141 -4t-123 -4q-6 0 -12 2t-6 10q0 14 20.5 27.5t36.5 13.5q10 0 22.5 -1t26.5 -1q39 0 62 8q20 6 20 29q0 2 -1 5t-3 11q-4 10 -14 40t-22.5 64t-23.5 65.5t-18 50.5q-4 10 -10 20 t-18 10h-332q-29 0 -39 -28l-47 -172q-2 -8 -3 -14.5t-1 -16.5q0 -37 12 -48.5t47 -15.5q6 0 19.5 -2t29 -4t28.5 -4t19 -2q6 -2 17.5 -11t11.5 -20q0 -16 -22 -16h-37q-18 0 -51 1t-66 1t-78 -1t-92 -1q-6 0 -23.5 2t-36 6t-32.5 10.5t-14 14.5zM229 1235l277 371 q25 27 51 26q33 0 53 -26l279 -371q-6 -10 -25 -10q-20 0 -28 10l-279 233l-260 -233q-20 -14 -37 -14t-31 14zM344 440q0 -12 8 -21t21 -9q72 0 137 -5.5t125 -5.5q12 0 19.5 7.5t7.5 15.5v12q-2 2 -3 4q0 2 -1 5t-1 8l-127 360q-10 25 -22 25q-6 0 -13.5 -5.5t-9.5 -9.5 l-139 -362q-2 -2 -2 -13v-6z" />
<glyph unicode="&#xe3;" horiz-adv-x="1128" d="M-20 33q0 4 6 14t20 10q39 0 84 23.5t70 79.5l313 743q2 2 6 11.5t4 15.5q0 27 -19.5 49t-19.5 37q0 12 8.5 19t19.5 11.5t23.5 5.5t22.5 3q10 4 23.5 15t21.5 20q8 12 11.5 32.5t23.5 20.5q23 0 29 -21l338 -1013q14 -45 38.5 -53.5t65.5 -8.5h43q10 0 16 -2 q6 0 13.5 -8t7.5 -14q0 -18 -21 -21q-2 -2 -16 -2h-68q-35 0 -79.5 4t-90.5 4q-72 0 -141 -4t-123 -4q-6 0 -12 2t-6 10q0 14 20.5 27.5t36.5 13.5q10 0 22.5 -1t26.5 -1q39 0 62 8q20 6 20 29q0 2 -1 5t-3 11q-4 10 -14 40t-22.5 64t-23.5 65.5t-18 50.5q-4 10 -10 20 t-18 10h-332q-29 0 -39 -28l-47 -172q-2 -8 -3 -14.5t-1 -16.5q0 -37 12 -48.5t47 -15.5q6 0 19.5 -2t29 -4t28.5 -4t19 -2q6 -2 17.5 -11t11.5 -20q0 -16 -22 -16h-37q-18 0 -51 1t-66 1t-78 -1t-92 -1q-6 0 -23.5 2t-36 6t-32.5 10.5t-14 14.5zM174 1462q35 106 106 131 q23 8 60 9q45 0 90 -16.5t86 -39.5q47 -25 105.5 -50.5t115.5 -25.5q31 0 61 13q35 10 63 37.5t48 87.5q10 0 19.5 -34t9.5 -61q0 -6 -2 -11t-4 -9q-20 -51 -50 -79t-65 -42q-35 -12 -64 -12q-45 0 -86 14.5t-75 34.5q-59 31 -123 59.5t-123 28.5q-29 0 -51 -8 q-31 -12 -55 -41t-40 -88q-6 0 -11 12t-9 23q-6 33 -6 67zM344 440q0 -12 8 -21t21 -9q72 0 137 -5.5t125 -5.5q12 0 19.5 7.5t7.5 15.5v12q-2 2 -3 4q0 2 -1 5t-1 8l-127 360q-10 25 -22 25q-6 0 -13.5 -5.5t-9.5 -9.5l-139 -362q-2 -2 -2 -13v-6z" />
<glyph unicode="&#xe4;" horiz-adv-x="1128" d="M-20 33q0 4 6 14t20 10q39 0 84 23.5t70 79.5l313 743q2 2 6 11.5t4 15.5q0 27 -19.5 49t-19.5 37q0 12 8.5 19t19.5 11.5t23.5 5.5t22.5 3q10 4 23.5 15t21.5 20q8 12 11.5 32.5t23.5 20.5q23 0 29 -21l338 -1013q14 -45 38.5 -53.5t65.5 -8.5h43q10 0 16 -2 q6 0 13.5 -8t7.5 -14q0 -18 -21 -21q-2 -2 -16 -2h-68q-35 0 -79.5 4t-90.5 4q-72 0 -141 -4t-123 -4q-6 0 -12 2t-6 10q0 14 20.5 27.5t36.5 13.5q10 0 22.5 -1t26.5 -1q39 0 62 8q20 6 20 29q0 2 -1 5t-3 11q-4 10 -14 40t-22.5 64t-23.5 65.5t-18 50.5q-4 10 -10 20 t-18 10h-332q-29 0 -39 -28l-47 -172q-2 -8 -3 -14.5t-1 -16.5q0 -37 12 -48.5t47 -15.5q6 0 19.5 -2t29 -4t28.5 -4t19 -2q6 -2 17.5 -11t11.5 -20q0 -16 -22 -16h-37q-18 0 -51 1t-66 1t-78 -1t-92 -1q-6 0 -23.5 2t-36 6t-32.5 10.5t-14 14.5zM209 1427q0 51 30.5 90 t83.5 39q23 0 48.5 -9t48 -25.5t37 -39t14.5 -48.5q0 -20 -12.5 -43t-32 -42.5t-43 -31.5t-45.5 -12q-20 0 -43 10t-42.5 27.5t-31.5 38.5t-12 46zM344 440q0 -12 8 -21t21 -9q72 0 137 -5.5t125 -5.5q12 0 19.5 7.5t7.5 15.5v12q-2 2 -3 4q0 2 -1 5t-1 8l-127 360 q-10 25 -22 25q-6 0 -13.5 -5.5t-9.5 -9.5l-139 -362q-2 -2 -2 -13v-6zM643 1430q0 51 30.5 90t83.5 39q23 0 48.5 -9.5t47 -25t36 -39t14.5 -49.5q0 -20 -12.5 -43t-32 -42.5t-43 -31.5t-45.5 -12q-20 0 -43 10t-41.5 27.5t-30.5 39t-12 46.5z" />
<glyph unicode="&#xe5;" horiz-adv-x="1128" d="M-20 33q0 4 6 14t20 10q39 0 84 23.5t70 79.5l313 743q2 2 6 11.5t4 15.5q0 27 -19.5 49t-19.5 37q0 12 8.5 19t19.5 11.5t23.5 5.5t22.5 3q10 4 23.5 15t21.5 20q8 12 11.5 32.5t23.5 20.5q23 0 29 -21l338 -1013q14 -45 38.5 -53.5t65.5 -8.5h43q10 0 16 -2 q6 0 13.5 -8t7.5 -14q0 -18 -21 -21q-2 -2 -16 -2h-68q-35 0 -79.5 4t-90.5 4q-72 0 -141 -4t-123 -4q-6 0 -12 2t-6 10q0 14 20.5 27.5t36.5 13.5q10 0 22.5 -1t26.5 -1q39 0 62 8q20 6 20 29q0 2 -1 5t-3 11q-4 10 -14 40t-22.5 64t-23.5 65.5t-18 50.5q-4 10 -10 20 t-18 10h-332q-29 0 -39 -28l-47 -172q-2 -8 -3 -14.5t-1 -16.5q0 -37 12 -48.5t47 -15.5q6 0 19.5 -2t29 -4t28.5 -4t19 -2q6 -2 17.5 -11t11.5 -20q0 -16 -22 -16h-37q-18 0 -51 1t-66 1t-78 -1t-92 -1q-6 0 -23.5 2t-36 6t-32.5 10.5t-14 14.5zM318 1520q0 41 16.5 84 t48.5 77q31 27 73 49.5t87 22.5q49 0 92 -18.5t76 -51t51.5 -76.5t18.5 -94q0 -78 -40 -127t-93 -71q-47 -27 -86 -27q-59 0 -97.5 19.5t-62.5 38.5q-45 35 -64.5 84t-19.5 90zM344 440q0 -12 8 -21t21 -9q72 0 137 -5.5t125 -5.5q12 0 19.5 7.5t7.5 15.5v12q-2 2 -3 4 q0 2 -1 5t-1 8l-127 360q-10 25 -22 25q-6 0 -13.5 -5.5t-9.5 -9.5l-139 -362q-2 -2 -2 -13v-6zM394 1530q0 -31 6 -55.5t28 -49.5q29 -35 57.5 -44t69.5 -9q33 0 63 11.5t48 31.5q23 20 31 52t8 59q0 74 -70 131q-14 6 -32.5 13t-51.5 7q-53 0 -84.5 -23.5t-50.5 -47.5 q-10 -10 -16 -34t-6 -42z" />
<glyph unicode="&#xe6;" horiz-adv-x="1695" d="M-20 29q0 25 23.5 40t57 31.5t68.5 37t57 55.5q63 104 113.5 203.5t112.5 197.5q49 90 81.5 147.5t55 94t38 60.5t29.5 44t32 42t33 44.5t25.5 45t10.5 42.5h-109q-23 0 -34 17.5t-11 27.5q0 4 6 14.5t19 10.5h41q72 0 141.5 -3t140.5 -3q57 0 112.5 3t111.5 3 q86 0 171 -1t162 -5q14 -4 17.5 -9.5t5.5 -13.5v-78v-114q-2 -23 -6 -45.5t-33 -22.5q-18 0 -34.5 22.5t-32 52t-30 59.5t-28.5 44q-2 2 -10 12.5t-10 12.5t-23 12q-35 8 -86 8q-35 0 -71.5 1t-71.5 1q-12 0 -37 -2t-25 -14v-473l8 -10q4 0 26 -1.5t32 -1.5q49 0 91 4.5 t89 20.5q16 14 31.5 51t29 77t27.5 70.5t27 30.5q8 0 18 -12q2 -10 4 -34.5t2 -32.5q2 -88 6.5 -185.5t4.5 -189.5q0 -25 -3.5 -41.5t-7.5 -44.5q-4 -8 -17 -15.5t-24 -7.5h-2l-22 23q0 6 -3 22.5t-7.5 35t-7.5 33.5t-5 21q-2 10 -9 25.5t-17.5 29t-22.5 23.5t-24 10h-216 v-419q0 -10 9.5 -24.5t21.5 -14.5h127q98 0 190.5 10t170.5 70q16 12 22 36.5t12.5 48t16.5 41t35 17.5q33 0 32 -33v-12q0 -8 -1 -38t-3 -63.5t-3 -62.5t-1 -37q0 -25 -10 -40t-41 -15q-6 0 -28.5 2t-30.5 2h-332q-4 0 -17.5 1t-29 3t-28.5 3t-15 1h-11q-104 0 -208.5 -4 t-208.5 -4q-23 0 -39.5 7t-16.5 30q0 29 29 37t59 8q16 0 31 -1t25 -1q8 6 13 20.5t9 18.5v65q0 86 -3 162t-3 162q0 10 -10 10h-295q-18 0 -36.5 -24.5t-34 -59.5t-29 -71.5t-21.5 -59.5q-10 -23 -26.5 -61.5t-16.5 -73.5t20.5 -55.5t46 -33.5t46 -23.5t20.5 -22.5 t-20.5 -22.5t-30.5 -10.5h-385q-14 0 -18 9t-4 20zM520 631q4 -18 23 -23h88q16 0 32.5 -1t32.5 -1q41 0 68 8q2 0 4 2l4 5q6 47 7 112.5t1 130.5v41q0 35 -1 74t-5 63q-6 8 -12 9q-14 0 -27 -13q-23 -33 -38 -61.5t-29.5 -56t-27.5 -57t-32 -64.5q-6 -10 -18 -34 t-26.5 -50.5t-27 -51t-16.5 -32.5z" />
<glyph unicode="&#xe7;" horiz-adv-x="1097" d="M106 571q0 129 58.5 242t169.5 211q66 55 134.5 86t154.5 31q35 0 65.5 -3t61 -10.5t64.5 -20.5t77 -32q2 -2 8 -2q14 0 21.5 8.5t12.5 19.5t11 19t19 8q4 0 10 -6t6 -12v-260q0 -14 -8 -25.5t-21 -11.5q-18 0 -31.5 16.5t-23.5 39t-19.5 45t-17.5 34.5 q-25 35 -48.5 55.5t-61.5 40.5q-29 14 -66 22.5t-84 8.5t-96 -23.5t-78 -64.5q-45 -59 -72.5 -157.5t-27.5 -196.5q0 -14 2 -50t9 -81t19.5 -92.5t32.5 -83.5q45 -88 121 -145.5t174 -59.5q29 0 57.5 7t51.5 17q6 2 16 9.5t21.5 16.5t22.5 18.5t17 15.5q33 35 51.5 81 t22.5 64q2 14 23 15q12 0 15 -19.5t3 -26.5q0 -72 -31.5 -130t-85.5 -99q-51 -41 -110.5 -65.5t-124.5 -24.5q-164 0 -272.5 71.5t-170.5 182.5q-39 66 -60.5 152t-21.5 165zM324 -283q0 16 2 26.5t12 23.5q4 6 16.5 19t24.5 27.5t23.5 27t15.5 16.5q14 14 33.5 34.5 t36.5 36.5q25 29 38 48.5t23 31.5l2 4h62q0 -6 -2 -8q-14 -27 -18.5 -38t-16.5 -44q72 -8 135 -49t92 -106q12 -27 17.5 -56.5t5.5 -60.5q0 -23 -13.5 -54.5t-29.5 -56.5q-20 -27 -55.5 -53.5t-69.5 -42.5q-31 -16 -76 -28.5t-86 -12.5q-27 2 -54.5 5t-37.5 26q0 8 10 10 t25 6q29 4 67.5 13.5t67.5 21.5q25 10 45 30.5t35.5 44t23.5 46t8 37.5q0 23 -10 47t-20 41q-49 55 -144 59q-20 0 -38.5 -7t-34.5 -15q-23 -10 -44.5 -30t-44.5 -30q-2 0 -3 -1t-3 -1q-4 0 -10 4t-10 8z" />
<glyph unicode="&#xe8;" horiz-adv-x="1146" d="M49 1118q0 6 3 15.5t16 9.5h194q113 0 223.5 1t202.5 1h168q39 0 80 -2t57 -2q16 -2 19.5 -25.5t3.5 -36.5v-192q0 -10 -8 -10q-12 0 -19.5 17t-19.5 40q-10 27 -25.5 52.5t-23.5 39.5q-10 20 -33 31.5t-49.5 17.5t-55 10.5t-49.5 8.5q-6 0 -36.5 1t-67.5 2t-73 2t-56 1 q-25 0 -31 -14.5t-6 -43.5v-421q0 -10 7.5 -19.5t21.5 -9.5l202 8q47 4 72 23.5t37 47t19 61.5t20 65q2 14 12 14q16 0 16 -8v-47q0 -47 -4 -102.5t-4 -94.5t6 -81t6 -87q0 -6 -1 -19.5t-3 -26.5t-7 -24.5t-11 -11.5q-12 0 -15 12.5t-6 22.5q-2 14 -8 34.5t-13 41t-13 37 t-9 22.5q-10 20 -40.5 33.5t-69.5 20t-80 8.5t-72 2h-34q-18 0 -23.5 -8.5t-5.5 -24.5v-416q0 -35 22 -45h361q23 0 48.5 1t33.5 5q18 4 30.5 20.5t20.5 30.5q4 6 14.5 25t21.5 40.5t21.5 40.5t14.5 26q6 14 22 14q10 0 17 -8v-176q0 -10 -2.5 -19.5t-4.5 -21.5 q-4 -16 -11 -22.5t-28 -10.5q-121 0 -227 1t-217 2t-232.5 2t-271.5 1q-20 0 -20 20q0 12 13 19.5t24 9.5q8 0 23.5 1t33.5 2t36.5 2t31.5 1q29 0 28 45v875q0 20 -4 49t-16 49q-6 6 -8 6l-166 17q-23 0 -23 22zM166 1622q0 39 17 61.5t62 22.5q35 0 67 -15.5t48 -43.5 q88 -152 153.5 -248t92.5 -150q2 -4 2 -12q0 -12 -14.5 -18.5t-24.5 -6.5h-6q-4 0 -6 2q-35 31 -77 69t-86 78t-84 76t-71 64q-31 29 -52 62.5t-21 58.5z" />
<glyph unicode="&#xe9;" horiz-adv-x="1146" d="M49 1118q0 6 3 15.5t16 9.5h194q113 0 223.5 1t202.5 1h168q39 0 80 -2t57 -2q16 -2 19.5 -25.5t3.5 -36.5v-192q0 -10 -8 -10q-12 0 -19.5 17t-19.5 40q-10 27 -25.5 52.5t-23.5 39.5q-10 20 -33 31.5t-49.5 17.5t-55 10.5t-49.5 8.5q-6 0 -36.5 1t-67.5 2t-73 2t-56 1 q-25 0 -31 -14.5t-6 -43.5v-421q0 -10 7.5 -19.5t21.5 -9.5l202 8q47 4 72 23.5t37 47t19 61.5t20 65q2 14 12 14q16 0 16 -8v-47q0 -47 -4 -102.5t-4 -94.5t6 -81t6 -87q0 -6 -1 -19.5t-3 -26.5t-7 -24.5t-11 -11.5q-12 0 -15 12.5t-6 22.5q-2 14 -8 34.5t-13 41t-13 37 t-9 22.5q-10 20 -40.5 33.5t-69.5 20t-80 8.5t-72 2h-34q-18 0 -23.5 -8.5t-5.5 -24.5v-416q0 -35 22 -45h361q23 0 48.5 1t33.5 5q18 4 30.5 20.5t20.5 30.5q4 6 14.5 25t21.5 40.5t21.5 40.5t14.5 26q6 14 22 14q10 0 17 -8v-176q0 -10 -2.5 -19.5t-4.5 -21.5 q-4 -16 -11 -22.5t-28 -10.5q-121 0 -227 1t-217 2t-232.5 2t-271.5 1q-20 0 -20 20q0 12 13 19.5t24 9.5q8 0 23.5 1t33.5 2t36.5 2t31.5 1q29 0 28 45v875q0 20 -4 49t-16 49q-6 6 -8 6l-166 17q-23 0 -23 22zM579 1235q0 8 2 12q27 53 87.5 148.5t158.5 249.5 q16 29 48 44t67 15q45 0 62.5 -22.5t17.5 -61.5q0 -25 -19.5 -57.5t-56.5 -61.5q-41 -35 -84 -72.5t-85 -76.5t-79 -75t-68 -65q-2 -2 -6 -2h-6q-10 0 -24.5 6.5t-14.5 18.5z" />
<glyph unicode="&#xea;" horiz-adv-x="1146" d="M49 1118q0 6 3 15.5t16 9.5h194q113 0 223.5 1t202.5 1h168q39 0 80 -2t57 -2q16 -2 19.5 -25.5t3.5 -36.5v-192q0 -10 -8 -10q-12 0 -19.5 17t-19.5 40q-10 27 -25.5 52.5t-23.5 39.5q-10 20 -33 31.5t-49.5 17.5t-55 10.5t-49.5 8.5q-6 0 -36.5 1t-67.5 2t-73 2t-56 1 q-25 0 -31 -14.5t-6 -43.5v-421q0 -10 7.5 -19.5t21.5 -9.5l202 8q47 4 72 23.5t37 47t19 61.5t20 65q2 14 12 14q16 0 16 -8v-47q0 -47 -4 -102.5t-4 -94.5t6 -81t6 -87q0 -6 -1 -19.5t-3 -26.5t-7 -24.5t-11 -11.5q-12 0 -15 12.5t-6 22.5q-2 14 -8 34.5t-13 41t-13 37 t-9 22.5q-10 20 -40.5 33.5t-69.5 20t-80 8.5t-72 2h-34q-18 0 -23.5 -8.5t-5.5 -24.5v-416q0 -35 22 -45h361q23 0 48.5 1t33.5 5q18 4 30.5 20.5t20.5 30.5q4 6 14.5 25t21.5 40.5t21.5 40.5t14.5 26q6 14 22 14q10 0 17 -8v-176q0 -10 -2.5 -19.5t-4.5 -21.5 q-4 -16 -11 -22.5t-28 -10.5q-121 0 -227 1t-217 2t-232.5 2t-271.5 1q-20 0 -20 20q0 12 13 19.5t24 9.5q8 0 23.5 1t33.5 2t36.5 2t31.5 1q29 0 28 45v875q0 20 -4 49t-16 49q-6 6 -8 6l-166 17q-23 0 -23 22zM256 1235l277 371q25 27 51 26q33 0 53 -26l279 -371 q-6 -10 -25 -10q-20 0 -28 10l-279 233l-260 -233q-20 -14 -37 -14t-31 14z" />
<glyph unicode="&#xeb;" horiz-adv-x="1146" d="M49 1118q0 6 3 15.5t16 9.5h194q113 0 223.5 1t202.5 1h168q39 0 80 -2t57 -2q16 -2 19.5 -25.5t3.5 -36.5v-192q0 -10 -8 -10q-12 0 -19.5 17t-19.5 40q-10 27 -25.5 52.5t-23.5 39.5q-10 20 -33 31.5t-49.5 17.5t-55 10.5t-49.5 8.5q-6 0 -36.5 1t-67.5 2t-73 2t-56 1 q-25 0 -31 -14.5t-6 -43.5v-421q0 -10 7.5 -19.5t21.5 -9.5l202 8q47 4 72 23.5t37 47t19 61.5t20 65q2 14 12 14q16 0 16 -8v-47q0 -47 -4 -102.5t-4 -94.5t6 -81t6 -87q0 -6 -1 -19.5t-3 -26.5t-7 -24.5t-11 -11.5q-12 0 -15 12.5t-6 22.5q-2 14 -8 34.5t-13 41t-13 37 t-9 22.5q-10 20 -40.5 33.5t-69.5 20t-80 8.5t-72 2h-34q-18 0 -23.5 -8.5t-5.5 -24.5v-416q0 -35 22 -45h361q23 0 48.5 1t33.5 5q18 4 30.5 20.5t20.5 30.5q4 6 14.5 25t21.5 40.5t21.5 40.5t14.5 26q6 14 22 14q10 0 17 -8v-176q0 -10 -2.5 -19.5t-4.5 -21.5 q-4 -16 -11 -22.5t-28 -10.5q-121 0 -227 1t-217 2t-232.5 2t-271.5 1q-20 0 -20 20q0 12 13 19.5t24 9.5q8 0 23.5 1t33.5 2t36.5 2t31.5 1q29 0 28 45v875q0 20 -4 49t-16 49q-6 6 -8 6l-166 17q-23 0 -23 22zM275 1427q0 51 30.5 90t83.5 39q23 0 48.5 -9t48 -25.5 t37 -39t14.5 -48.5q0 -20 -12.5 -43t-32 -42.5t-43 -31.5t-45.5 -12q-20 0 -43 10t-42.5 27.5t-31.5 38.5t-12 46zM709 1430q0 51 30.5 90t83.5 39q23 0 48.5 -9.5t47 -25t36 -39t14.5 -49.5q0 -20 -12.5 -43t-32 -42.5t-43 -31.5t-45.5 -12q-20 0 -43 10t-41.5 27.5 t-30.5 39t-12 46.5z" />
<glyph unicode="&#xec;" horiz-adv-x="798" d="M15 1622q0 39 17 61.5t62 22.5q35 0 67 -15.5t48 -43.5q88 -152 153.5 -248t92.5 -150q2 -4 2 -12q0 -12 -14.5 -18.5t-24.5 -6.5h-6q-4 0 -6 2q-35 31 -77 69t-86 78t-84 76t-71 64q-31 29 -52 62.5t-21 58.5zM104 1114q-4 16 2.5 25.5t18.5 14.5t27.5 6t27.5 1h426h39 t10 -2q23 -4 23 -26q0 -25 -27.5 -32t-59.5 -8t-59.5 -4.5t-27.5 -19.5v-928q0 -6 1 -18t4 -24.5t9 -21.5t17 -9h131q12 0 21 -11.5t9 -23.5q0 -10 -11 -21.5t-21 -11.5h-371q-23 0 -47.5 -2t-52.5 -2q-35 0 -60 6q-8 6 -8 23q0 25 12 28q29 4 50.5 7t45.5 3q18 0 26.5 1.5 t19.5 3.5q16 6 16 49v944q0 14 -13.5 25.5t-27.5 11.5q-27 0 -42 -4t-38 -4q-27 0 -61 10q-8 2 -9 14z" />
<glyph unicode="&#xed;" horiz-adv-x="798" d="M104 1114q-4 16 2.5 25.5t18.5 14.5t27.5 6t27.5 1h426h39t10 -2q23 -4 23 -26q0 -25 -27.5 -32t-59.5 -8t-59.5 -4.5t-27.5 -19.5v-928q0 -6 1 -18t4 -24.5t9 -21.5t17 -9h131q12 0 21 -11.5t9 -23.5q0 -10 -11 -21.5t-21 -11.5h-371q-23 0 -47.5 -2t-52.5 -2 q-35 0 -60 6q-8 6 -8 23q0 25 12 28q29 4 50.5 7t45.5 3q18 0 26.5 1.5t19.5 3.5q16 6 16 49v944q0 14 -13.5 25.5t-27.5 11.5q-27 0 -42 -4t-38 -4q-27 0 -61 10q-8 2 -9 14zM360 1235q0 8 2 12q27 53 87.5 148.5t158.5 249.5q16 29 48 44t67 15q45 0 62.5 -22.5 t17.5 -61.5q0 -25 -19.5 -57.5t-56.5 -61.5q-41 -35 -84 -72.5t-85 -76.5t-79 -75t-68 -65q-2 -2 -6 -2h-6q-10 0 -24.5 6.5t-14.5 18.5z" />
<glyph unicode="&#xee;" horiz-adv-x="798" d="M71 1235l277 371q25 27 51 26q33 0 53 -26l279 -371q-6 -10 -25 -10q-20 0 -28 10l-279 233l-260 -233q-20 -14 -37 -14t-31 14zM104 1114q-4 16 2.5 25.5t18.5 14.5t27.5 6t27.5 1h426h39t10 -2q23 -4 23 -26q0 -25 -27.5 -32t-59.5 -8t-59.5 -4.5t-27.5 -19.5v-928 q0 -6 1 -18t4 -24.5t9 -21.5t17 -9h131q12 0 21 -11.5t9 -23.5q0 -10 -11 -21.5t-21 -11.5h-371q-23 0 -47.5 -2t-52.5 -2q-35 0 -60 6q-8 6 -8 23q0 25 12 28q29 4 50.5 7t45.5 3q18 0 26.5 1.5t19.5 3.5q16 6 16 49v944q0 14 -13.5 25.5t-27.5 11.5q-27 0 -42 -4t-38 -4 q-27 0 -61 10q-8 2 -9 14z" />
<glyph unicode="&#xef;" horiz-adv-x="798" d="M56 1427q0 51 30.5 90t83.5 39q23 0 48.5 -9t48 -25.5t37 -39t14.5 -48.5q0 -20 -12.5 -43t-32 -42.5t-43 -31.5t-45.5 -12q-20 0 -43 10t-42.5 27.5t-31.5 38.5t-12 46zM104 1114q-4 16 2.5 25.5t18.5 14.5t27.5 6t27.5 1h426h39t10 -2q23 -4 23 -26q0 -25 -27.5 -32 t-59.5 -8t-59.5 -4.5t-27.5 -19.5v-928q0 -6 1 -18t4 -24.5t9 -21.5t17 -9h131q12 0 21 -11.5t9 -23.5q0 -10 -11 -21.5t-21 -11.5h-371q-23 0 -47.5 -2t-52.5 -2q-35 0 -60 6q-8 6 -8 23q0 25 12 28q29 4 50.5 7t45.5 3q18 0 26.5 1.5t19.5 3.5q16 6 16 49v944 q0 14 -13.5 25.5t-27.5 11.5q-27 0 -42 -4t-38 -4q-27 0 -61 10q-8 2 -9 14zM490 1430q0 51 30.5 90t83.5 39q23 0 48.5 -9.5t47 -25t36 -39t14.5 -49.5q0 -20 -12.5 -43t-32 -42.5t-43 -31.5t-45.5 -12q-20 0 -43 10t-41.5 27.5t-30.5 39t-12 46.5z" />
<glyph unicode="&#xf0;" horiz-adv-x="1402" d="M57 20q0 8 9.5 14.5t20.5 9.5t21.5 5t14.5 2h27q29 0 61.5 4t42.5 11q14 14 14 71v387h-162q-8 0 -16 22.5t-8 41.5q0 53 20 53h166v401q0 41 -20 43q-18 2 -41 3.5t-47 1.5q-27 0 -48.5 3t-41.5 7q-12 2 -13 14q8 18 25.5 23.5t36.5 5.5q41 0 87 -4t79 -4q78 0 161.5 4 t188.5 4q51 0 99 -1t95 -7q14 -2 40 -10.5t53.5 -17.5t52 -19.5t35.5 -16.5q147 -80 223 -206t76 -312q-4 -49 -9.5 -95t-21.5 -92.5t-48 -92.5t-89 -97q-33 -27 -68 -49.5t-68.5 -39.5t-63.5 -29.5t-50 -18.5q-115 -29 -216.5 -34t-219.5 -5h-381q-16 4 -17 20zM457 115 q0 -20 2 -37t12 -21q18 -6 60 -7t75 -1q115 0 182.5 34t120.5 79q86 78 130 178t44 248q0 113 -30.5 194.5t-104.5 159.5q-82 86 -185.5 125t-203.5 39q-31 0 -56.5 -8t-45.5 -37v-420h166q10 0 16 -18.5t6 -34.5q0 -12 -7 -38t-15 -26h-166v-409z" />
<glyph unicode="&#xf1;" horiz-adv-x="1404" d="M70 1122q0 20 26.5 26.5t40.5 6.5q4 0 24.5 -4t26.5 -4h125q6 -2 19.5 -10.5t17.5 -12.5q180 -199 347 -380t341 -367q4 -6 11 -10q10 -10 18 -11q10 0 16.5 10.5t6.5 12.5v287v100q0 41 -2.5 84t-5.5 80t-9 66.5t-14 43.5q-16 27 -51 38.5t-69 16.5t-59.5 11t-25.5 22 q0 33 39 33h448q23 0 23 -26q0 -12 -25.5 -20.5t-59.5 -20t-65.5 -31t-42.5 -51.5q-12 -29 -17 -64t-5 -94v-829q0 -10 -8 -17.5t-13 -7.5q-16 0 -34 23q-6 8 -49.5 54t-107 115.5t-141 153.5t-154.5 167t-145.5 156.5t-113.5 123.5q-10 10 -21 10q-18 0 -23 -23.5t-5 -50.5 q0 -16 2 -59t3 -92.5t3 -95.5t2 -68v-58q0 -29 1 -62.5t4 -66t8 -60.5t16 -42q18 -29 51 -34t63.5 -7t54 -9t23.5 -40q0 -10 -2 -17.5t-14 -17.5h-375q-23 0 -52.5 6t-29.5 35q0 10 2 19.5t12 13.5q37 6 64 8t44 10t28.5 28.5t19.5 63.5q0 100 2 208t6 206q2 72 12.5 140.5 t10.5 140.5q0 12 -2 18t-6 23q-4 6 -15.5 21t-24 33.5t-24.5 34t-18 21.5q-12 14 -35 23.5t-44.5 17.5t-37.5 19.5t-16 31.5zM316 1462q35 106 106 131q23 8 60 9q45 0 90 -16.5t86 -39.5q47 -25 105.5 -50.5t115.5 -25.5q31 0 61 13q35 10 63 37.5t48 87.5q10 0 19.5 -34 t9.5 -61q0 -6 -2 -11t-4 -9q-20 -51 -50 -79t-65 -42q-35 -12 -64 -12q-45 0 -86 14.5t-75 34.5q-59 31 -123 59.5t-123 28.5q-29 0 -51 -8q-31 -12 -55 -41t-40 -88q-6 0 -11 12t-9 23q-6 33 -6 67z" />
<glyph unicode="&#xf2;" horiz-adv-x="1280" d="M94 557q0 139 52.5 234.5t152.5 181.5q78 66 177 88t200 22q43 0 91 -13t92 -33.5t83 -45t64 -47.5q86 -82 133 -177t47 -208q0 -123 -35 -210t-100 -165q-31 -35 -73 -67.5t-93 -59t-109.5 -42t-122.5 -15.5q-106 0 -197 29.5t-169 101.5q-193 168 -193 426zM209 1622 q0 39 17 61.5t62 22.5q35 0 67 -15.5t48 -43.5q88 -152 153.5 -248t92.5 -150q2 -4 2 -12q0 -12 -14.5 -18.5t-24.5 -6.5h-6q-4 0 -6 2q-35 31 -77 69t-86 78t-84 76t-71 64q-31 29 -52 62.5t-21 58.5zM311 565q0 -92 18.5 -184t71.5 -178q14 -25 40 -51.5t56.5 -49 t63.5 -37t62 -14.5q55 0 98 18.5t75.5 50.5t58.5 72.5t48 83.5q57 115 58 271q0 113 -32 198.5t-95 176.5q-33 47 -82.5 78.5t-108.5 31.5q-53 0 -91 -11t-66.5 -31.5t-52 -50.5t-48.5 -67q-45 -70 -59.5 -148.5t-14.5 -158.5z" />
<glyph unicode="&#xf3;" horiz-adv-x="1280" d="M94 557q0 139 52.5 234.5t152.5 181.5q78 66 177 88t200 22q43 0 91 -13t92 -33.5t83 -45t64 -47.5q86 -82 133 -177t47 -208q0 -123 -35 -210t-100 -165q-31 -35 -73 -67.5t-93 -59t-109.5 -42t-122.5 -15.5q-106 0 -197 29.5t-169 101.5q-193 168 -193 426zM311 565 q0 -92 18.5 -184t71.5 -178q14 -25 40 -51.5t56.5 -49t63.5 -37t62 -14.5q55 0 98 18.5t75.5 50.5t58.5 72.5t48 83.5q57 115 58 271q0 113 -32 198.5t-95 176.5q-33 47 -82.5 78.5t-108.5 31.5q-53 0 -91 -11t-66.5 -31.5t-52 -50.5t-48.5 -67q-45 -70 -59.5 -148.5 t-14.5 -158.5zM600 1235q0 8 2 12q27 53 87.5 148.5t158.5 249.5q16 29 48 44t67 15q45 0 62.5 -22.5t17.5 -61.5q0 -25 -19.5 -57.5t-56.5 -61.5q-41 -35 -84 -72.5t-85 -76.5t-79 -75t-68 -65q-2 -2 -6 -2h-6q-10 0 -24.5 6.5t-14.5 18.5z" />
<glyph unicode="&#xf4;" horiz-adv-x="1280" d="M94 557q0 139 52.5 234.5t152.5 181.5q78 66 177 88t200 22q43 0 91 -13t92 -33.5t83 -45t64 -47.5q86 -82 133 -177t47 -208q0 -123 -35 -210t-100 -165q-31 -35 -73 -67.5t-93 -59t-109.5 -42t-122.5 -15.5q-106 0 -197 29.5t-169 101.5q-193 168 -193 426zM297 1235 l277 371q25 27 51 26q33 0 53 -26l279 -371q-6 -10 -25 -10q-20 0 -28 10l-279 233l-260 -233q-20 -14 -37 -14t-31 14zM311 565q0 -92 18.5 -184t71.5 -178q14 -25 40 -51.5t56.5 -49t63.5 -37t62 -14.5q55 0 98 18.5t75.5 50.5t58.5 72.5t48 83.5q57 115 58 271 q0 113 -32 198.5t-95 176.5q-33 47 -82.5 78.5t-108.5 31.5q-53 0 -91 -11t-66.5 -31.5t-52 -50.5t-48.5 -67q-45 -70 -59.5 -148.5t-14.5 -158.5z" />
<glyph unicode="&#xf5;" horiz-adv-x="1280" d="M94 557q0 139 52.5 234.5t152.5 181.5q78 66 177 88t200 22q43 0 91 -13t92 -33.5t83 -45t64 -47.5q86 -82 133 -177t47 -208q0 -123 -35 -210t-100 -165q-31 -35 -73 -67.5t-93 -59t-109.5 -42t-122.5 -15.5q-106 0 -197 29.5t-169 101.5q-193 168 -193 426zM244 1462 q35 106 106 131q23 8 60 9q45 0 90 -16.5t86 -39.5q47 -25 105.5 -50.5t115.5 -25.5q31 0 61 13q35 10 63 37.5t48 87.5q10 0 19.5 -34t9.5 -61q0 -6 -2 -11t-4 -9q-20 -51 -50 -79t-65 -42q-35 -12 -64 -12q-45 0 -86 14.5t-75 34.5q-59 31 -123 59.5t-123 28.5 q-29 0 -51 -8q-31 -12 -55 -41t-40 -88q-6 0 -11 12t-9 23q-6 33 -6 67zM311 565q0 -92 18.5 -184t71.5 -178q14 -25 40 -51.5t56.5 -49t63.5 -37t62 -14.5q55 0 98 18.5t75.5 50.5t58.5 72.5t48 83.5q57 115 58 271q0 113 -32 198.5t-95 176.5q-33 47 -82.5 78.5 t-108.5 31.5q-53 0 -91 -11t-66.5 -31.5t-52 -50.5t-48.5 -67q-45 -70 -59.5 -148.5t-14.5 -158.5z" />
<glyph unicode="&#xf6;" horiz-adv-x="1280" d="M94 557q0 139 52.5 234.5t152.5 181.5q78 66 177 88t200 22q43 0 91 -13t92 -33.5t83 -45t64 -47.5q86 -82 133 -177t47 -208q0 -123 -35 -210t-100 -165q-31 -35 -73 -67.5t-93 -59t-109.5 -42t-122.5 -15.5q-106 0 -197 29.5t-169 101.5q-193 168 -193 426zM283 1427 q0 51 30.5 90t83.5 39q23 0 48.5 -9t48 -25.5t37 -39t14.5 -48.5q0 -20 -12.5 -43t-32 -42.5t-43 -31.5t-45.5 -12q-20 0 -43 10t-42.5 27.5t-31.5 38.5t-12 46zM311 565q0 -92 18.5 -184t71.5 -178q14 -25 40 -51.5t56.5 -49t63.5 -37t62 -14.5q55 0 98 18.5t75.5 50.5 t58.5 72.5t48 83.5q57 115 58 271q0 113 -32 198.5t-95 176.5q-33 47 -82.5 78.5t-108.5 31.5q-53 0 -91 -11t-66.5 -31.5t-52 -50.5t-48.5 -67q-45 -70 -59.5 -148.5t-14.5 -158.5zM717 1430q0 51 30.5 90t83.5 39q23 0 48.5 -9.5t47 -25t36 -39t14.5 -49.5 q0 -20 -12.5 -43t-32 -42.5t-43 -31.5t-45.5 -12q-20 0 -43 10t-41.5 27.5t-30.5 39t-12 46.5z" />
<glyph unicode="&#xf7;" horiz-adv-x="976" d="M113 565q0 20 4 26.5t14 6.5h707q12 0 20 -6t8 -25q0 -10 -10 -23.5t-18 -13.5h-701q-25 0 -24 35zM356 115q0 63 37 102t99 39q55 0 93 -38t38 -93q0 -47 -37 -87t-86 -40q-51 0 -97.5 29t-46.5 88zM362 950q-2 27 6.5 52.5t26 45t41 32t51.5 12.5q53 0 95.5 -35 t46.5 -90q2 -31 -8.5 -56.5t-31 -43t-46 -27t-51.5 -9.5q-23 0 -44.5 9.5t-40 26t-31 37.5t-14.5 46z" />
<glyph unicode="&#xf8;" horiz-adv-x="1273" d="M94 561q0 127 42 228.5t118 173t181.5 109.5t230.5 38q27 0 56.5 -6t59.5 -17l52 127q2 8 20 9q16 0 25 -2q8 -6 21 -14.5t13 -18.5l-51 -133q8 -4 17.5 -9.5t17.5 -9.5q141 -78 212 -203.5t71 -289.5q0 -109 -38 -208t-114 -181q-78 -80 -176 -116t-207 -36q-45 0 -89 3 t-89 18l-59 -164q-4 -8 -25 -9q-12 0 -21 5q-37 14 -36 28l65 170q-12 6 -25.5 13.5t-25.5 17.5q-129 92 -187.5 208t-58.5 269zM299 555q0 -45 7 -98.5t22.5 -106.5t41 -104t60.5 -92l326 864q-29 18 -56.5 27.5t-46.5 9.5q-55 0 -97 -11.5t-74.5 -34t-59.5 -57t-53 -82.5 q-47 -78 -58.5 -155.5t-11.5 -159.5zM496 92q66 -39 141 -39q78 0 120 31t83 78q68 88 96.5 200.5t28.5 206.5q0 41 -8.5 91.5t-25 102.5t-43 102t-63.5 93z" />
<glyph unicode="&#xf9;" horiz-adv-x="1363" d="M-16 1102q0 4 3 17.5t15 13.5h391q18 0 19 -17v-727q0 -45 13 -89t38.5 -78t64.5 -55.5t90 -21.5q59 0 101.5 11.5t87.5 36.5q51 31 88 86q29 41 36 73.5t9 81.5l12 588q0 2 -1 14.5t-4 24.5t-8 22.5t-15 10.5q-8 0 -29 -2t-47 -2q-27 0 -49.5 -1.5t-36.5 -1.5 q-25 0 -41 2.5t-16 18.5q0 8 1 18.5t9 14.5q10 8 24.5 10t26.5 2q35 0 82 -7t78 -7h227q8 0 8 -9l-37 -931v-17q0 -12 2 -18q4 -20 16.5 -36.5t39.5 -16.5q31 0 67.5 8t55.5 8q12 0 15 -9t3 -18q0 -14 -10 -21t-21 -13q-25 -8 -47 -9q-12 0 -23.5 -1t-31.5 -3 q-39 -4 -83 -15t-79 -22q-25 -10 -45 -16t-45 -6q-12 0 -19.5 11.5t-7.5 23.5q0 35 7.5 86t7.5 98q0 8 -3 20.5t-14 12.5q-4 0 -11 -12.5t-17 -24.5q-37 -43 -75 -81t-81 -65.5t-92 -44t-111 -16.5q-119 0 -211 80q-59 47 -76.5 109.5t-17.5 136.5v698q0 18 -3 32.5 t-21 14.5h-185q-10 0 -17 9.5t-7 19.5zM240 1622q0 39 17 61.5t62 22.5q35 0 67 -15.5t48 -43.5q88 -152 153.5 -248t92.5 -150q2 -4 2 -12q0 -12 -14.5 -18.5t-24.5 -6.5h-6q-4 0 -6 2q-35 31 -77 69t-86 78t-84 76t-71 64q-31 29 -52 62.5t-21 58.5z" />
<glyph unicode="&#xfa;" horiz-adv-x="1363" d="M-16 1102q0 4 3 17.5t15 13.5h391q18 0 19 -17v-727q0 -45 13 -89t38.5 -78t64.5 -55.5t90 -21.5q59 0 101.5 11.5t87.5 36.5q51 31 88 86q29 41 36 73.5t9 81.5l12 588q0 2 -1 14.5t-4 24.5t-8 22.5t-15 10.5q-8 0 -29 -2t-47 -2q-27 0 -49.5 -1.5t-36.5 -1.5 q-25 0 -41 2.5t-16 18.5q0 8 1 18.5t9 14.5q10 8 24.5 10t26.5 2q35 0 82 -7t78 -7h227q8 0 8 -9l-37 -931v-17q0 -12 2 -18q4 -20 16.5 -36.5t39.5 -16.5q31 0 67.5 8t55.5 8q12 0 15 -9t3 -18q0 -14 -10 -21t-21 -13q-25 -8 -47 -9q-12 0 -23.5 -1t-31.5 -3 q-39 -4 -83 -15t-79 -22q-25 -10 -45 -16t-45 -6q-12 0 -19.5 11.5t-7.5 23.5q0 35 7.5 86t7.5 98q0 8 -3 20.5t-14 12.5q-4 0 -11 -12.5t-17 -24.5q-37 -43 -75 -81t-81 -65.5t-92 -44t-111 -16.5q-119 0 -211 80q-59 47 -76.5 109.5t-17.5 136.5v698q0 18 -3 32.5 t-21 14.5h-185q-10 0 -17 9.5t-7 19.5zM637 1235q0 8 2 12q27 53 87.5 148.5t158.5 249.5q16 29 48 44t67 15q45 0 62.5 -22.5t17.5 -61.5q0 -25 -19.5 -57.5t-56.5 -61.5q-41 -35 -84 -72.5t-85 -76.5t-79 -75t-68 -65q-2 -2 -6 -2h-6q-10 0 -24.5 6.5t-14.5 18.5z" />
<glyph unicode="&#xfb;" horiz-adv-x="1363" d="M-16 1102q0 4 3 17.5t15 13.5h391q18 0 19 -17v-727q0 -45 13 -89t38.5 -78t64.5 -55.5t90 -21.5q59 0 101.5 11.5t87.5 36.5q51 31 88 86q29 41 36 73.5t9 81.5l12 588q0 2 -1 14.5t-4 24.5t-8 22.5t-15 10.5q-8 0 -29 -2t-47 -2q-27 0 -49.5 -1.5t-36.5 -1.5 q-25 0 -41 2.5t-16 18.5q0 8 1 18.5t9 14.5q10 8 24.5 10t26.5 2q35 0 82 -7t78 -7h227q8 0 8 -9l-37 -931v-17q0 -12 2 -18q4 -20 16.5 -36.5t39.5 -16.5q31 0 67.5 8t55.5 8q12 0 15 -9t3 -18q0 -14 -10 -21t-21 -13q-25 -8 -47 -9q-12 0 -23.5 -1t-31.5 -3 q-39 -4 -83 -15t-79 -22q-25 -10 -45 -16t-45 -6q-12 0 -19.5 11.5t-7.5 23.5q0 35 7.5 86t7.5 98q0 8 -3 20.5t-14 12.5q-4 0 -11 -12.5t-17 -24.5q-37 -43 -75 -81t-81 -65.5t-92 -44t-111 -16.5q-119 0 -211 80q-59 47 -76.5 109.5t-17.5 136.5v698q0 18 -3 32.5 t-21 14.5h-185q-10 0 -17 9.5t-7 19.5zM346 1235l277 371q25 27 51 26q33 0 53 -26l279 -371q-6 -10 -25 -10q-20 0 -28 10l-279 233l-260 -233q-20 -14 -37 -14t-31 14z" />
<glyph unicode="&#xfc;" horiz-adv-x="1363" d="M-16 1102q0 4 3 17.5t15 13.5h391q18 0 19 -17v-727q0 -45 13 -89t38.5 -78t64.5 -55.5t90 -21.5q59 0 101.5 11.5t87.5 36.5q51 31 88 86q29 41 36 73.5t9 81.5l12 588q0 2 -1 14.5t-4 24.5t-8 22.5t-15 10.5q-8 0 -29 -2t-47 -2q-27 0 -49.5 -1.5t-36.5 -1.5 q-25 0 -41 2.5t-16 18.5q0 8 1 18.5t9 14.5q10 8 24.5 10t26.5 2q35 0 82 -7t78 -7h227q8 0 8 -9l-37 -931v-17q0 -12 2 -18q4 -20 16.5 -36.5t39.5 -16.5q31 0 67.5 8t55.5 8q12 0 15 -9t3 -18q0 -14 -10 -21t-21 -13q-25 -8 -47 -9q-12 0 -23.5 -1t-31.5 -3 q-39 -4 -83 -15t-79 -22q-25 -10 -45 -16t-45 -6q-12 0 -19.5 11.5t-7.5 23.5q0 35 7.5 86t7.5 98q0 8 -3 20.5t-14 12.5q-4 0 -11 -12.5t-17 -24.5q-37 -43 -75 -81t-81 -65.5t-92 -44t-111 -16.5q-119 0 -211 80q-59 47 -76.5 109.5t-17.5 136.5v698q0 18 -3 32.5 t-21 14.5h-185q-10 0 -17 9.5t-7 19.5zM326 1427q0 51 30.5 90t83.5 39q23 0 48.5 -9t48 -25.5t37 -39t14.5 -48.5q0 -20 -12.5 -43t-32 -42.5t-43 -31.5t-45.5 -12q-20 0 -43 10t-42.5 27.5t-31.5 38.5t-12 46zM760 1430q0 51 30.5 90t83.5 39q23 0 48.5 -9.5t47 -25 t36 -39t14.5 -49.5q0 -20 -12.5 -43t-32 -42.5t-43 -31.5t-45.5 -12q-20 0 -43 10t-41.5 27.5t-30.5 39t-12 46.5z" />
<glyph unicode="&#xfd;" horiz-adv-x="1122" d="M-78 1114q0 8 2 21.5t17 13.5q98 0 159.5 -3t120.5 -3q33 0 58.5 1t52.5 1q29 0 60.5 2t76.5 2q18 0 27.5 -11.5t9.5 -23.5t-16.5 -18t-26.5 -6h-111q-29 0 -43 -15q-6 -6 -6 -14q0 -2 10 -29l273 -448q18 -23 39 -23q6 0 30 35l172 344q14 29 17.5 44t3.5 26v8 q0 27 -21.5 37t-60.5 22q-2 2 -31 2h-20q-14 0 -19 2q-25 2 -24 25q0 12 7 24.5t21 12.5q66 0 104 -1t62 -1q29 0 45.5 -1t42.5 -1q16 0 33 1t37 1q23 0 55.5 1t79.5 1q6 0 7 -9.5t1 -15.5q0 -2 -4 -7t-8 -7q-41 -18 -72.5 -23.5t-72.5 -23.5q-18 -6 -33.5 -22.5 t-28.5 -35.5q-10 -12 -18 -27.5t-21 -33.5l-192 -360q-6 -12 -16.5 -31t-19.5 -39.5t-15.5 -41t-6.5 -34.5v-342q0 -16 27 -20t57.5 -6.5t57 -8.5t26.5 -28q0 -18 -8 -22.5t-28 -4.5h-291q-31 0 -58.5 -2t-74.5 -2h-41q-23 4 -23 16q0 29 29 39q2 2 30 2h56q20 0 29.5 4 t9.5 27v287q0 18 -6.5 46.5t-16.5 45.5l-342 592q-10 18 -21.5 22t-23.5 6q-6 0 -21.5 2t-32 3.5t-31.5 3.5t-21 2q-8 2 -13.5 9t-5.5 11zM592 1235q0 8 2 12q27 53 87.5 148.5t158.5 249.5q16 29 48 44t67 15q45 0 62.5 -22.5t17.5 -61.5q0 -25 -19.5 -57.5t-56.5 -61.5 q-41 -35 -84 -72.5t-85 -76.5t-79 -75t-68 -65q-2 -2 -6 -2h-6q-10 0 -24.5 6.5t-14.5 18.5z" />
<glyph unicode="&#xfe;" horiz-adv-x="1165" d="M63 1114q-4 16 2.5 25.5t18.5 14.5t27.5 6t27.5 1h426h39t10 -2q23 -4 23 -26q0 -25 -27.5 -32t-59.5 -8t-59.5 -4.5t-27.5 -19.5v-137q41 2 79 4t79 2q92 0 160.5 -5t127.5 -40q72 -41 121 -104.5t49 -167.5q0 -55 -9 -86t-38 -76q-25 -39 -54.5 -66.5t-76.5 -48.5 q-35 -14 -62.5 -22.5t-55 -13.5t-56.5 -7t-65 -2q-33 0 -68 6t-57 6q-10 0 -24.5 -1t-18.5 -5q-18 -12 -23.5 -27.5t-5.5 -33.5l-2 26v-129q0 -6 1 -18t4 -24.5t9 -21.5t17 -9h131q12 0 21 -11.5t9 -23.5q0 -10 -11 -21.5t-21 -11.5h-371q-23 0 -47.5 -2t-52.5 -2 q-35 0 -60 6q-8 6 -8 23q0 25 12 28q29 4 50.5 7t46.5 3q18 0 26 1.5t19 3.5q16 6 16 49v944q0 14 -13.5 25.5t-27.5 11.5q-27 0 -42 -4t-38 -4q-27 0 -61 10q-8 2 -9 14zM463 356q4 -8 8 -10q35 -4 54.5 -5t47.5 -1q25 0 54.5 1t46.5 5q37 8 70.5 37t58 66.5t39 79.5 t14.5 79q0 27 -4 59.5t-18 57.5q-51 98 -131 130t-185 32q-12 0 -28.5 -1t-18.5 -1l-8 -11v-518z" />
<glyph unicode="&#xff;" horiz-adv-x="1122" d="M-78 1114q0 8 2 21.5t17 13.5q98 0 159.5 -3t120.5 -3q33 0 58.5 1t52.5 1q29 0 60.5 2t76.5 2q18 0 27.5 -11.5t9.5 -23.5t-16.5 -18t-26.5 -6h-111q-29 0 -43 -15q-6 -6 -6 -14q0 -2 10 -29l273 -448q18 -23 39 -23q6 0 30 35l172 344q14 29 17.5 44t3.5 26v8 q0 27 -21.5 37t-60.5 22q-2 2 -31 2h-20q-14 0 -19 2q-25 2 -24 25q0 12 7 24.5t21 12.5q66 0 104 -1t62 -1q29 0 45.5 -1t42.5 -1q16 0 33 1t37 1q23 0 55.5 1t79.5 1q6 0 7 -9.5t1 -15.5q0 -2 -4 -7t-8 -7q-41 -18 -72.5 -23.5t-72.5 -23.5q-18 -6 -33.5 -22.5 t-28.5 -35.5q-10 -12 -18 -27.5t-21 -33.5l-192 -360q-6 -12 -16.5 -31t-19.5 -39.5t-15.5 -41t-6.5 -34.5v-342q0 -16 27 -20t57.5 -6.5t57 -8.5t26.5 -28q0 -18 -8 -22.5t-28 -4.5h-291q-31 0 -58.5 -2t-74.5 -2h-41q-23 4 -23 16q0 29 29 39q2 2 30 2h56q20 0 29.5 4 t9.5 27v287q0 18 -6.5 46.5t-16.5 45.5l-342 592q-10 18 -21.5 22t-23.5 6q-6 0 -21.5 2t-32 3.5t-31.5 3.5t-21 2q-8 2 -13.5 9t-5.5 11zM250 1427q0 51 30.5 90t83.5 39q23 0 48.5 -9t48 -25.5t37 -39t14.5 -48.5q0 -20 -12.5 -43t-32 -42.5t-43 -31.5t-45.5 -12 q-20 0 -43 10t-42.5 27.5t-31.5 38.5t-12 46zM684 1430q0 51 30.5 90t83.5 39q23 0 48.5 -9.5t47 -25t36 -39t14.5 -49.5q0 -20 -12.5 -43t-32 -42.5t-43 -31.5t-45.5 -12q-20 0 -43 10t-41.5 27.5t-30.5 39t-12 46.5z" />
<glyph unicode="&#x152;" horiz-adv-x="2674" d="M98 944q0 88 33 180.5t90.5 176t134 157.5t164.5 125q121 72 241 100.5t222 28.5q51 0 106.5 -7t105.5 -18.5t92 -25.5t67 -29q53 -31 107.5 -78t103.5 -102v113q0 35 -26 56t-63.5 33.5t-80.5 17.5t-76 7q-8 0 -15.5 2t-7.5 13q0 16 20.5 20t31.5 4q8 0 35.5 -1t66.5 -1 q41 0 90 -1t102 -1q92 0 158 3t119 7.5t102.5 7.5t106.5 3h55q25 0 58.5 -1t88 -3t152.5 -5q29 -4 35 -30q2 -82 4 -156t2 -158q0 -18 -6 -18q-4 0 -8 1t-6 7q-20 37 -42 87t-44 81q-16 23 -41 47.5t-55.5 44t-65.5 32.5t-70 15q-41 2 -67 2h-72q-47 0 -95 -2t-96 -12 q-10 -2 -21 -6t-11 -21v-739q2 -14 16 -20q68 6 144.5 10t144.5 4q49 4 84 43t58.5 88t37.5 96t27 66q4 4 7 6t19 2q8 0 15.5 -3t7.5 -9q0 -86 -9.5 -135.5t-9.5 -90.5v-442q-2 -4 -6 -6q-6 -6 -12 -6q-14 0 -26.5 35.5t-27 83t-29.5 92.5t-36 63q-18 16 -63 25.5 t-97.5 13.5t-100.5 5t-75 1q-51 0 -63 -15t-12 -77v-477q0 -70 16 -105.5t59 -62.5q16 -10 38 -18.5t38 -8.5h186h50t45 2t46.5 6.5t57.5 12.5q72 16 126 76.5t99 138.5q4 6 13.5 25.5t19.5 29.5q2 2 6 2q6 0 9 -8q8 -14 8 -61q0 -14 -8.5 -43t-14.5 -56q-6 -20 -9 -52 t-9 -62.5t-17.5 -52t-29.5 -21.5q-8 0 -12.5 1t-8.5 1q-4 2 -20 2h-873q-29 0 -66.5 -2t-76.5 -3t-74 -3t-55 -2h-33q-12 0 -25.5 5t-13.5 17v15q-141 -57 -342 -58q-348 0 -604 269q-111 113 -177.5 286.5t-66.5 419.5zM408 823q0 -115 24.5 -232.5t83.5 -209.5 q39 -61 86 -121.5t104.5 -109t126 -77t150.5 -28.5q76 0 148.5 38t134 98.5t110.5 137t80 156.5q4 12 15.5 43t22.5 76t20.5 101.5t9.5 121.5q0 55 -9.5 122t-28 137.5t-45 141t-63.5 136.5q-31 55 -73.5 109.5t-97 96.5t-120 67.5t-141.5 25.5q-74 0 -139.5 -31t-120.5 -77 t-96 -97t-66 -94q-39 -66 -77.5 -198t-38.5 -333zM1350 55q6 2 10 2h10q29 2 47.5 3t44.5 12q51 16 77 41.5t26 81.5v26q-39 -39 -78 -71q-66 -53 -137 -95z" />
<glyph unicode="&#x153;" horiz-adv-x="1890" d="M94 557q0 139 52.5 234.5t152.5 181.5q78 66 177 88t200 22q43 0 91 -13t92 -33.5t83 -45t64 -47.5q0 -4 4 -4v41q0 20 -4.5 49t-16.5 49q-6 6 -8 6l-166 17q-23 0 -22 22q0 6 3 15.5t15 9.5h195q113 0 223 1t203 1h167q39 0 80 -2t58 -2q16 -2 19 -25.5t3 -36.5v-192 q0 -10 -8 -10q-12 0 -19.5 17.5t-19.5 39.5q-10 27 -25.5 52.5t-23.5 39.5q-10 20 -32.5 31.5t-49.5 17.5t-55.5 10.5t-48.5 8.5q-6 0 -37 1t-68 2t-72.5 2t-56.5 1q-25 0 -31 -14.5t-6 -42.5v-422q0 -10 7.5 -19.5t21.5 -9.5l203 8q47 4 71.5 23.5t37 47.5t19.5 61.5 t19 64.5q2 14 12 14q16 0 17 -8v-47q0 -47 -4 -102.5t-4 -94.5t6 -81t6 -87q0 -6 -1 -19t-3 -26.5t-7 -25t-12 -11.5q-12 0 -15 12.5t-5 22.5q-2 14 -8 35t-13.5 41t-13.5 36.5t-8 22.5q-10 20 -41 33.5t-70 20t-80 8.5t-71 2h-35q-18 0 -23.5 -8.5t-5.5 -24.5v-416 q0 -35 23 -45h360q23 0 48.5 1t33.5 5q18 4 30.5 20.5t20.5 31.5q4 6 14.5 24.5t21.5 40t21.5 41t14.5 25.5q6 14 23 14q10 0 16 -8v-176q0 -10 -2 -19.5t-4 -21.5q-4 -16 -11.5 -24.5t-27.5 -8.5q-121 0 -227.5 1t-217 2t-232.5 2t-271 1q-20 0 -21 21v4q-39 -14 -81 -22.5 t-85 -8.5q-106 0 -197 29.5t-169 101.5q-193 168 -193 426zM311 565q0 -92 18.5 -184t71.5 -178q14 -25 40 -51.5t56.5 -49t63.5 -37t62 -14.5q55 0 98 18.5t75.5 50.5t58.5 72.5t48 83.5q57 115 58 271q0 113 -32 198.5t-95 176.5q-33 47 -82.5 78.5t-108.5 31.5 q-53 0 -91 -11t-66.5 -31.5t-52 -50.5t-48.5 -67q-45 -70 -59.5 -148.5t-14.5 -158.5zM883 57q23 2 51.5 3t46.5 1q29 0 29 45v37q-29 -23 -60.5 -45t-66.5 -41z" />
<glyph unicode="&#x178;" horiz-adv-x="1560" d="M-90 1679q0 8 18.5 12.5t28.5 4.5h16q25 0 46.5 -3t54.5 -7q59 -8 120.5 -9.5t122.5 -1.5q82 0 172.5 10.5t176.5 10.5q12 0 31.5 -2t19.5 -19q0 -27 -23 -28q-37 -6 -80 -7q-31 0 -58.5 -4t-49 -17t-33.5 -38t-12 -63q0 -12 7 -31t17.5 -37t20.5 -35.5t16 -25.5 l334 -523q8 -10 19.5 -20t19.5 -10q10 0 21.5 9t21.5 23l250 457q25 47 34 99.5t9 86.5q0 29 -10.5 46.5t-32.5 41.5q-23 20 -46.5 29.5t-48 13t-49 5.5t-49.5 8q-23 6 -22 26q0 10 10 18.5t21 8.5q94 0 162.5 -6t146.5 -6q47 0 76.5 2t61.5 4t75 4t119 2q16 0 27 -2t11 -10 q0 -16 -24.5 -27.5t-56 -20t-63.5 -13.5t-44 -11q-59 -33 -100 -74t-76 -93t-68.5 -118.5t-81.5 -152.5q-53 -102 -111.5 -199.5t-99.5 -206.5q-4 -14 -8 -46t-7 -66.5t-4 -66.5t-1 -44l-27 -475q14 -8 33 -15.5t49.5 -12.5t76.5 -8t116 -3q16 0 16 -23q0 -20 -19.5 -25 t-37.5 -5q-94 0 -188.5 5t-159.5 5q-47 0 -80 -1t-68 -1t-83 -1t-126 -1q-33 0 -32 20q0 14 10 21q4 2 17.5 5t28.5 4t28.5 2t19.5 1q47 4 86 9t70 44l18 514q0 29 -16.5 78t-48.5 103l-367 610q-31 53 -69 104.5t-93 85.5q-14 8 -44 16.5t-60.5 18.5t-54 21.5t-23.5 25.5z M488 1898q0 51 30.5 90t83.5 39q23 0 48.5 -9t48 -25.5t37 -39t14.5 -48.5q0 -20 -12.5 -43t-32 -42.5t-43 -31.5t-45.5 -12q-20 0 -43 10t-42.5 27.5t-31.5 38.5t-12 46zM922 1901q0 51 30.5 90t83.5 39q23 0 48.5 -9.5t47 -25t36 -39t14.5 -49.5q0 -20 -12.5 -43 t-32 -42.5t-43 -31.5t-45.5 -12q-20 0 -43 10t-41.5 27.5t-30.5 39t-12 46.5z" />
<glyph unicode="&#x2c6;" horiz-adv-x="1103" d="M229 1235l277 371q25 27 51 26q33 0 53 -26l279 -371q-6 -10 -25 -10q-20 0 -28 10l-279 233l-260 -233q-20 -14 -37 -14t-31 14z" />
<glyph unicode="&#x2dc;" horiz-adv-x="1247" d="M248 1462q35 106 106 131q23 8 60 9q45 0 90 -16.5t86 -39.5q47 -25 105.5 -50.5t115.5 -25.5q31 0 61 13q35 10 63 37.5t48 87.5q10 0 19.5 -34t9.5 -61q0 -6 -2 -11t-4 -9q-20 -51 -50 -79t-65 -42q-35 -12 -64 -12q-45 0 -86 14.5t-75 34.5q-59 31 -123 59.5 t-123 28.5q-29 0 -51 -8q-31 -12 -55 -41t-40 -88q-6 0 -11 12t-9 23q-6 33 -6 67z" />
<glyph unicode="&#x2000;" horiz-adv-x="1075" />
<glyph unicode="&#x2001;" horiz-adv-x="2150" />
<glyph unicode="&#x2002;" horiz-adv-x="1075" />
<glyph unicode="&#x2003;" horiz-adv-x="2150" />
<glyph unicode="&#x2004;" horiz-adv-x="716" />
<glyph unicode="&#x2005;" horiz-adv-x="537" />
<glyph unicode="&#x2006;" horiz-adv-x="358" />
<glyph unicode="&#x2007;" horiz-adv-x="358" />
<glyph unicode="&#x2008;" horiz-adv-x="268" />
<glyph unicode="&#x2009;" horiz-adv-x="430" />
<glyph unicode="&#x200a;" horiz-adv-x="119" />
<glyph unicode="&#x2010;" d="M111 590q0 33 20 33h707q12 0 20 -6.5t8 -24.5q0 -10 -10 -23.5t-18 -13.5h-701q-27 0 -26 35z" />
<glyph unicode="&#x2011;" d="M111 590q0 33 20 33h707q12 0 20 -6.5t8 -24.5q0 -10 -10 -23.5t-18 -13.5h-701q-27 0 -26 35z" />
<glyph unicode="&#x2012;" d="M111 590q0 33 20 33h707q12 0 20 -6.5t8 -24.5q0 -10 -10 -23.5t-18 -13.5h-701q-27 0 -26 35z" />
<glyph unicode="&#x2013;" horiz-adv-x="1024" d="M-12 588q0 12 2 22.5t10 10.5h1024q6 0 10 -10.5t4 -24.5q0 -10 -4 -21.5t-10 -11.5h-1024q-8 0 -10 10t-2 25z" />
<glyph unicode="&#x2014;" horiz-adv-x="2045" d="M-12 588q0 12 2 22.5t10 10.5h2046q6 0 10 -10.5t4 -24.5q0 -10 -4 -21.5t-10 -11.5h-2046q-8 0 -10 10t-2 25z" />
<glyph unicode="&#x2018;" horiz-adv-x="546" d="M88 1440q0 72 29.5 127t83.5 92q18 12 38.5 26.5t49.5 24.5q35 14 62.5 21.5t56.5 7.5q10 0 18.5 -2.5t24.5 -14.5q-2 -2 -4.5 -6t-10.5 -12q-20 -10 -34.5 -18.5t-24.5 -12.5q-20 -12 -51 -30.5t-60.5 -42t-51 -51t-21.5 -54.5q0 -4 1 -9t7 -5q10 2 21 3t22 1 q14 0 26.5 -1t24.5 -3t35.5 -17.5t34.5 -27.5q27 -29 26 -74q0 -55 -33.5 -90t-91.5 -35q-41 0 -73.5 17.5t-56 45t-36 64.5t-12.5 76z" />
<glyph unicode="&#x2019;" horiz-adv-x="546" d="M90 1255q2 2 4 6.5t10 12.5q20 10 35 18t25 13q20 12 51 30.5t60.5 42t51 50t21.5 55.5q0 4 -1 9t-7 5q-10 -2 -21.5 -3t-21.5 -1q-14 0 -26.5 1t-24.5 3t-36 17.5t-34 27.5q-27 29 -26 74q0 55 33.5 90t90.5 35q41 0 74 -17.5t56.5 -45t36 -64.5t12.5 -76 q0 -72 -30 -127t-83 -92q-18 -12 -38.5 -26.5t-49.5 -24.5q-35 -14 -62.5 -21.5t-56.5 -7.5q-10 0 -18.5 2t-24.5 14z" />
<glyph unicode="&#x201a;" horiz-adv-x="546" d="M90 -238q2 2 4 6.5t10 12.5q20 10 35 18t25 13q20 12 51 30.5t60.5 42t51 50t21.5 55.5q0 4 -1 9t-7 5q-10 -2 -21.5 -3t-21.5 -1q-14 0 -26.5 1t-24.5 3t-36 17.5t-34 27.5q-27 29 -26 74q0 55 33.5 90t90.5 35q41 0 74 -17.5t56.5 -45t36 -64.5t12.5 -76 q0 -72 -30 -127t-83 -92q-18 -12 -38.5 -26.5t-49.5 -24.5q-35 -14 -62.5 -21.5t-56.5 -7.5q-10 0 -18.5 2t-24.5 14z" />
<glyph unicode="&#x201c;" horiz-adv-x="970" d="M90 1440q0 72 30 127t83 92q18 12 38.5 26.5t49.5 24.5q35 14 62.5 21.5t56.5 7.5q10 0 18.5 -2.5t24.5 -14.5q-2 -2 -4.5 -6t-10.5 -12q-20 -10 -34.5 -18.5t-24.5 -12.5q-20 -12 -51 -30.5t-60.5 -42t-51 -51t-21.5 -54.5q0 -4 1 -9t7 -5q10 2 21.5 3t21.5 1 q14 0 26.5 -1t24.5 -3t35.5 -17.5t34.5 -27.5q27 -29 26 -74q0 -55 -33.5 -90t-91.5 -35q-41 0 -73.5 17.5t-56 45t-36 64.5t-12.5 76zM514 1440q0 72 29.5 127t83.5 92q18 12 38.5 26.5t49.5 24.5q35 14 62.5 21.5t56.5 7.5q10 0 18.5 -2.5t24.5 -14.5q-2 -2 -4.5 -6 t-10.5 -12q-20 -10 -34.5 -18.5t-24.5 -12.5q-20 -12 -51 -30.5t-60.5 -42t-51.5 -51t-22 -54.5q0 -4 1.5 -9t7.5 -5q10 2 21 3t22 1q14 0 26.5 -1t24.5 -3t35.5 -17.5t34.5 -27.5q27 -29 26 -74q0 -55 -33.5 -90t-91.5 -35q-41 0 -73.5 17.5t-56 45t-36 64.5t-12.5 76z" />
<glyph unicode="&#x201d;" horiz-adv-x="970" d="M90 1255q2 2 4 6.5t10 12.5q20 10 35 18t25 13q20 12 51 30.5t60.5 42t51 50t21.5 55.5q0 4 -1 9t-7 5q-10 -2 -21.5 -3t-21.5 -1q-14 0 -26.5 1t-24.5 3t-36 17.5t-34 27.5q-27 29 -26 74q0 55 33.5 90t90.5 35q41 0 74 -17.5t56.5 -45t36 -64.5t12.5 -76 q0 -72 -30 -127t-83 -92q-18 -12 -38.5 -26.5t-49.5 -24.5q-35 -14 -62.5 -21.5t-56.5 -7.5q-10 0 -18.5 2t-24.5 14zM514 1255q2 2 4 6.5t10 12.5q20 10 35 18t25 13q20 12 51 30.5t60.5 42t51 50t21.5 55.5q0 4 -1 9t-7 5q-10 -2 -21.5 -3t-21.5 -1q-14 0 -26.5 1t-24.5 3 t-36 17.5t-34 27.5q-27 29 -27 74q0 55 34 90t91 35q41 0 74 -17.5t56.5 -45t36 -64.5t12.5 -76q0 -72 -30 -127t-83 -92q-18 -12 -38.5 -26.5t-49.5 -24.5q-35 -14 -62.5 -21.5t-56.5 -7.5q-10 0 -18.5 2t-24.5 14z" />
<glyph unicode="&#x201e;" horiz-adv-x="970" d="M90 -238q2 2 4 6.5t10 12.5q20 10 35 18t25 13q20 12 51 30.5t60.5 42t51 50t21.5 55.5q0 4 -1 9t-7 5q-10 -2 -21.5 -3t-21.5 -1q-14 0 -26.5 1t-24.5 3t-36 17.5t-34 27.5q-27 29 -26 74q0 55 33.5 90t90.5 35q41 0 74 -17.5t56.5 -45t36 -64.5t12.5 -76 q0 -72 -30 -127t-83 -92q-18 -12 -38.5 -26.5t-49.5 -24.5q-35 -14 -62.5 -21.5t-56.5 -7.5q-10 0 -18.5 2t-24.5 14zM514 -238q2 2 4 6.5t10 12.5q20 10 35 18t25 13q20 12 51 30.5t60.5 42t51 50t21.5 55.5q0 4 -1 9t-7 5q-10 -2 -21.5 -3t-21.5 -1q-14 0 -26.5 1t-24.5 3 t-36 17.5t-34 27.5q-27 29 -27 74q0 55 34 90t91 35q41 0 74 -17.5t56.5 -45t36 -64.5t12.5 -76q0 -72 -30 -127t-83 -92q-18 -12 -38.5 -26.5t-49.5 -24.5q-35 -14 -62.5 -21.5t-56.5 -7.5q-10 0 -18.5 2t-24.5 14z" />
<glyph unicode="&#x2022;" horiz-adv-x="927" d="M199 606q0 51 16 99.5t47 85t74 59t96 22.5q45 0 97.5 -18t96.5 -52t72.5 -80t28.5 -101q0 -43 -25.5 -89.5t-64.5 -84t-86 -63.5t-90 -26t-89 20.5t-84 55.5t-63.5 80t-25.5 92z" />
<glyph unicode="&#x2026;" horiz-adv-x="1417" d="M147 141q0 18 9.5 32.5t19.5 33.5q18 33 43 44t62 11q61 0 97 -44t36 -103q0 -23 -10.5 -45.5t-28 -41t-39 -30.5t-45.5 -12q-29 0 -54.5 14t-46 35.5t-32 49t-11.5 56.5zM557 141q0 18 9 32.5t20 33.5q18 33 42.5 44t61.5 11q61 0 97 -44t36 -103q0 -23 -10 -45.5 t-27.5 -41t-39 -30.5t-46.5 -12q-29 0 -54 14t-45.5 35.5t-32 49t-11.5 56.5zM975 154q0 18 9 32.5t20 32.5q18 33 42.5 44t61.5 11q61 0 97 -44t36 -103q0 -23 -10 -45.5t-27.5 -40.5t-39 -30.5t-46.5 -12.5q-29 0 -54.5 14.5t-46 36t-31.5 49t-11 56.5z" />
<glyph unicode="&#x202f;" horiz-adv-x="430" />
<glyph unicode="&#x2039;" horiz-adv-x="595" d="M111 532q0 7 6 13l344 321q2 2 6 2t11 -5t7 -13t-4 -10l-221 -312l213 -313q2 -2 2 -6q0 -16 -16 -16q-6 0 -8 2l-334 325q-6 6 -6 12z" />
<glyph unicode="&#x203a;" horiz-adv-x="595" d="M111 215q0 6 2 8l221 312l-213 315q-2 2 -2 6q0 16 18 16q4 0 6 -4l334 -323q8 -8 8 -15q0 -2 -8 -10l-342 -323q-2 -2 -6 -2q-6 0 -12 5t-6 15z" />
<glyph unicode="&#x205f;" horiz-adv-x="537" />
<glyph unicode="&#x20ac;" horiz-adv-x="1370" d="M63 956q0 16 11.5 34t25.5 18h72h57q2 57 8.5 103t14.5 75q10 41 23.5 83t25.5 70q16 43 47 89.5t69 88.5t80 76.5t83 53.5q33 16 73.5 29.5t78.5 22.5t68.5 13t43.5 4q92 0 171 -28.5t159 -59.5q20 -6 39.5 -17.5t35.5 -19.5q8 -35 12.5 -66.5t6.5 -72.5q0 -43 -4 -65.5 t-7 -61.5q-4 -47 -12 -88q-6 -10 -18 -10q-10 0 -23 6q-2 20 -5 34.5t-7 30.5q-10 29 -18.5 54.5t-18.5 50.5q-10 16 -19.5 40.5t-19.5 41.5q4 -8 -6 4t-25.5 30.5t-35 38t-33.5 25.5q-37 16 -79 26.5t-93 10.5q-25 0 -58.5 -9t-67.5 -24.5t-63.5 -36t-48.5 -41.5 q-57 -66 -94 -132t-53 -144q-4 -10 -9.5 -34.5t-5.5 -106.5q0 -12 -1 -40t-1 -44h697q10 -12 10 -33q0 -10 -7 -21.5t-30 -27.5h-674q-2 -16 -3 -31.5t-1 -30.5q0 -12 1 -22.5t1 -18.5h594q23 0 53 -6q8 -16 9 -33q0 -16 -8.5 -27.5t-28.5 -27.5h-629l6 -80q6 -86 29.5 -170 t52.5 -145q16 -39 47 -78t71 -70.5t86 -52t93 -20.5q33 0 55.5 1t44 7t47 18.5t64.5 34.5q51 29 87 58.5t60 64.5q12 20 24.5 38.5t25.5 39.5q6 12 26 12q10 0 14.5 -7t8.5 -22q-4 -20 -11.5 -35.5t-15.5 -31.5q-4 -8 -20.5 -37t-43 -63.5t-59.5 -67.5t-65 -51 q-20 -14 -52 -26.5t-67 -23t-69 -16.5t-58 -6q-43 0 -119 17.5t-149 58.5q-76 43 -130.5 103.5t-74.5 99.5q-27 49 -45.5 105t-38.5 130q-16 66 -24.5 124t-12.5 99h-131q-16 16 -16 33q0 12 7 24.5t27 28.5h119v19v41t2 45h-145q-12 16 -13 28z" />
<glyph unicode="&#x2122;" horiz-adv-x="2435" d="M31 1464q0 39 10 73t20 69q2 4 8.5 24.5t6.5 24.5q4 12 10 27.5t23 15.5q25 0 34 -20.5t27 -28.5q16 0 32.5 1t33.5 1l579 -9q12 0 25.5 10.5t28 23t27.5 22.5t28 10q18 0 28 -22q0 -10 2 -33t5.5 -48.5t5.5 -49t4 -31.5q0 -10 3 -18.5t3 -18.5q0 -18 -1 -32.5t-5 -35.5 q-2 -8 -15 -8q-27 16 -36 35.5t-19 46.5q-12 31 -35.5 49.5t-52.5 30.5q-25 12 -67 15t-70 3q-23 0 -36 -2t-28 -12q-16 -14 -21 -32.5t-5 -49.5q0 -33 -1 -92.5t-2 -131t-2 -146t-2.5 -139t-2.5 -111t-1 -58.5q0 -31 24 -37t50 -8q6 0 18.5 -1t26 -2t25.5 -1h16 q27 -8 27 -41q0 -16 -9.5 -24.5t-23.5 -18.5q-27 0 -49.5 4t-46.5 8q-41 4 -82 8.5t-80 4.5q-43 0 -88 -6.5t-90 -6.5q-16 0 -42 4t-26 27q0 10 4 19.5t13 13.5q6 0 24.5 1t38 2t37.5 2t25 3q10 0 25.5 2t23.5 12q4 10 7 26.5t3 27.5q8 199 9 371.5t1 334.5q-4 14 -10 23.5 t-16 19.5q-20 6 -41 7t-41 1q-25 0 -51.5 -2t-55.5 -6q-10 -2 -27.5 -7t-35.5 -22q-14 -10 -28.5 -30.5t-25.5 -36.5q-10 -16 -20 -41t-33 -25q-12 0 -15 13.5t-3 27.5zM977 727q0 8 10 18q0 4 16.5 7.5t38 7.5t42 11t26.5 20q2 4 3 14t7 14q4 4 7 22.5t3 22.5 q10 94 17.5 169t13.5 139.5t11.5 127t9.5 136.5q0 18 1 40.5t2 42t1 33.5v21q0 37 -19.5 46t-50.5 19q-8 4 -29.5 10.5t-29.5 10.5q-4 2 -7 8t-3 10q0 8 9 14.5t15 8.5h72q94 -6 188 -6q14 0 25.5 -10.5t18.5 -23.5t13.5 -28.5t10.5 -25.5q14 -31 35.5 -78t47 -101.5 t52.5 -113t50.5 -109.5t42 -91t26.5 -58q6 -14 19.5 -42t35.5 -28q4 0 15.5 16.5t15.5 22.5q25 51 65.5 139t85.5 179.5t84 171t58 114.5q10 16 16 35.5t23 30.5q4 4 11 7t11 3q78 4 123 6t70 2q6 0 20 -1t29.5 -3t27 -6t11.5 -10q0 -12 -7 -25q-4 -4 -16 -7t-16 -3 q-6 0 -18.5 -1t-28 -2t-27.5 -2t-18 -1q-10 -10 -18.5 -22.5t-8.5 -29.5q2 -135 3 -270t2 -246.5t1 -187.5v-88q2 -4 10.5 -14.5t10.5 -12.5q12 -12 35.5 -13t47 -3t41 -10.5t17.5 -36.5q0 -16 -12.5 -22.5t-26.5 -6.5q-45 0 -95 7t-100 7q-39 0 -76.5 -2t-76.5 -2h-58 q-12 0 -25 7.5t-13 21.5q0 27 19 35t46 10t53.5 1t42.5 7q2 55 4 138t3.5 176.5t1.5 187.5v172q-4 10 -8.5 27.5t-10.5 23.5q-16 -10 -20 -19t-11 -24q-35 -76 -70.5 -145.5t-73.5 -142t-80 -152.5t-91 -178q-8 -16 -12 -31.5t-11 -32.5q0 -6 -3 -18t-8 -23.5t-12 -20.5 t-15 -9q-10 0 -23.5 21.5t-17.5 31.5q-8 23 -12.5 46t-14.5 46q-16 39 -48 107.5t-67 140.5t-65.5 135t-42.5 94q-4 8 -18.5 39t-32 65.5t-29.5 62.5l-12 28h-7q-20 -12 -27 -41t-11 -51q0 -4 -1.5 -19.5t-1.5 -34.5q0 -18 -1 -34.5t-1 -20.5v-102t-1 -118t-1 -118v-100 q0 -23 2 -45.5t9 -44.5q2 -12 14 -18.5t20 -10.5q4 0 30 -2t30 -4q16 -2 38.5 -8t22.5 -29q0 -14 -20.5 -20.5t-28.5 -6.5h-244h-45t-37 4q-10 2 -17 9.5t-7 15.5z" />
<glyph unicode="&#x25fc;" horiz-adv-x="1157" d="M0 0v1157h1157v-1157h-1157z" />
</font>
</defs>
</svg>
